<svg width="1440" height="1180" viewBox="0 0 1440 1180" fill="none" xmlns="http://www.w3.org/2000/svg">
<g clip-path="url(#clip0_1042_20908)">
<g filter="url(#filter0_d_1042_20908)">
<circle cx="716.5" cy="707.5" r="363.5" fill="black" fill-opacity="0.17" shape-rendering="crispEdges"/>
<circle cx="716.5" cy="707.5" r="362.5" stroke="url(#paint0_linear_1042_20908)" stroke-opacity="0.44" stroke-width="2" shape-rendering="crispEdges"/>
</g>
<g filter="url(#filter1_di_1042_20908)">
<circle cx="716.5" cy="707.5" r="282.5" fill="black" fill-opacity="0.17" shape-rendering="crispEdges"/>
<circle cx="716.5" cy="707.5" r="281.5" stroke="url(#paint1_linear_1042_20908)" stroke-opacity="0.44" stroke-width="2" shape-rendering="crispEdges"/>
</g>
<g filter="url(#filter2_ii_1042_20908)">
<circle cx="716.5" cy="707.5" r="238.5" fill="#011D45"/>
</g>
<circle cx="716.5" cy="707.5" r="238" stroke="white" stroke-opacity="0.38"/>
<g filter="url(#filter3_bi_1042_20908)">
<path d="M1033.19 892.508L1152.67 966.608L720.938 218.836V348.883L1033.19 892.508Z" fill="white" fill-opacity="0.12"/>
<path d="M721.438 220.702L1151.24 965.134L1033.56 892.15L721.438 348.75V220.702Z" stroke="url(#paint2_linear_1042_20908)" stroke-opacity="0.25"/>
</g>
<g filter="url(#filter4_bi_1042_20908)">
<path d="M1152.67 966.6L1033.19 892.5L408.963 892.5L289.211 966.735L1152.81 966.735L1152.67 966.6Z" fill="white" fill-opacity="0.19"/>
<path d="M409.105 893L1033.05 893L1151.13 966.235L290.966 966.235L409.105 893Z" stroke="url(#paint3_linear_1042_20908)" stroke-opacity="0.5"/>
</g>
<g filter="url(#filter5_bi_1042_20908)">
<path d="M408.95 892.508L720.928 348.883V218.836L289.063 966.744H289.198L408.95 892.508Z" fill="#ADAFB1" fill-opacity="0.33"/>
<path d="M290.415 965.401L720.428 220.702V348.75L408.579 892.15L290.415 965.401Z" stroke="url(#paint4_linear_1042_20908)" stroke-opacity="0.72"/>
</g>
<g filter="url(#filter6_bi_1042_20908)">
<path d="M251 990.318L720.932 174V218.839L289.201 966.747L251 990.318Z" fill="url(#paint5_linear_1042_20908)" fill-opacity="0.5"/>
</g>
<g filter="url(#filter7_b_1042_20908)">
<path d="M1191 990.316L251 990.316L289.201 966.745L1152.66 966.609L1191 990.316Z" fill="#E2E2E2" fill-opacity="0.3"/>
</g>
<g filter="url(#filter8_b_1042_20908)">
<path d="M720.938 174L1191 990.318L1152.67 966.612L720.938 218.839V174Z" fill="#CECECE" fill-opacity="0.35"/>
</g>
<path d="M713.887 535.867L543.422 831.138L713.887 535.867Z" fill="#C1B49A"/>
<g filter="url(#filter9_d_1042_20908)">
<g filter="url(#filter10_di_1042_20908)">
<path d="M721 553.564L850.545 636.584L721 412V553.564Z" fill="#77D9FD"/>
</g>
<g filter="url(#filter11_bi_1042_20908)">
<path d="M720.512 553.047L591 635.98H850.089L720.512 553.047Z" fill="#78D9FC" fill-opacity="0.45"/>
</g>
<g filter="url(#filter12_d_1042_20908)">
<path d="M720.545 412L591 636.584L720.545 553.564V412Z" fill="#C1EDFF"/>
</g>
<path d="M716.806 618.32C711.942 618.32 708.39 615.408 708.39 609.936V594.64H712.742V610.192C712.742 612.496 714.47 614.288 716.774 614.288C719.046 614.288 720.87 612.496 720.87 610.192V594.64H725.222V609.936C725.222 615.408 721.638 618.32 716.806 618.32ZM728.051 618V594.64H732.403V618H728.051Z" fill="white"/>
</g>
<g filter="url(#filter13_d_1042_20908)">
<g filter="url(#filter14_d_1042_20908)">
<path d="M720.539 729.166L594.243 648.228L720.539 867.18L720.539 729.166Z" fill="#77D9FD"/>
</g>
<g filter="url(#filter15_bi_1042_20908)">
<path d="M720.736 729.672L847 648.819L594.408 648.819L720.736 729.672Z" fill="#7AB6D2"/>
</g>
<path d="M652.87 674L647.97 659.4H650.79L654.25 669.84L657.69 659.4H660.51L655.61 674H652.87ZM664.767 674.24C661.947 674.24 659.007 672 659.007 668.16C659.007 664.28 661.847 662.06 664.807 662.06C666.347 662.06 667.707 662.68 668.567 663.7V662.3H671.267V674H668.567V672.48C667.707 673.58 666.307 674.24 664.767 674.24ZM665.207 671.76C667.227 671.76 668.707 670.14 668.707 668.12C668.707 666.12 667.227 664.52 665.207 664.52C663.207 664.52 661.667 666.1 661.667 668.12C661.667 670.16 663.207 671.76 665.207 671.76ZM672.805 674V659.2H675.525V674H672.805ZM677.18 674V662.3H679.9V674H677.18ZM676.84 659.44C676.84 658.42 677.5 657.74 678.54 657.74C679.6 657.74 680.24 658.42 680.24 659.44C680.24 660.46 679.6 661.12 678.54 661.12C677.44 661.12 676.84 660.46 676.84 659.44ZM686.838 674.24C684.018 674.24 681.078 672 681.078 668.16C681.078 664.28 683.918 662.06 686.878 662.06C688.398 662.06 689.758 662.66 690.618 663.68V659.2H693.338V674H690.638V672.48C689.778 673.58 688.378 674.24 686.838 674.24ZM687.278 671.76C689.298 671.76 690.778 670.14 690.778 668.12C690.778 666.12 689.298 664.52 687.278 664.52C685.278 664.52 683.738 666.1 683.738 668.12C683.738 670.16 685.278 671.76 687.278 671.76ZM700.256 674.24C697.436 674.24 694.496 672 694.496 668.16C694.496 664.28 697.336 662.06 700.296 662.06C701.836 662.06 703.196 662.68 704.056 663.7V662.3H706.756V674H704.056V672.48C703.196 673.58 701.796 674.24 700.256 674.24ZM700.696 671.76C702.716 671.76 704.196 670.14 704.196 668.12C704.196 666.12 702.716 664.52 700.696 664.52C698.696 664.52 697.156 666.1 697.156 668.12C697.156 670.16 698.696 671.76 700.696 671.76ZM707.874 664.72V662.3H709.874V660.52L712.594 658.66V662.3H714.974V664.72H712.594V669.1C712.594 671.14 712.894 671.46 714.974 671.46V674H714.594C710.974 674 709.874 672.84 709.874 669.12V664.72H707.874ZM716.282 674V662.3H719.002V674H716.282ZM715.942 659.44C715.942 658.42 716.602 657.74 717.642 657.74C718.702 657.74 719.342 658.42 719.342 659.44C719.342 660.46 718.702 661.12 717.642 661.12C716.542 661.12 715.942 660.46 715.942 659.44ZM726.239 674.24C722.859 674.24 720.179 671.52 720.179 668.16C720.179 664.74 722.859 662.06 726.239 662.06C729.599 662.06 732.299 664.74 732.299 668.16C732.299 671.52 729.599 674.24 726.239 674.24ZM726.239 671.7C728.159 671.7 729.639 670.1 729.639 668.16C729.639 666.18 728.159 664.6 726.239 664.6C724.299 664.6 722.839 666.18 722.839 668.16C722.839 670.1 724.299 671.7 726.239 671.7ZM733.489 674V662.3H736.169V663.74C736.949 662.72 738.149 662.06 739.669 662.06C742.609 662.06 744.309 663.88 744.309 667.06V674H741.569V667.34C741.569 665.52 740.689 664.4 738.929 664.4C737.389 664.4 736.189 665.52 736.189 667.58V674H733.489ZM755.196 674L760.396 659.4H763.136L768.336 674H765.496L764.596 671.4H758.936L758.036 674H755.196ZM761.776 663.26L759.856 668.8H763.696L761.776 663.26ZM769.309 674V662.3H771.989V663.74C772.769 662.72 773.969 662.06 775.489 662.06C778.429 662.06 780.129 663.88 780.129 667.06V674H777.389V667.34C777.389 665.52 776.509 664.4 774.749 664.4C773.209 664.4 772.009 665.52 772.009 667.58V674H769.309ZM787.072 674.24C784.252 674.24 781.312 672 781.312 668.16C781.312 664.28 784.152 662.06 787.112 662.06C788.632 662.06 789.992 662.66 790.852 663.68V659.2H793.572V674H790.872V672.48C790.012 673.58 788.612 674.24 787.072 674.24ZM787.512 671.76C789.532 671.76 791.012 670.14 791.012 668.12C791.012 666.12 789.532 664.52 787.512 664.52C785.512 664.52 783.972 666.1 783.972 668.12C783.972 670.16 785.512 671.76 787.512 671.76ZM670.155 699L665.255 684.4H668.075L671.535 694.84L674.975 684.4H677.795L672.895 699H670.155ZM682.473 699.24C678.793 699.24 676.293 696.56 676.293 693.18C676.293 689.76 678.953 687.06 682.373 687.06C685.853 687.06 688.393 689.62 688.393 693.08V694.1H678.873C679.253 695.76 680.553 696.86 682.473 696.86C683.993 696.86 685.153 696.06 685.713 694.8L687.933 696.08C686.913 697.98 685.113 699.24 682.473 699.24ZM682.373 689.44C680.753 689.44 679.493 690.4 679.013 691.84H685.653C685.253 690.26 684.053 689.44 682.373 689.44ZM689.602 699V687.3H692.282V689.04C692.822 687.88 693.822 687.3 695.282 687.3C696.142 687.3 696.802 687.5 697.342 687.8L696.322 690.36C695.922 690.1 695.482 689.9 694.702 689.9C693.122 689.9 692.302 690.74 692.302 692.76V699H689.602ZM698.216 699V687.3H700.936V699H698.216ZM697.876 684.44C697.876 683.42 698.536 682.74 699.576 682.74C700.636 682.74 701.276 683.42 701.276 684.44C701.276 685.46 700.636 686.12 699.576 686.12C698.476 686.12 697.876 685.46 697.876 684.44ZM702.053 689.72V687.3H704.033V687.28C704.033 683.92 705.373 682.6 708.933 682.6H709.173V685.1C707.013 685.1 706.773 685.6 706.773 687.3H709.173V689.72H706.773V699H704.033V689.72H702.053ZM710.305 699V687.3H713.025V699H710.305ZM709.965 684.44C709.965 683.42 710.625 682.74 711.665 682.74C712.725 682.74 713.365 683.42 713.365 684.44C713.365 685.46 712.725 686.12 711.665 686.12C710.565 686.12 709.965 685.46 709.965 684.44ZM720.283 699.24C716.863 699.24 714.203 696.52 714.203 693.16C714.203 689.74 716.863 687.06 720.283 687.06C722.903 687.06 724.963 688.56 725.863 690.68L723.443 691.7C722.903 690.42 721.743 689.6 720.303 689.6C718.323 689.6 716.843 691.18 716.843 693.16C716.843 695.1 718.323 696.7 720.323 696.7C721.843 696.7 722.943 695.8 723.483 694.52L725.903 695.56C724.983 697.72 723.003 699.24 720.283 699.24ZM732.209 699.24C729.389 699.24 726.449 697 726.449 693.16C726.449 689.28 729.289 687.06 732.249 687.06C733.789 687.06 735.149 687.68 736.009 688.7V687.3H738.709V699H736.009V697.48C735.149 698.58 733.749 699.24 732.209 699.24ZM732.649 696.76C734.669 696.76 736.149 695.14 736.149 693.12C736.149 691.12 734.669 689.52 732.649 689.52C730.649 689.52 729.109 691.1 729.109 693.12C729.109 695.16 730.649 696.76 732.649 696.76ZM739.827 689.72V687.3H741.827V685.52L744.547 683.66V687.3H746.927V689.72H744.547V694.1C744.547 696.14 744.847 696.46 746.927 696.46V699H746.547C742.927 699 741.827 697.84 741.827 694.12V689.72H739.827ZM748.235 699V687.3H750.955V699H748.235ZM747.895 684.44C747.895 683.42 748.555 682.74 749.595 682.74C750.655 682.74 751.295 683.42 751.295 684.44C751.295 685.46 750.655 686.12 749.595 686.12C748.495 686.12 747.895 685.46 747.895 684.44ZM758.192 699.24C754.812 699.24 752.132 696.52 752.132 693.16C752.132 689.74 754.812 687.06 758.192 687.06C761.552 687.06 764.252 689.74 764.252 693.16C764.252 696.52 761.552 699.24 758.192 699.24ZM758.192 696.7C760.112 696.7 761.592 695.1 761.592 693.16C761.592 691.18 760.112 689.6 758.192 689.6C756.252 689.6 754.792 691.18 754.792 693.16C754.792 695.1 756.252 696.7 758.192 696.7ZM765.442 699V687.3H768.122V688.74C768.902 687.72 770.102 687.06 771.622 687.06C774.562 687.06 776.262 688.88 776.262 692.06V699H773.522V692.34C773.522 690.52 772.642 689.4 770.882 689.4C769.342 689.4 768.142 690.52 768.142 692.58V699H765.442Z" fill="white"/>
<g filter="url(#filter16_d_1042_20908)">
<path d="M720.54 867.18L846.836 648.228L720.54 729.166L720.54 867.18Z" fill="#C1EDFF"/>
</g>
</g>
<g filter="url(#filter17_bi_1042_20908)">
<path d="M870 641L1003.37 872H736.632L870 641Z" fill="#2496BE"/>
<path d="M737.498 871.5L870 642L1002.5 871.5H737.498Z" stroke="url(#paint6_linear_1042_20908)"/>
</g>
<g filter="url(#filter18_bi_1042_20908)">
<path d="M567 643L700.368 874H433.632L567 643Z" fill="url(#paint7_linear_1042_20908)"/>
<path d="M434.498 873.5L567 644L699.502 873.5H434.498Z" stroke="url(#paint8_linear_1042_20908)"/>
</g>
<path d="M822.85 789L818.99 781.98L817.41 783.94V789H814.69V774.4H817.41V780.38L822.23 774.4H825.53L820.91 780.08L825.95 789H822.85ZM826.602 789V777.3H829.282V778.74C830.062 777.72 831.262 777.06 832.782 777.06C835.722 777.06 837.422 778.88 837.422 782.06V789H834.682V782.34C834.682 780.52 833.802 779.4 832.042 779.4C830.502 779.4 829.302 780.52 829.302 782.58V789H826.602ZM844.665 789.24C841.285 789.24 838.605 786.52 838.605 783.16C838.605 779.74 841.285 777.06 844.665 777.06C848.025 777.06 850.725 779.74 850.725 783.16C850.725 786.52 848.025 789.24 844.665 789.24ZM844.665 786.7C846.585 786.7 848.065 785.1 848.065 783.16C848.065 781.18 846.585 779.6 844.665 779.6C842.725 779.6 841.265 781.18 841.265 783.16C841.265 785.1 842.725 786.7 844.665 786.7ZM854.496 789L850.596 777.3H853.356L855.936 785.36L858.876 777.3H861.556L864.436 785.38L867.116 777.3H869.856L865.756 789H863.156L860.196 780.9L857.156 789H854.496ZM870.919 789V774.2H873.639V789H870.919ZM880.996 789.24C877.316 789.24 874.816 786.56 874.816 783.18C874.816 779.76 877.476 777.06 880.896 777.06C884.376 777.06 886.916 779.62 886.916 783.08V784.1H877.396C877.776 785.76 879.076 786.86 880.996 786.86C882.516 786.86 883.676 786.06 884.236 784.8L886.456 786.08C885.436 787.98 883.636 789.24 880.996 789.24ZM880.896 779.44C879.276 779.44 878.016 780.4 877.536 781.84H884.176C883.776 780.26 882.576 779.44 880.896 779.44ZM893.506 789.24C890.686 789.24 887.746 787 887.746 783.16C887.746 779.28 890.586 777.06 893.546 777.06C895.066 777.06 896.426 777.66 897.286 778.68V774.2H900.006V789H897.306V787.48C896.446 788.58 895.046 789.24 893.506 789.24ZM893.946 786.76C895.966 786.76 897.446 785.14 897.446 783.12C897.446 781.12 895.966 779.52 893.946 779.52C891.946 779.52 890.406 781.1 890.406 783.12C890.406 785.16 891.946 786.76 893.946 786.76ZM910.744 788.8V787.44C909.884 788.56 908.504 789.24 906.924 789.24C904.104 789.24 901.164 787 901.164 783.16C901.164 779.28 904.004 777.06 906.964 777.06C908.504 777.06 909.864 777.74 910.724 778.8V777.3H913.424V788.7C913.424 791.98 911.324 794.66 907.384 794.66C904.344 794.66 902.444 793.24 901.384 791.3L903.784 789.84C904.644 791.42 905.564 792.18 907.424 792.18C909.464 792.18 910.744 790.58 910.744 788.8ZM907.364 786.76C909.384 786.76 910.864 785.14 910.864 783.12C910.864 781.12 909.384 779.52 907.364 779.52C905.364 779.52 903.824 781.1 903.824 783.12C903.824 785.16 905.364 786.76 907.364 786.76ZM920.801 789.24C917.121 789.24 914.621 786.56 914.621 783.18C914.621 779.76 917.281 777.06 920.701 777.06C924.181 777.06 926.721 779.62 926.721 783.08V784.1H917.201C917.581 785.76 918.881 786.86 920.801 786.86C922.321 786.86 923.481 786.06 924.041 784.8L926.261 786.08C925.241 787.98 923.441 789.24 920.801 789.24ZM920.701 779.44C919.081 779.44 917.821 780.4 917.341 781.84H923.981C923.581 780.26 922.381 779.44 920.701 779.44ZM847.258 814V799.4H851.858C855.118 799.4 856.938 800.78 856.938 803.48C856.938 804.74 856.398 805.7 855.338 806.32C856.698 806.94 857.458 808.06 857.458 809.68C857.458 812.56 855.438 814 852.218 814H847.258ZM852.098 807.76H849.978V811.5H852.218C853.878 811.5 854.718 810.82 854.718 809.62C854.718 808.42 854.118 807.76 852.098 807.76ZM851.858 801.9H849.978V805.22H851.858C853.598 805.22 854.198 804.52 854.198 803.48C854.198 802.38 853.538 801.9 851.858 801.9ZM864.043 814.24C861.223 814.24 858.283 812 858.283 808.16C858.283 804.28 861.123 802.06 864.083 802.06C865.623 802.06 866.983 802.68 867.843 803.7V802.3H870.543V814H867.843V812.48C866.983 813.58 865.583 814.24 864.043 814.24ZM864.483 811.76C866.503 811.76 867.983 810.14 867.983 808.12C867.983 806.12 866.503 804.52 864.483 804.52C862.483 804.52 860.943 806.1 860.943 808.12C860.943 810.16 862.483 811.76 864.483 811.76ZM876.481 814.24C873.861 814.24 872.221 813.24 871.281 811.4L873.781 810.2C874.341 811.3 875.321 811.9 876.601 811.9C877.941 811.9 878.601 811.26 878.601 810.48C878.601 809.62 877.301 809.46 875.861 809.14C873.861 808.72 871.761 808.08 871.761 805.62C871.761 803.74 873.581 802.04 876.361 802.04C878.741 802.04 880.241 802.96 881.141 804.46L878.841 805.62C878.361 804.8 877.481 804.28 876.361 804.28C875.081 804.28 874.481 804.88 874.481 805.54C874.481 806.32 875.401 806.52 877.161 806.9C879.081 807.28 881.281 807.96 881.281 810.42C881.281 812.06 879.821 814.24 876.481 814.24ZM888.232 814.24C884.552 814.24 882.052 811.56 882.052 808.18C882.052 804.76 884.712 802.06 888.132 802.06C891.612 802.06 894.152 804.62 894.152 808.08V809.1H884.632C885.012 810.76 886.312 811.86 888.232 811.86C889.752 811.86 890.912 811.06 891.472 809.8L893.692 811.08C892.672 812.98 890.872 814.24 888.232 814.24ZM888.132 804.44C886.512 804.44 885.252 805.4 884.772 806.84H891.412C891.012 805.26 889.812 804.44 888.132 804.44Z" fill="white"/>
<path d="M509.756 778V763.4H518.416V766H512.476V769.36H518.416V771.96H512.476V775.4H518.416V778H509.756ZM519.872 778V766.3H522.552V767.74C523.332 766.72 524.532 766.06 526.052 766.06C528.992 766.06 530.692 767.88 530.692 771.06V778H527.952V771.34C527.952 769.52 527.072 768.4 525.312 768.4C523.772 768.4 522.572 769.52 522.572 771.58V778H519.872ZM541.455 777.8V776.44C540.595 777.56 539.215 778.24 537.635 778.24C534.815 778.24 531.875 776 531.875 772.16C531.875 768.28 534.715 766.06 537.675 766.06C539.215 766.06 540.575 766.74 541.435 767.8V766.3H544.135V777.7C544.135 780.98 542.035 783.66 538.095 783.66C535.055 783.66 533.155 782.24 532.095 780.3L534.495 778.84C535.355 780.42 536.275 781.18 538.135 781.18C540.175 781.18 541.455 779.58 541.455 777.8ZM538.075 775.76C540.095 775.76 541.575 774.14 541.575 772.12C541.575 770.12 540.095 768.52 538.075 768.52C536.075 768.52 534.535 770.1 534.535 772.12C534.535 774.16 536.075 775.76 538.075 775.76ZM545.614 778V766.3H548.334V778H545.614ZM545.274 763.44C545.274 762.42 545.934 761.74 546.974 761.74C548.034 761.74 548.674 762.42 548.674 763.44C548.674 764.46 548.034 765.12 546.974 765.12C545.874 765.12 545.274 764.46 545.274 763.44ZM549.891 778V766.3H552.571V767.74C553.351 766.72 554.551 766.06 556.071 766.06C559.011 766.06 560.711 767.88 560.711 771.06V778H557.971V771.34C557.971 769.52 557.091 768.4 555.331 768.4C553.791 768.4 552.591 769.52 552.591 771.58V778H549.891ZM568.074 778.24C564.394 778.24 561.894 775.56 561.894 772.18C561.894 768.76 564.554 766.06 567.974 766.06C571.454 766.06 573.994 768.62 573.994 772.08V773.1H564.474C564.854 774.76 566.154 775.86 568.074 775.86C569.594 775.86 570.754 775.06 571.314 773.8L573.534 775.08C572.514 776.98 570.714 778.24 568.074 778.24ZM567.974 768.44C566.354 768.44 565.094 769.4 564.614 770.84H571.254C570.854 769.26 569.654 768.44 567.974 768.44ZM581.004 778.24C577.324 778.24 574.824 775.56 574.824 772.18C574.824 768.76 577.484 766.06 580.904 766.06C584.384 766.06 586.924 768.62 586.924 772.08V773.1H577.404C577.784 774.76 579.084 775.86 581.004 775.86C582.524 775.86 583.684 775.06 584.244 773.8L586.464 775.08C585.444 776.98 583.644 778.24 581.004 778.24ZM580.904 768.44C579.284 768.44 578.024 769.4 577.544 770.84H584.184C583.784 769.26 582.584 768.44 580.904 768.44ZM588.134 778V766.3H590.814V768.04C591.354 766.88 592.354 766.3 593.814 766.3C594.674 766.3 595.334 766.5 595.874 766.8L594.854 769.36C594.454 769.1 594.014 768.9 593.234 768.9C591.654 768.9 590.834 769.74 590.834 771.76V778H588.134ZM596.747 778V766.3H599.467V778H596.747ZM596.407 763.44C596.407 762.42 597.067 761.74 598.107 761.74C599.167 761.74 599.807 762.42 599.807 763.44C599.807 764.46 599.167 765.12 598.107 765.12C597.007 765.12 596.407 764.46 596.407 763.44ZM601.024 778V766.3H603.704V767.74C604.484 766.72 605.684 766.06 607.204 766.06C610.144 766.06 611.844 767.88 611.844 771.06V778H609.104V771.34C609.104 769.52 608.224 768.4 606.464 768.4C604.924 768.4 603.724 769.52 603.724 771.58V778H601.024ZM622.607 777.8V776.44C621.747 777.56 620.367 778.24 618.787 778.24C615.967 778.24 613.027 776 613.027 772.16C613.027 768.28 615.867 766.06 618.827 766.06C620.367 766.06 621.727 766.74 622.587 767.8V766.3H625.287V777.7C625.287 780.98 623.187 783.66 619.247 783.66C616.207 783.66 614.307 782.24 613.247 780.3L615.647 778.84C616.507 780.42 617.427 781.18 619.287 781.18C621.327 781.18 622.607 779.58 622.607 777.8ZM619.227 775.76C621.247 775.76 622.727 774.14 622.727 772.12C622.727 770.12 621.247 768.52 619.227 768.52C617.227 768.52 615.687 770.1 615.687 772.12C615.687 774.16 617.227 775.76 619.227 775.76ZM519.605 803H516.885V788.4H521.565C525.005 788.4 527.025 790.46 527.025 793.48C527.025 795.24 526.165 796.88 524.565 797.74L527.485 803H524.385L522.045 798.54H519.605V803ZM519.605 796.04H521.325C523.565 796.04 524.305 794.82 524.305 793.38C524.305 791.88 523.405 790.94 521.325 790.94H519.605V796.04ZM533.406 803.24C529.726 803.24 527.226 800.56 527.226 797.18C527.226 793.76 529.886 791.06 533.306 791.06C536.786 791.06 539.326 793.62 539.326 797.08V798.1H529.806C530.186 799.76 531.486 800.86 533.406 800.86C534.926 800.86 536.086 800.06 536.646 798.8L538.866 800.08C537.846 801.98 536.046 803.24 533.406 803.24ZM533.306 793.44C531.686 793.44 530.426 794.4 529.946 795.84H536.586C536.186 794.26 534.986 793.44 533.306 793.44ZM545.916 803.24C543.096 803.24 540.156 801 540.156 797.16C540.156 793.28 542.996 791.06 545.956 791.06C547.496 791.06 548.856 791.68 549.716 792.7V791.3H552.416V803H549.716V801.48C548.856 802.58 547.456 803.24 545.916 803.24ZM546.356 800.76C548.376 800.76 549.856 799.14 549.856 797.12C549.856 795.12 548.376 793.52 546.356 793.52C544.356 793.52 542.816 795.1 542.816 797.12C542.816 799.16 544.356 800.76 546.356 800.76ZM558.354 803.24C555.734 803.24 554.094 802.24 553.154 800.4L555.654 799.2C556.214 800.3 557.194 800.9 558.474 800.9C559.814 800.9 560.474 800.26 560.474 799.48C560.474 798.62 559.174 798.46 557.734 798.14C555.734 797.72 553.634 797.08 553.634 794.62C553.634 792.74 555.454 791.04 558.234 791.04C560.614 791.04 562.114 791.96 563.014 793.46L560.714 794.62C560.234 793.8 559.354 793.28 558.234 793.28C556.954 793.28 556.354 793.88 556.354 794.54C556.354 795.32 557.274 795.52 559.034 795.9C560.954 796.28 563.154 796.96 563.154 799.42C563.154 801.06 561.694 803.24 558.354 803.24ZM569.985 803.24C566.605 803.24 563.925 800.52 563.925 797.16C563.925 793.74 566.605 791.06 569.985 791.06C573.345 791.06 576.045 793.74 576.045 797.16C576.045 800.52 573.345 803.24 569.985 803.24ZM569.985 800.7C571.905 800.7 573.385 799.1 573.385 797.16C573.385 795.18 571.905 793.6 569.985 793.6C568.045 793.6 566.585 795.18 566.585 797.16C566.585 799.1 568.045 800.7 569.985 800.7ZM577.235 803V791.3H579.915V792.74C580.695 791.72 581.895 791.06 583.415 791.06C586.355 791.06 588.055 792.88 588.055 796.06V803H585.315V796.34C585.315 794.52 584.435 793.4 582.675 793.4C581.135 793.4 579.935 794.52 579.935 796.58V803H577.235ZM589.618 803V791.3H592.338V803H589.618ZM589.278 788.44C589.278 787.42 589.938 786.74 590.978 786.74C592.038 786.74 592.678 787.42 592.678 788.44C592.678 789.46 592.038 790.12 590.978 790.12C589.878 790.12 589.278 789.46 589.278 788.44ZM593.895 803V791.3H596.575V792.74C597.355 791.72 598.555 791.06 600.075 791.06C603.015 791.06 604.715 792.88 604.715 796.06V803H601.975V796.34C601.975 794.52 601.095 793.4 599.335 793.4C597.795 793.4 596.595 794.52 596.595 796.58V803H593.895ZM615.478 802.8V801.44C614.618 802.56 613.238 803.24 611.658 803.24C608.838 803.24 605.898 801 605.898 797.16C605.898 793.28 608.738 791.06 611.698 791.06C613.238 791.06 614.598 791.74 615.458 792.8V791.3H618.158V802.7C618.158 805.98 616.058 808.66 612.118 808.66C609.078 808.66 607.178 807.24 606.118 805.3L608.518 803.84C609.378 805.42 610.298 806.18 612.158 806.18C614.198 806.18 615.478 804.58 615.478 802.8ZM612.098 800.76C614.118 800.76 615.598 799.14 615.598 797.12C615.598 795.12 614.118 793.52 612.098 793.52C610.098 793.52 608.558 795.1 608.558 797.12C608.558 799.16 610.098 800.76 612.098 800.76ZM535.586 828V813.4H544.246V816H538.306V819.36H544.246V821.96H538.306V825.4H544.246V828H535.586ZM545.702 828V816.3H548.382V817.74C549.162 816.72 550.362 816.06 551.882 816.06C554.822 816.06 556.522 817.88 556.522 821.06V828H553.782V821.34C553.782 819.52 552.902 818.4 551.142 818.4C549.602 818.4 548.402 819.52 548.402 821.58V828H545.702ZM567.285 827.8V826.44C566.425 827.56 565.045 828.24 563.465 828.24C560.645 828.24 557.705 826 557.705 822.16C557.705 818.28 560.545 816.06 563.505 816.06C565.045 816.06 566.405 816.74 567.265 817.8V816.3H569.965V827.7C569.965 830.98 567.865 833.66 563.925 833.66C560.885 833.66 558.985 832.24 557.925 830.3L560.325 828.84C561.185 830.42 562.105 831.18 563.965 831.18C566.005 831.18 567.285 829.58 567.285 827.8ZM563.905 825.76C565.925 825.76 567.405 824.14 567.405 822.12C567.405 820.12 565.925 818.52 563.905 818.52C561.905 818.52 560.365 820.1 560.365 822.12C560.365 824.16 561.905 825.76 563.905 825.76ZM571.444 828V816.3H574.164V828H571.444ZM571.104 813.44C571.104 812.42 571.764 811.74 572.804 811.74C573.864 811.74 574.504 812.42 574.504 813.44C574.504 814.46 573.864 815.12 572.804 815.12C571.704 815.12 571.104 814.46 571.104 813.44ZM575.721 828V816.3H578.401V817.74C579.181 816.72 580.381 816.06 581.901 816.06C584.841 816.06 586.541 817.88 586.541 821.06V828H583.801V821.34C583.801 819.52 582.921 818.4 581.161 818.4C579.621 818.4 578.421 819.52 578.421 821.58V828H575.721ZM593.904 828.24C590.224 828.24 587.724 825.56 587.724 822.18C587.724 818.76 590.384 816.06 593.804 816.06C597.284 816.06 599.824 818.62 599.824 822.08V823.1H590.304C590.684 824.76 591.984 825.86 593.904 825.86C595.424 825.86 596.584 825.06 597.144 823.8L599.364 825.08C598.344 826.98 596.544 828.24 593.904 828.24ZM593.804 818.44C592.184 818.44 590.924 819.4 590.444 820.84H597.084C596.684 819.26 595.484 818.44 593.804 818.44Z" fill="white"/>
</g>
<defs>
<filter id="filter0_d_1042_20908" x="261" y="256" width="911" height="911" filterUnits="userSpaceOnUse" color-interpolation-filters="sRGB">
<feFlood flood-opacity="0" result="BackgroundImageFix"/>
<feColorMatrix in="SourceAlpha" type="matrix" values="0 0 0 0 0 0 0 0 0 0 0 0 0 0 0 0 0 0 127 0" result="hardAlpha"/>
<feOffset dy="4"/>
<feGaussianBlur stdDeviation="46"/>
<feComposite in2="hardAlpha" operator="out"/>
<feColorMatrix type="matrix" values="0 0 0 0 0 0 0 0 0 0 0 0 0 0 0 0 0 0 1 0"/>
<feBlend mode="normal" in2="BackgroundImageFix" result="effect1_dropShadow_1042_20908"/>
<feBlend mode="normal" in="SourceGraphic" in2="effect1_dropShadow_1042_20908" result="shape"/>
</filter>
<filter id="filter1_di_1042_20908" x="342" y="337" width="749" height="749" filterUnits="userSpaceOnUse" color-interpolation-filters="sRGB">
<feFlood flood-opacity="0" result="BackgroundImageFix"/>
<feColorMatrix in="SourceAlpha" type="matrix" values="0 0 0 0 0 0 0 0 0 0 0 0 0 0 0 0 0 0 127 0" result="hardAlpha"/>
<feOffset dy="4"/>
<feGaussianBlur stdDeviation="46"/>
<feComposite in2="hardAlpha" operator="out"/>
<feColorMatrix type="matrix" values="0 0 0 0 0 0 0 0 0 0 0 0 0 0 0 0 0 0 1 0"/>
<feBlend mode="normal" in2="BackgroundImageFix" result="effect1_dropShadow_1042_20908"/>
<feBlend mode="normal" in="SourceGraphic" in2="effect1_dropShadow_1042_20908" result="shape"/>
<feColorMatrix in="SourceAlpha" type="matrix" values="0 0 0 0 0 0 0 0 0 0 0 0 0 0 0 0 0 0 127 0" result="hardAlpha"/>
<feOffset dy="4"/>
<feGaussianBlur stdDeviation="26.85"/>
<feComposite in2="hardAlpha" operator="arithmetic" k2="-1" k3="1"/>
<feColorMatrix type="matrix" values="0 0 0 0 0.156863 0 0 0 0 0.443137 0 0 0 0 0.619608 0 0 0 1 0"/>
<feBlend mode="normal" in2="shape" result="effect2_innerShadow_1042_20908"/>
</filter>
<filter id="filter2_ii_1042_20908" x="478" y="469" width="477" height="481" filterUnits="userSpaceOnUse" color-interpolation-filters="sRGB">
<feFlood flood-opacity="0" result="BackgroundImageFix"/>
<feBlend mode="normal" in="SourceGraphic" in2="BackgroundImageFix" result="shape"/>
<feColorMatrix in="SourceAlpha" type="matrix" values="0 0 0 0 0 0 0 0 0 0 0 0 0 0 0 0 0 0 127 0" result="hardAlpha"/>
<feOffset dy="4"/>
<feGaussianBlur stdDeviation="3.1"/>
<feComposite in2="hardAlpha" operator="arithmetic" k2="-1" k3="1"/>
<feColorMatrix type="matrix" values="0 0 0 0 0 0 0 0 0 0 0 0 0 0 0 0 0 0 0.25 0"/>
<feBlend mode="normal" in2="shape" result="effect1_innerShadow_1042_20908"/>
<feColorMatrix in="SourceAlpha" type="matrix" values="0 0 0 0 0 0 0 0 0 0 0 0 0 0 0 0 0 0 127 0" result="hardAlpha"/>
<feOffset dy="4"/>
<feGaussianBlur stdDeviation="21.4"/>
<feComposite in2="hardAlpha" operator="arithmetic" k2="-1" k3="1"/>
<feColorMatrix type="matrix" values="0 0 0 0 0 0 0 0 0 0 0 0 0 0 0 0 0 0 0.25 0"/>
<feBlend mode="normal" in2="effect1_innerShadow_1042_20908" result="effect2_innerShadow_1042_20908"/>
</filter>
<filter id="filter3_bi_1042_20908" x="655.238" y="153.136" width="563.127" height="879.173" filterUnits="userSpaceOnUse" color-interpolation-filters="sRGB">
<feFlood flood-opacity="0" result="BackgroundImageFix"/>
<feGaussianBlur in="BackgroundImageFix" stdDeviation="32.85"/>
<feComposite in2="SourceAlpha" operator="in" result="effect1_backgroundBlur_1042_20908"/>
<feBlend mode="normal" in="SourceGraphic" in2="effect1_backgroundBlur_1042_20908" result="shape"/>
<feColorMatrix in="SourceAlpha" type="matrix" values="0 0 0 0 0 0 0 0 0 0 0 0 0 0 0 0 0 0 127 0" result="hardAlpha"/>
<feOffset dy="4"/>
<feGaussianBlur stdDeviation="19.4"/>
<feComposite in2="hardAlpha" operator="arithmetic" k2="-1" k3="1"/>
<feColorMatrix type="matrix" values="0 0 0 0 1 0 0 0 0 1 0 0 0 0 1 0 0 0 0.47 0"/>
<feBlend mode="normal" in2="shape" result="effect2_innerShadow_1042_20908"/>
</filter>
<filter id="filter4_bi_1042_20908" x="262.411" y="865.7" width="917.194" height="127.834" filterUnits="userSpaceOnUse" color-interpolation-filters="sRGB">
<feFlood flood-opacity="0" result="BackgroundImageFix"/>
<feGaussianBlur in="BackgroundImageFix" stdDeviation="13.4"/>
<feComposite in2="SourceAlpha" operator="in" result="effect1_backgroundBlur_1042_20908"/>
<feBlend mode="normal" in="SourceGraphic" in2="effect1_backgroundBlur_1042_20908" result="shape"/>
<feColorMatrix in="SourceAlpha" type="matrix" values="0 0 0 0 0 0 0 0 0 0 0 0 0 0 0 0 0 0 127 0" result="hardAlpha"/>
<feOffset dy="4"/>
<feGaussianBlur stdDeviation="12.8"/>
<feComposite in2="hardAlpha" operator="arithmetic" k2="-1" k3="1"/>
<feColorMatrix type="matrix" values="0 0 0 0 1 0 0 0 0 1 0 0 0 0 1 0 0 0 0.25 0"/>
<feBlend mode="normal" in2="shape" result="effect2_innerShadow_1042_20908"/>
</filter>
<filter id="filter5_bi_1042_20908" x="223.363" y="153.136" width="563.267" height="879.306" filterUnits="userSpaceOnUse" color-interpolation-filters="sRGB">
<feFlood flood-opacity="0" result="BackgroundImageFix"/>
<feGaussianBlur in="BackgroundImageFix" stdDeviation="32.85"/>
<feComposite in2="SourceAlpha" operator="in" result="effect1_backgroundBlur_1042_20908"/>
<feBlend mode="normal" in="SourceGraphic" in2="effect1_backgroundBlur_1042_20908" result="shape"/>
<feColorMatrix in="SourceAlpha" type="matrix" values="0 0 0 0 0 0 0 0 0 0 0 0 0 0 0 0 0 0 127 0" result="hardAlpha"/>
<feOffset dy="4"/>
<feGaussianBlur stdDeviation="19.4"/>
<feComposite in2="hardAlpha" operator="arithmetic" k2="-1" k3="1"/>
<feColorMatrix type="matrix" values="0 0 0 0 1 0 0 0 0 1 0 0 0 0 1 0 0 0 0.47 0"/>
<feBlend mode="normal" in2="shape" result="effect2_innerShadow_1042_20908"/>
</filter>
<filter id="filter6_bi_1042_20908" x="205.5" y="128.5" width="560.93" height="907.32" filterUnits="userSpaceOnUse" color-interpolation-filters="sRGB">
<feFlood flood-opacity="0" result="BackgroundImageFix"/>
<feGaussianBlur in="BackgroundImageFix" stdDeviation="22.75"/>
<feComposite in2="SourceAlpha" operator="in" result="effect1_backgroundBlur_1042_20908"/>
<feBlend mode="normal" in="SourceGraphic" in2="effect1_backgroundBlur_1042_20908" result="shape"/>
<feColorMatrix in="SourceAlpha" type="matrix" values="0 0 0 0 0 0 0 0 0 0 0 0 0 0 0 0 0 0 127 0" result="hardAlpha"/>
<feOffset dy="4"/>
<feGaussianBlur stdDeviation="6.4"/>
<feComposite in2="hardAlpha" operator="arithmetic" k2="-1" k3="1"/>
<feColorMatrix type="matrix" values="0 0 0 0 1 0 0 0 0 1 0 0 0 0 1 0 0 0 0.25 0"/>
<feBlend mode="normal" in2="shape" result="effect2_innerShadow_1042_20908"/>
</filter>
<filter id="filter7_b_1042_20908" x="229.3" y="944.909" width="983.4" height="67.1031" filterUnits="userSpaceOnUse" color-interpolation-filters="sRGB">
<feFlood flood-opacity="0" result="BackgroundImageFix"/>
<feGaussianBlur in="BackgroundImageFix" stdDeviation="10.85"/>
<feComposite in2="SourceAlpha" operator="in" result="effect1_backgroundBlur_1042_20908"/>
<feBlend mode="normal" in="SourceGraphic" in2="effect1_backgroundBlur_1042_20908" result="shape"/>
</filter>
<filter id="filter8_b_1042_20908" x="670.438" y="123.5" width="571.07" height="917.32" filterUnits="userSpaceOnUse" color-interpolation-filters="sRGB">
<feFlood flood-opacity="0" result="BackgroundImageFix"/>
<feGaussianBlur in="BackgroundImageFix" stdDeviation="25.25"/>
<feComposite in2="SourceAlpha" operator="in" result="effect1_backgroundBlur_1042_20908"/>
<feBlend mode="normal" in="SourceGraphic" in2="effect1_backgroundBlur_1042_20908" result="shape"/>
</filter>
<filter id="filter9_d_1042_20908" x="552" y="377" width="337.547" height="302.586" filterUnits="userSpaceOnUse" color-interpolation-filters="sRGB">
<feFlood flood-opacity="0" result="BackgroundImageFix"/>
<feColorMatrix in="SourceAlpha" type="matrix" values="0 0 0 0 0 0 0 0 0 0 0 0 0 0 0 0 0 0 127 0" result="hardAlpha"/>
<feOffset dy="4"/>
<feGaussianBlur stdDeviation="19.5"/>
<feComposite in2="hardAlpha" operator="out"/>
<feColorMatrix type="matrix" values="0 0 0 0 0.466667 0 0 0 0 0.85098 0 0 0 0 0.992157 0 0 0 1 0"/>
<feBlend mode="normal" in2="BackgroundImageFix" result="effect1_dropShadow_1042_20908"/>
<feBlend mode="normal" in="SourceGraphic" in2="effect1_dropShadow_1042_20908" result="shape"/>
</filter>
<filter id="filter10_di_1042_20908" x="657.5" y="352.5" width="256.547" height="351.586" filterUnits="userSpaceOnUse" color-interpolation-filters="sRGB">
<feFlood flood-opacity="0" result="BackgroundImageFix"/>
<feColorMatrix in="SourceAlpha" type="matrix" values="0 0 0 0 0 0 0 0 0 0 0 0 0 0 0 0 0 0 127 0" result="hardAlpha"/>
<feOffset dy="4"/>
<feGaussianBlur stdDeviation="31.75"/>
<feComposite in2="hardAlpha" operator="out"/>
<feColorMatrix type="matrix" values="0 0 0 0 0.607843 0 0 0 0 0.815686 0 0 0 0 0.933333 0 0 0 1 0"/>
<feBlend mode="normal" in2="BackgroundImageFix" result="effect1_dropShadow_1042_20908"/>
<feBlend mode="normal" in="SourceGraphic" in2="effect1_dropShadow_1042_20908" result="shape"/>
<feColorMatrix in="SourceAlpha" type="matrix" values="0 0 0 0 0 0 0 0 0 0 0 0 0 0 0 0 0 0 127 0" result="hardAlpha"/>
<feOffset dy="4"/>
<feGaussianBlur stdDeviation="8.35"/>
<feComposite in2="hardAlpha" operator="arithmetic" k2="-1" k3="1"/>
<feColorMatrix type="matrix" values="0 0 0 0 1 0 0 0 0 1 0 0 0 0 1 0 0 0 0.25 0"/>
<feBlend mode="normal" in2="shape" result="effect2_innerShadow_1042_20908"/>
</filter>
<filter id="filter11_bi_1042_20908" x="525.3" y="487.347" width="390.486" height="214.33" filterUnits="userSpaceOnUse" color-interpolation-filters="sRGB">
<feFlood flood-opacity="0" result="BackgroundImageFix"/>
<feGaussianBlur in="BackgroundImageFix" stdDeviation="32.85"/>
<feComposite in2="SourceAlpha" operator="in" result="effect1_backgroundBlur_1042_20908"/>
<feBlend mode="normal" in="SourceGraphic" in2="effect1_backgroundBlur_1042_20908" result="shape"/>
<feColorMatrix in="SourceAlpha" type="matrix" values="0 0 0 0 0 0 0 0 0 0 0 0 0 0 0 0 0 0 127 0" result="hardAlpha"/>
<feOffset dy="4"/>
<feGaussianBlur stdDeviation="19.4"/>
<feComposite in2="hardAlpha" operator="arithmetic" k2="-1" k3="1"/>
<feColorMatrix type="matrix" values="0 0 0 0 1 0 0 0 0 1 0 0 0 0 1 0 0 0 0.47 0"/>
<feBlend mode="normal" in2="shape" result="effect2_innerShadow_1042_20908"/>
</filter>
<filter id="filter12_d_1042_20908" x="527.5" y="352.5" width="256.547" height="351.586" filterUnits="userSpaceOnUse" color-interpolation-filters="sRGB">
<feFlood flood-opacity="0" result="BackgroundImageFix"/>
<feColorMatrix in="SourceAlpha" type="matrix" values="0 0 0 0 0 0 0 0 0 0 0 0 0 0 0 0 0 0 127 0" result="hardAlpha"/>
<feOffset dy="4"/>
<feGaussianBlur stdDeviation="31.75"/>
<feComposite in2="hardAlpha" operator="out"/>
<feColorMatrix type="matrix" values="0 0 0 0 0.607843 0 0 0 0 0.815686 0 0 0 0 0.933333 0 0 0 1 0"/>
<feBlend mode="normal" in2="BackgroundImageFix" result="effect1_dropShadow_1042_20908"/>
<feBlend mode="normal" in="SourceGraphic" in2="effect1_dropShadow_1042_20908" result="shape"/>
</filter>
<filter id="filter13_d_1042_20908" x="555.242" y="613.227" width="330.758" height="296.953" filterUnits="userSpaceOnUse" color-interpolation-filters="sRGB">
<feFlood flood-opacity="0" result="BackgroundImageFix"/>
<feColorMatrix in="SourceAlpha" type="matrix" values="0 0 0 0 0 0 0 0 0 0 0 0 0 0 0 0 0 0 127 0" result="hardAlpha"/>
<feOffset dy="4"/>
<feGaussianBlur stdDeviation="19.5"/>
<feComposite in2="hardAlpha" operator="out"/>
<feColorMatrix type="matrix" values="0 0 0 0 0.466667 0 0 0 0 0.85098 0 0 0 0 0.992157 0 0 0 1 0"/>
<feBlend mode="normal" in2="BackgroundImageFix" result="effect1_dropShadow_1042_20908"/>
<feBlend mode="normal" in="SourceGraphic" in2="effect1_dropShadow_1042_20908" result="shape"/>
</filter>
<filter id="filter14_d_1042_20908" x="530.742" y="588.727" width="253.297" height="345.953" filterUnits="userSpaceOnUse" color-interpolation-filters="sRGB">
<feFlood flood-opacity="0" result="BackgroundImageFix"/>
<feColorMatrix in="SourceAlpha" type="matrix" values="0 0 0 0 0 0 0 0 0 0 0 0 0 0 0 0 0 0 127 0" result="hardAlpha"/>
<feOffset dy="4"/>
<feGaussianBlur stdDeviation="31.75"/>
<feComposite in2="hardAlpha" operator="out"/>
<feColorMatrix type="matrix" values="0 0 0 0 0.607843 0 0 0 0 0.815686 0 0 0 0 0.933333 0 0 0 1 0"/>
<feBlend mode="normal" in2="BackgroundImageFix" result="effect1_dropShadow_1042_20908"/>
<feBlend mode="normal" in="SourceGraphic" in2="effect1_dropShadow_1042_20908" result="shape"/>
</filter>
<filter id="filter15_bi_1042_20908" x="528.706" y="583.12" width="383.994" height="212.252" filterUnits="userSpaceOnUse" color-interpolation-filters="sRGB">
<feFlood flood-opacity="0" result="BackgroundImageFix"/>
<feGaussianBlur in="BackgroundImageFix" stdDeviation="32.85"/>
<feComposite in2="SourceAlpha" operator="in" result="effect1_backgroundBlur_1042_20908"/>
<feBlend mode="normal" in="SourceGraphic" in2="effect1_backgroundBlur_1042_20908" result="shape"/>
<feColorMatrix in="SourceAlpha" type="matrix" values="0 0 0 0 0 0 0 0 0 0 0 0 0 0 0 0 0 0 127 0" result="hardAlpha"/>
<feOffset dy="4"/>
<feGaussianBlur stdDeviation="19.4"/>
<feComposite in2="hardAlpha" operator="arithmetic" k2="-1" k3="1"/>
<feColorMatrix type="matrix" values="0 0 0 0 1 0 0 0 0 1 0 0 0 0 1 0 0 0 0.47 0"/>
<feBlend mode="normal" in2="shape" result="effect2_innerShadow_1042_20908"/>
</filter>
<filter id="filter16_d_1042_20908" x="657.039" y="588.727" width="253.297" height="345.953" filterUnits="userSpaceOnUse" color-interpolation-filters="sRGB">
<feFlood flood-opacity="0" result="BackgroundImageFix"/>
<feColorMatrix in="SourceAlpha" type="matrix" values="0 0 0 0 0 0 0 0 0 0 0 0 0 0 0 0 0 0 127 0" result="hardAlpha"/>
<feOffset dy="4"/>
<feGaussianBlur stdDeviation="31.75"/>
<feComposite in2="hardAlpha" operator="out"/>
<feColorMatrix type="matrix" values="0 0 0 0 0.607843 0 0 0 0 0.815686 0 0 0 0 0.933333 0 0 0 1 0"/>
<feBlend mode="normal" in2="BackgroundImageFix" result="effect1_dropShadow_1042_20908"/>
<feBlend mode="normal" in="SourceGraphic" in2="effect1_dropShadow_1042_20908" result="shape"/>
</filter>
<filter id="filter17_bi_1042_20908" x="670.933" y="575.3" width="398.134" height="362.4" filterUnits="userSpaceOnUse" color-interpolation-filters="sRGB">
<feFlood flood-opacity="0" result="BackgroundImageFix"/>
<feGaussianBlur in="BackgroundImageFix" stdDeviation="32.85"/>
<feComposite in2="SourceAlpha" operator="in" result="effect1_backgroundBlur_1042_20908"/>
<feBlend mode="normal" in="SourceGraphic" in2="effect1_backgroundBlur_1042_20908" result="shape"/>
<feColorMatrix in="SourceAlpha" type="matrix" values="0 0 0 0 0 0 0 0 0 0 0 0 0 0 0 0 0 0 127 0" result="hardAlpha"/>
<feOffset dy="4"/>
<feGaussianBlur stdDeviation="19.4"/>
<feComposite in2="hardAlpha" operator="arithmetic" k2="-1" k3="1"/>
<feColorMatrix type="matrix" values="0 0 0 0 1 0 0 0 0 1 0 0 0 0 1 0 0 0 0.47 0"/>
<feBlend mode="normal" in2="shape" result="effect2_innerShadow_1042_20908"/>
</filter>
<filter id="filter18_bi_1042_20908" x="367.933" y="577.3" width="398.134" height="362.4" filterUnits="userSpaceOnUse" color-interpolation-filters="sRGB">
<feFlood flood-opacity="0" result="BackgroundImageFix"/>
<feGaussianBlur in="BackgroundImageFix" stdDeviation="32.85"/>
<feComposite in2="SourceAlpha" operator="in" result="effect1_backgroundBlur_1042_20908"/>
<feBlend mode="normal" in="SourceGraphic" in2="effect1_backgroundBlur_1042_20908" result="shape"/>
<feColorMatrix in="SourceAlpha" type="matrix" values="0 0 0 0 0 0 0 0 0 0 0 0 0 0 0 0 0 0 127 0" result="hardAlpha"/>
<feOffset dy="4"/>
<feGaussianBlur stdDeviation="19.4"/>
<feComposite in2="hardAlpha" operator="arithmetic" k2="-1" k3="1"/>
<feColorMatrix type="matrix" values="0 0 0 0 1 0 0 0 0 1 0 0 0 0 1 0 0 0 0.47 0"/>
<feBlend mode="normal" in2="shape" result="effect2_innerShadow_1042_20908"/>
</filter>
<linearGradient id="paint0_linear_1042_20908" x1="899.858" y1="511.274" x2="731.941" y2="706.857" gradientUnits="userSpaceOnUse">
<stop stop-color="white"/>
<stop offset="1" stop-color="#999999" stop-opacity="0"/>
</linearGradient>
<linearGradient id="paint1_linear_1042_20908" x1="859" y1="555" x2="728.5" y2="707" gradientUnits="userSpaceOnUse">
<stop stop-color="white"/>
<stop offset="1" stop-color="#999999" stop-opacity="0"/>
</linearGradient>
<linearGradient id="paint2_linear_1042_20908" x1="936.803" y1="218.836" x2="936.803" y2="966.608" gradientUnits="userSpaceOnUse">
<stop stop-color="white"/>
<stop offset="1" stop-color="white"/>
</linearGradient>
<linearGradient id="paint3_linear_1042_20908" x1="289.211" y1="929.618" x2="1152.81" y2="929.618" gradientUnits="userSpaceOnUse">
<stop stop-color="white"/>
<stop offset="1" stop-color="white" stop-opacity="0.39"/>
</linearGradient>
<linearGradient id="paint4_linear_1042_20908" x1="504.995" y1="218.836" x2="504.995" y2="966.744" gradientUnits="userSpaceOnUse">
<stop stop-color="white"/>
<stop offset="1" stop-color="#999999"/>
</linearGradient>
<linearGradient id="paint5_linear_1042_20908" x1="864.5" y1="174" x2="209" y2="879" gradientUnits="userSpaceOnUse">
<stop stop-color="white"/>
<stop offset="1" stop-color="white"/>
</linearGradient>
<linearGradient id="paint6_linear_1042_20908" x1="870" y1="641" x2="870" y2="949" gradientUnits="userSpaceOnUse">
<stop stop-color="white"/>
<stop offset="1" stop-color="#999999" stop-opacity="0"/>
</linearGradient>
<linearGradient id="paint7_linear_1042_20908" x1="503.145" y1="950.057" x2="580.362" y2="579.162" gradientUnits="userSpaceOnUse">
<stop stop-color="#30B2E0"/>
<stop offset="1" stop-color="#1A617A"/>
</linearGradient>
<linearGradient id="paint8_linear_1042_20908" x1="567" y1="643" x2="567" y2="951" gradientUnits="userSpaceOnUse">
<stop stop-color="white"/>
<stop offset="1" stop-color="#999999" stop-opacity="0"/>
</linearGradient>
<clipPath id="clip0_1042_20908">
<rect width="1440" height="1180" fill="white"/>
</clipPath>
</defs>
</svg>
