<svg width="1440" height="1180" viewBox="0 0 1440 1180" fill="none" xmlns="http://www.w3.org/2000/svg">
<g clip-path="url(#clip0_1042_21076)">
<g filter="url(#filter0_d_1042_21076)">
<circle cx="716.5" cy="707.5" r="363.5" fill="black" fill-opacity="0.17" shape-rendering="crispEdges"/>
<circle cx="716.5" cy="707.5" r="362.5" stroke="url(#paint0_linear_1042_21076)" stroke-opacity="0.44" stroke-width="2" shape-rendering="crispEdges"/>
</g>
<g filter="url(#filter1_di_1042_21076)">
<circle cx="716.5" cy="707.5" r="282.5" fill="black" fill-opacity="0.17" shape-rendering="crispEdges"/>
<circle cx="716.5" cy="707.5" r="281.5" stroke="url(#paint1_linear_1042_21076)" stroke-opacity="0.44" stroke-width="2" shape-rendering="crispEdges"/>
</g>
<g filter="url(#filter2_ii_1042_21076)">
<circle cx="716.5" cy="707.5" r="238.5" fill="#011D45"/>
</g>
<circle cx="716.5" cy="707.5" r="238" stroke="white" stroke-opacity="0.38"/>
<g filter="url(#filter3_bi_1042_21076)">
<path d="M1033.19 892.508L1152.67 966.608L720.938 218.836V348.883L1033.19 892.508Z" fill="white" fill-opacity="0.12"/>
<path d="M721.438 220.702L1151.24 965.134L1033.56 892.15L721.438 348.75V220.702Z" stroke="url(#paint2_linear_1042_21076)" stroke-opacity="0.25"/>
</g>
<g filter="url(#filter4_bi_1042_21076)">
<path d="M1152.67 966.6L1033.19 892.5H408.963L289.211 966.735H1152.81L1152.67 966.6Z" fill="white" fill-opacity="0.19"/>
<path d="M409.105 893H1033.05L1151.13 966.235H290.966L409.105 893Z" stroke="url(#paint3_linear_1042_21076)" stroke-opacity="0.5"/>
</g>
<g filter="url(#filter5_bi_1042_21076)">
<path d="M408.95 892.508L720.928 348.883V218.836L289.062 966.744H289.198L408.95 892.508Z" fill="#ADAFB1" fill-opacity="0.33"/>
<path d="M290.415 965.401L720.428 220.702V348.75L408.579 892.15L290.415 965.401Z" stroke="url(#paint4_linear_1042_21076)" stroke-opacity="0.72"/>
</g>
<g filter="url(#filter6_bi_1042_21076)">
<path d="M251 990.318L720.932 174V218.839L289.201 966.747L251 990.318Z" fill="url(#paint5_linear_1042_21076)" fill-opacity="0.5"/>
</g>
<g filter="url(#filter7_b_1042_21076)">
<path d="M1191 990.316H251L289.201 966.745L1152.66 966.609L1191 990.316Z" fill="#E2E2E2" fill-opacity="0.3"/>
</g>
<g filter="url(#filter8_b_1042_21076)">
<path d="M720.938 174L1191 990.318L1152.67 966.612L720.938 218.839V174Z" fill="#CECECE" fill-opacity="0.35"/>
</g>
<path d="M713.887 535.867L543.422 831.138L713.887 535.867Z" fill="#C1B49A"/>
<g filter="url(#filter9_bi_1042_21076)">
<path d="M721 553.564L850.545 636.584L721 412V553.564Z" fill="#77D9FD" fill-opacity="0.26"/>
</g>
<g filter="url(#filter10_bi_1042_21076)">
<path d="M720.512 553.047L591 635.98H850.089L720.512 553.047Z" fill="white" fill-opacity="0.09"/>
</g>
<g filter="url(#filter11_bi_1042_21076)">
<path d="M721.545 412L592 636.584L721.545 553.564V412Z" fill="#C1EDFF" fill-opacity="0.19"/>
</g>
<path d="M718.884 612.14C716.756 612.14 715.202 610.866 715.202 608.472V601.78H717.106V608.584C717.106 609.592 717.862 610.376 718.87 610.376C719.864 610.376 720.662 609.592 720.662 608.584V601.78H722.566V608.472C722.566 610.866 720.998 612.14 718.884 612.14ZM723.804 612V601.78H725.708V612H723.804Z" fill="white"/>
<g filter="url(#filter12_d_1042_21076)">
<path d="M673.309 675L669.879 664.78H671.853L674.275 672.088L676.683 664.78H678.657L675.227 675H673.309ZM681.637 675.168C679.663 675.168 677.605 673.6 677.605 670.912C677.605 668.196 679.593 666.642 681.665 666.642C682.743 666.642 683.695 667.076 684.297 667.79V666.81H686.187V675H684.297V673.936C683.695 674.706 682.715 675.168 681.637 675.168ZM681.945 673.432C683.359 673.432 684.395 672.298 684.395 670.884C684.395 669.484 683.359 668.364 681.945 668.364C680.545 668.364 679.467 669.47 679.467 670.884C679.467 672.312 680.545 673.432 681.945 673.432ZM687.264 675V664.64H689.168V675H687.264ZM690.326 675V666.81H692.23V675H690.326ZM690.088 664.808C690.088 664.094 690.55 663.618 691.278 663.618C692.02 663.618 692.468 664.094 692.468 664.808C692.468 665.522 692.02 665.984 691.278 665.984C690.508 665.984 690.088 665.522 690.088 664.808ZM697.086 675.168C695.112 675.168 693.054 673.6 693.054 670.912C693.054 668.196 695.042 666.642 697.114 666.642C698.178 666.642 699.13 667.062 699.732 667.776V664.64H701.636V675H699.746V673.936C699.144 674.706 698.164 675.168 697.086 675.168ZM697.394 673.432C698.808 673.432 699.844 672.298 699.844 670.884C699.844 669.484 698.808 668.364 697.394 668.364C695.994 668.364 694.916 669.47 694.916 670.884C694.916 672.312 695.994 673.432 697.394 673.432ZM706.479 675.168C704.505 675.168 702.447 673.6 702.447 670.912C702.447 668.196 704.435 666.642 706.507 666.642C707.585 666.642 708.537 667.076 709.139 667.79V666.81H711.029V675H709.139V673.936C708.537 674.706 707.557 675.168 706.479 675.168ZM706.787 673.432C708.201 673.432 709.237 672.298 709.237 670.884C709.237 669.484 708.201 668.364 706.787 668.364C705.387 668.364 704.309 669.47 704.309 670.884C704.309 672.312 705.387 673.432 706.787 673.432ZM711.812 668.504V666.81H713.212V665.564L715.116 664.262V666.81H716.782V668.504H715.116V671.57C715.116 672.998 715.326 673.222 716.782 673.222V675H716.516C713.982 675 713.212 674.188 713.212 671.584V668.504H711.812ZM717.697 675V666.81H719.601V675H717.697ZM717.459 664.808C717.459 664.094 717.921 663.618 718.649 663.618C719.391 663.618 719.839 664.094 719.839 664.808C719.839 665.522 719.391 665.984 718.649 665.984C717.879 665.984 717.459 665.522 717.459 664.808ZM724.668 675.168C722.302 675.168 720.426 673.264 720.426 670.912C720.426 668.518 722.302 666.642 724.668 666.642C727.02 666.642 728.91 668.518 728.91 670.912C728.91 673.264 727.02 675.168 724.668 675.168ZM724.668 673.39C726.012 673.39 727.048 672.27 727.048 670.912C727.048 669.526 726.012 668.42 724.668 668.42C723.31 668.42 722.288 669.526 722.288 670.912C722.288 672.27 723.31 673.39 724.668 673.39ZM729.742 675V666.81H731.618V667.818C732.164 667.104 733.004 666.642 734.068 666.642C736.126 666.642 737.316 667.916 737.316 670.142V675H735.398V670.338C735.398 669.064 734.782 668.28 733.55 668.28C732.472 668.28 731.632 669.064 731.632 670.506V675H729.742ZM744.938 675L748.578 664.78H750.496L754.136 675H752.148L751.518 673.18H747.556L746.926 675H744.938ZM749.544 667.482L748.2 671.36H750.888L749.544 667.482ZM754.817 675V666.81H756.693V667.818C757.239 667.104 758.079 666.642 759.143 666.642C761.201 666.642 762.391 667.916 762.391 670.142V675H760.473V670.338C760.473 669.064 759.857 668.28 758.625 668.28C757.547 668.28 756.707 669.064 756.707 670.506V675H754.817ZM767.25 675.168C765.276 675.168 763.218 673.6 763.218 670.912C763.218 668.196 765.206 666.642 767.278 666.642C768.342 666.642 769.294 667.062 769.896 667.776V664.64H771.8V675H769.91V673.936C769.308 674.706 768.328 675.168 767.25 675.168ZM767.558 673.432C768.972 673.432 770.008 672.298 770.008 670.884C770.008 669.484 768.972 668.364 767.558 668.364C766.158 668.364 765.08 669.47 765.08 670.884C765.08 672.312 766.158 673.432 767.558 673.432ZM685.409 693L681.979 682.78H683.953L686.375 690.088L688.783 682.78H690.757L687.327 693H685.409ZM694.031 693.168C691.455 693.168 689.705 691.292 689.705 688.926C689.705 686.532 691.567 684.642 693.961 684.642C696.397 684.642 698.175 686.434 698.175 688.856V689.57H691.511C691.777 690.732 692.687 691.502 694.031 691.502C695.095 691.502 695.907 690.942 696.299 690.06L697.853 690.956C697.139 692.286 695.879 693.168 694.031 693.168ZM693.961 686.308C692.827 686.308 691.945 686.98 691.609 687.988H696.257C695.977 686.882 695.137 686.308 693.961 686.308ZM699.022 693V684.81H700.898V686.028C701.276 685.216 701.976 684.81 702.998 684.81C703.6 684.81 704.062 684.95 704.44 685.16L703.726 686.952C703.446 686.77 703.138 686.63 702.592 686.63C701.486 686.63 700.912 687.218 700.912 688.632V693H699.022ZM705.051 693V684.81H706.955V693H705.051ZM704.813 682.808C704.813 682.094 705.275 681.618 706.003 681.618C706.745 681.618 707.193 682.094 707.193 682.808C707.193 683.522 706.745 683.984 706.003 683.984C705.233 683.984 704.813 683.522 704.813 682.808ZM707.737 686.504V684.81H709.123V684.796C709.123 682.444 710.061 681.52 712.553 681.52H712.721V683.27C711.209 683.27 711.041 683.62 711.041 684.81H712.721V686.504H711.041V693H709.123V686.504H707.737ZM713.514 693V684.81H715.418V693H713.514ZM713.276 682.808C713.276 682.094 713.738 681.618 714.466 681.618C715.208 681.618 715.656 682.094 715.656 682.808C715.656 683.522 715.208 683.984 714.466 683.984C713.696 683.984 713.276 683.522 713.276 682.808ZM720.498 693.168C718.104 693.168 716.242 691.264 716.242 688.912C716.242 686.518 718.104 684.642 720.498 684.642C722.332 684.642 723.774 685.692 724.404 687.176L722.71 687.89C722.332 686.994 721.52 686.42 720.512 686.42C719.126 686.42 718.09 687.526 718.09 688.912C718.09 690.27 719.126 691.39 720.526 691.39C721.59 691.39 722.36 690.76 722.738 689.864L724.432 690.592C723.788 692.104 722.402 693.168 720.498 693.168ZM728.846 693.168C726.872 693.168 724.814 691.6 724.814 688.912C724.814 686.196 726.802 684.642 728.874 684.642C729.952 684.642 730.904 685.076 731.506 685.79V684.81H733.396V693H731.506V691.936C730.904 692.706 729.924 693.168 728.846 693.168ZM729.154 691.432C730.568 691.432 731.604 690.298 731.604 688.884C731.604 687.484 730.568 686.364 729.154 686.364C727.754 686.364 726.676 687.47 726.676 688.884C726.676 690.312 727.754 691.432 729.154 691.432ZM734.179 686.504V684.81H735.579V683.564L737.483 682.262V684.81H739.149V686.504H737.483V689.57C737.483 690.998 737.693 691.222 739.149 691.222V693H738.883C736.349 693 735.579 692.188 735.579 689.584V686.504H734.179ZM740.065 693V684.81H741.969V693H740.065ZM739.827 682.808C739.827 682.094 740.289 681.618 741.017 681.618C741.759 681.618 742.207 682.094 742.207 682.808C742.207 683.522 741.759 683.984 741.017 683.984C740.247 683.984 739.827 683.522 739.827 682.808ZM747.035 693.168C744.669 693.168 742.793 691.264 742.793 688.912C742.793 686.518 744.669 684.642 747.035 684.642C749.387 684.642 751.277 686.518 751.277 688.912C751.277 691.264 749.387 693.168 747.035 693.168ZM747.035 691.39C748.379 691.39 749.415 690.27 749.415 688.912C749.415 687.526 748.379 686.42 747.035 686.42C745.677 686.42 744.655 687.526 744.655 688.912C744.655 690.27 745.677 691.39 747.035 691.39ZM752.109 693V684.81H753.985V685.818C754.531 685.104 755.371 684.642 756.435 684.642C758.493 684.642 759.683 685.916 759.683 688.142V693H757.765V688.338C757.765 687.064 757.149 686.28 755.917 686.28C754.839 686.28 753.999 687.064 753.999 688.506V693H752.109Z" fill="white"/>
</g>
<g filter="url(#filter13_bi_1042_21076)">
<path d="M870 641L1003.37 872H736.632L870 641Z" fill="#D9D9D9" fill-opacity="0.13"/>
<path d="M737.498 871.5L870 642L1002.5 871.5H737.498Z" stroke="url(#paint6_linear_1042_21076)"/>
</g>
<g filter="url(#filter14_bi_1042_21076)">
<path d="M548 602L705.617 875H390.383L548 602Z" fill="url(#paint7_linear_1042_21076)"/>
<path d="M391.249 874.5L548 603L704.751 874.5H391.249Z" stroke="url(#paint8_linear_1042_21076)"/>
</g>
<path d="M816.856 800L814.154 795.086L813.048 796.458V800H811.144V789.78H813.048V793.966L816.422 789.78H818.732L815.498 793.756L819.026 800H816.856ZM819.483 800V791.81H821.359V792.818C821.905 792.104 822.745 791.642 823.809 791.642C825.867 791.642 827.057 792.916 827.057 795.142V800H825.139V795.338C825.139 794.064 824.523 793.28 823.291 793.28C822.213 793.28 821.373 794.064 821.373 795.506V800H819.483ZM832.126 800.168C829.76 800.168 827.884 798.264 827.884 795.912C827.884 793.518 829.76 791.642 832.126 791.642C834.478 791.642 836.368 793.518 836.368 795.912C836.368 798.264 834.478 800.168 832.126 800.168ZM832.126 798.39C833.47 798.39 834.506 797.27 834.506 795.912C834.506 794.526 833.47 793.42 832.126 793.42C830.768 793.42 829.746 794.526 829.746 795.912C829.746 797.27 830.768 798.39 832.126 798.39ZM839.008 800L836.278 791.81H838.21L840.016 797.452L842.074 791.81H843.95L845.966 797.466L847.842 791.81H849.76L846.89 800H845.07L842.998 794.33L840.87 800H839.008ZM850.504 800V789.64H852.408V800H850.504ZM857.558 800.168C854.982 800.168 853.232 798.292 853.232 795.926C853.232 793.532 855.094 791.642 857.488 791.642C859.924 791.642 861.702 793.434 861.702 795.856V796.57H855.038C855.304 797.732 856.214 798.502 857.558 798.502C858.622 798.502 859.434 797.942 859.826 797.06L861.38 797.956C860.666 799.286 859.406 800.168 857.558 800.168ZM857.488 793.308C856.354 793.308 855.472 793.98 855.136 794.988H859.784C859.504 793.882 858.664 793.308 857.488 793.308ZM866.315 800.168C864.341 800.168 862.283 798.6 862.283 795.912C862.283 793.196 864.271 791.642 866.343 791.642C867.407 791.642 868.359 792.062 868.961 792.776V789.64H870.865V800H868.975V798.936C868.373 799.706 867.393 800.168 866.315 800.168ZM866.623 798.432C868.037 798.432 869.073 797.298 869.073 795.884C869.073 794.484 868.037 793.364 866.623 793.364C865.223 793.364 864.145 794.47 864.145 795.884C864.145 797.312 865.223 798.432 866.623 798.432ZM878.382 799.86V798.908C877.78 799.692 876.814 800.168 875.708 800.168C873.734 800.168 871.676 798.6 871.676 795.912C871.676 793.196 873.664 791.642 875.736 791.642C876.814 791.642 877.766 792.118 878.368 792.86V791.81H880.258V799.79C880.258 802.086 878.788 803.962 876.03 803.962C873.902 803.962 872.572 802.968 871.83 801.61L873.51 800.588C874.112 801.694 874.756 802.226 876.058 802.226C877.486 802.226 878.382 801.106 878.382 799.86ZM876.016 798.432C877.43 798.432 878.466 797.298 878.466 795.884C878.466 794.484 877.43 793.364 876.016 793.364C874.616 793.364 873.538 794.47 873.538 795.884C873.538 797.312 874.616 798.432 876.016 798.432ZM885.421 800.168C882.845 800.168 881.095 798.292 881.095 795.926C881.095 793.532 882.957 791.642 885.351 791.642C887.787 791.642 889.565 793.434 889.565 795.856V796.57H882.901C883.167 797.732 884.077 798.502 885.421 798.502C886.485 798.502 887.297 797.942 887.689 797.06L889.243 797.956C888.529 799.286 887.269 800.168 885.421 800.168ZM885.351 793.308C884.217 793.308 883.335 793.98 882.999 794.988H887.647C887.367 793.882 886.527 793.308 885.351 793.308ZM897.317 800V789.78H900.537C902.819 789.78 904.093 790.746 904.093 792.636C904.093 793.518 903.715 794.19 902.973 794.624C903.925 795.058 904.457 795.842 904.457 796.976C904.457 798.992 903.043 800 900.789 800H897.317ZM900.705 795.632H899.221V798.25H900.789C901.951 798.25 902.539 797.774 902.539 796.934C902.539 796.094 902.119 795.632 900.705 795.632ZM900.537 791.53H899.221V793.854H900.537C901.755 793.854 902.175 793.364 902.175 792.636C902.175 791.866 901.713 791.53 900.537 791.53ZM909.067 800.168C907.093 800.168 905.035 798.6 905.035 795.912C905.035 793.196 907.023 791.642 909.095 791.642C910.173 791.642 911.125 792.076 911.727 792.79V791.81H913.617V800H911.727V798.936C911.125 799.706 910.145 800.168 909.067 800.168ZM909.375 798.432C910.789 798.432 911.825 797.298 911.825 795.884C911.825 794.484 910.789 793.364 909.375 793.364C907.975 793.364 906.897 794.47 906.897 795.884C906.897 797.312 907.975 798.432 909.375 798.432ZM917.773 800.168C915.939 800.168 914.791 799.468 914.133 798.18L915.883 797.34C916.275 798.11 916.961 798.53 917.857 798.53C918.795 798.53 919.257 798.082 919.257 797.536C919.257 796.934 918.347 796.822 917.339 796.598C915.939 796.304 914.469 795.856 914.469 794.134C914.469 792.818 915.743 791.628 917.689 791.628C919.355 791.628 920.405 792.272 921.035 793.322L919.425 794.134C919.089 793.56 918.473 793.196 917.689 793.196C916.793 793.196 916.373 793.616 916.373 794.078C916.373 794.624 917.017 794.764 918.249 795.03C919.593 795.296 921.133 795.772 921.133 797.494C921.133 798.642 920.111 800.168 917.773 800.168ZM926 800.168C923.424 800.168 921.674 798.292 921.674 795.926C921.674 793.532 923.536 791.642 925.93 791.642C928.366 791.642 930.144 793.434 930.144 795.856V796.57H923.48C923.746 797.732 924.656 798.502 926 798.502C927.064 798.502 927.876 797.942 928.268 797.06L929.822 797.956C929.108 799.286 927.848 800.168 926 800.168ZM925.93 793.308C924.796 793.308 923.914 793.98 923.578 794.988H928.226C927.946 793.882 927.106 793.308 925.93 793.308Z" fill="white"/>
<path d="M490.756 765V750.4H499.416V753H493.476V756.36H499.416V758.96H493.476V762.4H499.416V765H490.756ZM500.872 765V753.3H503.552V754.74C504.332 753.72 505.532 753.06 507.052 753.06C509.992 753.06 511.692 754.88 511.692 758.06V765H508.952V758.34C508.952 756.52 508.072 755.4 506.312 755.4C504.772 755.4 503.572 756.52 503.572 758.58V765H500.872ZM522.455 764.8V763.44C521.595 764.56 520.215 765.24 518.635 765.24C515.815 765.24 512.875 763 512.875 759.16C512.875 755.28 515.715 753.06 518.675 753.06C520.215 753.06 521.575 753.74 522.435 754.8V753.3H525.135V764.7C525.135 767.98 523.035 770.66 519.095 770.66C516.055 770.66 514.155 769.24 513.095 767.3L515.495 765.84C516.355 767.42 517.275 768.18 519.135 768.18C521.175 768.18 522.455 766.58 522.455 764.8ZM519.075 762.76C521.095 762.76 522.575 761.14 522.575 759.12C522.575 757.12 521.095 755.52 519.075 755.52C517.075 755.52 515.535 757.1 515.535 759.12C515.535 761.16 517.075 762.76 519.075 762.76ZM526.614 765V753.3H529.334V765H526.614ZM526.274 750.44C526.274 749.42 526.934 748.74 527.974 748.74C529.034 748.74 529.674 749.42 529.674 750.44C529.674 751.46 529.034 752.12 527.974 752.12C526.874 752.12 526.274 751.46 526.274 750.44ZM530.891 765V753.3H533.571V754.74C534.351 753.72 535.551 753.06 537.071 753.06C540.011 753.06 541.711 754.88 541.711 758.06V765H538.971V758.34C538.971 756.52 538.091 755.4 536.331 755.4C534.791 755.4 533.591 756.52 533.591 758.58V765H530.891ZM549.074 765.24C545.394 765.24 542.894 762.56 542.894 759.18C542.894 755.76 545.554 753.06 548.974 753.06C552.454 753.06 554.994 755.62 554.994 759.08V760.1H545.474C545.854 761.76 547.154 762.86 549.074 762.86C550.594 762.86 551.754 762.06 552.314 760.8L554.534 762.08C553.514 763.98 551.714 765.24 549.074 765.24ZM548.974 755.44C547.354 755.44 546.094 756.4 545.614 757.84H552.254C551.854 756.26 550.654 755.44 548.974 755.44ZM562.004 765.24C558.324 765.24 555.824 762.56 555.824 759.18C555.824 755.76 558.484 753.06 561.904 753.06C565.384 753.06 567.924 755.62 567.924 759.08V760.1H558.404C558.784 761.76 560.084 762.86 562.004 762.86C563.524 762.86 564.684 762.06 565.244 760.8L567.464 762.08C566.444 763.98 564.644 765.24 562.004 765.24ZM561.904 755.44C560.284 755.44 559.024 756.4 558.544 757.84H565.184C564.784 756.26 563.584 755.44 561.904 755.44ZM569.134 765V753.3H571.814V755.04C572.354 753.88 573.354 753.3 574.814 753.3C575.674 753.3 576.334 753.5 576.874 753.8L575.854 756.36C575.454 756.1 575.014 755.9 574.234 755.9C572.654 755.9 571.834 756.74 571.834 758.76V765H569.134ZM577.747 765V753.3H580.467V765H577.747ZM577.407 750.44C577.407 749.42 578.067 748.74 579.107 748.74C580.167 748.74 580.807 749.42 580.807 750.44C580.807 751.46 580.167 752.12 579.107 752.12C578.007 752.12 577.407 751.46 577.407 750.44ZM582.024 765V753.3H584.704V754.74C585.484 753.72 586.684 753.06 588.204 753.06C591.144 753.06 592.844 754.88 592.844 758.06V765H590.104V758.34C590.104 756.52 589.224 755.4 587.464 755.4C585.924 755.4 584.724 756.52 584.724 758.58V765H582.024ZM603.607 764.8V763.44C602.747 764.56 601.367 765.24 599.787 765.24C596.967 765.24 594.027 763 594.027 759.16C594.027 755.28 596.867 753.06 599.827 753.06C601.367 753.06 602.727 753.74 603.587 754.8V753.3H606.287V764.7C606.287 767.98 604.187 770.66 600.247 770.66C597.207 770.66 595.307 769.24 594.247 767.3L596.647 765.84C597.507 767.42 598.427 768.18 600.287 768.18C602.327 768.18 603.607 766.58 603.607 764.8ZM600.227 762.76C602.247 762.76 603.727 761.14 603.727 759.12C603.727 757.12 602.247 755.52 600.227 755.52C598.227 755.52 596.687 757.1 596.687 759.12C596.687 761.16 598.227 762.76 600.227 762.76ZM500.605 790H497.885V775.4H502.565C506.005 775.4 508.025 777.46 508.025 780.48C508.025 782.24 507.165 783.88 505.565 784.74L508.485 790H505.385L503.045 785.54H500.605V790ZM500.605 783.04H502.325C504.565 783.04 505.305 781.82 505.305 780.38C505.305 778.88 504.405 777.94 502.325 777.94H500.605V783.04ZM514.406 790.24C510.726 790.24 508.226 787.56 508.226 784.18C508.226 780.76 510.886 778.06 514.306 778.06C517.786 778.06 520.326 780.62 520.326 784.08V785.1H510.806C511.186 786.76 512.486 787.86 514.406 787.86C515.926 787.86 517.086 787.06 517.646 785.8L519.866 787.08C518.846 788.98 517.046 790.24 514.406 790.24ZM514.306 780.44C512.686 780.44 511.426 781.4 510.946 782.84H517.586C517.186 781.26 515.986 780.44 514.306 780.44ZM526.916 790.24C524.096 790.24 521.156 788 521.156 784.16C521.156 780.28 523.996 778.06 526.956 778.06C528.496 778.06 529.856 778.68 530.716 779.7V778.3H533.416V790H530.716V788.48C529.856 789.58 528.456 790.24 526.916 790.24ZM527.356 787.76C529.376 787.76 530.856 786.14 530.856 784.12C530.856 782.12 529.376 780.52 527.356 780.52C525.356 780.52 523.816 782.1 523.816 784.12C523.816 786.16 525.356 787.76 527.356 787.76ZM539.354 790.24C536.734 790.24 535.094 789.24 534.154 787.4L536.654 786.2C537.214 787.3 538.194 787.9 539.474 787.9C540.814 787.9 541.474 787.26 541.474 786.48C541.474 785.62 540.174 785.46 538.734 785.14C536.734 784.72 534.634 784.08 534.634 781.62C534.634 779.74 536.454 778.04 539.234 778.04C541.614 778.04 543.114 778.96 544.014 780.46L541.714 781.62C541.234 780.8 540.354 780.28 539.234 780.28C537.954 780.28 537.354 780.88 537.354 781.54C537.354 782.32 538.274 782.52 540.034 782.9C541.954 783.28 544.154 783.96 544.154 786.42C544.154 788.06 542.694 790.24 539.354 790.24ZM550.985 790.24C547.605 790.24 544.925 787.52 544.925 784.16C544.925 780.74 547.605 778.06 550.985 778.06C554.345 778.06 557.045 780.74 557.045 784.16C557.045 787.52 554.345 790.24 550.985 790.24ZM550.985 787.7C552.905 787.7 554.385 786.1 554.385 784.16C554.385 782.18 552.905 780.6 550.985 780.6C549.045 780.6 547.585 782.18 547.585 784.16C547.585 786.1 549.045 787.7 550.985 787.7ZM558.235 790V778.3H560.915V779.74C561.695 778.72 562.895 778.06 564.415 778.06C567.355 778.06 569.055 779.88 569.055 783.06V790H566.315V783.34C566.315 781.52 565.435 780.4 563.675 780.4C562.135 780.4 560.935 781.52 560.935 783.58V790H558.235ZM570.618 790V778.3H573.338V790H570.618ZM570.278 775.44C570.278 774.42 570.938 773.74 571.978 773.74C573.038 773.74 573.678 774.42 573.678 775.44C573.678 776.46 573.038 777.12 571.978 777.12C570.878 777.12 570.278 776.46 570.278 775.44ZM574.895 790V778.3H577.575V779.74C578.355 778.72 579.555 778.06 581.075 778.06C584.015 778.06 585.715 779.88 585.715 783.06V790H582.975V783.34C582.975 781.52 582.095 780.4 580.335 780.4C578.795 780.4 577.595 781.52 577.595 783.58V790H574.895ZM596.478 789.8V788.44C595.618 789.56 594.238 790.24 592.658 790.24C589.838 790.24 586.898 788 586.898 784.16C586.898 780.28 589.738 778.06 592.698 778.06C594.238 778.06 595.598 778.74 596.458 779.8V778.3H599.158V789.7C599.158 792.98 597.058 795.66 593.118 795.66C590.078 795.66 588.178 794.24 587.118 792.3L589.518 790.84C590.378 792.42 591.298 793.18 593.158 793.18C595.198 793.18 596.478 791.58 596.478 789.8ZM593.098 787.76C595.118 787.76 596.598 786.14 596.598 784.12C596.598 782.12 595.118 780.52 593.098 780.52C591.098 780.52 589.558 782.1 589.558 784.12C589.558 786.16 591.098 787.76 593.098 787.76ZM516.586 815V800.4H525.246V803H519.306V806.36H525.246V808.96H519.306V812.4H525.246V815H516.586ZM526.702 815V803.3H529.382V804.74C530.162 803.72 531.362 803.06 532.882 803.06C535.822 803.06 537.522 804.88 537.522 808.06V815H534.782V808.34C534.782 806.52 533.902 805.4 532.142 805.4C530.602 805.4 529.402 806.52 529.402 808.58V815H526.702ZM548.285 814.8V813.44C547.425 814.56 546.045 815.24 544.465 815.24C541.645 815.24 538.705 813 538.705 809.16C538.705 805.28 541.545 803.06 544.505 803.06C546.045 803.06 547.405 803.74 548.265 804.8V803.3H550.965V814.7C550.965 817.98 548.865 820.66 544.925 820.66C541.885 820.66 539.985 819.24 538.925 817.3L541.325 815.84C542.185 817.42 543.105 818.18 544.965 818.18C547.005 818.18 548.285 816.58 548.285 814.8ZM544.905 812.76C546.925 812.76 548.405 811.14 548.405 809.12C548.405 807.12 546.925 805.52 544.905 805.52C542.905 805.52 541.365 807.1 541.365 809.12C541.365 811.16 542.905 812.76 544.905 812.76ZM552.444 815V803.3H555.164V815H552.444ZM552.104 800.44C552.104 799.42 552.764 798.74 553.804 798.74C554.864 798.74 555.504 799.42 555.504 800.44C555.504 801.46 554.864 802.12 553.804 802.12C552.704 802.12 552.104 801.46 552.104 800.44ZM556.721 815V803.3H559.401V804.74C560.181 803.72 561.381 803.06 562.901 803.06C565.841 803.06 567.541 804.88 567.541 808.06V815H564.801V808.34C564.801 806.52 563.921 805.4 562.161 805.4C560.621 805.4 559.421 806.52 559.421 808.58V815H556.721ZM574.904 815.24C571.224 815.24 568.724 812.56 568.724 809.18C568.724 805.76 571.384 803.06 574.804 803.06C578.284 803.06 580.824 805.62 580.824 809.08V810.1H571.304C571.684 811.76 572.984 812.86 574.904 812.86C576.424 812.86 577.584 812.06 578.144 810.8L580.364 812.08C579.344 813.98 577.544 815.24 574.904 815.24ZM574.804 805.44C573.184 805.44 571.924 806.4 571.444 807.84H578.084C577.684 806.26 576.484 805.44 574.804 805.44Z" fill="white"/>
</g>
<defs>
<filter id="filter0_d_1042_21076" x="261" y="256" width="911" height="911" filterUnits="userSpaceOnUse" color-interpolation-filters="sRGB">
<feFlood flood-opacity="0" result="BackgroundImageFix"/>
<feColorMatrix in="SourceAlpha" type="matrix" values="0 0 0 0 0 0 0 0 0 0 0 0 0 0 0 0 0 0 127 0" result="hardAlpha"/>
<feOffset dy="4"/>
<feGaussianBlur stdDeviation="46"/>
<feComposite in2="hardAlpha" operator="out"/>
<feColorMatrix type="matrix" values="0 0 0 0 0 0 0 0 0 0 0 0 0 0 0 0 0 0 1 0"/>
<feBlend mode="normal" in2="BackgroundImageFix" result="effect1_dropShadow_1042_21076"/>
<feBlend mode="normal" in="SourceGraphic" in2="effect1_dropShadow_1042_21076" result="shape"/>
</filter>
<filter id="filter1_di_1042_21076" x="342" y="337" width="749" height="749" filterUnits="userSpaceOnUse" color-interpolation-filters="sRGB">
<feFlood flood-opacity="0" result="BackgroundImageFix"/>
<feColorMatrix in="SourceAlpha" type="matrix" values="0 0 0 0 0 0 0 0 0 0 0 0 0 0 0 0 0 0 127 0" result="hardAlpha"/>
<feOffset dy="4"/>
<feGaussianBlur stdDeviation="46"/>
<feComposite in2="hardAlpha" operator="out"/>
<feColorMatrix type="matrix" values="0 0 0 0 0 0 0 0 0 0 0 0 0 0 0 0 0 0 1 0"/>
<feBlend mode="normal" in2="BackgroundImageFix" result="effect1_dropShadow_1042_21076"/>
<feBlend mode="normal" in="SourceGraphic" in2="effect1_dropShadow_1042_21076" result="shape"/>
<feColorMatrix in="SourceAlpha" type="matrix" values="0 0 0 0 0 0 0 0 0 0 0 0 0 0 0 0 0 0 127 0" result="hardAlpha"/>
<feOffset dy="4"/>
<feGaussianBlur stdDeviation="26.85"/>
<feComposite in2="hardAlpha" operator="arithmetic" k2="-1" k3="1"/>
<feColorMatrix type="matrix" values="0 0 0 0 0.156863 0 0 0 0 0.443137 0 0 0 0 0.619608 0 0 0 1 0"/>
<feBlend mode="normal" in2="shape" result="effect2_innerShadow_1042_21076"/>
</filter>
<filter id="filter2_ii_1042_21076" x="478" y="469" width="477" height="481" filterUnits="userSpaceOnUse" color-interpolation-filters="sRGB">
<feFlood flood-opacity="0" result="BackgroundImageFix"/>
<feBlend mode="normal" in="SourceGraphic" in2="BackgroundImageFix" result="shape"/>
<feColorMatrix in="SourceAlpha" type="matrix" values="0 0 0 0 0 0 0 0 0 0 0 0 0 0 0 0 0 0 127 0" result="hardAlpha"/>
<feOffset dy="4"/>
<feGaussianBlur stdDeviation="3.1"/>
<feComposite in2="hardAlpha" operator="arithmetic" k2="-1" k3="1"/>
<feColorMatrix type="matrix" values="0 0 0 0 0 0 0 0 0 0 0 0 0 0 0 0 0 0 0.25 0"/>
<feBlend mode="normal" in2="shape" result="effect1_innerShadow_1042_21076"/>
<feColorMatrix in="SourceAlpha" type="matrix" values="0 0 0 0 0 0 0 0 0 0 0 0 0 0 0 0 0 0 127 0" result="hardAlpha"/>
<feOffset dy="4"/>
<feGaussianBlur stdDeviation="21.4"/>
<feComposite in2="hardAlpha" operator="arithmetic" k2="-1" k3="1"/>
<feColorMatrix type="matrix" values="0 0 0 0 0 0 0 0 0 0 0 0 0 0 0 0 0 0 0.25 0"/>
<feBlend mode="normal" in2="effect1_innerShadow_1042_21076" result="effect2_innerShadow_1042_21076"/>
</filter>
<filter id="filter3_bi_1042_21076" x="655.238" y="153.136" width="563.127" height="879.173" filterUnits="userSpaceOnUse" color-interpolation-filters="sRGB">
<feFlood flood-opacity="0" result="BackgroundImageFix"/>
<feGaussianBlur in="BackgroundImageFix" stdDeviation="32.85"/>
<feComposite in2="SourceAlpha" operator="in" result="effect1_backgroundBlur_1042_21076"/>
<feBlend mode="normal" in="SourceGraphic" in2="effect1_backgroundBlur_1042_21076" result="shape"/>
<feColorMatrix in="SourceAlpha" type="matrix" values="0 0 0 0 0 0 0 0 0 0 0 0 0 0 0 0 0 0 127 0" result="hardAlpha"/>
<feOffset dy="4"/>
<feGaussianBlur stdDeviation="19.4"/>
<feComposite in2="hardAlpha" operator="arithmetic" k2="-1" k3="1"/>
<feColorMatrix type="matrix" values="0 0 0 0 1 0 0 0 0 1 0 0 0 0 1 0 0 0 0.47 0"/>
<feBlend mode="normal" in2="shape" result="effect2_innerShadow_1042_21076"/>
</filter>
<filter id="filter4_bi_1042_21076" x="262.411" y="865.7" width="917.194" height="127.834" filterUnits="userSpaceOnUse" color-interpolation-filters="sRGB">
<feFlood flood-opacity="0" result="BackgroundImageFix"/>
<feGaussianBlur in="BackgroundImageFix" stdDeviation="13.4"/>
<feComposite in2="SourceAlpha" operator="in" result="effect1_backgroundBlur_1042_21076"/>
<feBlend mode="normal" in="SourceGraphic" in2="effect1_backgroundBlur_1042_21076" result="shape"/>
<feColorMatrix in="SourceAlpha" type="matrix" values="0 0 0 0 0 0 0 0 0 0 0 0 0 0 0 0 0 0 127 0" result="hardAlpha"/>
<feOffset dy="4"/>
<feGaussianBlur stdDeviation="12.8"/>
<feComposite in2="hardAlpha" operator="arithmetic" k2="-1" k3="1"/>
<feColorMatrix type="matrix" values="0 0 0 0 1 0 0 0 0 1 0 0 0 0 1 0 0 0 0.25 0"/>
<feBlend mode="normal" in2="shape" result="effect2_innerShadow_1042_21076"/>
</filter>
<filter id="filter5_bi_1042_21076" x="223.363" y="153.136" width="563.267" height="879.306" filterUnits="userSpaceOnUse" color-interpolation-filters="sRGB">
<feFlood flood-opacity="0" result="BackgroundImageFix"/>
<feGaussianBlur in="BackgroundImageFix" stdDeviation="32.85"/>
<feComposite in2="SourceAlpha" operator="in" result="effect1_backgroundBlur_1042_21076"/>
<feBlend mode="normal" in="SourceGraphic" in2="effect1_backgroundBlur_1042_21076" result="shape"/>
<feColorMatrix in="SourceAlpha" type="matrix" values="0 0 0 0 0 0 0 0 0 0 0 0 0 0 0 0 0 0 127 0" result="hardAlpha"/>
<feOffset dy="4"/>
<feGaussianBlur stdDeviation="19.4"/>
<feComposite in2="hardAlpha" operator="arithmetic" k2="-1" k3="1"/>
<feColorMatrix type="matrix" values="0 0 0 0 1 0 0 0 0 1 0 0 0 0 1 0 0 0 0.47 0"/>
<feBlend mode="normal" in2="shape" result="effect2_innerShadow_1042_21076"/>
</filter>
<filter id="filter6_bi_1042_21076" x="205.5" y="128.5" width="560.93" height="907.32" filterUnits="userSpaceOnUse" color-interpolation-filters="sRGB">
<feFlood flood-opacity="0" result="BackgroundImageFix"/>
<feGaussianBlur in="BackgroundImageFix" stdDeviation="22.75"/>
<feComposite in2="SourceAlpha" operator="in" result="effect1_backgroundBlur_1042_21076"/>
<feBlend mode="normal" in="SourceGraphic" in2="effect1_backgroundBlur_1042_21076" result="shape"/>
<feColorMatrix in="SourceAlpha" type="matrix" values="0 0 0 0 0 0 0 0 0 0 0 0 0 0 0 0 0 0 127 0" result="hardAlpha"/>
<feOffset dy="4"/>
<feGaussianBlur stdDeviation="6.4"/>
<feComposite in2="hardAlpha" operator="arithmetic" k2="-1" k3="1"/>
<feColorMatrix type="matrix" values="0 0 0 0 1 0 0 0 0 1 0 0 0 0 1 0 0 0 0.25 0"/>
<feBlend mode="normal" in2="shape" result="effect2_innerShadow_1042_21076"/>
</filter>
<filter id="filter7_b_1042_21076" x="229.3" y="944.909" width="983.4" height="67.1031" filterUnits="userSpaceOnUse" color-interpolation-filters="sRGB">
<feFlood flood-opacity="0" result="BackgroundImageFix"/>
<feGaussianBlur in="BackgroundImageFix" stdDeviation="10.85"/>
<feComposite in2="SourceAlpha" operator="in" result="effect1_backgroundBlur_1042_21076"/>
<feBlend mode="normal" in="SourceGraphic" in2="effect1_backgroundBlur_1042_21076" result="shape"/>
</filter>
<filter id="filter8_b_1042_21076" x="670.438" y="123.5" width="571.07" height="917.32" filterUnits="userSpaceOnUse" color-interpolation-filters="sRGB">
<feFlood flood-opacity="0" result="BackgroundImageFix"/>
<feGaussianBlur in="BackgroundImageFix" stdDeviation="25.25"/>
<feComposite in2="SourceAlpha" operator="in" result="effect1_backgroundBlur_1042_21076"/>
<feBlend mode="normal" in="SourceGraphic" in2="effect1_backgroundBlur_1042_21076" result="shape"/>
</filter>
<filter id="filter9_bi_1042_21076" x="655.3" y="346.3" width="260.947" height="355.986" filterUnits="userSpaceOnUse" color-interpolation-filters="sRGB">
<feFlood flood-opacity="0" result="BackgroundImageFix"/>
<feGaussianBlur in="BackgroundImageFix" stdDeviation="32.85"/>
<feComposite in2="SourceAlpha" operator="in" result="effect1_backgroundBlur_1042_21076"/>
<feBlend mode="normal" in="SourceGraphic" in2="effect1_backgroundBlur_1042_21076" result="shape"/>
<feColorMatrix in="SourceAlpha" type="matrix" values="0 0 0 0 0 0 0 0 0 0 0 0 0 0 0 0 0 0 127 0" result="hardAlpha"/>
<feOffset dy="4"/>
<feGaussianBlur stdDeviation="19.4"/>
<feComposite in2="hardAlpha" operator="arithmetic" k2="-1" k3="1"/>
<feColorMatrix type="matrix" values="0 0 0 0 1 0 0 0 0 1 0 0 0 0 1 0 0 0 0.47 0"/>
<feBlend mode="normal" in2="shape" result="effect2_innerShadow_1042_21076"/>
</filter>
<filter id="filter10_bi_1042_21076" x="525.3" y="487.347" width="390.486" height="214.33" filterUnits="userSpaceOnUse" color-interpolation-filters="sRGB">
<feFlood flood-opacity="0" result="BackgroundImageFix"/>
<feGaussianBlur in="BackgroundImageFix" stdDeviation="32.85"/>
<feComposite in2="SourceAlpha" operator="in" result="effect1_backgroundBlur_1042_21076"/>
<feBlend mode="normal" in="SourceGraphic" in2="effect1_backgroundBlur_1042_21076" result="shape"/>
<feColorMatrix in="SourceAlpha" type="matrix" values="0 0 0 0 0 0 0 0 0 0 0 0 0 0 0 0 0 0 127 0" result="hardAlpha"/>
<feOffset dy="4"/>
<feGaussianBlur stdDeviation="19.4"/>
<feComposite in2="hardAlpha" operator="arithmetic" k2="-1" k3="1"/>
<feColorMatrix type="matrix" values="0 0 0 0 1 0 0 0 0 1 0 0 0 0 1 0 0 0 0.47 0"/>
<feBlend mode="normal" in2="shape" result="effect2_innerShadow_1042_21076"/>
</filter>
<filter id="filter11_bi_1042_21076" x="526.3" y="346.3" width="260.947" height="355.986" filterUnits="userSpaceOnUse" color-interpolation-filters="sRGB">
<feFlood flood-opacity="0" result="BackgroundImageFix"/>
<feGaussianBlur in="BackgroundImageFix" stdDeviation="32.85"/>
<feComposite in2="SourceAlpha" operator="in" result="effect1_backgroundBlur_1042_21076"/>
<feBlend mode="normal" in="SourceGraphic" in2="effect1_backgroundBlur_1042_21076" result="shape"/>
<feColorMatrix in="SourceAlpha" type="matrix" values="0 0 0 0 0 0 0 0 0 0 0 0 0 0 0 0 0 0 127 0" result="hardAlpha"/>
<feOffset dy="4"/>
<feGaussianBlur stdDeviation="19.4"/>
<feComposite in2="hardAlpha" operator="arithmetic" k2="-1" k3="1"/>
<feColorMatrix type="matrix" values="0 0 0 0 1 0 0 0 0 1 0 0 0 0 1 0 0 0 0.47 0"/>
<feBlend mode="normal" in2="shape" result="effect2_innerShadow_1042_21076"/>
</filter>
<filter id="filter12_d_1042_21076" x="630.883" y="628.617" width="179.914" height="107.555" filterUnits="userSpaceOnUse" color-interpolation-filters="sRGB">
<feFlood flood-opacity="0" result="BackgroundImageFix"/>
<feColorMatrix in="SourceAlpha" type="matrix" values="0 0 0 0 0 0 0 0 0 0 0 0 0 0 0 0 0 0 127 0" result="hardAlpha"/>
<feOffset dy="4"/>
<feGaussianBlur stdDeviation="19.5"/>
<feComposite in2="hardAlpha" operator="out"/>
<feColorMatrix type="matrix" values="0 0 0 0 0.466667 0 0 0 0 0.85098 0 0 0 0 0.992157 0 0 0 1 0"/>
<feBlend mode="normal" in2="BackgroundImageFix" result="effect1_dropShadow_1042_21076"/>
<feBlend mode="normal" in="SourceGraphic" in2="effect1_dropShadow_1042_21076" result="shape"/>
</filter>
<filter id="filter13_bi_1042_21076" x="670.933" y="575.3" width="398.134" height="362.4" filterUnits="userSpaceOnUse" color-interpolation-filters="sRGB">
<feFlood flood-opacity="0" result="BackgroundImageFix"/>
<feGaussianBlur in="BackgroundImageFix" stdDeviation="32.85"/>
<feComposite in2="SourceAlpha" operator="in" result="effect1_backgroundBlur_1042_21076"/>
<feBlend mode="normal" in="SourceGraphic" in2="effect1_backgroundBlur_1042_21076" result="shape"/>
<feColorMatrix in="SourceAlpha" type="matrix" values="0 0 0 0 0 0 0 0 0 0 0 0 0 0 0 0 0 0 127 0" result="hardAlpha"/>
<feOffset dy="4"/>
<feGaussianBlur stdDeviation="19.4"/>
<feComposite in2="hardAlpha" operator="arithmetic" k2="-1" k3="1"/>
<feColorMatrix type="matrix" values="0 0 0 0 1 0 0 0 0 1 0 0 0 0 1 0 0 0 0.47 0"/>
<feBlend mode="normal" in2="shape" result="effect2_innerShadow_1042_21076"/>
</filter>
<filter id="filter14_bi_1042_21076" x="324.683" y="536.3" width="446.634" height="404.4" filterUnits="userSpaceOnUse" color-interpolation-filters="sRGB">
<feFlood flood-opacity="0" result="BackgroundImageFix"/>
<feGaussianBlur in="BackgroundImageFix" stdDeviation="32.85"/>
<feComposite in2="SourceAlpha" operator="in" result="effect1_backgroundBlur_1042_21076"/>
<feBlend mode="normal" in="SourceGraphic" in2="effect1_backgroundBlur_1042_21076" result="shape"/>
<feColorMatrix in="SourceAlpha" type="matrix" values="0 0 0 0 0 0 0 0 0 0 0 0 0 0 0 0 0 0 127 0" result="hardAlpha"/>
<feOffset dy="4"/>
<feGaussianBlur stdDeviation="46.15"/>
<feComposite in2="hardAlpha" operator="arithmetic" k2="-1" k3="1"/>
<feColorMatrix type="matrix" values="0 0 0 0 1 0 0 0 0 1 0 0 0 0 1 0 0 0 0.47 0"/>
<feBlend mode="normal" in2="shape" result="effect2_innerShadow_1042_21076"/>
</filter>
<linearGradient id="paint0_linear_1042_21076" x1="899.858" y1="511.274" x2="731.941" y2="706.857" gradientUnits="userSpaceOnUse">
<stop stop-color="white"/>
<stop offset="1" stop-color="#999999" stop-opacity="0"/>
</linearGradient>
<linearGradient id="paint1_linear_1042_21076" x1="859" y1="555" x2="728.5" y2="707" gradientUnits="userSpaceOnUse">
<stop stop-color="white"/>
<stop offset="1" stop-color="#999999" stop-opacity="0"/>
</linearGradient>
<linearGradient id="paint2_linear_1042_21076" x1="936.803" y1="218.836" x2="936.803" y2="966.608" gradientUnits="userSpaceOnUse">
<stop stop-color="white"/>
<stop offset="1" stop-color="white"/>
</linearGradient>
<linearGradient id="paint3_linear_1042_21076" x1="289.211" y1="929.618" x2="1152.81" y2="929.618" gradientUnits="userSpaceOnUse">
<stop stop-color="white"/>
<stop offset="1" stop-color="white" stop-opacity="0.39"/>
</linearGradient>
<linearGradient id="paint4_linear_1042_21076" x1="504.995" y1="218.836" x2="504.995" y2="966.744" gradientUnits="userSpaceOnUse">
<stop stop-color="white"/>
<stop offset="1" stop-color="#999999"/>
</linearGradient>
<linearGradient id="paint5_linear_1042_21076" x1="864.5" y1="174" x2="209" y2="879" gradientUnits="userSpaceOnUse">
<stop stop-color="white"/>
<stop offset="1" stop-color="white"/>
</linearGradient>
<linearGradient id="paint6_linear_1042_21076" x1="870" y1="641" x2="870" y2="949" gradientUnits="userSpaceOnUse">
<stop stop-color="white"/>
<stop offset="1" stop-color="#999999" stop-opacity="0"/>
</linearGradient>
<linearGradient id="paint7_linear_1042_21076" x1="564.5" y1="758" x2="502.261" y2="591.227" gradientUnits="userSpaceOnUse">
<stop stop-color="#30B2E0"/>
<stop offset="1" stop-color="#1A617A"/>
</linearGradient>
<linearGradient id="paint8_linear_1042_21076" x1="548" y1="602" x2="548" y2="966" gradientUnits="userSpaceOnUse">
<stop stop-color="white"/>
<stop offset="1" stop-color="#999999" stop-opacity="0"/>
</linearGradient>
<clipPath id="clip0_1042_21076">
<rect width="1440" height="1180" fill="white"/>
</clipPath>
</defs>
</svg>
