<svg width="1440" height="1180" viewBox="0 0 1440 1180" fill="none" xmlns="http://www.w3.org/2000/svg">
<g clip-path="url(#clip0_1042_21279)">
<g filter="url(#filter0_d_1042_21279)">
<circle cx="716.5" cy="707.5" r="363.5" fill="black" fill-opacity="0.17" shape-rendering="crispEdges"/>
<circle cx="716.5" cy="707.5" r="362.5" stroke="url(#paint0_linear_1042_21279)" stroke-opacity="0.44" stroke-width="2" shape-rendering="crispEdges"/>
</g>
<g filter="url(#filter1_di_1042_21279)">
<circle cx="716.5" cy="707.5" r="282.5" fill="black" fill-opacity="0.17" shape-rendering="crispEdges"/>
<circle cx="716.5" cy="707.5" r="281.5" stroke="url(#paint1_linear_1042_21279)" stroke-opacity="0.44" stroke-width="2" shape-rendering="crispEdges"/>
</g>
<g filter="url(#filter2_ii_1042_21279)">
<circle cx="716.5" cy="707.5" r="238.5" fill="#011D45"/>
</g>
<circle cx="716.5" cy="707.5" r="238" stroke="white" stroke-opacity="0.38"/>
<g filter="url(#filter3_bi_1042_21279)">
<path d="M1032.19 892.508L1151.67 966.608L719.938 218.836V348.883L1032.19 892.508Z" fill="white" fill-opacity="0.12"/>
<path d="M720.438 220.702L1150.24 965.134L1032.56 892.15L720.438 348.75V220.702Z" stroke="url(#paint2_linear_1042_21279)" stroke-opacity="0.25"/>
</g>
<g filter="url(#filter4_bi_1042_21279)">
<path d="M1151.67 966.604L1032.19 892.504H407.963L288.211 966.739H1151.81L1151.67 966.604Z" fill="white" fill-opacity="0.19"/>
<path d="M408.105 893.004H1032.05L1150.13 966.239H289.966L408.105 893.004Z" stroke="url(#paint3_linear_1042_21279)" stroke-opacity="0.5"/>
</g>
<g filter="url(#filter5_bi_1042_21279)">
<path d="M407.95 892.508L719.928 348.883V218.836L288.062 966.744H288.198L407.95 892.508Z" fill="#ADAFB1" fill-opacity="0.33"/>
<path d="M289.415 965.401L719.428 220.702V348.75L407.579 892.15L289.415 965.401Z" stroke="url(#paint4_linear_1042_21279)" stroke-opacity="0.72"/>
</g>
<g filter="url(#filter6_bi_1042_21279)">
<path d="M250 990.318L719.932 174V218.839L288.201 966.747L250 990.318Z" fill="url(#paint5_linear_1042_21279)" fill-opacity="0.5"/>
</g>
<g filter="url(#filter7_b_1042_21279)">
<path d="M1190 990.32H250L288.201 966.749L1151.66 966.613L1190 990.32Z" fill="#E2E2E2" fill-opacity="0.3"/>
</g>
<g filter="url(#filter8_b_1042_21279)">
<path d="M719.938 174L1190 990.318L1151.67 966.612L719.938 218.839V174Z" fill="#CECECE" fill-opacity="0.35"/>
</g>
<path d="M713.887 535.867L543.422 831.138L713.887 535.867Z" fill="#C1B49A"/>
<g filter="url(#filter9_bi_1042_21279)">
<path d="M721 553.564L850.545 636.584L721 412V553.564Z" fill="#77D9FD" fill-opacity="0.12"/>
</g>
<g filter="url(#filter10_bi_1042_21279)">
<path d="M720.512 553.047L591 635.98H850.089L720.512 553.047Z" fill="#78D9FC" fill-opacity="0.33"/>
</g>
<g filter="url(#filter11_bi_1042_21279)">
<path d="M720.545 412L591 636.584L720.545 553.564V412Z" fill="#C1EDFF" fill-opacity="0.38"/>
</g>
<path d="M718.884 612.14C716.756 612.14 715.202 610.866 715.202 608.472V601.78H717.106V608.584C717.106 609.592 717.862 610.376 718.87 610.376C719.864 610.376 720.662 609.592 720.662 608.584V601.78H722.566V608.472C722.566 610.866 720.998 612.14 718.884 612.14ZM723.804 612V601.78H725.708V612H723.804Z" fill="white"/>
<g filter="url(#filter12_bi_1042_21279)">
<path d="M720.539 729.166L594.243 648.228L720.539 867.18L720.539 729.166Z" fill="#77D9FD" fill-opacity="0.22"/>
</g>
<g filter="url(#filter13_bi_1042_21279)">
<path d="M720.736 729.672L847 648.819L594.408 648.819L720.736 729.672Z" fill="#7AB6D2" fill-opacity="0.13"/>
</g>
<path d="M673.309 675L669.879 664.78H671.853L674.275 672.088L676.683 664.78H678.657L675.227 675H673.309ZM681.637 675.168C679.663 675.168 677.605 673.6 677.605 670.912C677.605 668.196 679.593 666.642 681.665 666.642C682.743 666.642 683.695 667.076 684.297 667.79V666.81H686.187V675H684.297V673.936C683.695 674.706 682.715 675.168 681.637 675.168ZM681.945 673.432C683.359 673.432 684.395 672.298 684.395 670.884C684.395 669.484 683.359 668.364 681.945 668.364C680.545 668.364 679.467 669.47 679.467 670.884C679.467 672.312 680.545 673.432 681.945 673.432ZM687.264 675V664.64H689.168V675H687.264ZM690.326 675V666.81H692.23V675H690.326ZM690.088 664.808C690.088 664.094 690.55 663.618 691.278 663.618C692.02 663.618 692.468 664.094 692.468 664.808C692.468 665.522 692.02 665.984 691.278 665.984C690.508 665.984 690.088 665.522 690.088 664.808ZM697.086 675.168C695.112 675.168 693.054 673.6 693.054 670.912C693.054 668.196 695.042 666.642 697.114 666.642C698.178 666.642 699.13 667.062 699.732 667.776V664.64H701.636V675H699.746V673.936C699.144 674.706 698.164 675.168 697.086 675.168ZM697.394 673.432C698.808 673.432 699.844 672.298 699.844 670.884C699.844 669.484 698.808 668.364 697.394 668.364C695.994 668.364 694.916 669.47 694.916 670.884C694.916 672.312 695.994 673.432 697.394 673.432ZM706.479 675.168C704.505 675.168 702.447 673.6 702.447 670.912C702.447 668.196 704.435 666.642 706.507 666.642C707.585 666.642 708.537 667.076 709.139 667.79V666.81H711.029V675H709.139V673.936C708.537 674.706 707.557 675.168 706.479 675.168ZM706.787 673.432C708.201 673.432 709.237 672.298 709.237 670.884C709.237 669.484 708.201 668.364 706.787 668.364C705.387 668.364 704.309 669.47 704.309 670.884C704.309 672.312 705.387 673.432 706.787 673.432ZM711.812 668.504V666.81H713.212V665.564L715.116 664.262V666.81H716.782V668.504H715.116V671.57C715.116 672.998 715.326 673.222 716.782 673.222V675H716.516C713.982 675 713.212 674.188 713.212 671.584V668.504H711.812ZM717.697 675V666.81H719.601V675H717.697ZM717.459 664.808C717.459 664.094 717.921 663.618 718.649 663.618C719.391 663.618 719.839 664.094 719.839 664.808C719.839 665.522 719.391 665.984 718.649 665.984C717.879 665.984 717.459 665.522 717.459 664.808ZM724.668 675.168C722.302 675.168 720.426 673.264 720.426 670.912C720.426 668.518 722.302 666.642 724.668 666.642C727.02 666.642 728.91 668.518 728.91 670.912C728.91 673.264 727.02 675.168 724.668 675.168ZM724.668 673.39C726.012 673.39 727.048 672.27 727.048 670.912C727.048 669.526 726.012 668.42 724.668 668.42C723.31 668.42 722.288 669.526 722.288 670.912C722.288 672.27 723.31 673.39 724.668 673.39ZM729.742 675V666.81H731.618V667.818C732.164 667.104 733.004 666.642 734.068 666.642C736.126 666.642 737.316 667.916 737.316 670.142V675H735.398V670.338C735.398 669.064 734.782 668.28 733.55 668.28C732.472 668.28 731.632 669.064 731.632 670.506V675H729.742ZM744.938 675L748.578 664.78H750.496L754.136 675H752.148L751.518 673.18H747.556L746.926 675H744.938ZM749.544 667.482L748.2 671.36H750.888L749.544 667.482ZM754.817 675V666.81H756.693V667.818C757.239 667.104 758.079 666.642 759.143 666.642C761.201 666.642 762.391 667.916 762.391 670.142V675H760.473V670.338C760.473 669.064 759.857 668.28 758.625 668.28C757.547 668.28 756.707 669.064 756.707 670.506V675H754.817ZM767.25 675.168C765.276 675.168 763.218 673.6 763.218 670.912C763.218 668.196 765.206 666.642 767.278 666.642C768.342 666.642 769.294 667.062 769.896 667.776V664.64H771.8V675H769.91V673.936C769.308 674.706 768.328 675.168 767.25 675.168ZM767.558 673.432C768.972 673.432 770.008 672.298 770.008 670.884C770.008 669.484 768.972 668.364 767.558 668.364C766.158 668.364 765.08 669.47 765.08 670.884C765.08 672.312 766.158 673.432 767.558 673.432ZM685.409 693L681.979 682.78H683.953L686.375 690.088L688.783 682.78H690.757L687.327 693H685.409ZM694.031 693.168C691.455 693.168 689.705 691.292 689.705 688.926C689.705 686.532 691.567 684.642 693.961 684.642C696.397 684.642 698.175 686.434 698.175 688.856V689.57H691.511C691.777 690.732 692.687 691.502 694.031 691.502C695.095 691.502 695.907 690.942 696.299 690.06L697.853 690.956C697.139 692.286 695.879 693.168 694.031 693.168ZM693.961 686.308C692.827 686.308 691.945 686.98 691.609 687.988H696.257C695.977 686.882 695.137 686.308 693.961 686.308ZM699.022 693V684.81H700.898V686.028C701.276 685.216 701.976 684.81 702.998 684.81C703.6 684.81 704.062 684.95 704.44 685.16L703.726 686.952C703.446 686.77 703.138 686.63 702.592 686.63C701.486 686.63 700.912 687.218 700.912 688.632V693H699.022ZM705.051 693V684.81H706.955V693H705.051ZM704.813 682.808C704.813 682.094 705.275 681.618 706.003 681.618C706.745 681.618 707.193 682.094 707.193 682.808C707.193 683.522 706.745 683.984 706.003 683.984C705.233 683.984 704.813 683.522 704.813 682.808ZM707.737 686.504V684.81H709.123V684.796C709.123 682.444 710.061 681.52 712.553 681.52H712.721V683.27C711.209 683.27 711.041 683.62 711.041 684.81H712.721V686.504H711.041V693H709.123V686.504H707.737ZM713.514 693V684.81H715.418V693H713.514ZM713.276 682.808C713.276 682.094 713.738 681.618 714.466 681.618C715.208 681.618 715.656 682.094 715.656 682.808C715.656 683.522 715.208 683.984 714.466 683.984C713.696 683.984 713.276 683.522 713.276 682.808ZM720.498 693.168C718.104 693.168 716.242 691.264 716.242 688.912C716.242 686.518 718.104 684.642 720.498 684.642C722.332 684.642 723.774 685.692 724.404 687.176L722.71 687.89C722.332 686.994 721.52 686.42 720.512 686.42C719.126 686.42 718.09 687.526 718.09 688.912C718.09 690.27 719.126 691.39 720.526 691.39C721.59 691.39 722.36 690.76 722.738 689.864L724.432 690.592C723.788 692.104 722.402 693.168 720.498 693.168ZM728.846 693.168C726.872 693.168 724.814 691.6 724.814 688.912C724.814 686.196 726.802 684.642 728.874 684.642C729.952 684.642 730.904 685.076 731.506 685.79V684.81H733.396V693H731.506V691.936C730.904 692.706 729.924 693.168 728.846 693.168ZM729.154 691.432C730.568 691.432 731.604 690.298 731.604 688.884C731.604 687.484 730.568 686.364 729.154 686.364C727.754 686.364 726.676 687.47 726.676 688.884C726.676 690.312 727.754 691.432 729.154 691.432ZM734.179 686.504V684.81H735.579V683.564L737.483 682.262V684.81H739.149V686.504H737.483V689.57C737.483 690.998 737.693 691.222 739.149 691.222V693H738.883C736.349 693 735.579 692.188 735.579 689.584V686.504H734.179ZM740.065 693V684.81H741.969V693H740.065ZM739.827 682.808C739.827 682.094 740.289 681.618 741.017 681.618C741.759 681.618 742.207 682.094 742.207 682.808C742.207 683.522 741.759 683.984 741.017 683.984C740.247 683.984 739.827 683.522 739.827 682.808ZM747.035 693.168C744.669 693.168 742.793 691.264 742.793 688.912C742.793 686.518 744.669 684.642 747.035 684.642C749.387 684.642 751.277 686.518 751.277 688.912C751.277 691.264 749.387 693.168 747.035 693.168ZM747.035 691.39C748.379 691.39 749.415 690.27 749.415 688.912C749.415 687.526 748.379 686.42 747.035 686.42C745.677 686.42 744.655 687.526 744.655 688.912C744.655 690.27 745.677 691.39 747.035 691.39ZM752.109 693V684.81H753.985V685.818C754.531 685.104 755.371 684.642 756.435 684.642C758.493 684.642 759.683 685.916 759.683 688.142V693H757.765V688.338C757.765 687.064 757.149 686.28 755.917 686.28C754.839 686.28 753.999 687.064 753.999 688.506V693H752.109Z" fill="white"/>
<g filter="url(#filter14_bi_1042_21279)">
<path d="M720.54 867.18L846.836 648.228L720.54 729.166L720.54 867.18Z" fill="#C1EDFF" fill-opacity="0.33"/>
</g>
<g filter="url(#filter15_bi_1042_21279)">
<path d="M903 599L1060.62 872H745.383L903 599Z" fill="url(#paint6_linear_1042_21279)"/>
<path d="M746.249 871.5L903 600L1059.75 871.5H746.249Z" stroke="url(#paint7_linear_1042_21279)"/>
</g>
<g filter="url(#filter16_bi_1042_21279)">
<path d="M567 643L700.368 874H433.632L567 643Z" fill="#D9D9D9" fill-opacity="0.12"/>
<path d="M434.498 873.5L567 644L699.502 873.5H434.498Z" stroke="url(#paint8_linear_1042_21279)"/>
</g>
<path d="M855.85 775L851.99 767.98L850.41 769.94V775H847.69V760.4H850.41V766.38L855.23 760.4H858.53L853.91 766.08L858.95 775H855.85ZM859.602 775V763.3H862.282V764.74C863.062 763.72 864.262 763.06 865.782 763.06C868.722 763.06 870.422 764.88 870.422 768.06V775H867.682V768.34C867.682 766.52 866.802 765.4 865.042 765.4C863.502 765.4 862.302 766.52 862.302 768.58V775H859.602ZM877.665 775.24C874.285 775.24 871.605 772.52 871.605 769.16C871.605 765.74 874.285 763.06 877.665 763.06C881.025 763.06 883.725 765.74 883.725 769.16C883.725 772.52 881.025 775.24 877.665 775.24ZM877.665 772.7C879.585 772.7 881.065 771.1 881.065 769.16C881.065 767.18 879.585 765.6 877.665 765.6C875.725 765.6 874.265 767.18 874.265 769.16C874.265 771.1 875.725 772.7 877.665 772.7ZM887.496 775L883.596 763.3H886.356L888.936 771.36L891.876 763.3H894.556L897.436 771.38L900.116 763.3H902.856L898.756 775H896.156L893.196 766.9L890.156 775H887.496ZM903.919 775V760.2H906.639V775H903.919ZM913.996 775.24C910.316 775.24 907.816 772.56 907.816 769.18C907.816 765.76 910.476 763.06 913.896 763.06C917.376 763.06 919.916 765.62 919.916 769.08V770.1H910.396C910.776 771.76 912.076 772.86 913.996 772.86C915.516 772.86 916.676 772.06 917.236 770.8L919.456 772.08C918.436 773.98 916.636 775.24 913.996 775.24ZM913.896 765.44C912.276 765.44 911.016 766.4 910.536 767.84H917.176C916.776 766.26 915.576 765.44 913.896 765.44ZM926.506 775.24C923.686 775.24 920.746 773 920.746 769.16C920.746 765.28 923.586 763.06 926.546 763.06C928.066 763.06 929.426 763.66 930.286 764.68V760.2H933.006V775H930.306V773.48C929.446 774.58 928.046 775.24 926.506 775.24ZM926.946 772.76C928.966 772.76 930.446 771.14 930.446 769.12C930.446 767.12 928.966 765.52 926.946 765.52C924.946 765.52 923.406 767.1 923.406 769.12C923.406 771.16 924.946 772.76 926.946 772.76ZM943.744 774.8V773.44C942.884 774.56 941.504 775.24 939.924 775.24C937.104 775.24 934.164 773 934.164 769.16C934.164 765.28 937.004 763.06 939.964 763.06C941.504 763.06 942.864 763.74 943.724 764.8V763.3H946.424V774.7C946.424 777.98 944.324 780.66 940.384 780.66C937.344 780.66 935.444 779.24 934.384 777.3L936.784 775.84C937.644 777.42 938.564 778.18 940.424 778.18C942.464 778.18 943.744 776.58 943.744 774.8ZM940.364 772.76C942.384 772.76 943.864 771.14 943.864 769.12C943.864 767.12 942.384 765.52 940.364 765.52C938.364 765.52 936.824 767.1 936.824 769.12C936.824 771.16 938.364 772.76 940.364 772.76ZM953.801 775.24C950.121 775.24 947.621 772.56 947.621 769.18C947.621 765.76 950.281 763.06 953.701 763.06C957.181 763.06 959.721 765.62 959.721 769.08V770.1H950.201C950.581 771.76 951.881 772.86 953.801 772.86C955.321 772.86 956.481 772.06 957.041 770.8L959.261 772.08C958.241 773.98 956.441 775.24 953.801 775.24ZM953.701 765.44C952.081 765.44 950.821 766.4 950.341 767.84H956.981C956.581 766.26 955.381 765.44 953.701 765.44ZM880.258 800V785.4H884.858C888.118 785.4 889.938 786.78 889.938 789.48C889.938 790.74 889.398 791.7 888.338 792.32C889.698 792.94 890.458 794.06 890.458 795.68C890.458 798.56 888.438 800 885.218 800H880.258ZM885.098 793.76H882.978V797.5H885.218C886.878 797.5 887.718 796.82 887.718 795.62C887.718 794.42 887.118 793.76 885.098 793.76ZM884.858 787.9H882.978V791.22H884.858C886.598 791.22 887.198 790.52 887.198 789.48C887.198 788.38 886.538 787.9 884.858 787.9ZM897.043 800.24C894.223 800.24 891.283 798 891.283 794.16C891.283 790.28 894.123 788.06 897.083 788.06C898.623 788.06 899.983 788.68 900.843 789.7V788.3H903.543V800H900.843V798.48C899.983 799.58 898.583 800.24 897.043 800.24ZM897.483 797.76C899.503 797.76 900.983 796.14 900.983 794.12C900.983 792.12 899.503 790.52 897.483 790.52C895.483 790.52 893.943 792.1 893.943 794.12C893.943 796.16 895.483 797.76 897.483 797.76ZM909.481 800.24C906.861 800.24 905.221 799.24 904.281 797.4L906.781 796.2C907.341 797.3 908.321 797.9 909.601 797.9C910.941 797.9 911.601 797.26 911.601 796.48C911.601 795.62 910.301 795.46 908.861 795.14C906.861 794.72 904.761 794.08 904.761 791.62C904.761 789.74 906.581 788.04 909.361 788.04C911.741 788.04 913.241 788.96 914.141 790.46L911.841 791.62C911.361 790.8 910.481 790.28 909.361 790.28C908.081 790.28 907.481 790.88 907.481 791.54C907.481 792.32 908.401 792.52 910.161 792.9C912.081 793.28 914.281 793.96 914.281 796.42C914.281 798.06 912.821 800.24 909.481 800.24ZM921.232 800.24C917.552 800.24 915.052 797.56 915.052 794.18C915.052 790.76 917.712 788.06 921.132 788.06C924.612 788.06 927.152 790.62 927.152 794.08V795.1H917.632C918.012 796.76 919.312 797.86 921.232 797.86C922.752 797.86 923.912 797.06 924.472 795.8L926.692 797.08C925.672 798.98 923.872 800.24 921.232 800.24ZM921.132 790.44C919.512 790.44 918.252 791.4 917.772 792.84H924.412C924.012 791.26 922.812 790.44 921.132 790.44Z" fill="white"/>
<path d="M527.079 792V781.78H533.141V783.6H528.983V785.952H533.141V787.772H528.983V790.18H533.141V792H527.079ZM534.16 792V783.81H536.036V784.818C536.582 784.104 537.422 783.642 538.486 783.642C540.544 783.642 541.734 784.916 541.734 787.142V792H539.816V787.338C539.816 786.064 539.2 785.28 537.968 785.28C536.89 785.28 536.05 786.064 536.05 787.506V792H534.16ZM549.268 791.86V790.908C548.666 791.692 547.7 792.168 546.594 792.168C544.62 792.168 542.562 790.6 542.562 787.912C542.562 785.196 544.55 783.642 546.622 783.642C547.7 783.642 548.652 784.118 549.254 784.86V783.81H551.144V791.79C551.144 794.086 549.674 795.962 546.916 795.962C544.788 795.962 543.458 794.968 542.716 793.61L544.396 792.588C544.998 793.694 545.642 794.226 546.944 794.226C548.372 794.226 549.268 793.106 549.268 791.86ZM546.902 790.432C548.316 790.432 549.352 789.298 549.352 787.884C549.352 786.484 548.316 785.364 546.902 785.364C545.502 785.364 544.424 786.47 544.424 787.884C544.424 789.312 545.502 790.432 546.902 790.432ZM552.18 792V783.81H554.084V792H552.18ZM551.942 781.808C551.942 781.094 552.404 780.618 553.132 780.618C553.874 780.618 554.322 781.094 554.322 781.808C554.322 782.522 553.874 782.984 553.132 782.984C552.362 782.984 551.942 782.522 551.942 781.808ZM555.174 792V783.81H557.05V784.818C557.596 784.104 558.436 783.642 559.5 783.642C561.558 783.642 562.748 784.916 562.748 787.142V792H560.83V787.338C560.83 786.064 560.214 785.28 558.982 785.28C557.904 785.28 557.064 786.064 557.064 787.506V792H555.174ZM567.902 792.168C565.326 792.168 563.576 790.292 563.576 787.926C563.576 785.532 565.438 783.642 567.832 783.642C570.268 783.642 572.046 785.434 572.046 787.856V788.57H565.382C565.648 789.732 566.558 790.502 567.902 790.502C568.966 790.502 569.778 789.942 570.17 789.06L571.724 789.956C571.01 791.286 569.75 792.168 567.902 792.168ZM567.832 785.308C566.698 785.308 565.816 785.98 565.48 786.988H570.128C569.848 785.882 569.008 785.308 567.832 785.308ZM576.953 792.168C574.377 792.168 572.627 790.292 572.627 787.926C572.627 785.532 574.489 783.642 576.883 783.642C579.319 783.642 581.097 785.434 581.097 787.856V788.57H574.433C574.699 789.732 575.609 790.502 576.953 790.502C578.017 790.502 578.829 789.942 579.221 789.06L580.775 789.956C580.061 791.286 578.801 792.168 576.953 792.168ZM576.883 785.308C575.749 785.308 574.867 785.98 574.531 786.988H579.179C578.899 785.882 578.059 785.308 576.883 785.308ZM581.943 792V783.81H583.819V785.028C584.197 784.216 584.897 783.81 585.919 783.81C586.521 783.81 586.983 783.95 587.361 784.16L586.647 785.952C586.367 785.77 586.059 785.63 585.513 785.63C584.407 785.63 583.833 786.218 583.833 787.632V792H581.943ZM587.973 792V783.81H589.877V792H587.973ZM587.735 781.808C587.735 781.094 588.197 780.618 588.925 780.618C589.667 780.618 590.115 781.094 590.115 781.808C590.115 782.522 589.667 782.984 588.925 782.984C588.155 782.984 587.735 782.522 587.735 781.808ZM590.967 792V783.81H592.843V784.818C593.389 784.104 594.229 783.642 595.293 783.642C597.351 783.642 598.541 784.916 598.541 787.142V792H596.623V787.338C596.623 786.064 596.007 785.28 594.775 785.28C593.697 785.28 592.857 786.064 592.857 787.506V792H590.967ZM606.075 791.86V790.908C605.473 791.692 604.507 792.168 603.401 792.168C601.427 792.168 599.369 790.6 599.369 787.912C599.369 785.196 601.357 783.642 603.429 783.642C604.507 783.642 605.459 784.118 606.061 784.86V783.81H607.951V791.79C607.951 794.086 606.481 795.962 603.723 795.962C601.595 795.962 600.265 794.968 599.523 793.61L601.203 792.588C601.805 793.694 602.449 794.226 603.751 794.226C605.179 794.226 606.075 793.106 606.075 791.86ZM603.709 790.432C605.123 790.432 606.159 789.298 606.159 787.884C606.159 786.484 605.123 785.364 603.709 785.364C602.309 785.364 601.231 786.47 601.231 787.884C601.231 789.312 602.309 790.432 603.709 790.432ZM507.614 810H505.71V799.78H508.986C511.394 799.78 512.808 801.222 512.808 803.336C512.808 804.568 512.206 805.716 511.086 806.318L513.13 810H510.96L509.322 806.878H507.614V810ZM507.614 805.128H508.818C510.386 805.128 510.904 804.274 510.904 803.266C510.904 802.216 510.274 801.558 508.818 801.558H507.614V805.128ZM517.275 810.168C514.699 810.168 512.949 808.292 512.949 805.926C512.949 803.532 514.811 801.642 517.205 801.642C519.641 801.642 521.419 803.434 521.419 805.856V806.57H514.755C515.021 807.732 515.931 808.502 517.275 808.502C518.339 808.502 519.151 807.942 519.543 807.06L521.097 807.956C520.383 809.286 519.123 810.168 517.275 810.168ZM517.205 803.308C516.071 803.308 515.189 803.98 514.853 804.988H519.501C519.221 803.882 518.381 803.308 517.205 803.308ZM526.032 810.168C524.058 810.168 522 808.6 522 805.912C522 803.196 523.988 801.642 526.06 801.642C527.138 801.642 528.09 802.076 528.692 802.79V801.81H530.582V810H528.692V808.936C528.09 809.706 527.11 810.168 526.032 810.168ZM526.34 808.432C527.754 808.432 528.79 807.298 528.79 805.884C528.79 804.484 527.754 803.364 526.34 803.364C524.94 803.364 523.862 804.47 523.862 805.884C523.862 807.312 524.94 808.432 526.34 808.432ZM534.738 810.168C532.904 810.168 531.756 809.468 531.098 808.18L532.848 807.34C533.24 808.11 533.926 808.53 534.822 808.53C535.76 808.53 536.222 808.082 536.222 807.536C536.222 806.934 535.312 806.822 534.304 806.598C532.904 806.304 531.434 805.856 531.434 804.134C531.434 802.818 532.708 801.628 534.654 801.628C536.32 801.628 537.37 802.272 538 803.322L536.39 804.134C536.054 803.56 535.438 803.196 534.654 803.196C533.758 803.196 533.338 803.616 533.338 804.078C533.338 804.624 533.982 804.764 535.214 805.03C536.558 805.296 538.098 805.772 538.098 807.494C538.098 808.642 537.076 810.168 534.738 810.168ZM542.88 810.168C540.514 810.168 538.638 808.264 538.638 805.912C538.638 803.518 540.514 801.642 542.88 801.642C545.232 801.642 547.122 803.518 547.122 805.912C547.122 808.264 545.232 810.168 542.88 810.168ZM542.88 808.39C544.224 808.39 545.26 807.27 545.26 805.912C545.26 804.526 544.224 803.42 542.88 803.42C541.522 803.42 540.5 804.526 540.5 805.912C540.5 807.27 541.522 808.39 542.88 808.39ZM547.955 810V801.81H549.831V802.818C550.377 802.104 551.217 801.642 552.281 801.642C554.339 801.642 555.529 802.916 555.529 805.142V810H553.611V805.338C553.611 804.064 552.995 803.28 551.763 803.28C550.685 803.28 549.845 804.064 549.845 805.506V810H547.955ZM556.623 810V801.81H558.527V810H556.623ZM556.385 799.808C556.385 799.094 556.847 798.618 557.575 798.618C558.317 798.618 558.765 799.094 558.765 799.808C558.765 800.522 558.317 800.984 557.575 800.984C556.805 800.984 556.385 800.522 556.385 799.808ZM559.617 810V801.81H561.493V802.818C562.039 802.104 562.879 801.642 563.943 801.642C566.001 801.642 567.191 802.916 567.191 805.142V810H565.273V805.338C565.273 804.064 564.657 803.28 563.425 803.28C562.347 803.28 561.507 804.064 561.507 805.506V810H559.617ZM574.725 809.86V808.908C574.123 809.692 573.157 810.168 572.051 810.168C570.077 810.168 568.019 808.6 568.019 805.912C568.019 803.196 570.007 801.642 572.079 801.642C573.157 801.642 574.109 802.118 574.711 802.86V801.81H576.601V809.79C576.601 812.086 575.131 813.962 572.373 813.962C570.245 813.962 568.915 812.968 568.173 811.61L569.853 810.588C570.455 811.694 571.099 812.226 572.401 812.226C573.829 812.226 574.725 811.106 574.725 809.86ZM572.359 808.432C573.773 808.432 574.809 807.298 574.809 805.884C574.809 804.484 573.773 803.364 572.359 803.364C570.959 803.364 569.881 804.47 569.881 805.884C569.881 807.312 570.959 808.432 572.359 808.432ZM584.61 810V799.78H590.672V801.6H586.514V803.952H590.672V805.772H586.514V808.18H590.672V810H584.61ZM591.692 810V801.81H593.568V802.818C594.114 802.104 594.954 801.642 596.018 801.642C598.076 801.642 599.266 802.916 599.266 805.142V810H597.348V805.338C597.348 804.064 596.732 803.28 595.5 803.28C594.422 803.28 593.582 804.064 593.582 805.506V810H591.692ZM606.799 809.86V808.908C606.197 809.692 605.231 810.168 604.125 810.168C602.151 810.168 600.093 808.6 600.093 805.912C600.093 803.196 602.081 801.642 604.153 801.642C605.231 801.642 606.183 802.118 606.785 802.86V801.81H608.675V809.79C608.675 812.086 607.205 813.962 604.447 813.962C602.319 813.962 600.989 812.968 600.247 811.61L601.927 810.588C602.529 811.694 603.173 812.226 604.475 812.226C605.903 812.226 606.799 811.106 606.799 809.86ZM604.433 808.432C605.847 808.432 606.883 807.298 606.883 805.884C606.883 804.484 605.847 803.364 604.433 803.364C603.033 803.364 601.955 804.47 601.955 805.884C601.955 807.312 603.033 808.432 604.433 808.432ZM609.711 810V801.81H611.615V810H609.711ZM609.473 799.808C609.473 799.094 609.935 798.618 610.663 798.618C611.405 798.618 611.853 799.094 611.853 799.808C611.853 800.522 611.405 800.984 610.663 800.984C609.893 800.984 609.473 800.522 609.473 799.808ZM612.705 810V801.81H614.581V802.818C615.127 802.104 615.967 801.642 617.031 801.642C619.089 801.642 620.279 802.916 620.279 805.142V810H618.361V805.338C618.361 804.064 617.745 803.28 616.513 803.28C615.435 803.28 614.595 804.064 614.595 805.506V810H612.705ZM625.433 810.168C622.857 810.168 621.107 808.292 621.107 805.926C621.107 803.532 622.969 801.642 625.363 801.642C627.799 801.642 629.577 803.434 629.577 805.856V806.57H622.913C623.179 807.732 624.089 808.502 625.433 808.502C626.497 808.502 627.309 807.942 627.701 807.06L629.255 807.956C628.541 809.286 627.281 810.168 625.433 810.168ZM625.363 803.308C624.229 803.308 623.347 803.98 623.011 804.988H627.659C627.379 803.882 626.539 803.308 625.363 803.308Z" fill="white"/>
</g>
<defs>
<filter id="filter0_d_1042_21279" x="261" y="256" width="911" height="911" filterUnits="userSpaceOnUse" color-interpolation-filters="sRGB">
<feFlood flood-opacity="0" result="BackgroundImageFix"/>
<feColorMatrix in="SourceAlpha" type="matrix" values="0 0 0 0 0 0 0 0 0 0 0 0 0 0 0 0 0 0 127 0" result="hardAlpha"/>
<feOffset dy="4"/>
<feGaussianBlur stdDeviation="46"/>
<feComposite in2="hardAlpha" operator="out"/>
<feColorMatrix type="matrix" values="0 0 0 0 0 0 0 0 0 0 0 0 0 0 0 0 0 0 1 0"/>
<feBlend mode="normal" in2="BackgroundImageFix" result="effect1_dropShadow_1042_21279"/>
<feBlend mode="normal" in="SourceGraphic" in2="effect1_dropShadow_1042_21279" result="shape"/>
</filter>
<filter id="filter1_di_1042_21279" x="342" y="337" width="749" height="749" filterUnits="userSpaceOnUse" color-interpolation-filters="sRGB">
<feFlood flood-opacity="0" result="BackgroundImageFix"/>
<feColorMatrix in="SourceAlpha" type="matrix" values="0 0 0 0 0 0 0 0 0 0 0 0 0 0 0 0 0 0 127 0" result="hardAlpha"/>
<feOffset dy="4"/>
<feGaussianBlur stdDeviation="46"/>
<feComposite in2="hardAlpha" operator="out"/>
<feColorMatrix type="matrix" values="0 0 0 0 0 0 0 0 0 0 0 0 0 0 0 0 0 0 1 0"/>
<feBlend mode="normal" in2="BackgroundImageFix" result="effect1_dropShadow_1042_21279"/>
<feBlend mode="normal" in="SourceGraphic" in2="effect1_dropShadow_1042_21279" result="shape"/>
<feColorMatrix in="SourceAlpha" type="matrix" values="0 0 0 0 0 0 0 0 0 0 0 0 0 0 0 0 0 0 127 0" result="hardAlpha"/>
<feOffset dy="4"/>
<feGaussianBlur stdDeviation="26.85"/>
<feComposite in2="hardAlpha" operator="arithmetic" k2="-1" k3="1"/>
<feColorMatrix type="matrix" values="0 0 0 0 0.156863 0 0 0 0 0.443137 0 0 0 0 0.619608 0 0 0 1 0"/>
<feBlend mode="normal" in2="shape" result="effect2_innerShadow_1042_21279"/>
</filter>
<filter id="filter2_ii_1042_21279" x="478" y="469" width="477" height="481" filterUnits="userSpaceOnUse" color-interpolation-filters="sRGB">
<feFlood flood-opacity="0" result="BackgroundImageFix"/>
<feBlend mode="normal" in="SourceGraphic" in2="BackgroundImageFix" result="shape"/>
<feColorMatrix in="SourceAlpha" type="matrix" values="0 0 0 0 0 0 0 0 0 0 0 0 0 0 0 0 0 0 127 0" result="hardAlpha"/>
<feOffset dy="4"/>
<feGaussianBlur stdDeviation="3.1"/>
<feComposite in2="hardAlpha" operator="arithmetic" k2="-1" k3="1"/>
<feColorMatrix type="matrix" values="0 0 0 0 0 0 0 0 0 0 0 0 0 0 0 0 0 0 0.25 0"/>
<feBlend mode="normal" in2="shape" result="effect1_innerShadow_1042_21279"/>
<feColorMatrix in="SourceAlpha" type="matrix" values="0 0 0 0 0 0 0 0 0 0 0 0 0 0 0 0 0 0 127 0" result="hardAlpha"/>
<feOffset dy="4"/>
<feGaussianBlur stdDeviation="21.4"/>
<feComposite in2="hardAlpha" operator="arithmetic" k2="-1" k3="1"/>
<feColorMatrix type="matrix" values="0 0 0 0 0 0 0 0 0 0 0 0 0 0 0 0 0 0 0.25 0"/>
<feBlend mode="normal" in2="effect1_innerShadow_1042_21279" result="effect2_innerShadow_1042_21279"/>
</filter>
<filter id="filter3_bi_1042_21279" x="654.238" y="153.136" width="563.127" height="879.173" filterUnits="userSpaceOnUse" color-interpolation-filters="sRGB">
<feFlood flood-opacity="0" result="BackgroundImageFix"/>
<feGaussianBlur in="BackgroundImageFix" stdDeviation="32.85"/>
<feComposite in2="SourceAlpha" operator="in" result="effect1_backgroundBlur_1042_21279"/>
<feBlend mode="normal" in="SourceGraphic" in2="effect1_backgroundBlur_1042_21279" result="shape"/>
<feColorMatrix in="SourceAlpha" type="matrix" values="0 0 0 0 0 0 0 0 0 0 0 0 0 0 0 0 0 0 127 0" result="hardAlpha"/>
<feOffset dy="4"/>
<feGaussianBlur stdDeviation="19.4"/>
<feComposite in2="hardAlpha" operator="arithmetic" k2="-1" k3="1"/>
<feColorMatrix type="matrix" values="0 0 0 0 1 0 0 0 0 1 0 0 0 0 1 0 0 0 0.47 0"/>
<feBlend mode="normal" in2="shape" result="effect2_innerShadow_1042_21279"/>
</filter>
<filter id="filter4_bi_1042_21279" x="261.411" y="865.704" width="917.194" height="127.834" filterUnits="userSpaceOnUse" color-interpolation-filters="sRGB">
<feFlood flood-opacity="0" result="BackgroundImageFix"/>
<feGaussianBlur in="BackgroundImageFix" stdDeviation="13.4"/>
<feComposite in2="SourceAlpha" operator="in" result="effect1_backgroundBlur_1042_21279"/>
<feBlend mode="normal" in="SourceGraphic" in2="effect1_backgroundBlur_1042_21279" result="shape"/>
<feColorMatrix in="SourceAlpha" type="matrix" values="0 0 0 0 0 0 0 0 0 0 0 0 0 0 0 0 0 0 127 0" result="hardAlpha"/>
<feOffset dy="4"/>
<feGaussianBlur stdDeviation="12.8"/>
<feComposite in2="hardAlpha" operator="arithmetic" k2="-1" k3="1"/>
<feColorMatrix type="matrix" values="0 0 0 0 1 0 0 0 0 1 0 0 0 0 1 0 0 0 0.25 0"/>
<feBlend mode="normal" in2="shape" result="effect2_innerShadow_1042_21279"/>
</filter>
<filter id="filter5_bi_1042_21279" x="222.363" y="153.136" width="563.267" height="879.306" filterUnits="userSpaceOnUse" color-interpolation-filters="sRGB">
<feFlood flood-opacity="0" result="BackgroundImageFix"/>
<feGaussianBlur in="BackgroundImageFix" stdDeviation="32.85"/>
<feComposite in2="SourceAlpha" operator="in" result="effect1_backgroundBlur_1042_21279"/>
<feBlend mode="normal" in="SourceGraphic" in2="effect1_backgroundBlur_1042_21279" result="shape"/>
<feColorMatrix in="SourceAlpha" type="matrix" values="0 0 0 0 0 0 0 0 0 0 0 0 0 0 0 0 0 0 127 0" result="hardAlpha"/>
<feOffset dy="4"/>
<feGaussianBlur stdDeviation="19.4"/>
<feComposite in2="hardAlpha" operator="arithmetic" k2="-1" k3="1"/>
<feColorMatrix type="matrix" values="0 0 0 0 1 0 0 0 0 1 0 0 0 0 1 0 0 0 0.47 0"/>
<feBlend mode="normal" in2="shape" result="effect2_innerShadow_1042_21279"/>
</filter>
<filter id="filter6_bi_1042_21279" x="204.5" y="128.5" width="560.93" height="907.316" filterUnits="userSpaceOnUse" color-interpolation-filters="sRGB">
<feFlood flood-opacity="0" result="BackgroundImageFix"/>
<feGaussianBlur in="BackgroundImageFix" stdDeviation="22.75"/>
<feComposite in2="SourceAlpha" operator="in" result="effect1_backgroundBlur_1042_21279"/>
<feBlend mode="normal" in="SourceGraphic" in2="effect1_backgroundBlur_1042_21279" result="shape"/>
<feColorMatrix in="SourceAlpha" type="matrix" values="0 0 0 0 0 0 0 0 0 0 0 0 0 0 0 0 0 0 127 0" result="hardAlpha"/>
<feOffset dy="4"/>
<feGaussianBlur stdDeviation="6.4"/>
<feComposite in2="hardAlpha" operator="arithmetic" k2="-1" k3="1"/>
<feColorMatrix type="matrix" values="0 0 0 0 1 0 0 0 0 1 0 0 0 0 1 0 0 0 0.25 0"/>
<feBlend mode="normal" in2="shape" result="effect2_innerShadow_1042_21279"/>
</filter>
<filter id="filter7_b_1042_21279" x="228.3" y="944.913" width="983.4" height="67.107" filterUnits="userSpaceOnUse" color-interpolation-filters="sRGB">
<feFlood flood-opacity="0" result="BackgroundImageFix"/>
<feGaussianBlur in="BackgroundImageFix" stdDeviation="10.85"/>
<feComposite in2="SourceAlpha" operator="in" result="effect1_backgroundBlur_1042_21279"/>
<feBlend mode="normal" in="SourceGraphic" in2="effect1_backgroundBlur_1042_21279" result="shape"/>
</filter>
<filter id="filter8_b_1042_21279" x="669.438" y="123.5" width="571.07" height="917.316" filterUnits="userSpaceOnUse" color-interpolation-filters="sRGB">
<feFlood flood-opacity="0" result="BackgroundImageFix"/>
<feGaussianBlur in="BackgroundImageFix" stdDeviation="25.25"/>
<feComposite in2="SourceAlpha" operator="in" result="effect1_backgroundBlur_1042_21279"/>
<feBlend mode="normal" in="SourceGraphic" in2="effect1_backgroundBlur_1042_21279" result="shape"/>
</filter>
<filter id="filter9_bi_1042_21279" x="655.3" y="346.3" width="260.947" height="355.986" filterUnits="userSpaceOnUse" color-interpolation-filters="sRGB">
<feFlood flood-opacity="0" result="BackgroundImageFix"/>
<feGaussianBlur in="BackgroundImageFix" stdDeviation="32.85"/>
<feComposite in2="SourceAlpha" operator="in" result="effect1_backgroundBlur_1042_21279"/>
<feBlend mode="normal" in="SourceGraphic" in2="effect1_backgroundBlur_1042_21279" result="shape"/>
<feColorMatrix in="SourceAlpha" type="matrix" values="0 0 0 0 0 0 0 0 0 0 0 0 0 0 0 0 0 0 127 0" result="hardAlpha"/>
<feOffset dy="4"/>
<feGaussianBlur stdDeviation="19.4"/>
<feComposite in2="hardAlpha" operator="arithmetic" k2="-1" k3="1"/>
<feColorMatrix type="matrix" values="0 0 0 0 1 0 0 0 0 1 0 0 0 0 1 0 0 0 0.47 0"/>
<feBlend mode="normal" in2="shape" result="effect2_innerShadow_1042_21279"/>
</filter>
<filter id="filter10_bi_1042_21279" x="525.3" y="487.347" width="390.486" height="214.334" filterUnits="userSpaceOnUse" color-interpolation-filters="sRGB">
<feFlood flood-opacity="0" result="BackgroundImageFix"/>
<feGaussianBlur in="BackgroundImageFix" stdDeviation="32.85"/>
<feComposite in2="SourceAlpha" operator="in" result="effect1_backgroundBlur_1042_21279"/>
<feBlend mode="normal" in="SourceGraphic" in2="effect1_backgroundBlur_1042_21279" result="shape"/>
<feColorMatrix in="SourceAlpha" type="matrix" values="0 0 0 0 0 0 0 0 0 0 0 0 0 0 0 0 0 0 127 0" result="hardAlpha"/>
<feOffset dy="4"/>
<feGaussianBlur stdDeviation="19.4"/>
<feComposite in2="hardAlpha" operator="arithmetic" k2="-1" k3="1"/>
<feColorMatrix type="matrix" values="0 0 0 0 1 0 0 0 0 1 0 0 0 0 1 0 0 0 0.47 0"/>
<feBlend mode="normal" in2="shape" result="effect2_innerShadow_1042_21279"/>
</filter>
<filter id="filter11_bi_1042_21279" x="525.3" y="346.3" width="260.947" height="355.986" filterUnits="userSpaceOnUse" color-interpolation-filters="sRGB">
<feFlood flood-opacity="0" result="BackgroundImageFix"/>
<feGaussianBlur in="BackgroundImageFix" stdDeviation="32.85"/>
<feComposite in2="SourceAlpha" operator="in" result="effect1_backgroundBlur_1042_21279"/>
<feBlend mode="normal" in="SourceGraphic" in2="effect1_backgroundBlur_1042_21279" result="shape"/>
<feColorMatrix in="SourceAlpha" type="matrix" values="0 0 0 0 0 0 0 0 0 0 0 0 0 0 0 0 0 0 127 0" result="hardAlpha"/>
<feOffset dy="4"/>
<feGaussianBlur stdDeviation="19.4"/>
<feComposite in2="hardAlpha" operator="arithmetic" k2="-1" k3="1"/>
<feColorMatrix type="matrix" values="0 0 0 0 1 0 0 0 0 1 0 0 0 0 1 0 0 0 0.47 0"/>
<feBlend mode="normal" in2="shape" result="effect2_innerShadow_1042_21279"/>
</filter>
<filter id="filter12_bi_1042_21279" x="528.542" y="582.527" width="257.697" height="350.353" filterUnits="userSpaceOnUse" color-interpolation-filters="sRGB">
<feFlood flood-opacity="0" result="BackgroundImageFix"/>
<feGaussianBlur in="BackgroundImageFix" stdDeviation="32.85"/>
<feComposite in2="SourceAlpha" operator="in" result="effect1_backgroundBlur_1042_21279"/>
<feBlend mode="normal" in="SourceGraphic" in2="effect1_backgroundBlur_1042_21279" result="shape"/>
<feColorMatrix in="SourceAlpha" type="matrix" values="0 0 0 0 0 0 0 0 0 0 0 0 0 0 0 0 0 0 127 0" result="hardAlpha"/>
<feOffset dy="4"/>
<feGaussianBlur stdDeviation="19.4"/>
<feComposite in2="hardAlpha" operator="arithmetic" k2="-1" k3="1"/>
<feColorMatrix type="matrix" values="0 0 0 0 1 0 0 0 0 1 0 0 0 0 1 0 0 0 0.47 0"/>
<feBlend mode="normal" in2="shape" result="effect2_innerShadow_1042_21279"/>
</filter>
<filter id="filter13_bi_1042_21279" x="528.706" y="583.12" width="383.994" height="212.252" filterUnits="userSpaceOnUse" color-interpolation-filters="sRGB">
<feFlood flood-opacity="0" result="BackgroundImageFix"/>
<feGaussianBlur in="BackgroundImageFix" stdDeviation="32.85"/>
<feComposite in2="SourceAlpha" operator="in" result="effect1_backgroundBlur_1042_21279"/>
<feBlend mode="normal" in="SourceGraphic" in2="effect1_backgroundBlur_1042_21279" result="shape"/>
<feColorMatrix in="SourceAlpha" type="matrix" values="0 0 0 0 0 0 0 0 0 0 0 0 0 0 0 0 0 0 127 0" result="hardAlpha"/>
<feOffset dy="4"/>
<feGaussianBlur stdDeviation="19.4"/>
<feComposite in2="hardAlpha" operator="arithmetic" k2="-1" k3="1"/>
<feColorMatrix type="matrix" values="0 0 0 0 1 0 0 0 0 1 0 0 0 0 1 0 0 0 0.47 0"/>
<feBlend mode="normal" in2="shape" result="effect2_innerShadow_1042_21279"/>
</filter>
<filter id="filter14_bi_1042_21279" x="654.839" y="582.527" width="257.697" height="350.353" filterUnits="userSpaceOnUse" color-interpolation-filters="sRGB">
<feFlood flood-opacity="0" result="BackgroundImageFix"/>
<feGaussianBlur in="BackgroundImageFix" stdDeviation="32.85"/>
<feComposite in2="SourceAlpha" operator="in" result="effect1_backgroundBlur_1042_21279"/>
<feBlend mode="normal" in="SourceGraphic" in2="effect1_backgroundBlur_1042_21279" result="shape"/>
<feColorMatrix in="SourceAlpha" type="matrix" values="0 0 0 0 0 0 0 0 0 0 0 0 0 0 0 0 0 0 127 0" result="hardAlpha"/>
<feOffset dy="4"/>
<feGaussianBlur stdDeviation="19.4"/>
<feComposite in2="hardAlpha" operator="arithmetic" k2="-1" k3="1"/>
<feColorMatrix type="matrix" values="0 0 0 0 1 0 0 0 0 1 0 0 0 0 1 0 0 0 0.47 0"/>
<feBlend mode="normal" in2="shape" result="effect2_innerShadow_1042_21279"/>
</filter>
<filter id="filter15_bi_1042_21279" x="679.683" y="533.3" width="446.634" height="404.4" filterUnits="userSpaceOnUse" color-interpolation-filters="sRGB">
<feFlood flood-opacity="0" result="BackgroundImageFix"/>
<feGaussianBlur in="BackgroundImageFix" stdDeviation="32.85"/>
<feComposite in2="SourceAlpha" operator="in" result="effect1_backgroundBlur_1042_21279"/>
<feBlend mode="normal" in="SourceGraphic" in2="effect1_backgroundBlur_1042_21279" result="shape"/>
<feColorMatrix in="SourceAlpha" type="matrix" values="0 0 0 0 0 0 0 0 0 0 0 0 0 0 0 0 0 0 127 0" result="hardAlpha"/>
<feOffset dy="4"/>
<feGaussianBlur stdDeviation="19.4"/>
<feComposite in2="hardAlpha" operator="arithmetic" k2="-1" k3="1"/>
<feColorMatrix type="matrix" values="0 0 0 0 1 0 0 0 0 1 0 0 0 0 1 0 0 0 1 0"/>
<feBlend mode="normal" in2="shape" result="effect2_innerShadow_1042_21279"/>
</filter>
<filter id="filter16_bi_1042_21279" x="367.933" y="577.3" width="398.134" height="362.4" filterUnits="userSpaceOnUse" color-interpolation-filters="sRGB">
<feFlood flood-opacity="0" result="BackgroundImageFix"/>
<feGaussianBlur in="BackgroundImageFix" stdDeviation="32.85"/>
<feComposite in2="SourceAlpha" operator="in" result="effect1_backgroundBlur_1042_21279"/>
<feBlend mode="normal" in="SourceGraphic" in2="effect1_backgroundBlur_1042_21279" result="shape"/>
<feColorMatrix in="SourceAlpha" type="matrix" values="0 0 0 0 0 0 0 0 0 0 0 0 0 0 0 0 0 0 127 0" result="hardAlpha"/>
<feOffset dy="4"/>
<feGaussianBlur stdDeviation="19.4"/>
<feComposite in2="hardAlpha" operator="arithmetic" k2="-1" k3="1"/>
<feColorMatrix type="matrix" values="0 0 0 0 1 0 0 0 0 1 0 0 0 0 1 0 0 0 0.47 0"/>
<feBlend mode="normal" in2="shape" result="effect2_innerShadow_1042_21279"/>
</filter>
<linearGradient id="paint0_linear_1042_21279" x1="899.858" y1="511.274" x2="731.941" y2="706.857" gradientUnits="userSpaceOnUse">
<stop stop-color="white"/>
<stop offset="1" stop-color="#999999" stop-opacity="0"/>
</linearGradient>
<linearGradient id="paint1_linear_1042_21279" x1="859" y1="555" x2="728.5" y2="707" gradientUnits="userSpaceOnUse">
<stop stop-color="white"/>
<stop offset="1" stop-color="#999999" stop-opacity="0"/>
</linearGradient>
<linearGradient id="paint2_linear_1042_21279" x1="935.803" y1="218.836" x2="935.803" y2="966.608" gradientUnits="userSpaceOnUse">
<stop stop-color="white"/>
<stop offset="1" stop-color="white"/>
</linearGradient>
<linearGradient id="paint3_linear_1042_21279" x1="288.211" y1="929.622" x2="1151.81" y2="929.622" gradientUnits="userSpaceOnUse">
<stop stop-color="white"/>
<stop offset="1" stop-color="white" stop-opacity="0.39"/>
</linearGradient>
<linearGradient id="paint4_linear_1042_21279" x1="503.995" y1="218.836" x2="503.995" y2="966.744" gradientUnits="userSpaceOnUse">
<stop stop-color="white"/>
<stop offset="1" stop-color="#999999"/>
</linearGradient>
<linearGradient id="paint5_linear_1042_21279" x1="863.5" y1="174" x2="208" y2="879" gradientUnits="userSpaceOnUse">
<stop stop-color="white"/>
<stop offset="1" stop-color="white"/>
</linearGradient>
<linearGradient id="paint6_linear_1042_21279" x1="866.029" y1="826.5" x2="866.029" y2="549.001" gradientUnits="userSpaceOnUse">
<stop stop-color="#78D8FD"/>
<stop offset="1" stop-color="#488197"/>
</linearGradient>
<linearGradient id="paint7_linear_1042_21279" x1="903" y1="599" x2="903" y2="963" gradientUnits="userSpaceOnUse">
<stop stop-color="white"/>
<stop offset="1" stop-color="#999999" stop-opacity="0"/>
</linearGradient>
<linearGradient id="paint8_linear_1042_21279" x1="567" y1="643" x2="567" y2="951" gradientUnits="userSpaceOnUse">
<stop stop-color="white"/>
<stop offset="1" stop-color="#999999" stop-opacity="0"/>
</linearGradient>
<clipPath id="clip0_1042_21279">
<rect width="1440" height="1180" fill="white"/>
</clipPath>
</defs>
</svg>
