<svg width="1440" height="1180" viewBox="0 0 1440 1180" fill="none" xmlns="http://www.w3.org/2000/svg">
<g filter="url(#filter0_d_1042_20989)">
<circle cx="716.5" cy="707.5" r="363.5" fill="black" fill-opacity="0.17" shape-rendering="crispEdges"/>
<circle cx="716.5" cy="707.5" r="362.5" stroke="url(#paint0_linear_1042_20989)" stroke-opacity="0.44" stroke-width="2" shape-rendering="crispEdges"/>
</g>
<g filter="url(#filter1_di_1042_20989)">
<circle cx="716.5" cy="707.5" r="282.5" fill="black" fill-opacity="0.17" shape-rendering="crispEdges"/>
<circle cx="716.5" cy="707.5" r="281.5" stroke="url(#paint1_linear_1042_20989)" stroke-opacity="0.44" stroke-width="2" shape-rendering="crispEdges"/>
</g>
<g filter="url(#filter2_ii_1042_20989)">
<circle cx="716.5" cy="707.5" r="238.5" fill="#011D45"/>
</g>
<circle cx="716.5" cy="707.5" r="238" stroke="white" stroke-opacity="0.38"/>
<g filter="url(#filter3_bi_1042_20989)">
<path d="M1033.19 892.508L1152.67 966.608L720.938 218.836V348.883L1033.19 892.508Z" fill="white" fill-opacity="0.12"/>
<path d="M721.438 220.702L1151.24 965.134L1033.56 892.15L721.438 348.75V220.702Z" stroke="url(#paint2_linear_1042_20989)" stroke-opacity="0.25"/>
</g>
<g filter="url(#filter4_bi_1042_20989)">
<path d="M1152.67 966.6L1033.19 892.5L408.963 892.5L289.211 966.735L1152.81 966.735L1152.67 966.6Z" fill="white" fill-opacity="0.19"/>
<path d="M409.105 893L1033.05 893L1151.13 966.235L290.966 966.235L409.105 893Z" stroke="url(#paint3_linear_1042_20989)" stroke-opacity="0.5"/>
</g>
<g filter="url(#filter5_bi_1042_20989)">
<path d="M408.95 892.508L720.928 348.883V218.836L289.063 966.744H289.198L408.95 892.508Z" fill="#ADAFB1" fill-opacity="0.33"/>
<path d="M290.415 965.401L720.428 220.702V348.75L408.579 892.15L290.415 965.401Z" stroke="url(#paint4_linear_1042_20989)" stroke-opacity="0.72"/>
</g>
<g filter="url(#filter6_bi_1042_20989)">
<path d="M251 990.318L720.932 174V218.839L289.201 966.747L251 990.318Z" fill="url(#paint5_linear_1042_20989)" fill-opacity="0.5"/>
</g>
<g filter="url(#filter7_b_1042_20989)">
<path d="M1191 990.316L251 990.316L289.201 966.745L1152.66 966.609L1191 990.316Z" fill="#E2E2E2" fill-opacity="0.3"/>
</g>
<g filter="url(#filter8_b_1042_20989)">
<path d="M720.938 174L1191 990.318L1152.67 966.612L720.938 218.839V174Z" fill="#CECECE" fill-opacity="0.35"/>
</g>
<g filter="url(#filter9_f_1042_20989)">
<g filter="url(#filter10_di_1042_20989)">
<path d="M721.125 508.835L920.465 636.584L721.125 291V508.835Z" fill="#77D9FD"/>
</g>
<g filter="url(#filter11_bd_1042_20989)">
<path d="M720.367 508.039L521.078 635.654H919.758L720.367 508.039Z" fill="#78D9FC" fill-opacity="0.45" shape-rendering="crispEdges"/>
</g>
<g filter="url(#filter12_d_1042_20989)">
<path d="M720.418 291L521.078 636.584L720.418 508.835V291Z" fill="#C1EDFF"/>
</g>
<path d="M716.656 602.453C711.792 602.453 708.24 599.541 708.24 594.069V578.773H712.592V594.325C712.592 596.629 714.32 598.421 716.624 598.421C718.896 598.421 720.72 596.629 720.72 594.325V578.773H725.072V594.069C725.072 599.541 721.488 602.453 716.656 602.453ZM727.901 602.133V578.773H732.253V602.133H727.901Z" fill="white"/>
</g>
<path d="M713.887 535.867L543.422 831.138L713.887 535.867Z" fill="#C1B49A"/>
<g filter="url(#filter13_d_1042_20989)">
<g filter="url(#filter14_bi_1042_20989)">
<path d="M721.125 508.835L920.465 636.584L721.125 291V508.835Z" fill="#77D9FD"/>
</g>
<g filter="url(#filter15_bi_1042_20989)">
<path d="M720.367 508.039L521.078 635.654H919.758L720.367 508.039Z" fill="#78D9FC" fill-opacity="0.45"/>
</g>
<g filter="url(#filter16_bi_1042_20989)">
<path d="M720.418 291L521.078 636.584L720.418 508.835V291Z" fill="#C1EDFF"/>
</g>
<path d="M716.773 522.32C711.909 522.32 708.357 519.408 708.357 513.936V498.64H712.709V514.192C712.709 516.496 714.437 518.288 716.741 518.288C719.013 518.288 720.837 516.496 720.837 514.192V498.64H725.189V513.936C725.189 519.408 721.605 522.32 716.773 522.32ZM728.018 522V498.64H732.37V522H728.018Z" fill="white"/>
</g>
<g filter="url(#filter17_d_1042_20989)">
<g filter="url(#filter18_bi_1042_20989)">
<path d="M720.736 729.672L847 648.819L594.408 648.819L720.736 729.672Z" fill="#7AB6D2" fill-opacity="0.17"/>
</g>
<path d="M673.309 675L669.879 664.78H671.853L674.275 672.088L676.683 664.78H678.657L675.227 675H673.309ZM681.637 675.168C679.663 675.168 677.605 673.6 677.605 670.912C677.605 668.196 679.593 666.642 681.665 666.642C682.743 666.642 683.695 667.076 684.297 667.79V666.81H686.187V675H684.297V673.936C683.695 674.706 682.715 675.168 681.637 675.168ZM681.945 673.432C683.359 673.432 684.395 672.298 684.395 670.884C684.395 669.484 683.359 668.364 681.945 668.364C680.545 668.364 679.467 669.47 679.467 670.884C679.467 672.312 680.545 673.432 681.945 673.432ZM687.264 675V664.64H689.168V675H687.264ZM690.326 675V666.81H692.23V675H690.326ZM690.088 664.808C690.088 664.094 690.55 663.618 691.278 663.618C692.02 663.618 692.468 664.094 692.468 664.808C692.468 665.522 692.02 665.984 691.278 665.984C690.508 665.984 690.088 665.522 690.088 664.808ZM697.086 675.168C695.112 675.168 693.054 673.6 693.054 670.912C693.054 668.196 695.042 666.642 697.114 666.642C698.178 666.642 699.13 667.062 699.732 667.776V664.64H701.636V675H699.746V673.936C699.144 674.706 698.164 675.168 697.086 675.168ZM697.394 673.432C698.808 673.432 699.844 672.298 699.844 670.884C699.844 669.484 698.808 668.364 697.394 668.364C695.994 668.364 694.916 669.47 694.916 670.884C694.916 672.312 695.994 673.432 697.394 673.432ZM706.479 675.168C704.505 675.168 702.447 673.6 702.447 670.912C702.447 668.196 704.435 666.642 706.507 666.642C707.585 666.642 708.537 667.076 709.139 667.79V666.81H711.029V675H709.139V673.936C708.537 674.706 707.557 675.168 706.479 675.168ZM706.787 673.432C708.201 673.432 709.237 672.298 709.237 670.884C709.237 669.484 708.201 668.364 706.787 668.364C705.387 668.364 704.309 669.47 704.309 670.884C704.309 672.312 705.387 673.432 706.787 673.432ZM711.812 668.504V666.81H713.212V665.564L715.116 664.262V666.81H716.782V668.504H715.116V671.57C715.116 672.998 715.326 673.222 716.782 673.222V675H716.516C713.982 675 713.212 674.188 713.212 671.584V668.504H711.812ZM717.697 675V666.81H719.601V675H717.697ZM717.459 664.808C717.459 664.094 717.921 663.618 718.649 663.618C719.391 663.618 719.839 664.094 719.839 664.808C719.839 665.522 719.391 665.984 718.649 665.984C717.879 665.984 717.459 665.522 717.459 664.808ZM724.668 675.168C722.302 675.168 720.426 673.264 720.426 670.912C720.426 668.518 722.302 666.642 724.668 666.642C727.02 666.642 728.91 668.518 728.91 670.912C728.91 673.264 727.02 675.168 724.668 675.168ZM724.668 673.39C726.012 673.39 727.048 672.27 727.048 670.912C727.048 669.526 726.012 668.42 724.668 668.42C723.31 668.42 722.288 669.526 722.288 670.912C722.288 672.27 723.31 673.39 724.668 673.39ZM729.742 675V666.81H731.618V667.818C732.164 667.104 733.004 666.642 734.068 666.642C736.126 666.642 737.316 667.916 737.316 670.142V675H735.398V670.338C735.398 669.064 734.782 668.28 733.55 668.28C732.472 668.28 731.632 669.064 731.632 670.506V675H729.742ZM744.938 675L748.578 664.78H750.496L754.136 675H752.148L751.518 673.18H747.556L746.926 675H744.938ZM749.544 667.482L748.2 671.36H750.888L749.544 667.482ZM754.817 675V666.81H756.693V667.818C757.239 667.104 758.079 666.642 759.143 666.642C761.201 666.642 762.391 667.916 762.391 670.142V675H760.473V670.338C760.473 669.064 759.857 668.28 758.625 668.28C757.547 668.28 756.707 669.064 756.707 670.506V675H754.817ZM767.25 675.168C765.276 675.168 763.218 673.6 763.218 670.912C763.218 668.196 765.206 666.642 767.278 666.642C768.342 666.642 769.294 667.062 769.896 667.776V664.64H771.8V675H769.91V673.936C769.308 674.706 768.328 675.168 767.25 675.168ZM767.558 673.432C768.972 673.432 770.008 672.298 770.008 670.884C770.008 669.484 768.972 668.364 767.558 668.364C766.158 668.364 765.08 669.47 765.08 670.884C765.08 672.312 766.158 673.432 767.558 673.432ZM685.409 693L681.979 682.78H683.953L686.375 690.088L688.783 682.78H690.757L687.327 693H685.409ZM694.031 693.168C691.455 693.168 689.705 691.292 689.705 688.926C689.705 686.532 691.567 684.642 693.961 684.642C696.397 684.642 698.175 686.434 698.175 688.856V689.57H691.511C691.777 690.732 692.687 691.502 694.031 691.502C695.095 691.502 695.907 690.942 696.299 690.06L697.853 690.956C697.139 692.286 695.879 693.168 694.031 693.168ZM693.961 686.308C692.827 686.308 691.945 686.98 691.609 687.988H696.257C695.977 686.882 695.137 686.308 693.961 686.308ZM699.022 693V684.81H700.898V686.028C701.276 685.216 701.976 684.81 702.998 684.81C703.6 684.81 704.062 684.95 704.44 685.16L703.726 686.952C703.446 686.77 703.138 686.63 702.592 686.63C701.486 686.63 700.912 687.218 700.912 688.632V693H699.022ZM705.051 693V684.81H706.955V693H705.051ZM704.813 682.808C704.813 682.094 705.275 681.618 706.003 681.618C706.745 681.618 707.193 682.094 707.193 682.808C707.193 683.522 706.745 683.984 706.003 683.984C705.233 683.984 704.813 683.522 704.813 682.808ZM707.737 686.504V684.81H709.123V684.796C709.123 682.444 710.061 681.52 712.553 681.52H712.721V683.27C711.209 683.27 711.041 683.62 711.041 684.81H712.721V686.504H711.041V693H709.123V686.504H707.737ZM713.514 693V684.81H715.418V693H713.514ZM713.276 682.808C713.276 682.094 713.738 681.618 714.466 681.618C715.208 681.618 715.656 682.094 715.656 682.808C715.656 683.522 715.208 683.984 714.466 683.984C713.696 683.984 713.276 683.522 713.276 682.808ZM720.498 693.168C718.104 693.168 716.242 691.264 716.242 688.912C716.242 686.518 718.104 684.642 720.498 684.642C722.332 684.642 723.774 685.692 724.404 687.176L722.71 687.89C722.332 686.994 721.52 686.42 720.512 686.42C719.126 686.42 718.09 687.526 718.09 688.912C718.09 690.27 719.126 691.39 720.526 691.39C721.59 691.39 722.36 690.76 722.738 689.864L724.432 690.592C723.788 692.104 722.402 693.168 720.498 693.168ZM728.846 693.168C726.872 693.168 724.814 691.6 724.814 688.912C724.814 686.196 726.802 684.642 728.874 684.642C729.952 684.642 730.904 685.076 731.506 685.79V684.81H733.396V693H731.506V691.936C730.904 692.706 729.924 693.168 728.846 693.168ZM729.154 691.432C730.568 691.432 731.604 690.298 731.604 688.884C731.604 687.484 730.568 686.364 729.154 686.364C727.754 686.364 726.676 687.47 726.676 688.884C726.676 690.312 727.754 691.432 729.154 691.432ZM734.179 686.504V684.81H735.579V683.564L737.483 682.262V684.81H739.149V686.504H737.483V689.57C737.483 690.998 737.693 691.222 739.149 691.222V693H738.883C736.349 693 735.579 692.188 735.579 689.584V686.504H734.179ZM740.065 693V684.81H741.969V693H740.065ZM739.827 682.808C739.827 682.094 740.289 681.618 741.017 681.618C741.759 681.618 742.207 682.094 742.207 682.808C742.207 683.522 741.759 683.984 741.017 683.984C740.247 683.984 739.827 683.522 739.827 682.808ZM747.035 693.168C744.669 693.168 742.793 691.264 742.793 688.912C742.793 686.518 744.669 684.642 747.035 684.642C749.387 684.642 751.277 686.518 751.277 688.912C751.277 691.264 749.387 693.168 747.035 693.168ZM747.035 691.39C748.379 691.39 749.415 690.27 749.415 688.912C749.415 687.526 748.379 686.42 747.035 686.42C745.677 686.42 744.655 687.526 744.655 688.912C744.655 690.27 745.677 691.39 747.035 691.39ZM752.109 693V684.81H753.985V685.818C754.531 685.104 755.371 684.642 756.435 684.642C758.493 684.642 759.683 685.916 759.683 688.142V693H757.765V688.338C757.765 687.064 757.149 686.28 755.917 686.28C754.839 686.28 753.999 687.064 753.999 688.506V693H752.109Z" fill="white"/>
</g>
<g filter="url(#filter19_bi_1042_20989)">
<path d="M870 641L1003.37 872H736.632L870 641Z" fill="black" fill-opacity="0.04"/>
<path d="M737.498 871.5L870 642L1002.5 871.5H737.498Z" stroke="url(#paint6_linear_1042_20989)"/>
</g>
<g filter="url(#filter20_bi_1042_20989)">
<path d="M567 643L700.368 874H433.632L567 643Z" fill="#D9D9D9" fill-opacity="0.03"/>
<path d="M434.498 873.5L567 644L699.502 873.5H434.498Z" stroke="url(#paint7_linear_1042_20989)"/>
</g>
<path d="M816.856 800L814.154 795.086L813.048 796.458V800H811.144V789.78H813.048V793.966L816.422 789.78H818.732L815.498 793.756L819.026 800H816.856ZM819.483 800V791.81H821.359V792.818C821.905 792.104 822.745 791.642 823.809 791.642C825.867 791.642 827.057 792.916 827.057 795.142V800H825.139V795.338C825.139 794.064 824.523 793.28 823.291 793.28C822.213 793.28 821.373 794.064 821.373 795.506V800H819.483ZM832.126 800.168C829.76 800.168 827.884 798.264 827.884 795.912C827.884 793.518 829.76 791.642 832.126 791.642C834.478 791.642 836.368 793.518 836.368 795.912C836.368 798.264 834.478 800.168 832.126 800.168ZM832.126 798.39C833.47 798.39 834.506 797.27 834.506 795.912C834.506 794.526 833.47 793.42 832.126 793.42C830.768 793.42 829.746 794.526 829.746 795.912C829.746 797.27 830.768 798.39 832.126 798.39ZM839.008 800L836.278 791.81H838.21L840.016 797.452L842.074 791.81H843.95L845.966 797.466L847.842 791.81H849.76L846.89 800H845.07L842.998 794.33L840.87 800H839.008ZM850.504 800V789.64H852.408V800H850.504ZM857.558 800.168C854.982 800.168 853.232 798.292 853.232 795.926C853.232 793.532 855.094 791.642 857.488 791.642C859.924 791.642 861.702 793.434 861.702 795.856V796.57H855.038C855.304 797.732 856.214 798.502 857.558 798.502C858.622 798.502 859.434 797.942 859.826 797.06L861.38 797.956C860.666 799.286 859.406 800.168 857.558 800.168ZM857.488 793.308C856.354 793.308 855.472 793.98 855.136 794.988H859.784C859.504 793.882 858.664 793.308 857.488 793.308ZM866.315 800.168C864.341 800.168 862.283 798.6 862.283 795.912C862.283 793.196 864.271 791.642 866.343 791.642C867.407 791.642 868.359 792.062 868.961 792.776V789.64H870.865V800H868.975V798.936C868.373 799.706 867.393 800.168 866.315 800.168ZM866.623 798.432C868.037 798.432 869.073 797.298 869.073 795.884C869.073 794.484 868.037 793.364 866.623 793.364C865.223 793.364 864.145 794.47 864.145 795.884C864.145 797.312 865.223 798.432 866.623 798.432ZM878.382 799.86V798.908C877.78 799.692 876.814 800.168 875.708 800.168C873.734 800.168 871.676 798.6 871.676 795.912C871.676 793.196 873.664 791.642 875.736 791.642C876.814 791.642 877.766 792.118 878.368 792.86V791.81H880.258V799.79C880.258 802.086 878.788 803.962 876.03 803.962C873.902 803.962 872.572 802.968 871.83 801.61L873.51 800.588C874.112 801.694 874.756 802.226 876.058 802.226C877.486 802.226 878.382 801.106 878.382 799.86ZM876.016 798.432C877.43 798.432 878.466 797.298 878.466 795.884C878.466 794.484 877.43 793.364 876.016 793.364C874.616 793.364 873.538 794.47 873.538 795.884C873.538 797.312 874.616 798.432 876.016 798.432ZM885.421 800.168C882.845 800.168 881.095 798.292 881.095 795.926C881.095 793.532 882.957 791.642 885.351 791.642C887.787 791.642 889.565 793.434 889.565 795.856V796.57H882.901C883.167 797.732 884.077 798.502 885.421 798.502C886.485 798.502 887.297 797.942 887.689 797.06L889.243 797.956C888.529 799.286 887.269 800.168 885.421 800.168ZM885.351 793.308C884.217 793.308 883.335 793.98 882.999 794.988H887.647C887.367 793.882 886.527 793.308 885.351 793.308ZM897.317 800V789.78H900.537C902.819 789.78 904.093 790.746 904.093 792.636C904.093 793.518 903.715 794.19 902.973 794.624C903.925 795.058 904.457 795.842 904.457 796.976C904.457 798.992 903.043 800 900.789 800H897.317ZM900.705 795.632H899.221V798.25H900.789C901.951 798.25 902.539 797.774 902.539 796.934C902.539 796.094 902.119 795.632 900.705 795.632ZM900.537 791.53H899.221V793.854H900.537C901.755 793.854 902.175 793.364 902.175 792.636C902.175 791.866 901.713 791.53 900.537 791.53ZM909.067 800.168C907.093 800.168 905.035 798.6 905.035 795.912C905.035 793.196 907.023 791.642 909.095 791.642C910.173 791.642 911.125 792.076 911.727 792.79V791.81H913.617V800H911.727V798.936C911.125 799.706 910.145 800.168 909.067 800.168ZM909.375 798.432C910.789 798.432 911.825 797.298 911.825 795.884C911.825 794.484 910.789 793.364 909.375 793.364C907.975 793.364 906.897 794.47 906.897 795.884C906.897 797.312 907.975 798.432 909.375 798.432ZM917.773 800.168C915.939 800.168 914.791 799.468 914.133 798.18L915.883 797.34C916.275 798.11 916.961 798.53 917.857 798.53C918.795 798.53 919.257 798.082 919.257 797.536C919.257 796.934 918.347 796.822 917.339 796.598C915.939 796.304 914.469 795.856 914.469 794.134C914.469 792.818 915.743 791.628 917.689 791.628C919.355 791.628 920.405 792.272 921.035 793.322L919.425 794.134C919.089 793.56 918.473 793.196 917.689 793.196C916.793 793.196 916.373 793.616 916.373 794.078C916.373 794.624 917.017 794.764 918.249 795.03C919.593 795.296 921.133 795.772 921.133 797.494C921.133 798.642 920.111 800.168 917.773 800.168ZM926 800.168C923.424 800.168 921.674 798.292 921.674 795.926C921.674 793.532 923.536 791.642 925.93 791.642C928.366 791.642 930.144 793.434 930.144 795.856V796.57H923.48C923.746 797.732 924.656 798.502 926 798.502C927.064 798.502 927.876 797.942 928.268 797.06L929.822 797.956C929.108 799.286 927.848 800.168 926 800.168ZM925.93 793.308C924.796 793.308 923.914 793.98 923.578 794.988H928.226C927.946 793.882 927.106 793.308 925.93 793.308Z" fill="white"/>
<path d="M527.079 792V781.78H533.141V783.6H528.983V785.952H533.141V787.772H528.983V790.18H533.141V792H527.079ZM534.16 792V783.81H536.036V784.818C536.582 784.104 537.422 783.642 538.486 783.642C540.544 783.642 541.734 784.916 541.734 787.142V792H539.816V787.338C539.816 786.064 539.2 785.28 537.968 785.28C536.89 785.28 536.05 786.064 536.05 787.506V792H534.16ZM549.268 791.86V790.908C548.666 791.692 547.7 792.168 546.594 792.168C544.62 792.168 542.562 790.6 542.562 787.912C542.562 785.196 544.55 783.642 546.622 783.642C547.7 783.642 548.652 784.118 549.254 784.86V783.81H551.144V791.79C551.144 794.086 549.674 795.962 546.916 795.962C544.788 795.962 543.458 794.968 542.716 793.61L544.396 792.588C544.998 793.694 545.642 794.226 546.944 794.226C548.372 794.226 549.268 793.106 549.268 791.86ZM546.902 790.432C548.316 790.432 549.352 789.298 549.352 787.884C549.352 786.484 548.316 785.364 546.902 785.364C545.502 785.364 544.424 786.47 544.424 787.884C544.424 789.312 545.502 790.432 546.902 790.432ZM552.18 792V783.81H554.084V792H552.18ZM551.942 781.808C551.942 781.094 552.404 780.618 553.132 780.618C553.874 780.618 554.322 781.094 554.322 781.808C554.322 782.522 553.874 782.984 553.132 782.984C552.362 782.984 551.942 782.522 551.942 781.808ZM555.174 792V783.81H557.05V784.818C557.596 784.104 558.436 783.642 559.5 783.642C561.558 783.642 562.748 784.916 562.748 787.142V792H560.83V787.338C560.83 786.064 560.214 785.28 558.982 785.28C557.904 785.28 557.064 786.064 557.064 787.506V792H555.174ZM567.902 792.168C565.326 792.168 563.576 790.292 563.576 787.926C563.576 785.532 565.438 783.642 567.832 783.642C570.268 783.642 572.046 785.434 572.046 787.856V788.57H565.382C565.648 789.732 566.558 790.502 567.902 790.502C568.966 790.502 569.778 789.942 570.17 789.06L571.724 789.956C571.01 791.286 569.75 792.168 567.902 792.168ZM567.832 785.308C566.698 785.308 565.816 785.98 565.48 786.988H570.128C569.848 785.882 569.008 785.308 567.832 785.308ZM576.953 792.168C574.377 792.168 572.627 790.292 572.627 787.926C572.627 785.532 574.489 783.642 576.883 783.642C579.319 783.642 581.097 785.434 581.097 787.856V788.57H574.433C574.699 789.732 575.609 790.502 576.953 790.502C578.017 790.502 578.829 789.942 579.221 789.06L580.775 789.956C580.061 791.286 578.801 792.168 576.953 792.168ZM576.883 785.308C575.749 785.308 574.867 785.98 574.531 786.988H579.179C578.899 785.882 578.059 785.308 576.883 785.308ZM581.943 792V783.81H583.819V785.028C584.197 784.216 584.897 783.81 585.919 783.81C586.521 783.81 586.983 783.95 587.361 784.16L586.647 785.952C586.367 785.77 586.059 785.63 585.513 785.63C584.407 785.63 583.833 786.218 583.833 787.632V792H581.943ZM587.973 792V783.81H589.877V792H587.973ZM587.735 781.808C587.735 781.094 588.197 780.618 588.925 780.618C589.667 780.618 590.115 781.094 590.115 781.808C590.115 782.522 589.667 782.984 588.925 782.984C588.155 782.984 587.735 782.522 587.735 781.808ZM590.967 792V783.81H592.843V784.818C593.389 784.104 594.229 783.642 595.293 783.642C597.351 783.642 598.541 784.916 598.541 787.142V792H596.623V787.338C596.623 786.064 596.007 785.28 594.775 785.28C593.697 785.28 592.857 786.064 592.857 787.506V792H590.967ZM606.075 791.86V790.908C605.473 791.692 604.507 792.168 603.401 792.168C601.427 792.168 599.369 790.6 599.369 787.912C599.369 785.196 601.357 783.642 603.429 783.642C604.507 783.642 605.459 784.118 606.061 784.86V783.81H607.951V791.79C607.951 794.086 606.481 795.962 603.723 795.962C601.595 795.962 600.265 794.968 599.523 793.61L601.203 792.588C601.805 793.694 602.449 794.226 603.751 794.226C605.179 794.226 606.075 793.106 606.075 791.86ZM603.709 790.432C605.123 790.432 606.159 789.298 606.159 787.884C606.159 786.484 605.123 785.364 603.709 785.364C602.309 785.364 601.231 786.47 601.231 787.884C601.231 789.312 602.309 790.432 603.709 790.432ZM507.614 810H505.71V799.78H508.986C511.394 799.78 512.808 801.222 512.808 803.336C512.808 804.568 512.206 805.716 511.086 806.318L513.13 810H510.96L509.322 806.878H507.614V810ZM507.614 805.128H508.818C510.386 805.128 510.904 804.274 510.904 803.266C510.904 802.216 510.274 801.558 508.818 801.558H507.614V805.128ZM517.275 810.168C514.699 810.168 512.949 808.292 512.949 805.926C512.949 803.532 514.811 801.642 517.205 801.642C519.641 801.642 521.419 803.434 521.419 805.856V806.57H514.755C515.021 807.732 515.931 808.502 517.275 808.502C518.339 808.502 519.151 807.942 519.543 807.06L521.097 807.956C520.383 809.286 519.123 810.168 517.275 810.168ZM517.205 803.308C516.071 803.308 515.189 803.98 514.853 804.988H519.501C519.221 803.882 518.381 803.308 517.205 803.308ZM526.032 810.168C524.058 810.168 522 808.6 522 805.912C522 803.196 523.988 801.642 526.06 801.642C527.138 801.642 528.09 802.076 528.692 802.79V801.81H530.582V810H528.692V808.936C528.09 809.706 527.11 810.168 526.032 810.168ZM526.34 808.432C527.754 808.432 528.79 807.298 528.79 805.884C528.79 804.484 527.754 803.364 526.34 803.364C524.94 803.364 523.862 804.47 523.862 805.884C523.862 807.312 524.94 808.432 526.34 808.432ZM534.738 810.168C532.904 810.168 531.756 809.468 531.098 808.18L532.848 807.34C533.24 808.11 533.926 808.53 534.822 808.53C535.76 808.53 536.222 808.082 536.222 807.536C536.222 806.934 535.312 806.822 534.304 806.598C532.904 806.304 531.434 805.856 531.434 804.134C531.434 802.818 532.708 801.628 534.654 801.628C536.32 801.628 537.37 802.272 538 803.322L536.39 804.134C536.054 803.56 535.438 803.196 534.654 803.196C533.758 803.196 533.338 803.616 533.338 804.078C533.338 804.624 533.982 804.764 535.214 805.03C536.558 805.296 538.098 805.772 538.098 807.494C538.098 808.642 537.076 810.168 534.738 810.168ZM542.88 810.168C540.514 810.168 538.638 808.264 538.638 805.912C538.638 803.518 540.514 801.642 542.88 801.642C545.232 801.642 547.122 803.518 547.122 805.912C547.122 808.264 545.232 810.168 542.88 810.168ZM542.88 808.39C544.224 808.39 545.26 807.27 545.26 805.912C545.26 804.526 544.224 803.42 542.88 803.42C541.522 803.42 540.5 804.526 540.5 805.912C540.5 807.27 541.522 808.39 542.88 808.39ZM547.955 810V801.81H549.831V802.818C550.377 802.104 551.217 801.642 552.281 801.642C554.339 801.642 555.529 802.916 555.529 805.142V810H553.611V805.338C553.611 804.064 552.995 803.28 551.763 803.28C550.685 803.28 549.845 804.064 549.845 805.506V810H547.955ZM556.623 810V801.81H558.527V810H556.623ZM556.385 799.808C556.385 799.094 556.847 798.618 557.575 798.618C558.317 798.618 558.765 799.094 558.765 799.808C558.765 800.522 558.317 800.984 557.575 800.984C556.805 800.984 556.385 800.522 556.385 799.808ZM559.617 810V801.81H561.493V802.818C562.039 802.104 562.879 801.642 563.943 801.642C566.001 801.642 567.191 802.916 567.191 805.142V810H565.273V805.338C565.273 804.064 564.657 803.28 563.425 803.28C562.347 803.28 561.507 804.064 561.507 805.506V810H559.617ZM574.725 809.86V808.908C574.123 809.692 573.157 810.168 572.051 810.168C570.077 810.168 568.019 808.6 568.019 805.912C568.019 803.196 570.007 801.642 572.079 801.642C573.157 801.642 574.109 802.118 574.711 802.86V801.81H576.601V809.79C576.601 812.086 575.131 813.962 572.373 813.962C570.245 813.962 568.915 812.968 568.173 811.61L569.853 810.588C570.455 811.694 571.099 812.226 572.401 812.226C573.829 812.226 574.725 811.106 574.725 809.86ZM572.359 808.432C573.773 808.432 574.809 807.298 574.809 805.884C574.809 804.484 573.773 803.364 572.359 803.364C570.959 803.364 569.881 804.47 569.881 805.884C569.881 807.312 570.959 808.432 572.359 808.432ZM584.61 810V799.78H590.672V801.6H586.514V803.952H590.672V805.772H586.514V808.18H590.672V810H584.61ZM591.692 810V801.81H593.568V802.818C594.114 802.104 594.954 801.642 596.018 801.642C598.076 801.642 599.266 802.916 599.266 805.142V810H597.348V805.338C597.348 804.064 596.732 803.28 595.5 803.28C594.422 803.28 593.582 804.064 593.582 805.506V810H591.692ZM606.799 809.86V808.908C606.197 809.692 605.231 810.168 604.125 810.168C602.151 810.168 600.093 808.6 600.093 805.912C600.093 803.196 602.081 801.642 604.153 801.642C605.231 801.642 606.183 802.118 606.785 802.86V801.81H608.675V809.79C608.675 812.086 607.205 813.962 604.447 813.962C602.319 813.962 600.989 812.968 600.247 811.61L601.927 810.588C602.529 811.694 603.173 812.226 604.475 812.226C605.903 812.226 606.799 811.106 606.799 809.86ZM604.433 808.432C605.847 808.432 606.883 807.298 606.883 805.884C606.883 804.484 605.847 803.364 604.433 803.364C603.033 803.364 601.955 804.47 601.955 805.884C601.955 807.312 603.033 808.432 604.433 808.432ZM609.711 810V801.81H611.615V810H609.711ZM609.473 799.808C609.473 799.094 609.935 798.618 610.663 798.618C611.405 798.618 611.853 799.094 611.853 799.808C611.853 800.522 611.405 800.984 610.663 800.984C609.893 800.984 609.473 800.522 609.473 799.808ZM612.705 810V801.81H614.581V802.818C615.127 802.104 615.967 801.642 617.031 801.642C619.089 801.642 620.279 802.916 620.279 805.142V810H618.361V805.338C618.361 804.064 617.745 803.28 616.513 803.28C615.435 803.28 614.595 804.064 614.595 805.506V810H612.705ZM625.433 810.168C622.857 810.168 621.107 808.292 621.107 805.926C621.107 803.532 622.969 801.642 625.363 801.642C627.799 801.642 629.577 803.434 629.577 805.856V806.57H622.913C623.179 807.732 624.089 808.502 625.433 808.502C626.497 808.502 627.309 807.942 627.701 807.06L629.255 807.956C628.541 809.286 627.281 810.168 625.433 810.168ZM625.363 803.308C624.229 803.308 623.347 803.98 623.011 804.988H627.659C627.379 803.882 626.539 803.308 625.363 803.308Z" fill="white"/>
<defs>
<filter id="filter0_d_1042_20989" x="261" y="256" width="911" height="911" filterUnits="userSpaceOnUse" color-interpolation-filters="sRGB">
<feFlood flood-opacity="0" result="BackgroundImageFix"/>
<feColorMatrix in="SourceAlpha" type="matrix" values="0 0 0 0 0 0 0 0 0 0 0 0 0 0 0 0 0 0 127 0" result="hardAlpha"/>
<feOffset dy="4"/>
<feGaussianBlur stdDeviation="46"/>
<feComposite in2="hardAlpha" operator="out"/>
<feColorMatrix type="matrix" values="0 0 0 0 0 0 0 0 0 0 0 0 0 0 0 0 0 0 1 0"/>
<feBlend mode="normal" in2="BackgroundImageFix" result="effect1_dropShadow_1042_20989"/>
<feBlend mode="normal" in="SourceGraphic" in2="effect1_dropShadow_1042_20989" result="shape"/>
</filter>
<filter id="filter1_di_1042_20989" x="342" y="337" width="749" height="749" filterUnits="userSpaceOnUse" color-interpolation-filters="sRGB">
<feFlood flood-opacity="0" result="BackgroundImageFix"/>
<feColorMatrix in="SourceAlpha" type="matrix" values="0 0 0 0 0 0 0 0 0 0 0 0 0 0 0 0 0 0 127 0" result="hardAlpha"/>
<feOffset dy="4"/>
<feGaussianBlur stdDeviation="46"/>
<feComposite in2="hardAlpha" operator="out"/>
<feColorMatrix type="matrix" values="0 0 0 0 0 0 0 0 0 0 0 0 0 0 0 0 0 0 1 0"/>
<feBlend mode="normal" in2="BackgroundImageFix" result="effect1_dropShadow_1042_20989"/>
<feBlend mode="normal" in="SourceGraphic" in2="effect1_dropShadow_1042_20989" result="shape"/>
<feColorMatrix in="SourceAlpha" type="matrix" values="0 0 0 0 0 0 0 0 0 0 0 0 0 0 0 0 0 0 127 0" result="hardAlpha"/>
<feOffset dy="4"/>
<feGaussianBlur stdDeviation="26.85"/>
<feComposite in2="hardAlpha" operator="arithmetic" k2="-1" k3="1"/>
<feColorMatrix type="matrix" values="0 0 0 0 0.156863 0 0 0 0 0.443137 0 0 0 0 0.619608 0 0 0 1 0"/>
<feBlend mode="normal" in2="shape" result="effect2_innerShadow_1042_20989"/>
</filter>
<filter id="filter2_ii_1042_20989" x="478" y="469" width="477" height="481" filterUnits="userSpaceOnUse" color-interpolation-filters="sRGB">
<feFlood flood-opacity="0" result="BackgroundImageFix"/>
<feBlend mode="normal" in="SourceGraphic" in2="BackgroundImageFix" result="shape"/>
<feColorMatrix in="SourceAlpha" type="matrix" values="0 0 0 0 0 0 0 0 0 0 0 0 0 0 0 0 0 0 127 0" result="hardAlpha"/>
<feOffset dy="4"/>
<feGaussianBlur stdDeviation="3.1"/>
<feComposite in2="hardAlpha" operator="arithmetic" k2="-1" k3="1"/>
<feColorMatrix type="matrix" values="0 0 0 0 0 0 0 0 0 0 0 0 0 0 0 0 0 0 0.25 0"/>
<feBlend mode="normal" in2="shape" result="effect1_innerShadow_1042_20989"/>
<feColorMatrix in="SourceAlpha" type="matrix" values="0 0 0 0 0 0 0 0 0 0 0 0 0 0 0 0 0 0 127 0" result="hardAlpha"/>
<feOffset dy="4"/>
<feGaussianBlur stdDeviation="21.4"/>
<feComposite in2="hardAlpha" operator="arithmetic" k2="-1" k3="1"/>
<feColorMatrix type="matrix" values="0 0 0 0 0 0 0 0 0 0 0 0 0 0 0 0 0 0 0.25 0"/>
<feBlend mode="normal" in2="effect1_innerShadow_1042_20989" result="effect2_innerShadow_1042_20989"/>
</filter>
<filter id="filter3_bi_1042_20989" x="655.238" y="153.136" width="563.127" height="879.173" filterUnits="userSpaceOnUse" color-interpolation-filters="sRGB">
<feFlood flood-opacity="0" result="BackgroundImageFix"/>
<feGaussianBlur in="BackgroundImageFix" stdDeviation="32.85"/>
<feComposite in2="SourceAlpha" operator="in" result="effect1_backgroundBlur_1042_20989"/>
<feBlend mode="normal" in="SourceGraphic" in2="effect1_backgroundBlur_1042_20989" result="shape"/>
<feColorMatrix in="SourceAlpha" type="matrix" values="0 0 0 0 0 0 0 0 0 0 0 0 0 0 0 0 0 0 127 0" result="hardAlpha"/>
<feOffset dy="4"/>
<feGaussianBlur stdDeviation="19.4"/>
<feComposite in2="hardAlpha" operator="arithmetic" k2="-1" k3="1"/>
<feColorMatrix type="matrix" values="0 0 0 0 1 0 0 0 0 1 0 0 0 0 1 0 0 0 0.47 0"/>
<feBlend mode="normal" in2="shape" result="effect2_innerShadow_1042_20989"/>
</filter>
<filter id="filter4_bi_1042_20989" x="262.411" y="865.7" width="917.194" height="127.834" filterUnits="userSpaceOnUse" color-interpolation-filters="sRGB">
<feFlood flood-opacity="0" result="BackgroundImageFix"/>
<feGaussianBlur in="BackgroundImageFix" stdDeviation="13.4"/>
<feComposite in2="SourceAlpha" operator="in" result="effect1_backgroundBlur_1042_20989"/>
<feBlend mode="normal" in="SourceGraphic" in2="effect1_backgroundBlur_1042_20989" result="shape"/>
<feColorMatrix in="SourceAlpha" type="matrix" values="0 0 0 0 0 0 0 0 0 0 0 0 0 0 0 0 0 0 127 0" result="hardAlpha"/>
<feOffset dy="4"/>
<feGaussianBlur stdDeviation="12.8"/>
<feComposite in2="hardAlpha" operator="arithmetic" k2="-1" k3="1"/>
<feColorMatrix type="matrix" values="0 0 0 0 1 0 0 0 0 1 0 0 0 0 1 0 0 0 0.25 0"/>
<feBlend mode="normal" in2="shape" result="effect2_innerShadow_1042_20989"/>
</filter>
<filter id="filter5_bi_1042_20989" x="223.363" y="153.136" width="563.267" height="879.306" filterUnits="userSpaceOnUse" color-interpolation-filters="sRGB">
<feFlood flood-opacity="0" result="BackgroundImageFix"/>
<feGaussianBlur in="BackgroundImageFix" stdDeviation="32.85"/>
<feComposite in2="SourceAlpha" operator="in" result="effect1_backgroundBlur_1042_20989"/>
<feBlend mode="normal" in="SourceGraphic" in2="effect1_backgroundBlur_1042_20989" result="shape"/>
<feColorMatrix in="SourceAlpha" type="matrix" values="0 0 0 0 0 0 0 0 0 0 0 0 0 0 0 0 0 0 127 0" result="hardAlpha"/>
<feOffset dy="4"/>
<feGaussianBlur stdDeviation="19.4"/>
<feComposite in2="hardAlpha" operator="arithmetic" k2="-1" k3="1"/>
<feColorMatrix type="matrix" values="0 0 0 0 1 0 0 0 0 1 0 0 0 0 1 0 0 0 0.47 0"/>
<feBlend mode="normal" in2="shape" result="effect2_innerShadow_1042_20989"/>
</filter>
<filter id="filter6_bi_1042_20989" x="205.5" y="128.5" width="560.93" height="907.32" filterUnits="userSpaceOnUse" color-interpolation-filters="sRGB">
<feFlood flood-opacity="0" result="BackgroundImageFix"/>
<feGaussianBlur in="BackgroundImageFix" stdDeviation="22.75"/>
<feComposite in2="SourceAlpha" operator="in" result="effect1_backgroundBlur_1042_20989"/>
<feBlend mode="normal" in="SourceGraphic" in2="effect1_backgroundBlur_1042_20989" result="shape"/>
<feColorMatrix in="SourceAlpha" type="matrix" values="0 0 0 0 0 0 0 0 0 0 0 0 0 0 0 0 0 0 127 0" result="hardAlpha"/>
<feOffset dy="4"/>
<feGaussianBlur stdDeviation="6.4"/>
<feComposite in2="hardAlpha" operator="arithmetic" k2="-1" k3="1"/>
<feColorMatrix type="matrix" values="0 0 0 0 1 0 0 0 0 1 0 0 0 0 1 0 0 0 0.25 0"/>
<feBlend mode="normal" in2="shape" result="effect2_innerShadow_1042_20989"/>
</filter>
<filter id="filter7_b_1042_20989" x="229.3" y="944.909" width="983.4" height="67.1031" filterUnits="userSpaceOnUse" color-interpolation-filters="sRGB">
<feFlood flood-opacity="0" result="BackgroundImageFix"/>
<feGaussianBlur in="BackgroundImageFix" stdDeviation="10.85"/>
<feComposite in2="SourceAlpha" operator="in" result="effect1_backgroundBlur_1042_20989"/>
<feBlend mode="normal" in="SourceGraphic" in2="effect1_backgroundBlur_1042_20989" result="shape"/>
</filter>
<filter id="filter8_b_1042_20989" x="670.438" y="123.5" width="571.07" height="917.32" filterUnits="userSpaceOnUse" color-interpolation-filters="sRGB">
<feFlood flood-opacity="0" result="BackgroundImageFix"/>
<feGaussianBlur in="BackgroundImageFix" stdDeviation="25.25"/>
<feComposite in2="SourceAlpha" operator="in" result="effect1_backgroundBlur_1042_20989"/>
<feBlend mode="normal" in="SourceGraphic" in2="effect1_backgroundBlur_1042_20989" result="shape"/>
</filter>
<filter id="filter9_f_1042_20989" x="402.078" y="172" width="637.383" height="583.586" filterUnits="userSpaceOnUse" color-interpolation-filters="sRGB">
<feFlood flood-opacity="0" result="BackgroundImageFix"/>
<feBlend mode="normal" in="SourceGraphic" in2="BackgroundImageFix" result="shape"/>
<feGaussianBlur stdDeviation="59.5" result="effect1_foregroundBlur_1042_20989"/>
</filter>
<filter id="filter10_di_1042_20989" x="657.625" y="231.5" width="326.336" height="472.586" filterUnits="userSpaceOnUse" color-interpolation-filters="sRGB">
<feFlood flood-opacity="0" result="BackgroundImageFix"/>
<feColorMatrix in="SourceAlpha" type="matrix" values="0 0 0 0 0 0 0 0 0 0 0 0 0 0 0 0 0 0 127 0" result="hardAlpha"/>
<feOffset dy="4"/>
<feGaussianBlur stdDeviation="31.75"/>
<feComposite in2="hardAlpha" operator="out"/>
<feColorMatrix type="matrix" values="0 0 0 0 0.607843 0 0 0 0 0.815686 0 0 0 0 0.933333 0 0 0 1 0"/>
<feBlend mode="normal" in2="BackgroundImageFix" result="effect1_dropShadow_1042_20989"/>
<feBlend mode="normal" in="SourceGraphic" in2="effect1_dropShadow_1042_20989" result="shape"/>
<feColorMatrix in="SourceAlpha" type="matrix" values="0 0 0 0 0 0 0 0 0 0 0 0 0 0 0 0 0 0 127 0" result="hardAlpha"/>
<feOffset dy="4"/>
<feGaussianBlur stdDeviation="8.35"/>
<feComposite in2="hardAlpha" operator="arithmetic" k2="-1" k3="1"/>
<feColorMatrix type="matrix" values="0 0 0 0 1 0 0 0 0 1 0 0 0 0 1 0 0 0 0.25 0"/>
<feBlend mode="normal" in2="shape" result="effect2_innerShadow_1042_20989"/>
</filter>
<filter id="filter11_bd_1042_20989" x="457.578" y="448.539" width="525.68" height="254.617" filterUnits="userSpaceOnUse" color-interpolation-filters="sRGB">
<feFlood flood-opacity="0" result="BackgroundImageFix"/>
<feGaussianBlur in="BackgroundImageFix" stdDeviation="13.45"/>
<feComposite in2="SourceAlpha" operator="in" result="effect1_backgroundBlur_1042_20989"/>
<feColorMatrix in="SourceAlpha" type="matrix" values="0 0 0 0 0 0 0 0 0 0 0 0 0 0 0 0 0 0 127 0" result="hardAlpha"/>
<feOffset dy="4"/>
<feGaussianBlur stdDeviation="31.75"/>
<feComposite in2="hardAlpha" operator="out"/>
<feColorMatrix type="matrix" values="0 0 0 0 0.607843 0 0 0 0 0.815686 0 0 0 0 0.933333 0 0 0 1 0"/>
<feBlend mode="normal" in2="effect1_backgroundBlur_1042_20989" result="effect2_dropShadow_1042_20989"/>
<feBlend mode="normal" in="SourceGraphic" in2="effect2_dropShadow_1042_20989" result="shape"/>
</filter>
<filter id="filter12_d_1042_20989" x="457.578" y="231.5" width="326.336" height="472.586" filterUnits="userSpaceOnUse" color-interpolation-filters="sRGB">
<feFlood flood-opacity="0" result="BackgroundImageFix"/>
<feColorMatrix in="SourceAlpha" type="matrix" values="0 0 0 0 0 0 0 0 0 0 0 0 0 0 0 0 0 0 127 0" result="hardAlpha"/>
<feOffset dy="4"/>
<feGaussianBlur stdDeviation="31.75"/>
<feComposite in2="hardAlpha" operator="out"/>
<feColorMatrix type="matrix" values="0 0 0 0 0.607843 0 0 0 0 0.815686 0 0 0 0 0.933333 0 0 0 1 0"/>
<feBlend mode="normal" in2="BackgroundImageFix" result="effect1_dropShadow_1042_20989"/>
<feBlend mode="normal" in="SourceGraphic" in2="effect1_dropShadow_1042_20989" result="shape"/>
</filter>
<filter id="filter13_d_1042_20989" x="482.078" y="256" width="477.383" height="423.586" filterUnits="userSpaceOnUse" color-interpolation-filters="sRGB">
<feFlood flood-opacity="0" result="BackgroundImageFix"/>
<feColorMatrix in="SourceAlpha" type="matrix" values="0 0 0 0 0 0 0 0 0 0 0 0 0 0 0 0 0 0 127 0" result="hardAlpha"/>
<feOffset dy="4"/>
<feGaussianBlur stdDeviation="19.5"/>
<feComposite in2="hardAlpha" operator="out"/>
<feColorMatrix type="matrix" values="0 0 0 0 0.466667 0 0 0 0 0.85098 0 0 0 0 0.992157 0 0 0 1 0"/>
<feBlend mode="normal" in2="BackgroundImageFix" result="effect1_dropShadow_1042_20989"/>
<feBlend mode="normal" in="SourceGraphic" in2="effect1_dropShadow_1042_20989" result="shape"/>
</filter>
<filter id="filter14_bi_1042_20989" x="655.425" y="225.3" width="330.736" height="476.986" filterUnits="userSpaceOnUse" color-interpolation-filters="sRGB">
<feFlood flood-opacity="0" result="BackgroundImageFix"/>
<feGaussianBlur in="BackgroundImageFix" stdDeviation="32.85"/>
<feComposite in2="SourceAlpha" operator="in" result="effect1_backgroundBlur_1042_20989"/>
<feBlend mode="normal" in="SourceGraphic" in2="effect1_backgroundBlur_1042_20989" result="shape"/>
<feColorMatrix in="SourceAlpha" type="matrix" values="0 0 0 0 0 0 0 0 0 0 0 0 0 0 0 0 0 0 127 0" result="hardAlpha"/>
<feOffset dy="4"/>
<feGaussianBlur stdDeviation="19.4"/>
<feComposite in2="hardAlpha" operator="arithmetic" k2="-1" k3="1"/>
<feColorMatrix type="matrix" values="0 0 0 0 1 0 0 0 0 1 0 0 0 0 1 0 0 0 0.47 0"/>
<feBlend mode="normal" in2="shape" result="effect2_innerShadow_1042_20989"/>
</filter>
<filter id="filter15_bi_1042_20989" x="455.378" y="442.339" width="530.08" height="259.017" filterUnits="userSpaceOnUse" color-interpolation-filters="sRGB">
<feFlood flood-opacity="0" result="BackgroundImageFix"/>
<feGaussianBlur in="BackgroundImageFix" stdDeviation="32.85"/>
<feComposite in2="SourceAlpha" operator="in" result="effect1_backgroundBlur_1042_20989"/>
<feBlend mode="normal" in="SourceGraphic" in2="effect1_backgroundBlur_1042_20989" result="shape"/>
<feColorMatrix in="SourceAlpha" type="matrix" values="0 0 0 0 0 0 0 0 0 0 0 0 0 0 0 0 0 0 127 0" result="hardAlpha"/>
<feOffset dy="4"/>
<feGaussianBlur stdDeviation="19.4"/>
<feComposite in2="hardAlpha" operator="arithmetic" k2="-1" k3="1"/>
<feColorMatrix type="matrix" values="0 0 0 0 1 0 0 0 0 1 0 0 0 0 1 0 0 0 0.47 0"/>
<feBlend mode="normal" in2="shape" result="effect2_innerShadow_1042_20989"/>
</filter>
<filter id="filter16_bi_1042_20989" x="455.378" y="225.3" width="330.736" height="476.986" filterUnits="userSpaceOnUse" color-interpolation-filters="sRGB">
<feFlood flood-opacity="0" result="BackgroundImageFix"/>
<feGaussianBlur in="BackgroundImageFix" stdDeviation="32.85"/>
<feComposite in2="SourceAlpha" operator="in" result="effect1_backgroundBlur_1042_20989"/>
<feBlend mode="normal" in="SourceGraphic" in2="effect1_backgroundBlur_1042_20989" result="shape"/>
<feColorMatrix in="SourceAlpha" type="matrix" values="0 0 0 0 0 0 0 0 0 0 0 0 0 0 0 0 0 0 127 0" result="hardAlpha"/>
<feOffset dy="4"/>
<feGaussianBlur stdDeviation="19.4"/>
<feComposite in2="hardAlpha" operator="arithmetic" k2="-1" k3="1"/>
<feColorMatrix type="matrix" values="0 0 0 0 1 0 0 0 0 1 0 0 0 0 1 0 0 0 0.47 0"/>
<feBlend mode="normal" in2="shape" result="effect2_innerShadow_1042_20989"/>
</filter>
<filter id="filter17_d_1042_20989" x="555.406" y="613.82" width="330.594" height="158.852" filterUnits="userSpaceOnUse" color-interpolation-filters="sRGB">
<feFlood flood-opacity="0" result="BackgroundImageFix"/>
<feColorMatrix in="SourceAlpha" type="matrix" values="0 0 0 0 0 0 0 0 0 0 0 0 0 0 0 0 0 0 127 0" result="hardAlpha"/>
<feOffset dy="4"/>
<feGaussianBlur stdDeviation="19.5"/>
<feComposite in2="hardAlpha" operator="out"/>
<feColorMatrix type="matrix" values="0 0 0 0 0.466667 0 0 0 0 0.85098 0 0 0 0 0.992157 0 0 0 1 0"/>
<feBlend mode="normal" in2="BackgroundImageFix" result="effect1_dropShadow_1042_20989"/>
<feBlend mode="normal" in="SourceGraphic" in2="effect1_dropShadow_1042_20989" result="shape"/>
</filter>
<filter id="filter18_bi_1042_20989" x="528.706" y="583.12" width="383.994" height="212.252" filterUnits="userSpaceOnUse" color-interpolation-filters="sRGB">
<feFlood flood-opacity="0" result="BackgroundImageFix"/>
<feGaussianBlur in="BackgroundImageFix" stdDeviation="32.85"/>
<feComposite in2="SourceAlpha" operator="in" result="effect1_backgroundBlur_1042_20989"/>
<feBlend mode="normal" in="SourceGraphic" in2="effect1_backgroundBlur_1042_20989" result="shape"/>
<feColorMatrix in="SourceAlpha" type="matrix" values="0 0 0 0 0 0 0 0 0 0 0 0 0 0 0 0 0 0 127 0" result="hardAlpha"/>
<feOffset dy="4"/>
<feGaussianBlur stdDeviation="19.4"/>
<feComposite in2="hardAlpha" operator="arithmetic" k2="-1" k3="1"/>
<feColorMatrix type="matrix" values="0 0 0 0 1 0 0 0 0 1 0 0 0 0 1 0 0 0 0.47 0"/>
<feBlend mode="normal" in2="shape" result="effect2_innerShadow_1042_20989"/>
</filter>
<filter id="filter19_bi_1042_20989" x="670.933" y="575.3" width="398.134" height="362.4" filterUnits="userSpaceOnUse" color-interpolation-filters="sRGB">
<feFlood flood-opacity="0" result="BackgroundImageFix"/>
<feGaussianBlur in="BackgroundImageFix" stdDeviation="32.85"/>
<feComposite in2="SourceAlpha" operator="in" result="effect1_backgroundBlur_1042_20989"/>
<feBlend mode="normal" in="SourceGraphic" in2="effect1_backgroundBlur_1042_20989" result="shape"/>
<feColorMatrix in="SourceAlpha" type="matrix" values="0 0 0 0 0 0 0 0 0 0 0 0 0 0 0 0 0 0 127 0" result="hardAlpha"/>
<feOffset dy="4"/>
<feGaussianBlur stdDeviation="19.4"/>
<feComposite in2="hardAlpha" operator="arithmetic" k2="-1" k3="1"/>
<feColorMatrix type="matrix" values="0 0 0 0 1 0 0 0 0 1 0 0 0 0 1 0 0 0 0.47 0"/>
<feBlend mode="normal" in2="shape" result="effect2_innerShadow_1042_20989"/>
</filter>
<filter id="filter20_bi_1042_20989" x="367.933" y="577.3" width="398.134" height="362.4" filterUnits="userSpaceOnUse" color-interpolation-filters="sRGB">
<feFlood flood-opacity="0" result="BackgroundImageFix"/>
<feGaussianBlur in="BackgroundImageFix" stdDeviation="32.85"/>
<feComposite in2="SourceAlpha" operator="in" result="effect1_backgroundBlur_1042_20989"/>
<feBlend mode="normal" in="SourceGraphic" in2="effect1_backgroundBlur_1042_20989" result="shape"/>
<feColorMatrix in="SourceAlpha" type="matrix" values="0 0 0 0 0 0 0 0 0 0 0 0 0 0 0 0 0 0 127 0" result="hardAlpha"/>
<feOffset dy="4"/>
<feGaussianBlur stdDeviation="19.4"/>
<feComposite in2="hardAlpha" operator="arithmetic" k2="-1" k3="1"/>
<feColorMatrix type="matrix" values="0 0 0 0 1 0 0 0 0 1 0 0 0 0 1 0 0 0 0.47 0"/>
<feBlend mode="normal" in2="shape" result="effect2_innerShadow_1042_20989"/>
</filter>
<linearGradient id="paint0_linear_1042_20989" x1="899.858" y1="511.274" x2="731.941" y2="706.857" gradientUnits="userSpaceOnUse">
<stop stop-color="white"/>
<stop offset="1" stop-color="#999999" stop-opacity="0"/>
</linearGradient>
<linearGradient id="paint1_linear_1042_20989" x1="859" y1="555" x2="728.5" y2="707" gradientUnits="userSpaceOnUse">
<stop stop-color="white"/>
<stop offset="1" stop-color="#999999" stop-opacity="0"/>
</linearGradient>
<linearGradient id="paint2_linear_1042_20989" x1="936.803" y1="218.836" x2="936.803" y2="966.608" gradientUnits="userSpaceOnUse">
<stop stop-color="white"/>
<stop offset="1" stop-color="white"/>
</linearGradient>
<linearGradient id="paint3_linear_1042_20989" x1="289.211" y1="929.618" x2="1152.81" y2="929.618" gradientUnits="userSpaceOnUse">
<stop stop-color="white"/>
<stop offset="1" stop-color="white" stop-opacity="0.39"/>
</linearGradient>
<linearGradient id="paint4_linear_1042_20989" x1="504.995" y1="218.836" x2="504.995" y2="966.744" gradientUnits="userSpaceOnUse">
<stop stop-color="white"/>
<stop offset="1" stop-color="#999999"/>
</linearGradient>
<linearGradient id="paint5_linear_1042_20989" x1="864.5" y1="174" x2="209" y2="879" gradientUnits="userSpaceOnUse">
<stop stop-color="white"/>
<stop offset="1" stop-color="white"/>
</linearGradient>
<linearGradient id="paint6_linear_1042_20989" x1="870" y1="641" x2="870" y2="949" gradientUnits="userSpaceOnUse">
<stop stop-color="white"/>
<stop offset="1" stop-color="#999999" stop-opacity="0"/>
</linearGradient>
<linearGradient id="paint7_linear_1042_20989" x1="567" y1="643" x2="567" y2="951" gradientUnits="userSpaceOnUse">
<stop stop-color="white"/>
<stop offset="1" stop-color="#999999" stop-opacity="0"/>
</linearGradient>
</defs>
</svg>
