<svg width="669" height="741" viewBox="0 0 669 741" fill="none" xmlns="http://www.w3.org/2000/svg">
<path d="M461.674 319.804L454.73 317.277C453.136 316.697 451.82 317.601 451.79 319.297L451.79 319.311C451.76 321.007 453.028 322.852 454.622 323.432L461.566 325.959C463.16 326.54 464.476 325.635 464.506 323.939L464.506 323.925C464.536 322.229 463.268 320.385 461.674 319.804Z" fill="url(#paint0_radial_1031_12962)"/>
<path d="M461.27 343.202L454.325 340.674C453.946 340.536 453.572 340.32 453.225 340.038C452.878 339.757 452.563 339.415 452.3 339.032C452.037 338.649 451.831 338.234 451.692 337.808C451.554 337.383 451.486 336.957 451.493 336.553C451.498 336.148 451.579 335.774 451.73 335.453C451.88 335.131 452.099 334.868 452.372 334.679C452.645 334.49 452.967 334.379 453.321 334.351C453.675 334.324 454.053 334.381 454.433 334.519L461.377 337.047C462.146 337.326 462.877 337.92 463.411 338.696C463.945 339.473 464.236 340.368 464.222 341.186C464.204 342.001 463.884 342.67 463.33 343.048C462.777 343.425 462.036 343.481 461.27 343.202Z" fill="#005DFF"/>
<path d="M460.965 360.453L454.021 357.926C453.642 357.788 453.268 357.572 452.921 357.29C452.573 357.008 452.259 356.666 451.996 356.284C451.733 355.901 451.526 355.485 451.388 355.06C451.249 354.635 451.182 354.208 451.189 353.805C451.203 352.991 451.52 352.32 452.072 351.941C452.623 351.563 453.363 351.506 454.128 351.785L461.072 354.312C461.839 354.591 462.569 355.182 463.102 355.955C463.635 356.728 463.928 357.621 463.918 358.438C463.9 359.252 463.579 359.921 463.026 360.299C462.473 360.677 461.732 360.732 460.965 360.453Z" fill="url(#paint1_radial_1031_12962)"/>
<path d="M460.667 377.713L453.723 375.185C453.343 375.047 452.968 374.83 452.62 374.547C452.272 374.264 451.957 373.921 451.694 373.536C451.431 373.152 451.224 372.735 451.087 372.308C450.949 371.881 450.882 371.454 450.891 371.05C450.893 370.641 450.971 370.263 451.12 369.938C451.269 369.612 451.487 369.346 451.761 369.154C452.034 368.962 452.358 368.849 452.714 368.82C453.069 368.792 453.449 368.849 453.831 368.988L460.776 371.515C461.542 371.794 462.272 372.385 462.805 373.158C463.338 373.931 463.632 374.824 463.621 375.641C463.619 376.052 463.541 376.431 463.391 376.758C463.241 377.085 463.022 377.353 462.747 377.546C462.473 377.738 462.147 377.852 461.79 377.881C461.433 377.91 461.052 377.852 460.667 377.713Z" fill="url(#paint2_radial_1031_12962)"/>
<path d="M460.363 394.952L453.419 392.424C452.654 392.145 451.925 391.555 451.394 390.782C450.863 390.009 450.573 389.118 450.587 388.303C450.592 387.898 450.672 387.524 450.823 387.202C450.974 386.881 451.192 386.618 451.465 386.429C451.739 386.24 452.061 386.129 452.415 386.101C452.769 386.074 453.146 386.131 453.526 386.269L460.471 388.797C461.24 389.076 461.971 389.67 462.505 390.446C463.038 391.222 463.33 392.118 463.316 392.936C463.298 393.751 462.978 394.42 462.424 394.798C461.871 395.175 461.13 395.231 460.363 394.952Z" fill="#005DFF"/>
<path d="M460.059 412.172L453.115 409.644C452.349 409.366 451.621 408.775 451.09 408.002C450.559 407.23 450.268 406.338 450.282 405.524C450.297 404.709 450.614 404.039 451.165 403.66C451.717 403.281 452.456 403.225 453.222 403.503L460.166 406.031C460.933 406.31 461.662 406.901 462.196 407.674C462.729 408.447 463.022 409.34 463.011 410.157C462.994 410.971 462.673 411.64 462.12 412.018C461.566 412.396 460.825 412.451 460.059 412.172Z" fill="url(#paint3_radial_1031_12962)"/>
<path d="M459.762 429.459L452.817 426.932C452.437 426.794 452.062 426.577 451.714 426.294C451.366 426.011 451.051 425.667 450.788 425.283C450.525 424.899 450.318 424.482 450.181 424.055C450.043 423.628 449.977 423.201 449.985 422.797C450 421.983 450.317 421.312 450.869 420.934C451.42 420.555 452.16 420.498 452.925 420.777L459.869 423.304C460.636 423.583 461.365 424.174 461.899 424.947C462.432 425.72 462.725 426.613 462.715 427.43C462.7 428.248 462.381 428.921 461.827 429.302C461.274 429.683 460.531 429.739 459.762 429.459Z" fill="#005DFF"/>
<path d="M459.457 446.702L452.513 444.174C451.747 443.896 451.019 443.305 450.488 442.532C449.957 441.759 449.666 440.868 449.681 440.053C449.695 439.238 450.012 438.566 450.563 438.184C451.114 437.803 451.854 437.744 452.62 438.019L459.564 440.547C460.332 440.83 461.062 441.424 461.595 442.199C462.127 442.974 462.42 443.868 462.41 444.686C462.392 445.501 462.071 446.17 461.518 446.548C460.965 446.925 460.224 446.981 459.457 446.702Z" fill="url(#paint4_radial_1031_12962)"/>
<path d="M459.16 463.953L452.216 461.426C451.451 461.147 450.722 460.557 450.191 459.784C449.66 459.011 449.37 458.119 449.384 457.305C449.398 456.491 449.716 455.82 450.267 455.441C450.818 455.062 451.558 455.006 452.323 455.285L459.268 457.812C460.034 458.091 460.764 458.682 461.297 459.455C461.83 460.228 462.124 461.121 462.113 461.938C462.095 462.752 461.775 463.421 461.221 463.799C460.668 464.177 459.927 464.232 459.16 463.953Z" fill="url(#paint5_radial_1031_12962)"/>
<path d="M458.855 481.209L451.911 478.682C451.531 478.544 451.156 478.327 450.808 478.044C450.46 477.761 450.145 477.417 449.882 477.033C449.619 476.649 449.412 476.232 449.275 475.805C449.137 475.378 449.07 474.951 449.079 474.547C449.086 474.144 449.168 473.772 449.319 473.452C449.471 473.132 449.689 472.871 449.962 472.684C450.235 472.496 450.557 472.386 450.91 472.359C451.263 472.332 451.64 472.389 452.019 472.527L458.963 475.054C459.729 475.333 460.459 475.924 460.992 476.697C461.526 477.471 461.819 478.363 461.808 479.18C461.794 479.998 461.475 480.672 460.921 481.052C460.367 481.433 459.624 481.489 458.855 481.209Z" fill="#005DFF"/>
<path d="M458.559 498.452L451.614 495.924C451.235 495.786 450.861 495.57 450.514 495.288C450.167 495.007 449.852 494.665 449.589 494.282C449.326 493.899 449.12 493.483 448.981 493.058C448.843 492.633 448.775 492.206 448.782 491.803C448.796 490.988 449.114 490.316 449.664 489.934C450.215 489.553 450.955 489.494 451.722 489.769L458.666 492.297C459.434 492.58 460.163 493.173 460.696 493.949C461.229 494.724 461.522 495.618 461.511 496.436C461.493 497.251 461.173 497.92 460.619 498.298C460.066 498.675 459.325 498.731 458.559 498.452Z" fill="url(#paint6_radial_1031_12962)"/>
<path d="M458.361 509.562L451.417 507.035C449.823 506.455 448.507 507.359 448.478 509.055L448.477 509.069C448.448 510.765 449.716 512.61 451.31 513.19L458.254 515.717C459.848 516.297 461.164 515.393 461.193 513.697L461.194 513.683C461.223 511.987 459.955 510.142 458.361 509.562Z" fill="url(#paint7_radial_1031_12962)"/>
<path d="M244.784 205.728L244.655 213.117C244.626 214.813 245.894 216.658 247.487 217.238L247.501 217.243C249.094 217.823 250.41 216.918 250.44 215.222L250.569 207.834C250.598 206.138 249.33 204.293 247.737 203.713L247.723 203.708C246.13 203.128 244.814 204.032 244.784 205.728Z" fill="url(#paint8_radial_1031_12962)"/>
<path d="M266.78 213.732L266.651 221.121C266.644 221.524 266.562 221.896 266.411 222.216C266.259 222.536 266.041 222.797 265.768 222.984C265.495 223.172 265.173 223.282 264.82 223.309C264.467 223.336 264.09 223.279 263.711 223.141C263.331 223.005 262.956 222.789 262.607 222.508C262.258 222.226 261.942 221.884 261.678 221.501C261.414 221.118 261.206 220.701 261.066 220.274C260.927 219.848 260.859 219.42 260.866 219.015L260.995 211.627C261.009 210.809 261.329 210.135 261.882 209.755C262.436 209.374 263.179 209.317 263.948 209.597C264.714 209.88 265.443 210.474 265.973 211.249C266.504 212.023 266.794 212.916 266.78 213.732Z" fill="#005DFF"/>
<path d="M282.985 219.634L282.856 227.022C282.849 227.426 282.768 227.798 282.616 228.117C282.465 228.437 282.246 228.698 281.973 228.886C281.7 229.074 281.378 229.184 281.025 229.211C280.673 229.238 280.296 229.18 279.917 229.043C279.152 228.764 278.423 228.173 277.892 227.401C277.361 226.628 277.071 225.736 277.085 224.922L277.214 217.533C277.228 216.717 277.545 216.045 278.096 215.664C278.647 215.283 279.387 215.223 280.153 215.499C280.92 215.781 281.648 216.375 282.179 217.15C282.71 217.925 283 218.818 282.985 219.634Z" fill="url(#paint9_radial_1031_12962)"/>
<path d="M299.202 225.535L299.073 232.924C299.066 233.328 298.984 233.702 298.832 234.022C298.679 234.342 298.46 234.604 298.185 234.791C297.911 234.978 297.587 235.088 297.233 235.113C296.879 235.139 296.501 235.08 296.121 234.939C295.738 234.806 295.36 234.592 295.008 234.312C294.656 234.031 294.337 233.688 294.07 233.303C293.803 232.918 293.593 232.499 293.452 232.07C293.311 231.641 293.242 231.211 293.249 230.804L293.378 223.415C293.392 222.6 293.709 221.928 294.26 221.547C294.811 221.165 295.551 221.106 296.317 221.381C296.702 221.515 297.082 221.73 297.435 222.012C297.789 222.294 298.109 222.639 298.377 223.025C298.646 223.412 298.857 223.832 298.998 224.263C299.14 224.694 299.209 225.127 299.202 225.535Z" fill="url(#paint10_radial_1031_12962)"/>
<path d="M315.413 231.435L315.284 238.824C315.269 239.638 314.952 240.309 314.4 240.688C313.849 241.066 313.11 241.123 312.344 240.844C311.964 240.708 311.589 240.493 311.24 240.211C310.891 239.93 310.575 239.587 310.311 239.204C310.046 238.821 309.839 238.404 309.699 237.977C309.56 237.551 309.492 237.123 309.499 236.719L309.628 229.33C309.642 228.512 309.961 227.838 310.515 227.458C311.069 227.077 311.812 227.02 312.581 227.3C313.347 227.583 314.075 228.177 314.606 228.952C315.137 229.727 315.427 230.62 315.413 231.435Z" fill="#005DFF"/>
<path d="M331.595 237.321L331.466 244.71C331.452 245.524 331.134 246.195 330.583 246.573C330.031 246.952 329.292 247.009 328.526 246.73C327.761 246.451 327.033 245.861 326.502 245.088C325.97 244.315 325.68 243.424 325.694 242.609L325.823 235.22C325.837 234.405 326.155 233.733 326.706 233.352C327.256 232.97 327.996 232.911 328.763 233.186C329.529 233.469 330.258 234.063 330.788 234.838C331.319 235.612 331.609 236.505 331.595 237.321Z" fill="url(#paint11_radial_1031_12962)"/>
<path d="M347.842 243.24L347.713 250.629C347.706 251.033 347.624 251.406 347.472 251.727C347.319 252.047 347.1 252.308 346.825 252.496C346.551 252.683 346.227 252.792 345.873 252.818C345.519 252.843 345.141 252.784 344.761 252.644C343.995 252.365 343.267 251.775 342.736 251.002C342.205 250.229 341.914 249.338 341.929 248.523L342.058 241.134C342.072 240.319 342.389 239.647 342.94 239.266C343.491 238.884 344.231 238.825 344.997 239.1C345.766 239.38 346.498 239.973 347.031 240.75C347.565 241.526 347.857 242.422 347.842 243.24Z" fill="#005DFF"/>
<path d="M364.053 249.138L363.924 256.527C363.91 257.342 363.592 258.012 363.041 258.391C362.49 258.77 361.75 258.826 360.985 258.547C360.218 258.268 359.489 257.678 358.955 256.904C358.422 256.131 358.129 255.239 358.14 254.422L358.269 247.033C358.286 246.217 358.606 245.546 359.159 245.166C359.712 244.786 360.453 244.728 361.221 245.003C361.988 245.286 362.716 245.88 363.247 246.655C363.778 247.43 364.067 248.323 364.053 249.138Z" fill="url(#paint12_radial_1031_12962)"/>
<path d="M380.259 255.032L380.13 262.421C380.116 263.235 379.798 263.906 379.247 264.284C378.695 264.663 377.956 264.72 377.19 264.441C376.425 264.162 375.697 263.572 375.166 262.799C374.634 262.026 374.344 261.134 374.358 260.32L374.487 252.931C374.501 252.116 374.819 251.444 375.37 251.062C375.921 250.681 376.66 250.622 377.427 250.897C378.193 251.18 378.922 251.774 379.452 252.548C379.983 253.323 380.273 254.216 380.259 255.032Z" fill="url(#paint13_radial_1031_12962)"/>
<path d="M396.483 260.943L396.354 268.332C396.347 268.736 396.265 269.109 396.112 269.43C395.96 269.75 395.74 270.011 395.466 270.199C395.192 270.386 394.868 270.495 394.514 270.521C394.16 270.546 393.781 270.487 393.401 270.347C393.022 270.209 392.649 269.993 392.301 269.712C391.954 269.43 391.64 269.088 391.377 268.705C391.114 268.323 390.907 267.907 390.768 267.481C390.63 267.056 390.562 266.63 390.569 266.226L390.698 258.838C390.712 258.022 391.03 257.35 391.581 256.969C392.132 256.587 392.871 256.528 393.638 256.803C394.407 257.083 395.138 257.677 395.672 258.453C396.205 259.229 396.497 260.125 396.483 260.943Z" fill="#005DFF"/>
<path d="M412.686 266.841L412.557 274.23C412.55 274.633 412.468 275.006 412.317 275.325C412.165 275.645 411.947 275.906 411.674 276.094C411.401 276.281 411.079 276.392 410.726 276.419C410.373 276.446 409.997 276.388 409.618 276.25C408.851 275.971 408.121 275.381 407.588 274.608C407.055 273.834 406.762 272.942 406.772 272.125L406.901 264.736C406.919 263.92 407.239 263.249 407.792 262.869C408.345 262.489 409.086 262.431 409.854 262.707C410.621 262.989 411.349 263.583 411.88 264.358C412.41 265.133 412.7 266.026 412.686 266.841Z" fill="url(#paint14_radial_1031_12962)"/>
<path d="M423.12 270.634L422.991 278.023C422.961 279.719 424.23 281.564 425.823 282.144L425.836 282.149C427.43 282.729 428.746 281.825 428.776 280.129L428.905 272.74C428.934 271.044 427.666 269.199 426.073 268.619L426.059 268.614C424.466 268.034 423.15 268.939 423.12 270.634Z" fill="url(#paint15_radial_1031_12962)"/>
<path d="M209.826 425.352L216.77 427.879C218.364 428.459 219.68 427.555 219.71 425.859L219.71 425.845C219.74 424.149 218.472 422.304 216.878 421.724L209.934 419.197C208.34 418.617 207.024 419.521 206.994 421.217L206.994 421.231C206.964 422.927 208.232 424.772 209.826 425.352Z" fill="url(#paint16_radial_1031_12962)"/>
<path d="M210.23 401.955L217.175 404.482C217.554 404.62 217.928 404.836 218.275 405.118C218.622 405.399 218.937 405.741 219.2 406.124C219.463 406.507 219.669 406.923 219.808 407.348C219.946 407.773 220.014 408.2 220.007 408.603C220.002 409.008 219.921 409.382 219.77 409.704C219.62 410.025 219.401 410.288 219.128 410.477C218.855 410.666 218.533 410.778 218.179 410.805C217.825 410.833 217.447 410.775 217.067 410.637L210.123 408.11C209.354 407.83 208.623 407.236 208.089 406.46C207.555 405.684 207.264 404.788 207.278 403.97C207.296 403.156 207.616 402.486 208.17 402.109C208.723 401.731 209.464 401.676 210.23 401.955Z" fill="#005DFF"/>
<path d="M210.535 384.703L217.479 387.231C217.858 387.368 218.232 387.584 218.579 387.866C218.927 388.148 219.241 388.49 219.504 388.873C219.767 389.255 219.974 389.671 220.112 390.096C220.251 390.522 220.318 390.948 220.311 391.351C220.297 392.166 219.98 392.836 219.428 393.215C218.877 393.594 218.137 393.65 217.372 393.372L210.428 390.844C209.661 390.565 208.931 389.974 208.398 389.201C207.865 388.428 207.572 387.535 207.582 386.718C207.6 385.904 207.921 385.235 208.474 384.857C209.027 384.479 209.768 384.424 210.535 384.703Z" fill="url(#paint17_radial_1031_12962)"/>
<path d="M210.833 367.444L217.777 369.971C218.157 370.11 218.532 370.326 218.88 370.609C219.228 370.892 219.543 371.236 219.806 371.62C220.069 372.004 220.276 372.422 220.413 372.848C220.551 373.275 220.618 373.702 220.609 374.106C220.607 374.515 220.529 374.893 220.38 375.218C220.231 375.544 220.013 375.81 219.739 376.002C219.466 376.194 219.142 376.307 218.786 376.336C218.431 376.364 218.051 376.308 217.669 376.168L210.724 373.641C209.958 373.362 209.228 372.771 208.695 371.998C208.162 371.225 207.868 370.332 207.879 369.515C207.881 369.105 207.959 368.725 208.109 368.398C208.259 368.071 208.478 367.803 208.753 367.611C209.027 367.418 209.353 367.304 209.71 367.275C210.067 367.247 210.448 367.304 210.833 367.444Z" fill="url(#paint18_radial_1031_12962)"/>
<path d="M211.137 350.205L218.081 352.732C218.846 353.011 219.575 353.601 220.106 354.374C220.637 355.147 220.927 356.039 220.913 356.853C220.908 357.258 220.828 357.632 220.677 357.954C220.526 358.275 220.308 358.538 220.035 358.727C219.761 358.916 219.439 359.028 219.085 359.055C218.731 359.083 218.354 359.025 217.974 358.887L211.029 356.36C210.26 356.08 209.529 355.486 208.995 354.71C208.462 353.934 208.17 353.038 208.184 352.22C208.202 351.406 208.522 350.736 209.076 350.359C209.629 349.981 210.37 349.926 211.137 350.205Z" fill="#005DFF"/>
<path d="M211.441 332.984L218.385 335.512C219.151 335.79 219.879 336.381 220.41 337.154C220.941 337.927 221.232 338.818 221.218 339.633C221.203 340.447 220.886 341.117 220.335 341.496C219.783 341.875 219.044 341.931 218.278 341.653L211.334 339.125C210.567 338.846 209.838 338.256 209.304 337.482C208.771 336.709 208.478 335.817 208.489 335C208.506 334.185 208.827 333.516 209.38 333.138C209.934 332.761 210.675 332.705 211.441 332.984Z" fill="url(#paint19_radial_1031_12962)"/>
<path d="M211.738 315.697L218.683 318.224C219.063 318.363 219.438 318.579 219.786 318.862C220.134 319.145 220.449 319.489 220.712 319.873C220.975 320.257 221.182 320.675 221.319 321.101C221.457 321.528 221.523 321.955 221.515 322.359C221.5 323.174 221.183 323.844 220.631 324.223C220.08 324.602 219.34 324.658 218.575 324.379L211.631 321.852C210.864 321.573 210.135 320.982 209.601 320.209C209.068 319.436 208.775 318.543 208.785 317.726C208.8 316.908 209.119 316.235 209.673 315.854C210.226 315.474 210.969 315.417 211.738 315.697Z" fill="#005DFF"/>
<path d="M212.043 298.455L218.987 300.982C219.753 301.261 220.481 301.851 221.012 302.624C221.543 303.397 221.834 304.289 221.819 305.103C221.805 305.919 221.488 306.591 220.937 306.972C220.386 307.353 219.646 307.412 218.88 307.137L211.936 304.61C211.168 304.327 210.438 303.733 209.905 302.957C209.373 302.182 209.08 301.288 209.09 300.47C209.108 299.656 209.429 298.986 209.982 298.609C210.535 298.231 211.276 298.176 212.043 298.455Z" fill="url(#paint20_radial_1031_12962)"/>
<path d="M212.34 281.203L219.284 283.731C220.049 284.009 220.778 284.6 221.309 285.373C221.84 286.145 222.13 287.037 222.116 287.851C222.102 288.666 221.784 289.336 221.233 289.715C220.682 290.094 219.942 290.15 219.177 289.872L212.232 287.344C211.466 287.065 210.736 286.474 210.203 285.701C209.67 284.928 209.376 284.035 209.387 283.218C209.405 282.404 209.725 281.735 210.279 281.357C210.832 280.979 211.573 280.924 212.34 281.203Z" fill="url(#paint21_radial_1031_12962)"/>
<path d="M212.645 263.947L219.589 266.474C219.969 266.613 220.344 266.829 220.692 267.112C221.04 267.395 221.355 267.739 221.618 268.123C221.881 268.507 222.088 268.925 222.225 269.351C222.363 269.778 222.43 270.205 222.421 270.609C222.414 271.012 222.332 271.385 222.181 271.704C222.029 272.024 221.811 272.285 221.538 272.473C221.265 272.66 220.943 272.771 220.59 272.797C220.237 272.824 219.86 272.767 219.481 272.629L212.537 270.102C211.771 269.823 211.041 269.232 210.508 268.459C209.974 267.686 209.681 266.793 209.692 265.976C209.706 265.158 210.025 264.485 210.579 264.104C211.133 263.724 211.876 263.667 212.645 263.947Z" fill="#005DFF"/>
<path d="M212.941 246.705L219.886 249.232C220.265 249.37 220.639 249.586 220.986 249.868C221.333 250.15 221.648 250.492 221.911 250.874C222.174 251.257 222.38 251.673 222.519 252.098C222.657 252.523 222.725 252.95 222.718 253.353C222.704 254.169 222.386 254.841 221.836 255.222C221.285 255.603 220.545 255.662 219.778 255.387L212.834 252.86C212.066 252.577 211.337 251.983 210.804 251.208C210.271 250.432 209.978 249.538 209.989 248.72C210.007 247.906 210.327 247.236 210.881 246.859C211.434 246.481 212.175 246.426 212.941 246.705Z" fill="url(#paint22_radial_1031_12962)"/>
<path d="M213.139 235.594L220.083 238.122C221.677 238.702 222.993 237.797 223.022 236.101L223.023 236.087C223.052 234.392 221.784 232.547 220.19 231.966L213.246 229.439C211.652 228.859 210.336 229.763 210.307 231.459L210.306 231.473C210.277 233.169 211.545 235.014 213.139 235.594Z" fill="url(#paint23_radial_1031_12962)"/>
<path d="M424.294 540.1L424.423 532.711C424.453 531.015 423.185 529.17 421.591 528.59L421.578 528.585C419.984 528.005 418.668 528.91 418.638 530.606L418.509 537.995C418.48 539.69 419.748 541.535 421.341 542.115L421.355 542.12C422.948 542.7 424.264 541.796 424.294 540.1Z" fill="url(#paint24_radial_1031_12962)"/>
<path d="M402.298 532.096L402.427 524.707C402.434 524.304 402.516 523.932 402.667 523.612C402.819 523.292 403.037 523.031 403.31 522.844C403.583 522.656 403.905 522.546 404.258 522.519C404.611 522.492 404.988 522.549 405.367 522.687C405.747 522.824 406.122 523.039 406.471 523.32C406.82 523.602 407.136 523.944 407.4 524.327C407.665 524.711 407.872 525.128 408.012 525.554C408.151 525.981 408.219 526.408 408.212 526.813L408.083 534.202C408.069 535.02 407.75 535.693 407.196 536.074C406.642 536.454 405.899 536.511 405.13 536.231C404.364 535.948 403.635 535.354 403.105 534.58C402.574 533.805 402.284 532.912 402.298 532.096Z" fill="#005DFF"/>
<path d="M386.093 526.195L386.222 518.806C386.229 518.403 386.31 518.03 386.462 517.711C386.613 517.391 386.832 517.13 387.105 516.942C387.378 516.755 387.7 516.644 388.053 516.617C388.406 516.59 388.782 516.648 389.161 516.786C389.926 517.064 390.655 517.655 391.186 518.428C391.717 519.2 392.007 520.092 391.993 520.906L391.864 528.295C391.85 529.111 391.533 529.783 390.982 530.164C390.431 530.545 389.691 530.605 388.925 530.329C388.158 530.047 387.43 529.453 386.899 528.678C386.368 527.903 386.079 527.01 386.093 526.195Z" fill="url(#paint25_radial_1031_12962)"/>
<path d="M369.876 520.293L370.005 512.904C370.012 512.5 370.094 512.127 370.246 511.806C370.399 511.486 370.618 511.225 370.893 511.037C371.167 510.85 371.491 510.74 371.845 510.715C372.199 510.689 372.578 510.749 372.958 510.889C373.34 511.022 373.718 511.236 374.07 511.517C374.422 511.798 374.741 512.14 375.008 512.525C375.275 512.91 375.486 513.329 375.626 513.758C375.767 514.187 375.836 514.617 375.829 515.024L375.7 522.413C375.686 523.228 375.369 523.9 374.818 524.282C374.267 524.663 373.527 524.722 372.761 524.447C372.377 524.313 371.997 524.098 371.643 523.816C371.289 523.534 370.969 523.19 370.701 522.803C370.432 522.417 370.221 521.996 370.08 521.565C369.938 521.134 369.869 520.702 369.876 520.293Z" fill="url(#paint26_radial_1031_12962)"/>
<path d="M353.666 514.393L353.795 507.004C353.809 506.19 354.126 505.519 354.678 505.141C355.229 504.762 355.968 504.705 356.734 504.984C357.114 505.12 357.489 505.336 357.838 505.617C358.187 505.899 358.503 506.241 358.767 506.624C359.032 507.007 359.24 507.424 359.379 507.851C359.518 508.277 359.586 508.705 359.579 509.11L359.45 516.498C359.436 517.316 359.117 517.99 358.563 518.37C358.009 518.751 357.266 518.808 356.497 518.528C355.731 518.245 355.003 517.651 354.472 516.876C353.941 516.102 353.651 515.209 353.666 514.393Z" fill="#005DFF"/>
<path d="M337.483 508.507L337.612 501.118C337.627 500.304 337.944 499.634 338.495 499.255C339.047 498.876 339.786 498.82 340.552 499.098C341.317 499.377 342.045 499.967 342.577 500.74C343.108 501.513 343.398 502.405 343.384 503.219L343.255 510.608C343.241 511.423 342.923 512.095 342.373 512.477C341.822 512.858 341.082 512.917 340.315 512.642C339.549 512.359 338.821 511.765 338.29 510.991C337.759 510.216 337.469 509.323 337.483 508.507Z" fill="url(#paint27_radial_1031_12962)"/>
<path d="M321.236 502.588L321.365 495.199C321.372 494.795 321.454 494.422 321.606 494.102C321.759 493.781 321.978 493.52 322.253 493.333C322.527 493.145 322.851 493.036 323.205 493.01C323.559 492.985 323.937 493.044 324.317 493.184C325.083 493.463 325.811 494.053 326.342 494.826C326.873 495.599 327.164 496.491 327.15 497.305L327.021 504.694C327.006 505.509 326.689 506.181 326.138 506.563C325.587 506.944 324.848 507.003 324.081 506.728C323.312 506.448 322.58 505.855 322.047 505.078C321.513 504.302 321.222 503.406 321.236 502.588Z" fill="#005DFF"/>
<path d="M305.025 496.69L305.154 489.301C305.168 488.487 305.486 487.816 306.037 487.437C306.588 487.059 307.328 487.002 308.093 487.281C308.86 487.56 309.59 488.15 310.123 488.924C310.656 489.697 310.949 490.59 310.939 491.406L310.81 498.795C310.792 499.611 310.472 500.282 309.919 500.662C309.366 501.042 308.625 501.1 307.857 500.825C307.09 500.542 306.362 499.948 305.831 499.173C305.301 498.398 305.011 497.505 305.025 496.69Z" fill="url(#paint28_radial_1031_12962)"/>
<path d="M288.819 490.796L288.948 483.407C288.963 482.593 289.28 481.923 289.831 481.544C290.383 481.165 291.122 481.109 291.888 481.387C292.653 481.666 293.381 482.256 293.913 483.029C294.444 483.802 294.734 484.694 294.72 485.508L294.591 492.897C294.577 493.712 294.259 494.384 293.708 494.766C293.158 495.147 292.418 495.206 291.651 494.931C290.885 494.648 290.156 494.055 289.626 493.28C289.095 492.505 288.805 491.612 288.819 490.796Z" fill="url(#paint29_radial_1031_12962)"/>
<path d="M272.595 484.885L272.724 477.496C272.731 477.092 272.813 476.719 272.966 476.398C273.118 476.078 273.338 475.817 273.612 475.629C273.886 475.442 274.21 475.333 274.564 475.307C274.919 475.282 275.297 475.341 275.677 475.481C276.056 475.619 276.43 475.835 276.777 476.117C277.124 476.398 277.439 476.74 277.702 477.123C277.965 477.506 278.171 477.921 278.31 478.347C278.448 478.772 278.516 479.199 278.509 479.602L278.38 486.991C278.366 487.806 278.048 488.478 277.497 488.859C276.947 489.241 276.207 489.3 275.44 489.025C274.671 488.745 273.94 488.152 273.406 487.375C272.873 486.599 272.581 485.703 272.595 484.885Z" fill="#005DFF"/>
<path d="M256.392 478.987L256.521 471.598C256.528 471.195 256.61 470.823 256.761 470.503C256.913 470.183 257.131 469.922 257.404 469.734C257.677 469.547 257.999 469.436 258.352 469.409C258.705 469.383 259.082 469.44 259.46 469.578C260.227 469.857 260.957 470.447 261.49 471.221C262.023 471.994 262.317 472.886 262.306 473.703L262.177 481.092C262.159 481.908 261.839 482.579 261.286 482.959C260.733 483.339 259.992 483.397 259.224 483.122C258.458 482.839 257.729 482.245 257.199 481.47C256.668 480.695 256.378 479.802 256.392 478.987Z" fill="url(#paint30_radial_1031_12962)"/>
<path d="M245.958 475.194L246.087 467.805C246.117 466.109 244.849 464.264 243.255 463.684L243.242 463.679C241.648 463.099 240.332 464.004 240.302 465.699L240.173 473.088C240.144 474.784 241.412 476.629 243.005 477.209L243.019 477.214C244.612 477.794 245.928 476.89 245.958 475.194Z" fill="url(#paint31_radial_1031_12962)"/>
<g filter="url(#filter0_i_1031_12962)">
<path d="M435.96 233.973L238.281 162.024C203.345 149.308 174.497 169.134 173.849 206.307L170.177 416.641C169.528 453.813 197.324 494.256 232.26 506.971L429.939 578.921C464.875 591.636 493.722 571.81 494.371 534.638L498.043 324.304C498.691 287.131 470.896 246.689 435.96 233.973Z" stroke="#6B9CC6" stroke-linecap="round"/>
</g>
<g filter="url(#filter1_d_1031_12962)">
<path d="M407.217 270.225L264.572 218.306C238.312 208.748 216.628 223.651 216.14 251.592L213.491 403.369C213.003 431.311 233.896 461.71 260.156 471.268L402.802 523.186C429.062 532.744 450.746 517.842 451.233 489.9L453.883 338.123C454.37 310.182 433.478 279.783 407.217 270.225Z" fill="#2496BE"/>
<path d="M264.554 219.306L407.2 271.225C432.941 280.594 453.421 310.392 452.943 337.781L450.294 489.558C449.816 516.947 428.561 531.556 402.819 522.187L260.174 470.268C234.433 460.899 213.953 431.1 214.431 403.711L217.08 251.934C217.558 224.545 238.813 209.937 264.554 219.306Z" stroke="url(#paint32_angular_1031_12962)" stroke-width="2"/>
</g>
<g filter="url(#filter2_f_1031_12962)">
<path d="M410.868 266.009L262.484 212.002C235.168 202.06 212.612 217.562 212.105 246.627L209.349 404.509C208.842 433.575 230.575 465.197 257.891 475.139L406.275 529.146C433.591 539.089 456.147 523.586 456.654 494.521L459.41 336.639C459.917 307.574 438.184 275.952 410.868 266.009Z" fill="#2496BE"/>
</g>
<g filter="url(#filter3_f_1031_12962)">
<path d="M382.325 300.062L285.349 264.765C267.496 258.268 253.023 268.76 253.023 288.2L253.023 393.8C253.023 413.24 267.496 434.268 285.349 440.766L382.325 476.062C400.178 482.56 414.651 472.068 414.651 452.627L414.651 347.027C414.651 327.587 400.178 306.56 382.325 300.062Z" fill="#6B9CC6"/>
<path d="M285.349 265.265L382.325 300.562C399.908 306.962 414.181 327.681 414.181 346.856L414.181 452.456C414.181 471.632 399.908 481.962 382.325 475.562L285.349 440.266C267.766 433.866 253.493 413.146 253.493 393.971L253.493 288.371C253.493 269.196 267.766 258.866 285.349 265.265Z" stroke="white"/>
</g>
<g clip-path="url(#clip0_1031_12962)">
<path d="M354.577 411.844L312.463 396.516C311.596 396.2 310.914 395.227 310.914 394.303L310.914 376.726C310.914 366.668 318.196 361.075 327.431 363.578L327.431 360.973C327.431 360.05 328.113 359.572 328.98 359.888C329.848 360.204 330.53 361.178 330.53 362.101L330.53 366.289C330.53 367.212 329.848 367.69 328.98 367.374C320.737 364.374 314.013 369.049 314.013 377.854L314.013 393.782L353.027 407.982L353.027 392.054C353.027 383.282 346.334 373.69 338.06 370.679C337.192 370.363 336.511 369.389 336.511 368.466L336.511 364.278C336.511 363.354 337.192 362.877 338.06 363.193C338.928 363.509 339.609 364.482 339.609 365.406L339.609 368.011C348.844 372.196 356.126 383.124 356.126 393.182L356.126 410.759C356.126 411.649 355.444 412.16 354.577 411.844Z" fill="white"/>
<path d="M333.534 377.843C328.235 375.914 323.277 371.076 320.643 365.204C320.209 364.254 320.457 363.355 321.201 363.164C321.945 362.973 322.874 363.575 323.308 364.525C325.415 369.183 329.32 373.011 333.534 374.545C337.749 376.079 341.653 375.093 343.761 371.969C344.194 371.335 345.124 371.41 345.868 372.142C346.611 372.875 346.859 373.954 346.426 374.588C343.761 378.498 338.833 379.772 333.534 377.843Z" fill="white"/>
<path d="M323.995 400.711C323.127 400.395 322.445 399.422 322.445 398.498L322.445 383.625C322.445 382.702 323.127 382.225 323.995 382.541C324.862 382.856 325.544 383.83 325.544 384.753L325.544 399.626C325.544 400.516 324.862 401.027 323.995 400.711Z" fill="white"/>
<path d="M343.049 407.648C342.182 407.333 341.5 406.359 341.5 405.436L341.5 390.563C341.5 389.64 342.182 389.162 343.049 389.478C343.917 389.794 344.599 390.767 344.599 391.691L344.599 406.564C344.599 407.454 343.917 407.964 343.049 407.648Z" fill="white"/>
<path d="M333.532 365.9C326.467 363.329 320.703 355.097 320.703 347.578L320.703 341.84C320.703 334.321 326.467 330.285 333.532 332.857C340.598 335.429 346.362 343.66 346.362 351.179L346.362 356.917C346.331 364.425 340.598 368.472 333.532 365.9ZM333.532 336.155C328.171 334.203 323.802 337.263 323.802 342.968L323.802 348.706C323.802 354.411 328.171 360.651 333.532 362.602C338.893 364.554 343.263 361.494 343.263 355.789L343.263 350.051C343.232 344.335 338.893 338.106 333.532 336.155Z" fill="white"/>
<path d="M337.007 349.486C335.148 348.809 334.311 348.01 333.784 347.257C333.444 346.771 332.917 345.787 333.103 344.635C332.421 344.123 330.066 342.837 322.784 341.44C321.947 341.267 321.141 340.38 321.017 339.445C320.893 338.509 321.451 337.855 322.288 338.027C332.235 339.933 334.621 341.923 335.613 343.471C336.14 344.256 336.357 345.127 336.233 345.873C336.945 346.264 339.022 347.02 344.29 347.453C345.126 347.527 345.963 348.359 346.18 349.296C346.397 350.265 345.901 350.975 345.095 350.912C341.222 350.624 338.712 350.106 337.007 349.486Z" fill="white"/>
<path d="M372.707 441.333L354.393 434.667C353.525 434.351 352.844 433.377 352.844 432.454C352.844 431.531 353.525 431.053 354.393 431.369L372.707 438.035C378.533 440.155 383.305 436.847 383.305 430.614L383.305 405.749C383.305 404.826 383.987 404.348 384.855 404.664C385.723 404.98 386.404 405.954 386.404 406.877L386.404 431.742C386.404 439.788 380.238 444.073 372.707 441.333ZM317.703 421.313L294.338 412.808C286.776 410.056 280.641 401.294 280.641 393.247L280.641 373.758C280.641 372.834 281.322 372.357 282.19 372.673C283.058 372.988 283.739 373.962 283.739 374.885L283.739 394.375C283.739 400.575 288.481 407.379 294.338 409.511L317.703 418.015C318.571 418.331 319.252 419.304 319.252 420.228C319.252 421.151 318.571 421.628 317.703 421.313ZM282.221 336.97C281.353 336.654 280.672 335.68 280.672 334.757L280.672 309.892C280.672 301.845 286.807 297.549 294.369 300.301L312.683 306.967C313.55 307.283 314.232 308.256 314.232 309.18C314.232 310.103 313.55 310.581 312.683 310.265L294.369 303.599C288.543 301.479 283.77 304.787 283.77 311.02L283.77 335.885C283.77 336.808 283.058 337.274 282.221 336.97ZM384.855 368.95C383.987 368.634 383.305 367.66 383.305 366.737L383.305 347.248C383.305 341.048 378.564 334.244 372.707 332.112L349.342 323.608C348.474 323.292 347.793 322.318 347.793 321.395C347.793 320.472 348.474 319.994 349.342 320.31L372.707 328.814C380.269 331.566 386.404 340.329 386.404 348.375L386.404 367.865C386.404 368.788 385.692 369.254 384.855 368.95Z" fill="white"/>
<path d="M318.601 329.07C317.64 328.72 316.649 328.162 315.719 327.395C312.899 325.115 311.133 321.669 311.133 318.404L311.133 297.728C311.133 294.463 312.899 292.303 315.719 292.076C318.539 291.849 321.638 293.637 323.807 296.734L333.537 310.631C334.932 312.622 335.707 314.916 335.707 317.027C335.707 319.137 334.932 320.834 333.537 321.843L323.807 328.656C322.382 329.622 320.522 329.769 318.601 329.07ZM318.601 295.796C318.043 295.593 317.454 295.511 316.897 295.538C315.223 295.655 314.232 296.91 314.232 298.822L314.232 319.499C314.232 321.412 315.223 323.389 316.897 324.723C318.57 326.058 320.336 326.338 321.638 325.46L331.368 318.646C332.174 318.082 332.639 317.064 332.639 315.844C332.639 314.624 332.205 313.279 331.368 312.117L321.638 298.22C320.77 297.047 319.717 296.202 318.601 295.796Z" fill="white"/>
<path d="M384.854 391.832C382.963 391.144 381.042 389.686 379.586 387.606L369.855 373.71C367.686 370.612 367.066 367.089 368.244 364.516C369.421 361.944 372.055 361.023 375.123 362.14L394.553 369.212C397.621 370.328 400.255 373.167 401.433 376.596C402.61 380.026 401.99 383.098 399.821 384.617L390.091 391.43C388.634 392.417 386.744 392.52 384.854 391.832ZM375.123 365.404C373.295 364.739 371.808 365.253 371.126 366.785C370.444 368.318 370.785 370.322 372.055 372.169L381.786 386.066C383.49 388.5 386.217 389.492 387.922 388.299L397.652 381.486C398.922 380.596 399.294 378.852 398.582 376.779C397.869 374.705 396.381 373.142 394.584 372.488L375.123 365.404Z" fill="white"/>
<path d="M348.441 449.154C346.52 448.454 344.661 446.986 343.235 444.917L333.505 431.021C330.592 426.861 330.592 421.848 333.505 419.842L343.235 413.028C345.405 411.51 348.503 411.978 351.323 414.257C354.143 416.537 355.91 419.983 355.91 423.248L355.91 443.924C355.91 447.189 354.143 449.349 351.323 449.576C350.394 449.633 349.402 449.503 348.441 449.154ZM348.441 415.88C347.326 415.474 346.272 415.552 345.436 416.171L335.705 422.984C334.001 424.177 334.001 427.079 335.705 429.513L345.436 443.41C346.706 445.224 348.472 446.263 350.177 446.125C351.881 445.987 352.842 444.753 352.842 442.841L352.842 422.131C352.842 420.185 351.85 418.242 350.177 416.907C349.588 416.429 348.999 416.083 348.441 415.88Z" fill="white"/>
<path d="M291.92 379.512L272.491 372.44C269.423 371.323 266.789 368.485 265.611 365.055C264.434 361.626 265.053 358.554 267.222 357.035L276.953 350.222C279.835 348.171 284.576 349.896 287.458 354.045L297.188 367.942C299.358 371.039 299.977 374.563 298.8 377.135C297.622 379.74 294.988 380.628 291.92 379.512ZM282.221 353.128C281.105 352.722 279.99 352.778 279.153 353.364L269.423 360.177C268.152 361.067 267.78 362.811 268.493 364.884C269.206 366.957 270.693 368.521 272.491 369.175L291.92 376.247C293.718 376.901 295.236 376.399 295.918 374.866C296.6 373.333 296.259 371.33 294.988 369.482L285.258 355.586C284.421 354.391 283.336 353.534 282.221 353.128Z" fill="white"/>
</g>
<g clip-path="url(#clip1_1031_12962)" filter="url(#filter4_f_1031_12962)">
<path d="M354.577 411.844L312.463 396.516C311.596 396.2 310.914 395.227 310.914 394.303L310.914 376.726C310.914 366.668 318.196 361.075 327.431 363.578L327.431 360.973C327.431 360.05 328.113 359.572 328.98 359.888C329.848 360.204 330.53 361.178 330.53 362.101L330.53 366.289C330.53 367.212 329.848 367.69 328.98 367.374C320.737 364.374 314.013 369.049 314.013 377.854L314.013 393.782L353.027 407.982L353.027 392.054C353.027 383.282 346.334 373.69 338.06 370.679C337.192 370.363 336.511 369.389 336.511 368.466L336.511 364.278C336.511 363.354 337.192 362.877 338.06 363.193C338.928 363.509 339.609 364.482 339.609 365.406L339.609 368.011C348.844 372.196 356.126 383.124 356.126 393.182L356.126 410.759C356.126 411.649 355.444 412.16 354.577 411.844Z" fill="white"/>
<path d="M333.534 377.843C328.235 375.914 323.277 371.076 320.643 365.204C320.209 364.254 320.457 363.355 321.201 363.164C321.945 362.973 322.874 363.575 323.308 364.525C325.415 369.183 329.32 373.011 333.534 374.545C337.749 376.079 341.653 375.093 343.761 371.969C344.194 371.335 345.124 371.41 345.868 372.142C346.611 372.875 346.859 373.954 346.426 374.588C343.761 378.498 338.833 379.772 333.534 377.843Z" fill="white"/>
<path d="M323.995 400.711C323.127 400.395 322.445 399.422 322.445 398.498L322.445 383.625C322.445 382.702 323.127 382.225 323.995 382.541C324.862 382.856 325.544 383.83 325.544 384.753L325.544 399.626C325.544 400.516 324.862 401.027 323.995 400.711Z" fill="white"/>
<path d="M343.049 407.648C342.182 407.333 341.5 406.359 341.5 405.436L341.5 390.563C341.5 389.64 342.182 389.162 343.049 389.478C343.917 389.794 344.599 390.767 344.599 391.691L344.599 406.564C344.599 407.454 343.917 407.964 343.049 407.648Z" fill="white"/>
<path d="M333.532 365.9C326.467 363.329 320.703 355.097 320.703 347.578L320.703 341.84C320.703 334.321 326.467 330.285 333.532 332.857C340.598 335.429 346.362 343.66 346.362 351.179L346.362 356.917C346.331 364.425 340.598 368.472 333.532 365.9ZM333.532 336.155C328.171 334.203 323.802 337.263 323.802 342.968L323.802 348.706C323.802 354.411 328.171 360.651 333.532 362.602C338.893 364.554 343.263 361.494 343.263 355.789L343.263 350.051C343.232 344.335 338.893 338.106 333.532 336.155Z" fill="white"/>
<path d="M337.007 349.486C335.148 348.809 334.311 348.01 333.784 347.257C333.444 346.771 332.917 345.787 333.103 344.635C332.421 344.123 330.066 342.837 322.784 341.44C321.947 341.267 321.141 340.38 321.017 339.445C320.893 338.509 321.451 337.855 322.288 338.027C332.235 339.933 334.621 341.923 335.613 343.471C336.14 344.256 336.357 345.127 336.233 345.873C336.945 346.264 339.022 347.02 344.29 347.453C345.126 347.527 345.963 348.359 346.18 349.296C346.397 350.265 345.901 350.975 345.095 350.912C341.222 350.624 338.712 350.106 337.007 349.486Z" fill="white"/>
<path d="M372.707 441.333L354.393 434.667C353.525 434.351 352.844 433.377 352.844 432.454C352.844 431.531 353.525 431.053 354.393 431.369L372.707 438.035C378.533 440.155 383.305 436.847 383.305 430.614L383.305 405.749C383.305 404.826 383.987 404.348 384.855 404.664C385.723 404.98 386.404 405.954 386.404 406.877L386.404 431.742C386.404 439.788 380.238 444.073 372.707 441.333ZM317.703 421.313L294.338 412.808C286.776 410.056 280.641 401.294 280.641 393.247L280.641 373.758C280.641 372.834 281.322 372.357 282.19 372.673C283.058 372.988 283.739 373.962 283.739 374.885L283.739 394.375C283.739 400.575 288.481 407.379 294.338 409.511L317.703 418.015C318.571 418.331 319.252 419.304 319.252 420.228C319.252 421.151 318.571 421.628 317.703 421.313ZM282.221 336.97C281.353 336.654 280.672 335.68 280.672 334.757L280.672 309.892C280.672 301.845 286.807 297.549 294.369 300.301L312.683 306.967C313.55 307.283 314.232 308.256 314.232 309.18C314.232 310.103 313.55 310.581 312.683 310.265L294.369 303.599C288.543 301.479 283.77 304.787 283.77 311.02L283.77 335.885C283.77 336.808 283.058 337.274 282.221 336.97ZM384.855 368.95C383.987 368.634 383.305 367.66 383.305 366.737L383.305 347.248C383.305 341.048 378.564 334.244 372.707 332.112L349.342 323.608C348.474 323.292 347.793 322.318 347.793 321.395C347.793 320.472 348.474 319.994 349.342 320.31L372.707 328.814C380.269 331.566 386.404 340.329 386.404 348.375L386.404 367.865C386.404 368.788 385.692 369.254 384.855 368.95Z" fill="white"/>
<path d="M318.601 329.07C317.64 328.72 316.649 328.162 315.719 327.395C312.899 325.115 311.133 321.669 311.133 318.404L311.133 297.728C311.133 294.463 312.899 292.303 315.719 292.076C318.539 291.849 321.638 293.637 323.807 296.734L333.537 310.631C334.932 312.622 335.707 314.916 335.707 317.027C335.707 319.137 334.932 320.834 333.537 321.843L323.807 328.656C322.382 329.622 320.522 329.769 318.601 329.07ZM318.601 295.796C318.043 295.593 317.454 295.511 316.897 295.538C315.223 295.655 314.232 296.91 314.232 298.822L314.232 319.499C314.232 321.412 315.223 323.389 316.897 324.723C318.57 326.058 320.336 326.338 321.638 325.46L331.368 318.646C332.174 318.082 332.639 317.064 332.639 315.844C332.639 314.624 332.205 313.279 331.368 312.117L321.638 298.22C320.77 297.047 319.717 296.202 318.601 295.796Z" fill="white"/>
<path d="M384.854 391.832C382.963 391.144 381.042 389.686 379.586 387.606L369.855 373.71C367.686 370.612 367.066 367.089 368.244 364.516C369.421 361.944 372.055 361.023 375.123 362.14L394.553 369.212C397.621 370.328 400.255 373.167 401.433 376.596C402.61 380.026 401.99 383.098 399.821 384.617L390.091 391.43C388.634 392.417 386.744 392.52 384.854 391.832ZM375.123 365.404C373.295 364.739 371.808 365.253 371.126 366.785C370.444 368.318 370.785 370.322 372.055 372.169L381.786 386.066C383.49 388.5 386.217 389.492 387.922 388.299L397.652 381.486C398.922 380.596 399.294 378.852 398.582 376.779C397.869 374.705 396.381 373.142 394.584 372.488L375.123 365.404Z" fill="white"/>
<path d="M348.441 449.154C346.52 448.454 344.661 446.986 343.235 444.917L333.505 431.021C330.592 426.861 330.592 421.848 333.505 419.842L343.235 413.028C345.405 411.51 348.503 411.978 351.323 414.257C354.143 416.537 355.91 419.983 355.91 423.248L355.91 443.924C355.91 447.189 354.143 449.349 351.323 449.576C350.394 449.633 349.402 449.503 348.441 449.154ZM348.441 415.88C347.326 415.474 346.272 415.552 345.436 416.171L335.705 422.984C334.001 424.177 334.001 427.079 335.705 429.513L345.436 443.41C346.706 445.224 348.472 446.263 350.177 446.125C351.881 445.987 352.842 444.753 352.842 442.841L352.842 422.131C352.842 420.185 351.85 418.242 350.177 416.907C349.588 416.429 348.999 416.083 348.441 415.88Z" fill="white"/>
<path d="M291.92 379.512L272.491 372.44C269.423 371.323 266.789 368.485 265.611 365.055C264.434 361.626 265.053 358.554 267.222 357.035L276.953 350.222C279.835 348.171 284.576 349.896 287.458 354.045L297.188 367.942C299.358 371.039 299.977 374.563 298.8 377.135C297.622 379.74 294.988 380.628 291.92 379.512ZM282.221 353.128C281.105 352.722 279.99 352.778 279.153 353.364L269.423 360.177C268.152 361.067 267.78 362.811 268.493 364.884C269.206 366.957 270.693 368.521 272.491 369.175L291.92 376.247C293.718 376.901 295.236 376.399 295.918 374.866C296.6 373.333 296.259 371.33 294.988 369.482L285.258 355.586C284.421 354.391 283.336 353.534 282.221 353.128Z" fill="white"/>
</g>
<defs>
<filter id="filter0_i_1031_12962" x="169.695" y="157.648" width="328.828" height="429.648" filterUnits="userSpaceOnUse" color-interpolation-filters="sRGB">
<feFlood flood-opacity="0" result="BackgroundImageFix"/>
<feBlend mode="normal" in="SourceGraphic" in2="BackgroundImageFix" result="shape"/>
<feColorMatrix in="SourceAlpha" type="matrix" values="0 0 0 0 0 0 0 0 0 0 0 0 0 0 0 0 0 0 127 0" result="hardAlpha"/>
<feOffset dy="4"/>
<feGaussianBlur stdDeviation="32.55"/>
<feComposite in2="hardAlpha" operator="arithmetic" k2="-1" k3="1"/>
<feColorMatrix type="matrix" values="0 0 0 0 0 0 0 0 0 0 0 0 0 0 0 0 0 0 0.25 0"/>
<feBlend mode="normal" in2="shape" result="effect1_innerShadow_1031_12962"/>
</filter>
<filter id="filter1_d_1031_12962" x="209.484" y="215.414" width="248.406" height="318.664" filterUnits="userSpaceOnUse" color-interpolation-filters="sRGB">
<feFlood flood-opacity="0" result="BackgroundImageFix"/>
<feColorMatrix in="SourceAlpha" type="matrix" values="0 0 0 0 0 0 0 0 0 0 0 0 0 0 0 0 0 0 127 0" result="hardAlpha"/>
<feOffset dy="4"/>
<feGaussianBlur stdDeviation="2"/>
<feComposite in2="hardAlpha" operator="out"/>
<feColorMatrix type="matrix" values="0 0 0 0 0 0 0 0 0 0 0 0 0 0 0 0 0 0 0.25 0"/>
<feBlend mode="normal" in2="BackgroundImageFix" result="effect1_dropShadow_1031_12962"/>
<feBlend mode="normal" in="SourceGraphic" in2="effect1_dropShadow_1031_12962" result="shape"/>
</filter>
<filter id="filter2_f_1031_12962" x="0.543747" y="0.192184" width="667.678" height="740.764" filterUnits="userSpaceOnUse" color-interpolation-filters="sRGB">
<feFlood flood-opacity="0" result="BackgroundImageFix"/>
<feBlend mode="normal" in="SourceGraphic" in2="BackgroundImageFix" result="shape"/>
<feGaussianBlur stdDeviation="104.4" result="effect1_foregroundBlur_1031_12962"/>
</filter>
<filter id="filter3_f_1031_12962" x="104.623" y="114.444" width="458.425" height="511.941" filterUnits="userSpaceOnUse" color-interpolation-filters="sRGB">
<feFlood flood-opacity="0" result="BackgroundImageFix"/>
<feBlend mode="normal" in="SourceGraphic" in2="BackgroundImageFix" result="shape"/>
<feGaussianBlur stdDeviation="74.2" result="effect1_foregroundBlur_1031_12962"/>
</filter>
<filter id="filter4_f_1031_12962" x="248.823" y="256.8" width="169.4" height="228.056" filterUnits="userSpaceOnUse" color-interpolation-filters="sRGB">
<feFlood flood-opacity="0" result="BackgroundImageFix"/>
<feBlend mode="normal" in="SourceGraphic" in2="BackgroundImageFix" result="shape"/>
<feGaussianBlur stdDeviation="8.1" result="effect1_foregroundBlur_1031_12962"/>
</filter>
<radialGradient id="paint0_radial_1031_12962" cx="0" cy="0" r="1" gradientUnits="userSpaceOnUse" gradientTransform="translate(458.165 321.011) rotate(20) scale(46.8359 44.2843)">
<stop stop-color="#00A5FF"/>
<stop offset="0.31" stop-color="#0075B4"/>
<stop offset="1"/>
</radialGradient>
<radialGradient id="paint1_radial_1031_12962" cx="0" cy="0" r="1" gradientUnits="userSpaceOnUse" gradientTransform="translate(457.564 355.518) rotate(20) scale(46.8358 44.2842)">
<stop stop-color="#00A5FF"/>
<stop offset="0.31" stop-color="#0075B4"/>
<stop offset="1"/>
</radialGradient>
<radialGradient id="paint2_radial_1031_12962" cx="0" cy="0" r="1" gradientUnits="userSpaceOnUse" gradientTransform="translate(457.266 372.764) rotate(20) scale(46.8358 44.284)">
<stop stop-color="#00A5FF"/>
<stop offset="0.31" stop-color="#0075B4"/>
<stop offset="1"/>
</radialGradient>
<radialGradient id="paint3_radial_1031_12962" cx="0" cy="0" r="1" gradientUnits="userSpaceOnUse" gradientTransform="translate(456.657 407.265) rotate(20) scale(46.8358 44.2842)">
<stop stop-color="#00A5FF"/>
<stop offset="0.31" stop-color="#0075B4"/>
<stop offset="1"/>
</radialGradient>
<radialGradient id="paint4_radial_1031_12962" cx="0" cy="0" r="1" gradientUnits="userSpaceOnUse" gradientTransform="translate(456.056 441.753) rotate(20) scale(46.8358 44.2843)">
<stop stop-color="#00A5FF"/>
<stop offset="0.31" stop-color="#0075B4"/>
<stop offset="1"/>
</radialGradient>
<radialGradient id="paint5_radial_1031_12962" cx="0" cy="0" r="1" gradientUnits="userSpaceOnUse" gradientTransform="translate(455.759 459.018) rotate(20) scale(46.8358 44.2842)">
<stop stop-color="#00A5FF"/>
<stop offset="0.31" stop-color="#0075B4"/>
<stop offset="1"/>
</radialGradient>
<radialGradient id="paint6_radial_1031_12962" cx="0" cy="0" r="1" gradientUnits="userSpaceOnUse" gradientTransform="translate(455.157 493.503) rotate(20) scale(46.8358 44.2837)">
<stop stop-color="#00A5FF"/>
<stop offset="0.31" stop-color="#0075B4"/>
<stop offset="1"/>
</radialGradient>
<radialGradient id="paint7_radial_1031_12962" cx="0" cy="0" r="1" gradientUnits="userSpaceOnUse" gradientTransform="translate(454.853 510.768) rotate(20) scale(46.8359 44.2843)">
<stop stop-color="#00A5FF"/>
<stop offset="0.31" stop-color="#0075B4"/>
<stop offset="1"/>
</radialGradient>
<radialGradient id="paint8_radial_1031_12962" cx="0" cy="0" r="1" gradientUnits="userSpaceOnUse" gradientTransform="translate(247.039 210.26) rotate(-89) scale(46.8359 44.2843)">
<stop stop-color="#00A5FF"/>
<stop offset="0.31" stop-color="#0075B4"/>
<stop offset="1"/>
</radialGradient>
<radialGradient id="paint9_radial_1031_12962" cx="0" cy="0" r="1" gradientUnits="userSpaceOnUse" gradientTransform="translate(279.469 222.064) rotate(-89) scale(46.8358 44.2842)">
<stop stop-color="#00A5FF"/>
<stop offset="0.31" stop-color="#0075B4"/>
<stop offset="1"/>
</radialGradient>
<radialGradient id="paint10_radial_1031_12962" cx="0" cy="0" r="1" gradientUnits="userSpaceOnUse" gradientTransform="translate(295.672 227.961) rotate(-89) scale(46.8358 44.2839)">
<stop stop-color="#00A5FF"/>
<stop offset="0.31" stop-color="#0075B4"/>
<stop offset="1"/>
</radialGradient>
<radialGradient id="paint11_radial_1031_12962" cx="0" cy="0" r="1" gradientUnits="userSpaceOnUse" gradientTransform="translate(328.104 239.761) rotate(-89) scale(46.8358 44.2842)">
<stop stop-color="#00A5FF"/>
<stop offset="0.31" stop-color="#0075B4"/>
<stop offset="1"/>
</radialGradient>
<radialGradient id="paint12_radial_1031_12962" cx="0" cy="0" r="1" gradientUnits="userSpaceOnUse" gradientTransform="translate(360.523 251.564) rotate(-89) scale(46.8358 44.2843)">
<stop stop-color="#00A5FF"/>
<stop offset="0.31" stop-color="#0075B4"/>
<stop offset="1"/>
</radialGradient>
<radialGradient id="paint13_radial_1031_12962" cx="0" cy="0" r="1" gradientUnits="userSpaceOnUse" gradientTransform="translate(376.742 257.463) rotate(-89) scale(46.8358 44.2842)">
<stop stop-color="#00A5FF"/>
<stop offset="0.31" stop-color="#0075B4"/>
<stop offset="1"/>
</radialGradient>
<radialGradient id="paint14_radial_1031_12962" cx="0" cy="0" r="1" gradientUnits="userSpaceOnUse" gradientTransform="translate(409.156 269.267) rotate(-89) scale(46.8358 44.2837)">
<stop stop-color="#00A5FF"/>
<stop offset="0.31" stop-color="#0075B4"/>
<stop offset="1"/>
</radialGradient>
<radialGradient id="paint15_radial_1031_12962" cx="0" cy="0" r="1" gradientUnits="userSpaceOnUse" gradientTransform="translate(425.375 275.166) rotate(-89) scale(46.8359 44.2843)">
<stop stop-color="#00A5FF"/>
<stop offset="0.31" stop-color="#0075B4"/>
<stop offset="1"/>
</radialGradient>
<radialGradient id="paint16_radial_1031_12962" cx="0" cy="0" r="1" gradientUnits="userSpaceOnUse" gradientTransform="translate(213.335 424.146) rotate(-160) scale(46.8359 44.2843)">
<stop stop-color="#00A5FF"/>
<stop offset="0.31" stop-color="#0075B4"/>
<stop offset="1"/>
</radialGradient>
<radialGradient id="paint17_radial_1031_12962" cx="0" cy="0" r="1" gradientUnits="userSpaceOnUse" gradientTransform="translate(213.936 389.638) rotate(-160) scale(46.8358 44.2842)">
<stop stop-color="#00A5FF"/>
<stop offset="0.31" stop-color="#0075B4"/>
<stop offset="1"/>
</radialGradient>
<radialGradient id="paint18_radial_1031_12962" cx="0" cy="0" r="1" gradientUnits="userSpaceOnUse" gradientTransform="translate(214.234 372.392) rotate(-160) scale(46.8358 44.284)">
<stop stop-color="#00A5FF"/>
<stop offset="0.31" stop-color="#0075B4"/>
<stop offset="1"/>
</radialGradient>
<radialGradient id="paint19_radial_1031_12962" cx="0" cy="0" r="1" gradientUnits="userSpaceOnUse" gradientTransform="translate(214.843 337.891) rotate(-160) scale(46.8358 44.2842)">
<stop stop-color="#00A5FF"/>
<stop offset="0.31" stop-color="#0075B4"/>
<stop offset="1"/>
</radialGradient>
<radialGradient id="paint20_radial_1031_12962" cx="0" cy="0" r="1" gradientUnits="userSpaceOnUse" gradientTransform="translate(215.444 303.403) rotate(-160) scale(46.8358 44.2843)">
<stop stop-color="#00A5FF"/>
<stop offset="0.31" stop-color="#0075B4"/>
<stop offset="1"/>
</radialGradient>
<radialGradient id="paint21_radial_1031_12962" cx="0" cy="0" r="1" gradientUnits="userSpaceOnUse" gradientTransform="translate(215.741 286.138) rotate(-160) scale(46.8358 44.2842)">
<stop stop-color="#00A5FF"/>
<stop offset="0.31" stop-color="#0075B4"/>
<stop offset="1"/>
</radialGradient>
<radialGradient id="paint22_radial_1031_12962" cx="0" cy="0" r="1" gradientUnits="userSpaceOnUse" gradientTransform="translate(216.343 251.653) rotate(-160) scale(46.8358 44.2837)">
<stop stop-color="#00A5FF"/>
<stop offset="0.31" stop-color="#0075B4"/>
<stop offset="1"/>
</radialGradient>
<radialGradient id="paint23_radial_1031_12962" cx="0" cy="0" r="1" gradientUnits="userSpaceOnUse" gradientTransform="translate(216.647 234.388) rotate(-160) scale(46.8359 44.2843)">
<stop stop-color="#00A5FF"/>
<stop offset="0.31" stop-color="#0075B4"/>
<stop offset="1"/>
</radialGradient>
<radialGradient id="paint24_radial_1031_12962" cx="0" cy="0" r="1" gradientUnits="userSpaceOnUse" gradientTransform="translate(422.039 535.568) rotate(91) scale(46.8359 44.2843)">
<stop stop-color="#00A5FF"/>
<stop offset="0.31" stop-color="#0075B4"/>
<stop offset="1"/>
</radialGradient>
<radialGradient id="paint25_radial_1031_12962" cx="0" cy="0" r="1" gradientUnits="userSpaceOnUse" gradientTransform="translate(389.61 523.764) rotate(91) scale(46.8358 44.2842)">
<stop stop-color="#00A5FF"/>
<stop offset="0.31" stop-color="#0075B4"/>
<stop offset="1"/>
</radialGradient>
<radialGradient id="paint26_radial_1031_12962" cx="0" cy="0" r="1" gradientUnits="userSpaceOnUse" gradientTransform="translate(373.406 517.867) rotate(91) scale(46.8358 44.284)">
<stop stop-color="#00A5FF"/>
<stop offset="0.31" stop-color="#0075B4"/>
<stop offset="1"/>
</radialGradient>
<radialGradient id="paint27_radial_1031_12962" cx="0" cy="0" r="1" gradientUnits="userSpaceOnUse" gradientTransform="translate(340.974 506.067) rotate(91) scale(46.8358 44.2842)">
<stop stop-color="#00A5FF"/>
<stop offset="0.31" stop-color="#0075B4"/>
<stop offset="1"/>
</radialGradient>
<radialGradient id="paint28_radial_1031_12962" cx="0" cy="0" r="1" gradientUnits="userSpaceOnUse" gradientTransform="translate(308.555 494.264) rotate(91) scale(46.8358 44.2843)">
<stop stop-color="#00A5FF"/>
<stop offset="0.31" stop-color="#0075B4"/>
<stop offset="1"/>
</radialGradient>
<radialGradient id="paint29_radial_1031_12962" cx="0" cy="0" r="1" gradientUnits="userSpaceOnUse" gradientTransform="translate(292.336 488.365) rotate(91) scale(46.8358 44.2842)">
<stop stop-color="#00A5FF"/>
<stop offset="0.31" stop-color="#0075B4"/>
<stop offset="1"/>
</radialGradient>
<radialGradient id="paint30_radial_1031_12962" cx="0" cy="0" r="1" gradientUnits="userSpaceOnUse" gradientTransform="translate(259.922 476.561) rotate(91) scale(46.8358 44.2837)">
<stop stop-color="#00A5FF"/>
<stop offset="0.31" stop-color="#0075B4"/>
<stop offset="1"/>
</radialGradient>
<radialGradient id="paint31_radial_1031_12962" cx="0" cy="0" r="1" gradientUnits="userSpaceOnUse" gradientTransform="translate(243.703 470.662) rotate(91) scale(46.8359 44.2843)">
<stop stop-color="#00A5FF"/>
<stop offset="0.31" stop-color="#0075B4"/>
<stop offset="1"/>
</radialGradient>
<radialGradient id="paint32_angular_1031_12962" cx="0" cy="0" r="1" gradientUnits="userSpaceOnUse" gradientTransform="translate(333.687 370.746) rotate(90.792) scale(91.7988 86.5934)">
<stop offset="0.144806" stop-color="#005DFF"/>
<stop offset="0.347377" stop-color="white" stop-opacity="0.04"/>
<stop offset="0.653019" stop-color="white"/>
<stop offset="0.847291" stop-color="white" stop-opacity="0.07"/>
</radialGradient>
<clipPath id="clip0_1031_12962">
<rect width="145.792" height="145.792" fill="white" transform="matrix(0.939693 0.34202 8.49214e-10 1 265.023 273)"/>
</clipPath>
<clipPath id="clip1_1031_12962">
<rect width="145.792" height="145.792" fill="white" transform="matrix(0.939693 0.34202 8.49214e-10 1 265.023 273)"/>
</clipPath>
</defs>
</svg>
