<svg width="461" height="513" viewBox="0 0 461 513" fill="none" xmlns="http://www.w3.org/2000/svg">
<path d="M355.674 205.804L348.73 203.277C347.136 202.697 345.82 203.601 345.79 205.297L345.79 205.311C345.76 207.007 347.028 208.852 348.622 209.432L355.566 211.959C357.16 212.54 358.476 211.635 358.506 209.939L358.506 209.925C358.536 208.229 357.268 206.385 355.674 205.804Z" fill="url(#paint0_radial_1031_13314)"/>
<path d="M355.27 229.202L348.325 226.674C347.946 226.536 347.572 226.32 347.225 226.038C346.878 225.757 346.563 225.415 346.3 225.032C346.037 224.649 345.831 224.234 345.692 223.808C345.554 223.383 345.486 222.957 345.493 222.553C345.498 222.148 345.579 221.774 345.73 221.453C345.88 221.131 346.099 220.868 346.372 220.679C346.645 220.49 346.967 220.379 347.321 220.351C347.675 220.324 348.053 220.381 348.433 220.519L355.377 223.047C356.146 223.326 356.877 223.92 357.411 224.696C357.945 225.473 358.236 226.368 358.222 227.186C358.204 228.001 357.884 228.67 357.33 229.048C356.777 229.425 356.036 229.481 355.27 229.202Z" fill="#005DFF"/>
<path d="M354.965 246.453L348.021 243.926C347.642 243.788 347.268 243.572 346.921 243.29C346.573 243.008 346.259 242.666 345.996 242.284C345.733 241.901 345.526 241.485 345.388 241.06C345.249 240.635 345.182 240.208 345.189 239.805C345.203 238.991 345.52 238.32 346.072 237.941C346.623 237.563 347.363 237.506 348.128 237.785L355.072 240.312C355.839 240.591 356.569 241.182 357.102 241.955C357.635 242.728 357.928 243.621 357.918 244.438C357.9 245.252 357.579 245.921 357.026 246.299C356.473 246.677 355.732 246.732 354.965 246.453Z" fill="url(#paint1_radial_1031_13314)"/>
<path d="M354.667 263.713L347.723 261.185C347.343 261.047 346.968 260.83 346.62 260.547C346.272 260.264 345.957 259.921 345.694 259.536C345.431 259.152 345.224 258.735 345.087 258.308C344.949 257.881 344.882 257.454 344.891 257.05C344.893 256.641 344.971 256.263 345.12 255.938C345.269 255.612 345.487 255.346 345.761 255.154C346.034 254.962 346.358 254.849 346.714 254.82C347.069 254.792 347.449 254.849 347.831 254.988L354.776 257.515C355.542 257.794 356.272 258.385 356.805 259.158C357.338 259.931 357.632 260.824 357.621 261.641C357.619 262.052 357.541 262.431 357.391 262.758C357.241 263.085 357.022 263.353 356.747 263.546C356.473 263.738 356.147 263.852 355.79 263.881C355.433 263.91 355.052 263.852 354.667 263.713Z" fill="url(#paint2_radial_1031_13314)"/>
<path d="M354.363 280.952L347.419 278.424C346.654 278.145 345.925 277.555 345.394 276.782C344.863 276.009 344.573 275.118 344.587 274.303C344.592 273.898 344.672 273.524 344.823 273.202C344.974 272.881 345.192 272.618 345.465 272.429C345.739 272.24 346.061 272.129 346.415 272.101C346.769 272.074 347.146 272.131 347.526 272.269L354.471 274.797C355.24 275.076 355.971 275.67 356.505 276.446C357.038 277.222 357.33 278.118 357.316 278.936C357.298 279.751 356.978 280.42 356.424 280.798C355.871 281.175 355.13 281.231 354.363 280.952Z" fill="#005DFF"/>
<path d="M354.067 298.172L347.122 295.644C346.357 295.366 345.629 294.775 345.097 294.002C344.566 293.23 344.276 292.338 344.29 291.524C344.304 290.709 344.622 290.039 345.173 289.66C345.724 289.281 346.464 289.225 347.23 289.503L354.174 292.031C354.94 292.31 355.67 292.901 356.203 293.674C356.737 294.447 357.03 295.34 357.019 296.157C357.001 296.971 356.681 297.64 356.128 298.018C355.574 298.396 354.833 298.451 354.067 298.172Z" fill="url(#paint3_radial_1031_13314)"/>
<path d="M353.762 315.459L346.817 312.932C346.437 312.794 346.062 312.577 345.714 312.294C345.366 312.011 345.051 311.667 344.788 311.283C344.525 310.899 344.318 310.482 344.181 310.055C344.043 309.628 343.977 309.201 343.985 308.797C344 307.983 344.317 307.312 344.869 306.934C345.42 306.555 346.16 306.498 346.925 306.777L353.869 309.304C354.636 309.583 355.365 310.174 355.899 310.947C356.432 311.72 356.725 312.613 356.715 313.43C356.7 314.248 356.381 314.921 355.827 315.302C355.274 315.683 354.531 315.739 353.762 315.459Z" fill="#005DFF"/>
<path d="M353.457 332.702L346.513 330.174C345.747 329.896 345.019 329.305 344.488 328.532C343.957 327.759 343.666 326.868 343.681 326.053C343.695 325.238 344.012 324.566 344.563 324.184C345.114 323.803 345.854 323.744 346.62 324.019L353.564 326.547C354.332 326.83 355.062 327.424 355.595 328.199C356.127 328.974 356.42 329.868 356.41 330.686C356.392 331.501 356.071 332.17 355.518 332.548C354.965 332.925 354.224 332.981 353.457 332.702Z" fill="url(#paint4_radial_1031_13314)"/>
<path d="M353.16 349.953L346.216 347.426C345.451 347.147 344.722 346.557 344.191 345.784C343.66 345.011 343.37 344.119 343.384 343.305C343.398 342.491 343.716 341.82 344.267 341.441C344.818 341.062 345.558 341.006 346.323 341.285L353.268 343.812C354.034 344.091 354.764 344.682 355.297 345.455C355.83 346.228 356.124 347.121 356.113 347.938C356.095 348.752 355.775 349.421 355.221 349.799C354.668 350.177 353.927 350.232 353.16 349.953Z" fill="url(#paint5_radial_1031_13314)"/>
<path d="M352.855 367.209L345.911 364.682C345.531 364.544 345.156 364.327 344.808 364.044C344.46 363.761 344.145 363.417 343.882 363.033C343.619 362.649 343.412 362.232 343.275 361.805C343.137 361.378 343.07 360.951 343.079 360.547C343.086 360.144 343.168 359.772 343.319 359.452C343.471 359.132 343.689 358.871 343.962 358.684C344.235 358.496 344.557 358.386 344.91 358.359C345.263 358.332 345.64 358.389 346.019 358.527L352.963 361.054C353.729 361.333 354.459 361.924 354.992 362.697C355.526 363.471 355.819 364.363 355.808 365.18C355.794 365.998 355.475 366.672 354.921 367.052C354.367 367.433 353.624 367.489 352.855 367.209Z" fill="#005DFF"/>
<path d="M352.559 384.452L345.614 381.924C345.235 381.786 344.861 381.57 344.514 381.288C344.167 381.007 343.852 380.665 343.589 380.282C343.326 379.899 343.12 379.483 342.981 379.058C342.843 378.633 342.775 378.206 342.782 377.803C342.796 376.988 343.114 376.316 343.664 375.934C344.215 375.553 344.955 375.494 345.722 375.769L352.666 378.297C353.434 378.58 354.163 379.173 354.696 379.949C355.229 380.724 355.522 381.618 355.511 382.436C355.493 383.251 355.173 383.92 354.619 384.298C354.066 384.675 353.325 384.731 352.559 384.452Z" fill="url(#paint6_radial_1031_13314)"/>
<path d="M352.361 395.562L345.417 393.035C343.823 392.455 342.507 393.359 342.478 395.055L342.477 395.069C342.448 396.765 343.716 398.61 345.31 399.19L352.254 401.717C353.848 402.297 355.164 401.393 355.193 399.697L355.194 399.683C355.223 397.987 353.955 396.142 352.361 395.562Z" fill="url(#paint7_radial_1031_13314)"/>
<path d="M138.784 91.7281L138.655 99.117C138.626 100.813 139.894 102.658 141.487 103.238L141.501 103.243C143.094 103.823 144.41 102.918 144.44 101.222L144.569 93.8336C144.598 92.1378 143.33 90.2928 141.737 89.7128L141.723 89.708C140.13 89.1279 138.814 90.0323 138.784 91.7281Z" fill="url(#paint8_radial_1031_13314)"/>
<path d="M160.78 99.732L160.651 107.121C160.644 107.524 160.562 107.896 160.411 108.216C160.259 108.536 160.041 108.797 159.768 108.984C159.495 109.172 159.173 109.282 158.82 109.309C158.467 109.336 158.09 109.279 157.711 109.141C157.331 109.005 156.956 108.789 156.607 108.508C156.258 108.226 155.942 107.884 155.678 107.501C155.414 107.118 155.206 106.701 155.066 106.274C154.927 105.848 154.859 105.42 154.866 105.015L154.995 97.6266C155.009 96.8085 155.329 96.1351 155.882 95.7546C156.436 95.374 157.179 95.3173 157.948 95.5972C158.714 95.8799 159.443 96.4737 159.973 97.2485C160.504 98.0234 160.794 98.9164 160.78 99.732Z" fill="#005DFF"/>
<path d="M176.985 105.634L176.856 113.022C176.849 113.426 176.768 113.798 176.616 114.117C176.465 114.437 176.246 114.698 175.973 114.886C175.7 115.074 175.378 115.184 175.025 115.211C174.673 115.238 174.296 115.18 173.917 115.043C173.152 114.764 172.423 114.173 171.892 113.401C171.361 112.628 171.071 111.736 171.085 110.922L171.214 103.533C171.228 102.717 171.545 102.045 172.096 101.664C172.647 101.283 173.387 101.223 174.153 101.499C174.92 101.781 175.648 102.375 176.179 103.15C176.71 103.925 177 104.818 176.985 105.634Z" fill="url(#paint9_radial_1031_13314)"/>
<path d="M193.202 111.535L193.073 118.924C193.066 119.328 192.984 119.702 192.832 120.022C192.679 120.342 192.46 120.604 192.185 120.791C191.911 120.978 191.587 121.088 191.233 121.113C190.879 121.139 190.501 121.08 190.121 120.939C189.738 120.806 189.36 120.592 189.008 120.312C188.656 120.031 188.337 119.688 188.07 119.303C187.803 118.918 187.593 118.499 187.452 118.07C187.311 117.641 187.242 117.211 187.249 116.804L187.378 109.415C187.392 108.6 187.709 107.928 188.26 107.547C188.811 107.165 189.551 107.106 190.317 107.381C190.702 107.515 191.082 107.73 191.435 108.012C191.789 108.294 192.109 108.639 192.377 109.025C192.646 109.412 192.857 109.832 192.998 110.263C193.14 110.694 193.209 111.127 193.202 111.535Z" fill="url(#paint10_radial_1031_13314)"/>
<path d="M209.413 117.435L209.284 124.824C209.269 125.638 208.952 126.309 208.4 126.688C207.849 127.066 207.11 127.123 206.344 126.844C205.964 126.708 205.589 126.493 205.24 126.211C204.891 125.93 204.575 125.587 204.311 125.204C204.046 124.821 203.839 124.404 203.699 123.977C203.56 123.551 203.492 123.123 203.499 122.719L203.628 115.33C203.642 114.512 203.961 113.838 204.515 113.458C205.069 113.077 205.812 113.02 206.581 113.3C207.347 113.583 208.075 114.177 208.606 114.952C209.137 115.727 209.427 116.62 209.413 117.435Z" fill="#005DFF"/>
<path d="M225.595 123.321L225.466 130.71C225.452 131.524 225.134 132.195 224.583 132.573C224.031 132.952 223.292 133.009 222.526 132.73C221.761 132.451 221.033 131.861 220.502 131.088C219.97 130.315 219.68 129.424 219.694 128.609L219.823 121.22C219.837 120.405 220.155 119.733 220.706 119.352C221.256 118.97 221.996 118.911 222.763 119.186C223.529 119.469 224.258 120.063 224.788 120.838C225.319 121.612 225.609 122.505 225.595 123.321Z" fill="url(#paint11_radial_1031_13314)"/>
<path d="M241.842 129.24L241.713 136.629C241.706 137.033 241.624 137.406 241.472 137.727C241.319 138.047 241.1 138.308 240.825 138.496C240.551 138.683 240.227 138.792 239.873 138.818C239.519 138.843 239.141 138.784 238.761 138.644C237.995 138.365 237.267 137.775 236.736 137.002C236.205 136.229 235.914 135.338 235.929 134.523L236.058 127.134C236.072 126.319 236.389 125.647 236.94 125.266C237.491 124.884 238.231 124.825 238.997 125.1C239.766 125.38 240.498 125.973 241.031 126.75C241.565 127.526 241.857 128.422 241.842 129.24Z" fill="#005DFF"/>
<path d="M258.053 135.138L257.924 142.527C257.91 143.342 257.592 144.012 257.041 144.391C256.49 144.77 255.75 144.826 254.985 144.547C254.218 144.268 253.489 143.678 252.955 142.904C252.422 142.131 252.129 141.239 252.14 140.422L252.269 133.033C252.286 132.217 252.606 131.546 253.159 131.166C253.712 130.786 254.453 130.728 255.221 131.003C255.988 131.286 256.716 131.88 257.247 132.655C257.778 133.43 258.067 134.323 258.053 135.138Z" fill="url(#paint12_radial_1031_13314)"/>
<path d="M274.259 141.032L274.13 148.421C274.116 149.235 273.798 149.906 273.247 150.284C272.695 150.663 271.956 150.72 271.19 150.441C270.425 150.162 269.697 149.572 269.166 148.799C268.634 148.026 268.344 147.134 268.358 146.32L268.487 138.931C268.501 138.116 268.819 137.444 269.37 137.062C269.921 136.681 270.66 136.622 271.427 136.897C272.193 137.18 272.922 137.774 273.452 138.548C273.983 139.323 274.273 140.216 274.259 141.032Z" fill="url(#paint13_radial_1031_13314)"/>
<path d="M290.475 146.943L290.346 154.332C290.339 154.736 290.257 155.109 290.105 155.43C289.952 155.75 289.733 156.011 289.458 156.199C289.184 156.386 288.86 156.495 288.506 156.521C288.152 156.546 287.774 156.487 287.394 156.347C287.015 156.209 286.641 155.993 286.293 155.712C285.946 155.43 285.632 155.088 285.369 154.705C285.106 154.323 284.899 153.907 284.761 153.481C284.622 153.056 284.554 152.63 284.561 152.226L284.69 144.838C284.705 144.022 285.022 143.35 285.573 142.969C286.124 142.587 286.863 142.528 287.63 142.803C288.399 143.083 289.131 143.677 289.664 144.453C290.198 145.229 290.489 146.125 290.475 146.943Z" fill="#005DFF"/>
<path d="M306.686 152.841L306.557 160.23C306.55 160.633 306.468 161.006 306.317 161.325C306.165 161.645 305.947 161.906 305.674 162.094C305.401 162.281 305.079 162.392 304.726 162.419C304.373 162.446 303.997 162.388 303.618 162.25C302.851 161.971 302.121 161.381 301.588 160.608C301.055 159.834 300.762 158.942 300.772 158.125L300.901 150.736C300.919 149.92 301.239 149.249 301.792 148.869C302.345 148.489 303.086 148.431 303.854 148.707C304.621 148.989 305.349 149.583 305.88 150.358C306.41 151.133 306.7 152.026 306.686 152.841Z" fill="url(#paint14_radial_1031_13314)"/>
<path d="M317.12 156.634L316.991 164.023C316.961 165.719 318.23 167.564 319.823 168.144L319.836 168.149C321.43 168.729 322.746 167.825 322.776 166.129L322.905 158.74C322.934 157.044 321.666 155.199 320.073 154.619L320.059 154.614C318.466 154.034 317.15 154.939 317.12 156.634Z" fill="url(#paint15_radial_1031_13314)"/>
<path d="M103.826 311.352L110.77 313.879C112.364 314.459 113.68 313.555 113.71 311.859L113.71 311.845C113.74 310.149 112.472 308.304 110.878 307.724L103.934 305.197C102.34 304.617 101.024 305.521 100.994 307.217L100.994 307.231C100.964 308.927 102.232 310.772 103.826 311.352Z" fill="url(#paint16_radial_1031_13314)"/>
<path d="M104.23 287.955L111.175 290.482C111.554 290.62 111.928 290.836 112.275 291.118C112.622 291.399 112.937 291.741 113.2 292.124C113.463 292.507 113.669 292.923 113.808 293.348C113.946 293.773 114.014 294.2 114.007 294.603C114.002 295.008 113.921 295.382 113.77 295.704C113.62 296.025 113.401 296.288 113.128 296.477C112.855 296.666 112.533 296.778 112.179 296.805C111.825 296.833 111.447 296.775 111.067 296.637L104.123 294.11C103.354 293.83 102.623 293.236 102.089 292.46C101.555 291.684 101.264 290.788 101.278 289.97C101.296 289.156 101.616 288.486 102.17 288.109C102.723 287.731 103.464 287.676 104.23 287.955Z" fill="#005DFF"/>
<path d="M104.535 270.703L111.479 273.231C111.858 273.368 112.232 273.584 112.579 273.866C112.927 274.148 113.241 274.49 113.504 274.873C113.767 275.255 113.974 275.671 114.112 276.096C114.251 276.522 114.318 276.948 114.311 277.351C114.297 278.166 113.98 278.836 113.428 279.215C112.877 279.594 112.137 279.65 111.372 279.372L104.428 276.844C103.661 276.565 102.931 275.974 102.398 275.201C101.865 274.428 101.572 273.535 101.582 272.718C101.6 271.904 101.921 271.235 102.474 270.857C103.027 270.479 103.768 270.424 104.535 270.703Z" fill="url(#paint17_radial_1031_13314)"/>
<path d="M104.833 253.444L111.777 255.971C112.157 256.11 112.532 256.326 112.88 256.609C113.228 256.892 113.543 257.236 113.806 257.62C114.069 258.004 114.276 258.422 114.413 258.848C114.551 259.275 114.618 259.702 114.609 260.106C114.607 260.515 114.529 260.893 114.38 261.218C114.231 261.544 114.013 261.81 113.739 262.002C113.466 262.194 113.142 262.307 112.786 262.336C112.431 262.364 112.051 262.308 111.669 262.168L104.724 259.641C103.958 259.362 103.228 258.771 102.695 257.998C102.162 257.225 101.868 256.332 101.879 255.515C101.881 255.105 101.959 254.725 102.109 254.398C102.259 254.071 102.478 253.803 102.753 253.611C103.027 253.418 103.353 253.304 103.71 253.275C104.067 253.247 104.448 253.304 104.833 253.444Z" fill="url(#paint18_radial_1031_13314)"/>
<path d="M105.137 236.205L112.081 238.732C112.846 239.011 113.575 239.601 114.106 240.374C114.637 241.147 114.927 242.039 114.913 242.853C114.908 243.258 114.828 243.632 114.677 243.954C114.526 244.275 114.308 244.538 114.035 244.727C113.761 244.916 113.439 245.028 113.085 245.055C112.731 245.083 112.354 245.025 111.974 244.887L105.029 242.36C104.26 242.08 103.529 241.486 102.995 240.71C102.462 239.934 102.17 239.038 102.184 238.22C102.202 237.406 102.522 236.736 103.076 236.359C103.629 235.981 104.37 235.926 105.137 236.205Z" fill="#005DFF"/>
<path d="M105.441 218.984L112.385 221.512C113.151 221.79 113.879 222.381 114.41 223.154C114.941 223.927 115.232 224.818 115.218 225.633C115.203 226.447 114.886 227.117 114.335 227.496C113.783 227.875 113.044 227.931 112.278 227.653L105.334 225.125C104.567 224.846 103.838 224.256 103.304 223.482C102.771 222.709 102.478 221.817 102.489 221C102.506 220.185 102.827 219.516 103.38 219.138C103.934 218.761 104.675 218.705 105.441 218.984Z" fill="url(#paint19_radial_1031_13314)"/>
<path d="M105.738 201.697L112.683 204.224C113.063 204.363 113.438 204.579 113.786 204.862C114.134 205.145 114.449 205.489 114.712 205.873C114.975 206.257 115.182 206.675 115.319 207.101C115.457 207.528 115.523 207.955 115.515 208.359C115.5 209.174 115.183 209.844 114.631 210.223C114.08 210.602 113.34 210.658 112.575 210.379L105.631 207.852C104.864 207.573 104.135 206.982 103.601 206.209C103.068 205.436 102.775 204.543 102.785 203.726C102.8 202.908 103.119 202.235 103.673 201.854C104.226 201.474 104.969 201.417 105.738 201.697Z" fill="#005DFF"/>
<path d="M106.043 184.455L112.987 186.982C113.753 187.261 114.481 187.851 115.012 188.624C115.543 189.397 115.834 190.289 115.819 191.103C115.805 191.919 115.488 192.591 114.937 192.972C114.386 193.353 113.646 193.412 112.88 193.137L105.936 190.61C105.168 190.327 104.438 189.733 103.905 188.957C103.373 188.182 103.08 187.288 103.09 186.47C103.108 185.656 103.429 184.986 103.982 184.609C104.535 184.231 105.276 184.176 106.043 184.455Z" fill="url(#paint20_radial_1031_13314)"/>
<path d="M106.34 167.203L113.284 169.731C114.049 170.009 114.778 170.6 115.309 171.373C115.84 172.145 116.13 173.037 116.116 173.851C116.102 174.666 115.784 175.336 115.233 175.715C114.682 176.094 113.942 176.15 113.177 175.872L106.232 173.344C105.466 173.065 104.736 172.474 104.203 171.701C103.67 170.928 103.376 170.035 103.387 169.218C103.405 168.404 103.725 167.735 104.279 167.357C104.832 166.979 105.573 166.924 106.34 167.203Z" fill="url(#paint21_radial_1031_13314)"/>
<path d="M106.645 149.947L113.589 152.474C113.969 152.613 114.344 152.829 114.692 153.112C115.04 153.395 115.355 153.739 115.618 154.123C115.881 154.507 116.088 154.925 116.225 155.351C116.363 155.778 116.43 156.205 116.421 156.609C116.414 157.012 116.332 157.385 116.181 157.704C116.029 158.024 115.811 158.285 115.538 158.473C115.265 158.66 114.943 158.771 114.59 158.797C114.237 158.824 113.86 158.767 113.481 158.629L106.537 156.102C105.771 155.823 105.041 155.232 104.508 154.459C103.974 153.686 103.681 152.793 103.692 151.976C103.706 151.158 104.025 150.485 104.579 150.104C105.133 149.724 105.876 149.667 106.645 149.947Z" fill="#005DFF"/>
<path d="M106.941 132.705L113.886 135.232C114.265 135.37 114.639 135.586 114.986 135.868C115.333 136.15 115.648 136.492 115.911 136.874C116.174 137.257 116.38 137.673 116.519 138.098C116.657 138.523 116.725 138.95 116.718 139.353C116.704 140.169 116.386 140.841 115.836 141.222C115.285 141.603 114.545 141.662 113.778 141.387L106.834 138.86C106.066 138.577 105.337 137.983 104.804 137.208C104.271 136.432 103.978 135.538 103.989 134.72C104.007 133.906 104.327 133.236 104.881 132.859C105.434 132.481 106.175 132.426 106.941 132.705Z" fill="url(#paint22_radial_1031_13314)"/>
<path d="M107.139 121.594L114.083 124.122C115.677 124.702 116.993 123.797 117.022 122.101L117.023 122.087C117.052 120.392 115.784 118.547 114.19 117.966L107.246 115.439C105.652 114.859 104.336 115.763 104.307 117.459L104.306 117.473C104.277 119.169 105.545 121.014 107.139 121.594Z" fill="url(#paint23_radial_1031_13314)"/>
<path d="M318.294 426.1L318.423 418.711C318.453 417.015 317.185 415.17 315.591 414.59L315.578 414.585C313.984 414.005 312.668 414.91 312.638 416.606L312.509 423.995C312.48 425.69 313.748 427.535 315.341 428.115L315.355 428.12C316.948 428.7 318.264 427.796 318.294 426.1Z" fill="url(#paint24_radial_1031_13314)"/>
<path d="M296.298 418.096L296.427 410.707C296.434 410.304 296.516 409.932 296.667 409.612C296.819 409.292 297.037 409.031 297.31 408.844C297.583 408.656 297.905 408.546 298.258 408.519C298.611 408.492 298.988 408.549 299.367 408.687C299.747 408.824 300.122 409.039 300.471 409.32C300.82 409.602 301.136 409.944 301.4 410.327C301.665 410.711 301.872 411.128 302.012 411.554C302.151 411.981 302.219 412.408 302.212 412.813L302.083 420.202C302.069 421.02 301.75 421.693 301.196 422.074C300.642 422.454 299.899 422.511 299.13 422.231C298.364 421.948 297.635 421.354 297.105 420.58C296.574 419.805 296.284 418.912 296.298 418.096Z" fill="#005DFF"/>
<path d="M280.093 412.195L280.222 404.806C280.229 404.403 280.31 404.03 280.462 403.711C280.613 403.391 280.832 403.13 281.105 402.942C281.378 402.755 281.7 402.644 282.053 402.617C282.406 402.59 282.782 402.648 283.161 402.786C283.926 403.064 284.655 403.655 285.186 404.428C285.717 405.2 286.007 406.092 285.993 406.906L285.864 414.295C285.85 415.111 285.533 415.783 284.982 416.164C284.431 416.545 283.691 416.605 282.925 416.329C282.158 416.047 281.43 415.453 280.899 414.678C280.368 413.903 280.079 413.01 280.093 412.195Z" fill="url(#paint25_radial_1031_13314)"/>
<path d="M263.868 406.293L263.997 398.904C264.004 398.5 264.086 398.127 264.239 397.806C264.391 397.486 264.611 397.225 264.885 397.037C265.159 396.85 265.483 396.74 265.837 396.715C266.192 396.689 266.57 396.749 266.95 396.889C267.332 397.022 267.71 397.236 268.062 397.517C268.414 397.798 268.733 398.14 269 398.525C269.268 398.91 269.478 399.329 269.619 399.758C269.76 400.187 269.829 400.617 269.821 401.024L269.692 408.413C269.678 409.228 269.361 409.9 268.81 410.282C268.259 410.663 267.519 410.722 266.753 410.447C266.369 410.313 265.989 410.098 265.635 409.816C265.282 409.534 264.961 409.19 264.693 408.803C264.424 408.417 264.213 407.996 264.072 407.565C263.93 407.134 263.861 406.702 263.868 406.293Z" fill="url(#paint26_radial_1031_13314)"/>
<path d="M247.666 400.393L247.795 393.004C247.809 392.19 248.126 391.519 248.678 391.141C249.229 390.762 249.968 390.705 250.734 390.984C251.114 391.12 251.489 391.336 251.838 391.617C252.187 391.899 252.503 392.241 252.767 392.624C253.032 393.007 253.24 393.424 253.379 393.851C253.518 394.277 253.586 394.705 253.579 395.11L253.45 402.498C253.436 403.316 253.117 403.99 252.563 404.37C252.009 404.751 251.266 404.808 250.497 404.528C249.731 404.245 249.003 403.651 248.472 402.876C247.941 402.102 247.651 401.209 247.666 400.393Z" fill="#005DFF"/>
<path d="M231.483 394.507L231.612 387.118C231.627 386.304 231.944 385.634 232.495 385.255C233.047 384.876 233.786 384.82 234.552 385.098C235.317 385.377 236.045 385.967 236.577 386.74C237.108 387.513 237.398 388.405 237.384 389.219L237.255 396.608C237.241 397.423 236.923 398.095 236.373 398.477C235.822 398.858 235.082 398.917 234.315 398.642C233.549 398.359 232.821 397.765 232.29 396.991C231.759 396.216 231.469 395.323 231.483 394.507Z" fill="url(#paint27_radial_1031_13314)"/>
<path d="M215.236 388.588L215.365 381.199C215.372 380.795 215.454 380.422 215.606 380.102C215.759 379.781 215.978 379.52 216.253 379.333C216.527 379.145 216.851 379.036 217.205 379.01C217.559 378.985 217.937 379.044 218.317 379.184C219.083 379.463 219.811 380.053 220.342 380.826C220.873 381.599 221.164 382.491 221.15 383.305L221.021 390.694C221.006 391.509 220.689 392.181 220.138 392.563C219.587 392.944 218.848 393.003 218.081 392.728C217.312 392.448 216.58 391.855 216.047 391.078C215.513 390.302 215.222 389.406 215.236 388.588Z" fill="#005DFF"/>
<path d="M199.025 382.69L199.154 375.301C199.168 374.487 199.486 373.816 200.037 373.437C200.588 373.059 201.328 373.002 202.093 373.281C202.86 373.56 203.59 374.15 204.123 374.924C204.656 375.697 204.949 376.59 204.939 377.406L204.81 384.795C204.792 385.611 204.472 386.282 203.919 386.662C203.366 387.042 202.625 387.1 201.857 386.825C201.09 386.542 200.362 385.948 199.831 385.173C199.301 384.398 199.011 383.505 199.025 382.69Z" fill="url(#paint28_radial_1031_13314)"/>
<path d="M182.819 376.796L182.948 369.407C182.963 368.593 183.28 367.923 183.831 367.544C184.383 367.165 185.122 367.109 185.888 367.387C186.653 367.666 187.381 368.256 187.913 369.029C188.444 369.802 188.734 370.694 188.72 371.508L188.591 378.897C188.577 379.712 188.259 380.384 187.708 380.766C187.158 381.147 186.418 381.206 185.651 380.931C184.885 380.648 184.156 380.055 183.626 379.28C183.095 378.505 182.805 377.612 182.819 376.796Z" fill="url(#paint29_radial_1031_13314)"/>
<path d="M166.595 370.885L166.724 363.496C166.731 363.092 166.813 362.719 166.966 362.398C167.118 362.078 167.338 361.817 167.612 361.629C167.886 361.442 168.21 361.333 168.564 361.307C168.919 361.282 169.297 361.341 169.677 361.481C170.056 361.619 170.43 361.835 170.777 362.117C171.124 362.398 171.439 362.74 171.702 363.123C171.965 363.506 172.171 363.921 172.31 364.347C172.448 364.772 172.516 365.199 172.509 365.602L172.38 372.991C172.366 373.806 172.048 374.478 171.497 374.859C170.947 375.241 170.207 375.3 169.44 375.025C168.671 374.745 167.94 374.152 167.406 373.375C166.873 372.599 166.581 371.703 166.595 370.885Z" fill="#005DFF"/>
<path d="M150.392 364.987L150.521 357.598C150.528 357.195 150.61 356.823 150.761 356.503C150.913 356.183 151.131 355.922 151.404 355.734C151.677 355.547 151.999 355.436 152.352 355.409C152.705 355.383 153.082 355.44 153.46 355.578C154.227 355.857 154.957 356.447 155.49 357.221C156.023 357.994 156.317 358.886 156.306 359.703L156.177 367.092C156.159 367.908 155.839 368.579 155.286 368.959C154.733 369.339 153.992 369.397 153.224 369.122C152.458 368.839 151.729 368.245 151.199 367.47C150.668 366.695 150.378 365.802 150.392 364.987Z" fill="url(#paint30_radial_1031_13314)"/>
<path d="M139.958 361.194L140.087 353.805C140.117 352.109 138.849 350.264 137.255 349.684L137.242 349.679C135.648 349.099 134.332 350.004 134.302 351.699L134.173 359.088C134.144 360.784 135.412 362.629 137.005 363.209L137.019 363.214C138.612 363.794 139.928 362.89 139.958 361.194Z" fill="url(#paint31_radial_1031_13314)"/>
<path d="M329.96 119.973L132.281 48.0238C97.3447 35.3081 68.4974 55.1343 67.8486 92.3068L64.1772 302.641C63.5284 339.813 91.3236 380.256 126.26 392.971L323.939 464.921C358.875 477.636 387.722 457.81 388.371 420.638L392.043 210.304C392.691 173.131 364.896 132.689 329.96 119.973Z" stroke="#6B9CC6" stroke-linecap="round"/>
<g filter="url(#filter0_i_1031_13314)">
<path d="M301.202 156.225L158.556 104.306C132.296 94.7483 111.008 109.654 111.008 137.6L111.008 289.4C111.008 317.346 132.296 347.748 158.556 357.306L301.202 409.225C327.462 418.783 348.75 403.877 348.75 375.931L348.75 224.131C348.75 196.185 327.462 165.783 301.202 156.225Z" fill="#002359"/>
</g>
<g filter="url(#filter1_df_1031_13314)">
<path d="M280.31 186.062L183.333 150.765C165.48 144.268 150.733 154.757 150.393 174.195L148.551 279.779C148.211 299.216 162.409 320.241 180.262 326.739L277.238 362.035C295.091 368.533 309.838 358.043 310.178 338.606L312.021 233.022C312.36 213.585 298.162 192.56 280.31 186.062Z" fill="#6B9CC6"/>
<path d="M183.325 151.265L280.301 186.562C297.884 192.962 311.885 213.679 311.551 232.851L309.708 338.435C309.373 357.607 294.83 367.935 277.247 361.535L180.27 326.239C162.687 319.839 148.686 299.122 149.02 279.95L150.863 174.366C151.198 155.193 165.741 144.866 183.325 151.265Z" stroke="url(#paint32_angular_1031_13314)"/>
</g>
<g filter="url(#filter2_d_1031_13314)">
<path d="M282.412 226.823C281.983 226.667 281.555 226.556 281.083 226.476L251.929 221.799C249.871 221.46 248.414 222.117 247.942 223.588C247.47 225.06 248.071 227.15 249.528 229.232L254.673 236.582L232.894 251.934L228.563 245.794C226.634 243.083 224.105 241.021 221.404 240.038C218.703 239.055 216.173 239.275 214.244 240.582L175.958 267.727C174.029 269.034 173 271.398 173 274.273C173 277.149 174.072 280.232 175.958 282.973C177.888 285.683 180.417 287.745 183.118 288.728C185.819 289.711 188.349 289.491 190.278 288.185L221.532 266.148L225.862 272.289C227.792 274.999 230.321 277.061 233.022 278.044C235.723 279.027 238.253 278.807 240.182 277.501L269.036 257.055L274.18 264.405C275.338 266.059 276.624 267.166 277.867 267.619C279.497 268.212 281.426 267.727 282.026 264.705L287.514 235.663C287.857 233.825 287.471 231.905 286.485 230.268C285.499 228.631 284.084 227.431 282.412 226.823ZM284.213 233.777L279.068 260.935L278.982 261.314L278.682 262.803C278.553 263.486 278.296 263.986 277.996 264.014C277.953 264.044 277.867 264.013 277.825 263.997C277.567 263.903 277.096 263.503 276.538 262.707L276.324 262.401L275.081 260.625L270.193 253.642C269.55 252.724 268.478 252.333 267.792 252.768L258.232 259.513L237.781 274.025C236.666 274.806 235.295 274.991 233.751 274.612C233.494 274.564 233.279 274.486 233.022 274.393C232.551 274.221 232.079 274.004 231.65 273.756C230.364 273.014 229.207 271.908 228.263 270.561L222.733 262.705C222.433 262.277 222.004 261.938 221.532 261.766C221.104 261.61 220.675 261.637 220.332 261.877L220.032 262.087L218.874 262.899L216.859 264.31L215.702 265.122L213.687 266.533L212.529 267.345L210.514 268.756L209.356 269.568L207.341 270.979L206.184 271.791L204.169 273.202L203.011 274.014L200.996 275.425L199.839 276.237L197.823 277.648L196.666 278.46L194.651 279.871L193.493 280.683L191.478 282.094L190.321 282.906L188.434 284.364L187.877 284.755C187.705 284.921 187.491 285.025 187.277 285.13C186.076 285.697 184.661 285.73 183.118 285.168C181.317 284.513 179.645 283.174 178.359 281.336C177.073 279.499 176.387 277.469 176.387 275.552L176.387 275.506C176.387 274.913 176.473 274.351 176.601 273.85C176.816 273.015 177.244 272.304 177.802 271.73C177.973 271.565 178.145 271.399 178.359 271.249L178.874 270.888L180.974 269.416L182.046 268.665L184.147 267.193L185.219 266.442L187.32 264.97L188.391 264.219L190.492 262.747L191.564 261.996L193.665 260.524L194.737 259.773L196.837 258.301L197.909 257.55L200.01 256.078L200.267 255.898L216.73 244.043C218.017 243.142 219.689 243.02 221.489 243.675C223.29 244.331 224.962 245.67 226.248 247.507L231.736 255.347C232.036 255.776 232.465 256.114 232.937 256.286C233.365 256.442 233.794 256.416 234.137 256.175L258.317 239.232C258.96 238.782 258.96 237.641 258.317 236.676L251.929 227.596C251.286 226.677 251.115 226.067 251.158 225.808C251.243 225.566 251.715 225.418 252.572 225.547L281.726 230.225C281.983 230.273 282.198 230.305 282.412 230.383C282.841 230.539 283.484 230.864 283.87 231.507C284.256 232.15 284.384 232.927 284.213 233.777Z" fill="white"/>
</g>
<g filter="url(#filter3_f_1031_13314)">
<path d="M282.412 226.823C281.983 226.667 281.555 226.556 281.083 226.476L251.929 221.799C249.871 221.46 248.414 222.117 247.942 223.588C247.47 225.06 248.071 227.15 249.528 229.232L254.673 236.582L232.894 251.934L228.563 245.794C226.634 243.083 224.105 241.021 221.404 240.038C218.703 239.055 216.173 239.275 214.244 240.582L175.958 267.727C174.029 269.034 173 271.398 173 274.273C173 277.149 174.072 280.232 175.958 282.973C177.888 285.683 180.417 287.745 183.118 288.728C185.819 289.711 188.349 289.491 190.278 288.185L221.532 266.148L225.862 272.289C227.792 274.999 230.321 277.061 233.022 278.044C235.723 279.027 238.253 278.807 240.182 277.501L269.036 257.055L274.18 264.405C275.338 266.059 276.624 267.166 277.867 267.619C279.497 268.212 281.426 267.727 282.026 264.705L287.514 235.663C287.857 233.825 287.471 231.905 286.485 230.268C285.499 228.631 284.084 227.431 282.412 226.823ZM284.213 233.777L279.068 260.935L278.982 261.314L278.682 262.803C278.553 263.486 278.296 263.986 277.996 264.014C277.953 264.044 277.867 264.013 277.825 263.997C277.567 263.903 277.096 263.503 276.538 262.707L276.324 262.401L275.081 260.625L270.193 253.642C269.55 252.724 268.478 252.333 267.792 252.768L258.232 259.513L237.781 274.025C236.666 274.806 235.295 274.991 233.751 274.612C233.494 274.564 233.279 274.486 233.022 274.393C232.551 274.221 232.079 274.004 231.65 273.756C230.364 273.014 229.207 271.908 228.263 270.561L222.733 262.705C222.433 262.277 222.004 261.938 221.532 261.766C221.104 261.61 220.675 261.637 220.332 261.877L220.032 262.087L218.874 262.899L216.859 264.31L215.702 265.122L213.687 266.533L212.529 267.345L210.514 268.756L209.356 269.568L207.341 270.979L206.184 271.791L204.169 273.202L203.011 274.014L200.996 275.425L199.839 276.237L197.823 277.648L196.666 278.46L194.651 279.871L193.493 280.683L191.478 282.094L190.321 282.906L188.434 284.364L187.877 284.755C187.705 284.921 187.491 285.025 187.277 285.13C186.076 285.697 184.661 285.73 183.118 285.168C181.317 284.513 179.645 283.174 178.359 281.336C177.073 279.499 176.387 277.469 176.387 275.552L176.387 275.506C176.387 274.913 176.473 274.351 176.601 273.85C176.816 273.015 177.244 272.304 177.802 271.73C177.973 271.565 178.145 271.399 178.359 271.249L178.874 270.888L180.974 269.416L182.046 268.665L184.147 267.193L185.219 266.442L187.32 264.97L188.391 264.219L190.492 262.747L191.564 261.996L193.665 260.524L194.737 259.773L196.837 258.301L197.909 257.55L200.01 256.078L200.267 255.898L216.73 244.043C218.017 243.142 219.689 243.02 221.489 243.675C223.29 244.331 224.962 245.67 226.248 247.507L231.736 255.347C232.036 255.776 232.465 256.114 232.937 256.286C233.365 256.442 233.794 256.416 234.137 256.175L258.317 239.232C258.96 238.782 258.96 237.641 258.317 236.676L251.929 227.596C251.286 226.677 251.115 226.067 251.158 225.808C251.243 225.566 251.715 225.418 252.572 225.547L281.726 230.225C281.983 230.273 282.198 230.305 282.412 230.383C282.841 230.539 283.484 230.864 283.87 231.507C284.256 232.15 284.384 232.927 284.213 233.777Z" fill="white"/>
</g>
<defs>
<filter id="filter0_i_1031_13314" x="111.008" y="101.414" width="237.742" height="314.703" filterUnits="userSpaceOnUse" color-interpolation-filters="sRGB">
<feFlood flood-opacity="0" result="BackgroundImageFix"/>
<feBlend mode="normal" in="SourceGraphic" in2="BackgroundImageFix" result="shape"/>
<feColorMatrix in="SourceAlpha" type="matrix" values="0 0 0 0 0 0 0 0 0 0 0 0 0 0 0 0 0 0 127 0" result="hardAlpha"/>
<feOffset dy="4"/>
<feGaussianBlur stdDeviation="2"/>
<feComposite in2="hardAlpha" operator="arithmetic" k2="-1" k3="1"/>
<feColorMatrix type="matrix" values="0 0 0 0 0 0 0 0 0 0 0 0 0 0 0 0 0 0 0.25 0"/>
<feBlend mode="normal" in2="shape" result="effect1_innerShadow_1031_13314"/>
</filter>
<filter id="filter1_df_1031_13314" x="0.146881" y="0.443756" width="460.277" height="511.917" filterUnits="userSpaceOnUse" color-interpolation-filters="sRGB">
<feFlood flood-opacity="0" result="BackgroundImageFix"/>
<feColorMatrix in="SourceAlpha" type="matrix" values="0 0 0 0 0 0 0 0 0 0 0 0 0 0 0 0 0 0 127 0" result="hardAlpha"/>
<feOffset dy="4"/>
<feGaussianBlur stdDeviation="2"/>
<feComposite in2="hardAlpha" operator="out"/>
<feColorMatrix type="matrix" values="0 0 0 0 0 0 0 0 0 0 0 0 0 0 0 0 0 0 0.25 0"/>
<feBlend mode="normal" in2="BackgroundImageFix" result="effect1_dropShadow_1031_13314"/>
<feBlend mode="normal" in="SourceGraphic" in2="effect1_dropShadow_1031_13314" result="shape"/>
<feGaussianBlur stdDeviation="74.2" result="effect2_foregroundBlur_1031_13314"/>
</filter>
<filter id="filter2_d_1031_13314" x="153.7" y="206.411" width="153.233" height="106.225" filterUnits="userSpaceOnUse" color-interpolation-filters="sRGB">
<feFlood flood-opacity="0" result="BackgroundImageFix"/>
<feColorMatrix in="SourceAlpha" type="matrix" values="0 0 0 0 0 0 0 0 0 0 0 0 0 0 0 0 0 0 127 0" result="hardAlpha"/>
<feOffset dy="4"/>
<feGaussianBlur stdDeviation="9.65"/>
<feComposite in2="hardAlpha" operator="out"/>
<feColorMatrix type="matrix" values="0 0 0 0 1 0 0 0 0 1 0 0 0 0 1 0 0 0 0.71 0"/>
<feBlend mode="normal" in2="BackgroundImageFix" result="effect1_dropShadow_1031_13314"/>
<feBlend mode="normal" in="SourceGraphic" in2="effect1_dropShadow_1031_13314" result="shape"/>
</filter>
<filter id="filter3_f_1031_13314" x="143.3" y="192.011" width="174.033" height="127.025" filterUnits="userSpaceOnUse" color-interpolation-filters="sRGB">
<feFlood flood-opacity="0" result="BackgroundImageFix"/>
<feBlend mode="normal" in="SourceGraphic" in2="BackgroundImageFix" result="shape"/>
<feGaussianBlur stdDeviation="14.85" result="effect1_foregroundBlur_1031_13314"/>
</filter>
<radialGradient id="paint0_radial_1031_13314" cx="0" cy="0" r="1" gradientUnits="userSpaceOnUse" gradientTransform="translate(352.165 207.011) rotate(20) scale(46.8359 44.2843)">
<stop stop-color="#00A5FF"/>
<stop offset="0.31" stop-color="#0075B4"/>
<stop offset="1"/>
</radialGradient>
<radialGradient id="paint1_radial_1031_13314" cx="0" cy="0" r="1" gradientUnits="userSpaceOnUse" gradientTransform="translate(351.564 241.518) rotate(20) scale(46.8358 44.2842)">
<stop stop-color="#00A5FF"/>
<stop offset="0.31" stop-color="#0075B4"/>
<stop offset="1"/>
</radialGradient>
<radialGradient id="paint2_radial_1031_13314" cx="0" cy="0" r="1" gradientUnits="userSpaceOnUse" gradientTransform="translate(351.266 258.764) rotate(20) scale(46.8358 44.284)">
<stop stop-color="#00A5FF"/>
<stop offset="0.31" stop-color="#0075B4"/>
<stop offset="1"/>
</radialGradient>
<radialGradient id="paint3_radial_1031_13314" cx="0" cy="0" r="1" gradientUnits="userSpaceOnUse" gradientTransform="translate(350.665 293.265) rotate(20) scale(46.8358 44.2842)">
<stop stop-color="#00A5FF"/>
<stop offset="0.31" stop-color="#0075B4"/>
<stop offset="1"/>
</radialGradient>
<radialGradient id="paint4_radial_1031_13314" cx="0" cy="0" r="1" gradientUnits="userSpaceOnUse" gradientTransform="translate(350.056 327.753) rotate(20) scale(46.8358 44.2843)">
<stop stop-color="#00A5FF"/>
<stop offset="0.31" stop-color="#0075B4"/>
<stop offset="1"/>
</radialGradient>
<radialGradient id="paint5_radial_1031_13314" cx="0" cy="0" r="1" gradientUnits="userSpaceOnUse" gradientTransform="translate(349.759 345.018) rotate(20) scale(46.8358 44.2842)">
<stop stop-color="#00A5FF"/>
<stop offset="0.31" stop-color="#0075B4"/>
<stop offset="1"/>
</radialGradient>
<radialGradient id="paint6_radial_1031_13314" cx="0" cy="0" r="1" gradientUnits="userSpaceOnUse" gradientTransform="translate(349.157 379.503) rotate(20) scale(46.8358 44.2837)">
<stop stop-color="#00A5FF"/>
<stop offset="0.31" stop-color="#0075B4"/>
<stop offset="1"/>
</radialGradient>
<radialGradient id="paint7_radial_1031_13314" cx="0" cy="0" r="1" gradientUnits="userSpaceOnUse" gradientTransform="translate(348.853 396.768) rotate(20) scale(46.8359 44.2843)">
<stop stop-color="#00A5FF"/>
<stop offset="0.31" stop-color="#0075B4"/>
<stop offset="1"/>
</radialGradient>
<radialGradient id="paint8_radial_1031_13314" cx="0" cy="0" r="1" gradientUnits="userSpaceOnUse" gradientTransform="translate(141.039 96.2597) rotate(-89) scale(46.8359 44.2843)">
<stop stop-color="#00A5FF"/>
<stop offset="0.31" stop-color="#0075B4"/>
<stop offset="1"/>
</radialGradient>
<radialGradient id="paint9_radial_1031_13314" cx="0" cy="0" r="1" gradientUnits="userSpaceOnUse" gradientTransform="translate(173.469 108.064) rotate(-89) scale(46.8358 44.2842)">
<stop stop-color="#00A5FF"/>
<stop offset="0.31" stop-color="#0075B4"/>
<stop offset="1"/>
</radialGradient>
<radialGradient id="paint10_radial_1031_13314" cx="0" cy="0" r="1" gradientUnits="userSpaceOnUse" gradientTransform="translate(189.672 113.961) rotate(-89) scale(46.8358 44.2839)">
<stop stop-color="#00A5FF"/>
<stop offset="0.31" stop-color="#0075B4"/>
<stop offset="1"/>
</radialGradient>
<radialGradient id="paint11_radial_1031_13314" cx="0" cy="0" r="1" gradientUnits="userSpaceOnUse" gradientTransform="translate(222.104 125.761) rotate(-89) scale(46.8358 44.2842)">
<stop stop-color="#00A5FF"/>
<stop offset="0.31" stop-color="#0075B4"/>
<stop offset="1"/>
</radialGradient>
<radialGradient id="paint12_radial_1031_13314" cx="0" cy="0" r="1" gradientUnits="userSpaceOnUse" gradientTransform="translate(254.523 137.564) rotate(-89) scale(46.8358 44.2843)">
<stop stop-color="#00A5FF"/>
<stop offset="0.31" stop-color="#0075B4"/>
<stop offset="1"/>
</radialGradient>
<radialGradient id="paint13_radial_1031_13314" cx="0" cy="0" r="1" gradientUnits="userSpaceOnUse" gradientTransform="translate(270.742 143.463) rotate(-89) scale(46.8358 44.2842)">
<stop stop-color="#00A5FF"/>
<stop offset="0.31" stop-color="#0075B4"/>
<stop offset="1"/>
</radialGradient>
<radialGradient id="paint14_radial_1031_13314" cx="0" cy="0" r="1" gradientUnits="userSpaceOnUse" gradientTransform="translate(303.156 155.267) rotate(-89) scale(46.8358 44.2837)">
<stop stop-color="#00A5FF"/>
<stop offset="0.31" stop-color="#0075B4"/>
<stop offset="1"/>
</radialGradient>
<radialGradient id="paint15_radial_1031_13314" cx="0" cy="0" r="1" gradientUnits="userSpaceOnUse" gradientTransform="translate(319.375 161.166) rotate(-89) scale(46.8359 44.2843)">
<stop stop-color="#00A5FF"/>
<stop offset="0.31" stop-color="#0075B4"/>
<stop offset="1"/>
</radialGradient>
<radialGradient id="paint16_radial_1031_13314" cx="0" cy="0" r="1" gradientUnits="userSpaceOnUse" gradientTransform="translate(107.335 310.146) rotate(-160) scale(46.8359 44.2843)">
<stop stop-color="#00A5FF"/>
<stop offset="0.31" stop-color="#0075B4"/>
<stop offset="1"/>
</radialGradient>
<radialGradient id="paint17_radial_1031_13314" cx="0" cy="0" r="1" gradientUnits="userSpaceOnUse" gradientTransform="translate(107.936 275.638) rotate(-160) scale(46.8358 44.2842)">
<stop stop-color="#00A5FF"/>
<stop offset="0.31" stop-color="#0075B4"/>
<stop offset="1"/>
</radialGradient>
<radialGradient id="paint18_radial_1031_13314" cx="0" cy="0" r="1" gradientUnits="userSpaceOnUse" gradientTransform="translate(108.234 258.392) rotate(-160) scale(46.8358 44.284)">
<stop stop-color="#00A5FF"/>
<stop offset="0.31" stop-color="#0075B4"/>
<stop offset="1"/>
</radialGradient>
<radialGradient id="paint19_radial_1031_13314" cx="0" cy="0" r="1" gradientUnits="userSpaceOnUse" gradientTransform="translate(108.843 223.891) rotate(-160) scale(46.8358 44.2842)">
<stop stop-color="#00A5FF"/>
<stop offset="0.31" stop-color="#0075B4"/>
<stop offset="1"/>
</radialGradient>
<radialGradient id="paint20_radial_1031_13314" cx="0" cy="0" r="1" gradientUnits="userSpaceOnUse" gradientTransform="translate(109.444 189.403) rotate(-160) scale(46.8358 44.2843)">
<stop stop-color="#00A5FF"/>
<stop offset="0.31" stop-color="#0075B4"/>
<stop offset="1"/>
</radialGradient>
<radialGradient id="paint21_radial_1031_13314" cx="0" cy="0" r="1" gradientUnits="userSpaceOnUse" gradientTransform="translate(109.741 172.138) rotate(-160) scale(46.8358 44.2842)">
<stop stop-color="#00A5FF"/>
<stop offset="0.31" stop-color="#0075B4"/>
<stop offset="1"/>
</radialGradient>
<radialGradient id="paint22_radial_1031_13314" cx="0" cy="0" r="1" gradientUnits="userSpaceOnUse" gradientTransform="translate(110.343 137.653) rotate(-160) scale(46.8358 44.2837)">
<stop stop-color="#00A5FF"/>
<stop offset="0.31" stop-color="#0075B4"/>
<stop offset="1"/>
</radialGradient>
<radialGradient id="paint23_radial_1031_13314" cx="0" cy="0" r="1" gradientUnits="userSpaceOnUse" gradientTransform="translate(110.647 120.388) rotate(-160) scale(46.8359 44.2843)">
<stop stop-color="#00A5FF"/>
<stop offset="0.31" stop-color="#0075B4"/>
<stop offset="1"/>
</radialGradient>
<radialGradient id="paint24_radial_1031_13314" cx="0" cy="0" r="1" gradientUnits="userSpaceOnUse" gradientTransform="translate(316.039 421.568) rotate(91) scale(46.8359 44.2843)">
<stop stop-color="#00A5FF"/>
<stop offset="0.31" stop-color="#0075B4"/>
<stop offset="1"/>
</radialGradient>
<radialGradient id="paint25_radial_1031_13314" cx="0" cy="0" r="1" gradientUnits="userSpaceOnUse" gradientTransform="translate(283.61 409.764) rotate(91) scale(46.8358 44.2842)">
<stop stop-color="#00A5FF"/>
<stop offset="0.31" stop-color="#0075B4"/>
<stop offset="1"/>
</radialGradient>
<radialGradient id="paint26_radial_1031_13314" cx="0" cy="0" r="1" gradientUnits="userSpaceOnUse" gradientTransform="translate(267.398 403.867) rotate(91) scale(46.8358 44.284)">
<stop stop-color="#00A5FF"/>
<stop offset="0.31" stop-color="#0075B4"/>
<stop offset="1"/>
</radialGradient>
<radialGradient id="paint27_radial_1031_13314" cx="0" cy="0" r="1" gradientUnits="userSpaceOnUse" gradientTransform="translate(234.974 392.067) rotate(91) scale(46.8358 44.2842)">
<stop stop-color="#00A5FF"/>
<stop offset="0.31" stop-color="#0075B4"/>
<stop offset="1"/>
</radialGradient>
<radialGradient id="paint28_radial_1031_13314" cx="0" cy="0" r="1" gradientUnits="userSpaceOnUse" gradientTransform="translate(202.555 380.264) rotate(91) scale(46.8358 44.2843)">
<stop stop-color="#00A5FF"/>
<stop offset="0.31" stop-color="#0075B4"/>
<stop offset="1"/>
</radialGradient>
<radialGradient id="paint29_radial_1031_13314" cx="0" cy="0" r="1" gradientUnits="userSpaceOnUse" gradientTransform="translate(186.336 374.365) rotate(91) scale(46.8358 44.2842)">
<stop stop-color="#00A5FF"/>
<stop offset="0.31" stop-color="#0075B4"/>
<stop offset="1"/>
</radialGradient>
<radialGradient id="paint30_radial_1031_13314" cx="0" cy="0" r="1" gradientUnits="userSpaceOnUse" gradientTransform="translate(153.922 362.561) rotate(91) scale(46.8358 44.2837)">
<stop stop-color="#00A5FF"/>
<stop offset="0.31" stop-color="#0075B4"/>
<stop offset="1"/>
</radialGradient>
<radialGradient id="paint31_radial_1031_13314" cx="0" cy="0" r="1" gradientUnits="userSpaceOnUse" gradientTransform="translate(137.703 356.662) rotate(91) scale(46.8359 44.2843)">
<stop stop-color="#00A5FF"/>
<stop offset="0.31" stop-color="#0075B4"/>
<stop offset="1"/>
</radialGradient>
<radialGradient id="paint32_angular_1031_13314" cx="0" cy="0" r="1" gradientUnits="userSpaceOnUse" gradientTransform="translate(230.286 256.4) rotate(90.7968) scale(63.8582 58.8715)">
<stop offset="0.144806" stop-color="#005DFF"/>
<stop offset="0.347377" stop-color="white" stop-opacity="0.04"/>
<stop offset="0.653019" stop-color="white"/>
<stop offset="0.847291" stop-color="white" stop-opacity="0.07"/>
</radialGradient>
</defs>
</svg>
