<svg width="331" height="475" viewBox="0 0 331 475" fill="none" xmlns="http://www.w3.org/2000/svg">
<path d="M267.054 101.286L69.3745 29.3363C34.4385 16.6206 5.59119 36.4468 4.94234 73.6193L1.27095 283.953C0.622104 321.126 28.4174 361.568 63.3535 374.284L261.033 446.233C295.969 458.949 324.816 439.123 325.465 401.95L329.136 191.616C329.785 154.444 301.99 114.001 267.054 101.286Z" stroke="#6B9CC6" stroke-linecap="round"/>
<path d="M292.768 187.117L285.823 184.589C284.23 184.009 282.914 184.914 282.884 186.61L282.884 186.624C282.854 188.319 284.122 190.164 285.716 190.744L292.66 193.272C294.254 193.852 295.57 192.948 295.6 191.252L295.6 191.238C295.629 189.542 294.361 187.697 292.768 187.117Z" fill="#6B9CC6"/>
<path d="M292.363 210.514L285.419 207.987C285.04 207.849 284.666 207.633 284.319 207.351C283.971 207.069 283.657 206.727 283.394 206.345C283.131 205.962 282.924 205.546 282.786 205.121C282.647 204.695 282.58 204.269 282.587 203.866C282.592 203.461 282.672 203.087 282.823 202.765C282.974 202.443 283.192 202.18 283.465 201.991C283.739 201.802 284.061 201.691 284.415 201.664C284.769 201.636 285.146 201.693 285.526 201.832L292.471 204.359C293.24 204.639 293.971 205.232 294.505 206.009C295.038 206.785 295.33 207.681 295.316 208.499C295.298 209.313 294.978 209.982 294.424 210.36C293.871 210.738 293.13 210.793 292.363 210.514Z" fill="#6B9CC6"/>
<path d="M292.059 227.766L285.115 225.238C284.736 225.1 284.362 224.884 284.014 224.603C283.667 224.321 283.353 223.979 283.09 223.596C282.827 223.214 282.62 222.798 282.481 222.372C282.343 221.947 282.275 221.521 282.282 221.117C282.297 220.303 282.614 219.633 283.165 219.254C283.717 218.875 284.456 218.819 285.222 219.097L292.166 221.625C292.933 221.904 293.662 222.494 294.196 223.268C294.729 224.041 295.022 224.933 295.011 225.75C294.994 226.565 294.673 227.234 294.12 227.612C293.566 227.989 292.825 228.045 292.059 227.766Z" fill="#6B9CC6"/>
<path d="M291.761 245.025L284.817 242.497C284.437 242.359 284.062 242.142 283.714 241.859C283.365 241.576 283.051 241.233 282.787 240.849C282.524 240.465 282.318 240.047 282.18 239.621C282.043 239.194 281.976 238.766 281.985 238.363C281.987 237.954 282.065 237.576 282.214 237.25C282.363 236.925 282.581 236.659 282.855 236.467C283.128 236.275 283.452 236.161 283.807 236.133C284.163 236.104 284.543 236.161 284.925 236.3L291.869 238.828C292.636 239.107 293.366 239.698 293.899 240.471C294.432 241.244 294.725 242.137 294.715 242.954C294.713 243.364 294.635 243.744 294.485 244.071C294.335 244.398 294.116 244.665 293.841 244.858C293.566 245.051 293.241 245.165 292.884 245.193C292.527 245.222 292.145 245.165 291.761 245.025Z" fill="#6B9CC6"/>
<path d="M291.457 262.264L284.513 259.737C283.747 259.458 283.019 258.867 282.488 258.095C281.957 257.322 281.666 256.43 281.681 255.616C281.686 255.211 281.766 254.837 281.917 254.515C282.068 254.193 282.286 253.93 282.559 253.741C282.832 253.552 283.155 253.441 283.509 253.414C283.862 253.386 284.24 253.443 284.62 253.582L291.564 256.109C292.333 256.389 293.065 256.982 293.599 257.759C294.132 258.535 294.424 259.431 294.41 260.249C294.392 261.063 294.071 261.732 293.518 262.11C292.965 262.488 292.224 262.543 291.457 262.264Z" fill="#6B9CC6"/>
<path d="M291.16 279.484L284.216 276.957C283.451 276.678 282.722 276.088 282.191 275.315C281.66 274.542 281.37 273.65 281.384 272.836C281.398 272.022 281.716 271.351 282.267 270.973C282.818 270.594 283.558 270.537 284.323 270.816L291.268 273.343C292.034 273.622 292.764 274.213 293.297 274.986C293.83 275.759 294.124 276.652 294.113 277.469C294.095 278.283 293.775 278.953 293.221 279.33C292.668 279.708 291.927 279.763 291.16 279.484Z" fill="#6B9CC6"/>
<path d="M290.855 296.772L283.911 294.244C283.531 294.106 283.156 293.889 282.808 293.606C282.46 293.323 282.145 292.98 281.882 292.596C281.619 292.212 281.412 291.794 281.275 291.367C281.137 290.941 281.07 290.513 281.079 290.11C281.093 289.295 281.411 288.625 281.962 288.246C282.514 287.867 283.253 287.811 284.019 288.089L290.963 290.617C291.729 290.896 292.459 291.487 292.992 292.26C293.526 293.033 293.819 293.926 293.808 294.743C293.794 295.561 293.475 296.234 292.921 296.615C292.367 296.995 291.624 297.052 290.855 296.772Z" fill="#6B9CC6"/>
<path d="M290.551 314.014L283.606 311.487C282.841 311.208 282.113 310.617 281.582 309.845C281.05 309.072 280.76 308.18 280.774 307.366C280.789 306.55 281.106 305.878 281.657 305.497C282.208 305.116 282.947 305.056 283.714 305.332L290.658 307.859C291.426 308.142 292.156 308.736 292.688 309.511C293.221 310.287 293.514 311.181 293.503 311.999C293.486 312.813 293.165 313.482 292.612 313.86C292.058 314.238 291.317 314.293 290.551 314.014Z" fill="#6B9CC6"/>
<path d="M290.254 331.266L283.31 328.738C282.544 328.46 281.816 327.869 281.285 327.096C280.754 326.323 280.463 325.432 280.478 324.617C280.492 323.803 280.81 323.133 281.361 322.754C281.912 322.375 282.652 322.319 283.417 322.597L290.361 325.125C291.128 325.404 291.858 325.994 292.391 326.768C292.924 327.541 293.217 328.433 293.207 329.25C293.189 330.065 292.868 330.734 292.315 331.112C291.762 331.489 291.021 331.545 290.254 331.266Z" fill="#6B9CC6"/>
<path d="M289.949 348.522L283.005 345.994C282.625 345.856 282.25 345.639 281.902 345.356C281.553 345.073 281.239 344.73 280.975 344.346C280.712 343.962 280.506 343.544 280.368 343.118C280.231 342.691 280.164 342.263 280.173 341.86C280.18 341.456 280.262 341.084 280.413 340.764C280.565 340.445 280.783 340.184 281.056 339.996C281.329 339.809 281.651 339.698 282.004 339.671C282.357 339.644 282.733 339.701 283.112 339.839L290.057 342.367C290.823 342.646 291.553 343.237 292.086 344.01C292.619 344.783 292.913 345.676 292.902 346.493C292.888 347.311 292.569 347.984 292.015 348.365C291.461 348.745 290.718 348.802 289.949 348.522Z" fill="#6B9CC6"/>
<path d="M289.652 365.764L282.708 363.237C282.329 363.099 281.955 362.883 281.608 362.601C281.26 362.319 280.946 361.977 280.683 361.595C280.42 361.212 280.214 360.796 280.075 360.371C279.936 359.945 279.869 359.519 279.876 359.116C279.89 358.3 280.207 357.628 280.758 357.247C281.309 356.866 282.049 356.806 282.815 357.082L289.76 359.609C290.527 359.892 291.257 360.486 291.79 361.261C292.323 362.036 292.616 362.93 292.605 363.749C292.587 364.563 292.267 365.232 291.713 365.61C291.16 365.988 290.419 366.043 289.652 365.764Z" fill="#6B9CC6"/>
<path d="M289.455 376.875L282.511 374.347C280.917 373.767 279.601 374.672 279.571 376.367L279.571 376.381C279.542 378.077 280.81 379.922 282.403 380.502L289.348 383.03C290.941 383.61 292.257 382.705 292.287 381.01L292.287 380.996C292.317 379.3 291.049 377.455 289.455 376.875Z" fill="#6B9CC6"/>
<path d="M75.8779 73.0406L75.7489 80.4295C75.7193 82.1253 76.9873 83.9703 78.5811 84.5503L78.5943 84.5551C80.188 85.1352 81.504 84.2308 81.5336 82.535L81.6626 75.1461C81.6922 73.4503 80.4242 71.6053 78.8304 71.0253L78.8172 71.0205C77.2235 70.4404 75.9075 71.3448 75.8779 73.0406Z" fill="#6B9CC6"/>
<path d="M97.8736 81.0445L97.7446 88.4334C97.7375 88.8366 97.656 89.2087 97.5044 89.5285C97.3529 89.8482 97.1344 90.1094 96.8615 90.2969C96.5885 90.4845 96.2664 90.5949 95.9136 90.6218C95.5608 90.6487 95.1842 90.5915 94.8052 90.4535C94.4251 90.3171 94.0498 90.1019 93.7009 89.8205C93.3519 89.539 93.0361 89.1967 92.7717 88.8134C92.5073 88.43 92.2995 88.0131 92.1602 87.5866C92.0209 87.1601 91.9528 86.7323 91.9598 86.3279L92.0888 78.9391C92.1031 78.121 92.4223 77.4476 92.976 77.0671C93.5298 76.6865 94.2728 76.6298 95.0416 76.9097C95.8081 77.1924 96.5364 77.7862 97.0671 78.561C97.5979 79.3359 97.8878 80.2289 97.8736 81.0445Z" fill="#6B9CC6"/>
<path d="M114.079 86.946L113.95 94.3349C113.943 94.7381 113.862 95.1102 113.71 95.4299C113.558 95.7497 113.34 96.0108 113.067 96.1984C112.794 96.386 112.472 96.4964 112.119 96.5233C111.766 96.5501 111.39 96.493 111.011 96.355C110.245 96.0765 109.517 95.4858 108.986 94.713C108.455 93.9402 108.164 93.0485 108.179 92.2342L108.308 84.8454C108.322 84.0297 108.639 83.3578 109.19 82.9766C109.741 82.5953 110.481 82.5359 111.247 82.8112C112.014 83.0939 112.742 83.6876 113.273 84.4625C113.803 85.2374 114.093 86.1304 114.079 86.946Z" fill="#6B9CC6"/>
<path d="M130.304 92.8477L130.175 100.237C130.168 100.641 130.086 101.014 129.933 101.334C129.781 101.655 129.561 101.916 129.287 102.103C129.013 102.291 128.689 102.4 128.335 102.426C127.98 102.451 127.602 102.392 127.222 102.252C126.84 102.118 126.462 101.905 126.11 101.624C125.757 101.343 125.439 101 125.171 100.616C124.904 100.231 124.694 99.8118 124.553 99.3828C124.412 98.9539 124.343 98.5235 124.35 98.1167L124.479 90.7279C124.494 89.9122 124.811 89.2403 125.362 88.8591C125.913 88.4778 126.652 88.4184 127.419 88.6937C127.803 88.8279 128.183 89.0423 128.537 89.3245C128.89 89.6067 129.211 89.951 129.479 90.3375C129.747 90.724 129.958 91.1449 130.1 91.5758C130.242 92.0068 130.311 92.4391 130.304 92.8477Z" fill="#6B9CC6"/>
<path d="M146.506 98.7476L146.377 106.136C146.363 106.951 146.045 107.621 145.494 108C144.943 108.379 144.203 108.435 143.438 108.157C143.058 108.02 142.683 107.805 142.334 107.524C141.985 107.242 141.669 106.9 141.405 106.517C141.14 106.133 140.932 105.716 140.793 105.29C140.654 104.863 140.586 104.435 140.593 104.031L140.722 96.6422C140.736 95.8241 141.055 95.1507 141.609 94.7701C142.163 94.3896 142.906 94.333 143.674 94.6128C144.441 94.8955 145.169 95.4892 145.7 96.2641C146.231 97.039 146.521 97.932 146.506 98.7476Z" fill="#6B9CC6"/>
<path d="M162.688 104.634L162.56 112.022C162.545 112.837 162.228 113.507 161.676 113.886C161.125 114.265 160.385 114.321 159.62 114.043C158.855 113.764 158.126 113.173 157.595 112.401C157.064 111.628 156.774 110.736 156.788 109.922L156.917 102.533C156.931 101.717 157.248 101.045 157.799 100.664C158.35 100.283 159.09 100.223 159.857 100.499C160.623 100.781 161.351 101.375 161.882 102.15C162.413 102.925 162.703 103.818 162.688 104.634Z" fill="#6B9CC6"/>
<path d="M178.936 110.552L178.807 117.941C178.8 118.346 178.718 118.719 178.566 119.039C178.413 119.359 178.194 119.621 177.919 119.808C177.645 119.995 177.321 120.105 176.967 120.13C176.613 120.156 176.235 120.097 175.855 119.957C175.089 119.678 174.361 119.087 173.83 118.315C173.299 117.542 173.008 116.65 173.022 115.836L173.151 108.447C173.166 107.631 173.483 106.959 174.034 106.578C174.585 106.197 175.324 106.137 176.091 106.413C176.86 106.693 177.591 107.286 178.125 108.062C178.659 108.839 178.95 109.734 178.936 110.552Z" fill="#6B9CC6"/>
<path d="M195.147 116.451L195.018 123.84C195.004 124.654 194.686 125.324 194.135 125.703C193.584 126.082 192.844 126.138 192.079 125.86C191.312 125.581 190.582 124.99 190.049 124.217C189.516 123.444 189.223 122.551 189.233 121.734L189.362 114.345C189.38 113.53 189.7 112.859 190.253 112.479C190.806 112.099 191.547 112.04 192.315 112.316C193.082 112.599 193.81 113.192 194.341 113.967C194.871 114.742 195.161 115.635 195.147 116.451Z" fill="#6B9CC6"/>
<path d="M211.353 122.344L211.224 129.733C211.209 130.548 210.892 131.218 210.34 131.597C209.789 131.976 209.05 132.032 208.284 131.753C207.519 131.475 206.79 130.884 206.259 130.111C205.728 129.339 205.438 128.447 205.452 127.633L205.581 120.244C205.595 119.428 205.912 118.756 206.463 118.375C207.014 117.994 207.754 117.934 208.521 118.21C209.287 118.492 210.015 119.086 210.546 119.861C211.077 120.636 211.367 121.529 211.353 122.344Z" fill="#6B9CC6"/>
<path d="M227.577 128.255L227.448 135.644C227.441 136.049 227.359 136.422 227.206 136.742C227.054 137.063 226.834 137.324 226.56 137.511C226.286 137.698 225.962 137.808 225.608 137.833C225.253 137.859 224.875 137.8 224.495 137.66C224.116 137.522 223.742 137.306 223.395 137.024C223.047 136.742 222.733 136.4 222.47 136.018C222.207 135.635 222.001 135.219 221.862 134.794C221.724 134.369 221.656 133.942 221.663 133.539L221.792 126.15C221.806 125.334 222.124 124.662 222.674 124.281C223.225 123.9 223.965 123.841 224.732 124.116C225.5 124.396 226.232 124.989 226.766 125.765C227.299 126.542 227.591 127.437 227.577 128.255Z" fill="#6B9CC6"/>
<path d="M243.78 134.154L243.651 141.543C243.644 141.946 243.562 142.318 243.411 142.638C243.259 142.958 243.041 143.219 242.768 143.406C242.495 143.594 242.173 143.704 241.82 143.731C241.467 143.758 241.09 143.701 240.711 143.563C239.945 143.284 239.215 142.693 238.682 141.92C238.149 141.147 237.855 140.254 237.866 139.437L237.995 132.048C238.013 131.233 238.333 130.562 238.886 130.182C239.439 129.802 240.18 129.743 240.948 130.019C241.714 130.302 242.443 130.896 242.973 131.67C243.504 132.445 243.794 133.338 243.78 134.154Z" fill="#6B9CC6"/>
<path d="M254.214 137.947L254.085 145.336C254.055 147.032 255.323 148.877 256.917 149.457L256.93 149.461C258.524 150.041 259.84 149.137 259.87 147.441L259.999 140.052C260.028 138.357 258.76 136.512 257.166 135.932L257.153 135.927C255.559 135.347 254.243 136.251 254.214 137.947Z" fill="#6B9CC6"/>
<path d="M40.9199 292.664L47.8642 295.192C49.458 295.772 50.774 294.867 50.8036 293.172L50.8038 293.158C50.8334 291.462 49.5654 289.617 47.9717 289.037L41.0273 286.509C39.4336 285.929 38.1176 286.834 38.088 288.529L38.0877 288.543C38.0581 290.239 39.3261 292.084 40.9199 292.664Z" fill="#6B9CC6"/>
<path d="M41.3242 269.267L48.2685 271.795C48.6475 271.933 49.0213 272.149 49.3688 272.43C49.7162 272.712 50.0304 273.054 50.2934 273.437C50.5564 273.819 50.763 274.235 50.9016 274.66C51.0401 275.086 51.1077 275.512 51.1007 275.915C51.0954 276.32 51.015 276.695 50.8642 277.016C50.7135 277.338 50.4952 277.601 50.2221 277.79C49.949 277.979 49.6263 278.09 49.2726 278.118C48.9189 278.145 48.5411 278.088 48.1611 277.95L41.2168 275.422C40.4479 275.142 39.7163 274.549 39.1827 273.773C38.6491 272.996 38.3574 272.101 38.3717 271.282C38.3894 270.468 38.71 269.799 39.2633 269.421C39.8166 269.043 40.5577 268.988 41.3242 269.267Z" fill="#6B9CC6"/>
<path d="M41.6287 252.016L48.573 254.543C48.9519 254.681 49.3258 254.897 49.6732 255.179C50.0207 255.46 50.3349 255.802 50.5979 256.185C50.8608 256.568 51.0675 256.984 51.206 257.409C51.3445 257.834 51.4122 258.261 51.4052 258.664C51.3909 259.478 51.0733 260.149 50.5221 260.527C49.9708 260.906 49.2311 260.963 48.4658 260.684L41.5215 258.157C40.7549 257.878 40.0252 257.287 39.492 256.514C38.9587 255.74 38.6654 254.848 38.6761 254.031C38.6939 253.217 39.0145 252.547 39.5678 252.17C40.1211 251.792 40.8621 251.737 41.6287 252.016Z" fill="#6B9CC6"/>
<path d="M41.9263 234.756L48.8706 237.284C49.2506 237.422 49.6256 237.639 49.9738 237.922C50.3221 238.205 50.6369 238.548 50.9 238.932C51.1632 239.317 51.3695 239.734 51.5072 240.161C51.6449 240.587 51.7113 241.015 51.7025 241.419C51.7006 241.827 51.6228 242.205 51.4735 242.531C51.3243 242.856 51.1065 243.123 50.833 243.315C50.5595 243.506 50.2355 243.62 49.8801 243.648C49.5246 243.677 49.1447 243.62 48.7624 243.481L41.8181 240.953C41.0515 240.674 40.3218 240.084 39.7886 239.31C39.2553 238.537 38.962 237.645 38.9728 236.828C38.9746 236.417 39.0529 236.037 39.2028 235.71C39.3528 235.384 39.5715 235.116 39.8463 234.923C40.1211 234.731 40.4464 234.617 40.8035 234.588C41.1606 234.559 41.5422 234.616 41.9263 234.756Z" fill="#6B9CC6"/>
<path d="M42.2305 217.517L49.1748 220.045C49.9401 220.323 50.6685 220.914 51.1996 221.687C51.7308 222.46 52.0211 223.351 52.0069 224.165C52.0016 224.57 51.9213 224.945 51.7705 225.266C51.6197 225.588 51.4015 225.851 51.1283 226.04C50.8552 226.229 50.5325 226.34 50.1788 226.368C49.8251 226.395 49.4474 226.338 49.0673 226.2L42.123 223.672C41.3542 223.392 40.6225 222.799 40.089 222.023C39.5554 221.246 39.2636 220.351 39.2779 219.532C39.2956 218.718 39.6162 218.049 40.1696 217.671C40.7229 217.294 41.4639 217.238 42.2305 217.517Z" fill="#6B9CC6"/>
<path d="M42.5271 200.297L49.4714 202.824C50.2368 203.103 50.9652 203.693 51.4963 204.466C52.0274 205.239 52.3178 206.131 52.3036 206.945C52.2894 207.759 51.9717 208.43 51.4205 208.809C50.8693 209.188 50.1296 209.244 49.3642 208.965L42.42 206.438C41.6534 206.159 40.9236 205.568 40.3904 204.795C39.8572 204.022 39.5638 203.129 39.5746 202.312C39.5923 201.498 39.9129 200.829 40.4662 200.451C41.0195 200.073 41.7606 200.018 42.5271 200.297Z" fill="#6B9CC6"/>
<path d="M42.832 183.009L49.7763 185.537C50.1564 185.675 50.5313 185.892 50.8796 186.175C51.2279 186.458 51.5426 186.801 51.8058 187.185C52.0689 187.57 52.2753 187.987 52.413 188.414C52.5507 188.84 52.617 189.268 52.6083 189.672C52.594 190.486 52.2764 191.156 51.7252 191.535C51.1739 191.914 50.4342 191.97 49.6689 191.692L42.7246 189.164C41.958 188.885 41.2283 188.295 40.6951 187.521C40.1618 186.748 39.8685 185.856 39.8792 185.039C39.8935 184.221 40.2127 183.547 40.7664 183.167C41.3202 182.786 42.0632 182.729 42.832 183.009Z" fill="#6B9CC6"/>
<path d="M43.1368 165.767L50.081 168.295C50.8464 168.573 51.5748 169.164 52.1059 169.937C52.6371 170.709 52.9274 171.601 52.9132 172.415C52.899 173.231 52.5817 173.903 52.0308 174.284C51.4799 174.666 50.7402 174.725 49.9736 174.45L43.0293 171.922C42.2616 171.639 41.532 171.045 40.9991 170.27C40.4663 169.495 40.1734 168.601 40.1842 167.782C40.2019 166.968 40.5225 166.299 41.0758 165.921C41.6292 165.543 42.3702 165.488 43.1368 165.767Z" fill="#6B9CC6"/>
<path d="M43.4334 148.516L50.3777 151.043C51.143 151.322 51.8714 151.912 52.4025 152.685C52.9337 153.458 53.2241 154.35 53.2098 155.164C53.1956 155.978 52.878 156.649 52.3267 157.027C51.7755 157.406 51.0358 157.463 50.2705 157.184L43.3262 154.657C42.5596 154.378 41.8299 153.787 41.2966 153.014C40.7634 152.241 40.4701 151.348 40.4808 150.531C40.4986 149.717 40.8191 149.047 41.3725 148.67C41.9258 148.292 42.6668 148.237 43.4334 148.516Z" fill="#6B9CC6"/>
<path d="M43.7383 131.259L50.6826 133.787C51.0626 133.925 51.4376 134.142 51.7859 134.425C52.1341 134.708 52.4489 135.051 52.712 135.435C52.9752 135.82 53.1815 136.237 53.3192 136.664C53.4569 137.09 53.5233 137.518 53.5145 137.922C53.5075 138.325 53.4259 138.697 53.2743 139.017C53.1228 139.336 52.9044 139.598 52.6314 139.785C52.3585 139.973 52.0364 140.083 51.6835 140.11C51.3307 140.137 50.9541 140.08 50.5751 139.942L43.6309 137.414C42.8643 137.135 42.1345 136.545 41.6013 135.771C41.0681 134.998 40.7747 134.106 40.7855 133.289C40.7998 132.471 41.1189 131.797 41.6727 131.417C42.2264 131.036 42.9694 130.979 43.7383 131.259Z" fill="#6B9CC6"/>
<path d="M44.0352 114.017L50.9795 116.545C51.3584 116.683 51.7323 116.899 52.0797 117.18C52.4272 117.462 52.7414 117.804 53.0044 118.187C53.2673 118.569 53.474 118.985 53.6125 119.411C53.751 119.836 53.8187 120.262 53.8117 120.666C53.7974 121.481 53.4802 122.153 52.9293 122.534C52.3784 122.916 51.6387 122.975 50.872 122.7L43.9278 120.172C43.16 119.889 42.4304 119.295 41.8976 118.52C41.3647 117.745 41.0718 116.851 41.0826 116.033C41.1004 115.218 41.421 114.549 41.9743 114.171C42.5276 113.794 43.2686 113.738 44.0352 114.017Z" fill="#6B9CC6"/>
<path d="M44.2324 102.907L51.1767 105.434C52.7705 106.014 54.0865 105.11 54.1161 103.414L54.1163 103.4C54.1459 101.704 52.8779 99.8591 51.2842 99.279L44.3398 96.7515C42.7461 96.1714 41.4301 97.0758 41.4005 98.7716L41.4002 98.7857C41.3706 100.481 42.6386 102.326 44.2324 102.907Z" fill="#6B9CC6"/>
<path d="M255.388 407.412L255.517 400.024C255.546 398.328 254.278 396.483 252.685 395.903L252.671 395.898C251.078 395.318 249.762 396.222 249.732 397.918L249.603 405.307C249.573 407.003 250.841 408.848 252.435 409.428L252.448 409.433C254.042 410.013 255.358 409.108 255.388 407.412Z" fill="#6B9CC6"/>
<path d="M233.392 399.409L233.521 392.02C233.528 391.617 233.61 391.244 233.761 390.925C233.913 390.605 234.131 390.344 234.404 390.156C234.677 389.969 234.999 389.858 235.352 389.831C235.705 389.804 236.081 389.862 236.46 390C236.841 390.136 237.216 390.351 237.565 390.633C237.914 390.914 238.23 391.256 238.494 391.64C238.758 392.023 238.966 392.44 239.105 392.867C239.245 393.293 239.313 393.721 239.306 394.125L239.177 401.514C239.163 402.332 238.843 403.005 238.29 403.386C237.736 403.767 236.993 403.823 236.224 403.543C235.458 403.261 234.729 402.667 234.198 401.892C233.668 401.117 233.378 400.224 233.392 399.409Z" fill="#6B9CC6"/>
<path d="M217.187 393.507L217.315 386.118C217.323 385.715 217.404 385.343 217.556 385.023C217.707 384.703 217.926 384.442 218.199 384.255C218.472 384.067 218.794 383.957 219.146 383.93C219.499 383.903 219.876 383.96 220.255 384.098C221.02 384.377 221.749 384.967 222.28 385.74C222.811 386.513 223.101 387.405 223.087 388.219L222.958 395.608C222.944 396.423 222.626 397.095 222.076 397.477C221.525 397.858 220.785 397.917 220.018 397.642C219.252 397.359 218.524 396.765 217.993 395.991C217.462 395.216 217.172 394.323 217.187 393.507Z" fill="#6B9CC6"/>
<path d="M200.962 387.605L201.091 380.217C201.098 379.812 201.18 379.439 201.332 379.119C201.485 378.798 201.704 378.537 201.979 378.35C202.253 378.162 202.577 378.053 202.931 378.027C203.285 378.002 203.663 378.061 204.043 378.201C204.426 378.335 204.804 378.548 205.156 378.829C205.508 379.11 205.827 379.453 206.094 379.838C206.361 380.222 206.571 380.641 206.712 381.07C206.853 381.499 206.922 381.93 206.915 382.336L206.786 389.725C206.772 390.541 206.455 391.213 205.904 391.594C205.353 391.975 204.613 392.035 203.847 391.759C203.462 391.625 203.083 391.411 202.729 391.129C202.375 390.846 202.055 390.502 201.787 390.116C201.518 389.729 201.307 389.308 201.166 388.877C201.024 388.446 200.955 388.014 200.962 387.605Z" fill="#6B9CC6"/>
<path d="M184.759 381.705L184.888 374.317C184.903 373.502 185.22 372.832 185.771 372.453C186.323 372.074 187.062 372.018 187.828 372.296C188.208 372.433 188.583 372.648 188.932 372.93C189.281 373.211 189.597 373.553 189.861 373.937C190.125 374.32 190.333 374.737 190.473 375.163C190.612 375.59 190.68 376.018 190.673 376.422L190.544 383.811C190.53 384.629 190.211 385.302 189.657 385.683C189.103 386.064 188.36 386.12 187.591 385.84C186.825 385.558 186.096 384.964 185.566 384.189C185.035 383.414 184.745 382.521 184.759 381.705Z" fill="#6B9CC6"/>
<path d="M168.577 375.82L168.706 368.431C168.72 367.616 169.038 366.946 169.589 366.567C170.14 366.188 170.88 366.132 171.645 366.411C172.411 366.689 173.139 367.28 173.67 368.053C174.201 368.825 174.492 369.717 174.478 370.531L174.349 377.92C174.334 378.736 174.017 379.408 173.466 379.789C172.915 380.17 172.176 380.23 171.409 379.954C170.643 379.672 169.914 379.078 169.384 378.303C168.853 377.528 168.563 376.635 168.577 375.82Z" fill="#6B9CC6"/>
<path d="M152.33 369.901L152.459 362.512C152.466 362.108 152.548 361.734 152.7 361.414C152.852 361.094 153.072 360.832 153.346 360.645C153.621 360.458 153.944 360.348 154.299 360.323C154.653 360.297 155.031 360.356 155.411 360.497C156.176 360.775 156.905 361.366 157.436 362.139C157.967 362.911 158.257 363.803 158.243 364.617L158.114 372.006C158.1 372.822 157.783 373.494 157.232 373.875C156.681 374.256 155.941 374.316 155.175 374.04C154.406 373.761 153.674 373.167 153.141 372.391C152.607 371.615 152.315 370.719 152.33 369.901Z" fill="#6B9CC6"/>
<path d="M136.119 364.002L136.248 356.613C136.262 355.799 136.579 355.129 137.131 354.75C137.682 354.371 138.422 354.315 139.187 354.593C139.954 354.872 140.683 355.463 141.217 356.236C141.75 357.009 142.043 357.902 142.032 358.719L141.903 366.108C141.886 366.923 141.565 367.594 141.012 367.974C140.459 368.354 139.718 368.413 138.951 368.137C138.184 367.854 137.456 367.261 136.925 366.486C136.394 365.711 136.104 364.818 136.119 364.002Z" fill="#6B9CC6"/>
<path d="M119.913 358.109L120.042 350.72C120.056 349.905 120.374 349.235 120.925 348.856C121.476 348.477 122.216 348.421 122.981 348.7C123.747 348.978 124.475 349.569 125.006 350.342C125.537 351.114 125.828 352.006 125.814 352.821L125.685 360.209C125.67 361.025 125.353 361.697 124.802 362.078C124.251 362.459 123.512 362.519 122.745 362.244C121.979 361.961 121.25 361.367 120.719 360.592C120.189 359.817 119.899 358.924 119.913 358.109Z" fill="#6B9CC6"/>
<path d="M103.689 352.198L103.818 344.809C103.825 344.404 103.907 344.031 104.059 343.711C104.212 343.391 104.431 343.129 104.706 342.942C104.98 342.755 105.304 342.645 105.658 342.62C106.012 342.594 106.39 342.653 106.77 342.793C107.149 342.931 107.523 343.147 107.871 343.429C108.218 343.711 108.532 344.053 108.795 344.435C109.058 344.818 109.265 345.234 109.403 345.659C109.542 346.085 109.61 346.511 109.603 346.914L109.474 354.303C109.459 355.119 109.142 355.791 108.591 356.172C108.04 356.553 107.301 356.613 106.534 356.337C105.765 356.057 105.033 355.464 104.5 354.688C103.966 353.911 103.675 353.016 103.689 352.198Z" fill="#6B9CC6"/>
<path d="M87.4859 346.299L87.6149 338.91C87.6219 338.507 87.7035 338.135 87.855 337.815C88.0066 337.496 88.225 337.234 88.498 337.047C88.7709 336.859 89.093 336.749 89.4458 336.722C89.7986 336.695 90.1753 336.752 90.5542 336.89C91.3208 337.169 92.0505 337.76 92.5837 338.533C93.117 339.306 93.4103 340.199 93.3995 341.016L93.2706 348.405C93.2528 349.22 92.9327 349.891 92.3797 350.271C91.8267 350.651 91.0857 350.71 90.3178 350.434C89.5513 350.151 88.823 349.558 88.2923 348.783C87.7616 348.008 87.4717 347.115 87.4859 346.299Z" fill="#6B9CC6"/>
<path d="M77.0518 342.506L77.1808 335.117C77.2104 333.422 75.9424 331.577 74.3486 330.997L74.3354 330.992C72.7416 330.412 71.4256 331.316 71.396 333.012L71.2671 340.401C71.2375 342.097 72.5055 343.942 74.0992 344.522L74.1124 344.526C75.7062 345.106 77.0222 344.202 77.0518 342.506Z" fill="#6B9CC6"/>
<path d="M238.288 137.537L95.6422 85.6187C69.3819 76.0608 48.0938 90.9669 48.0938 118.912L48.0938 270.712C48.0938 298.658 69.3819 329.061 95.6422 338.619L238.288 390.537C264.548 400.095 285.836 385.189 285.836 357.244L285.836 205.444C285.836 177.498 264.548 147.095 238.288 137.537Z" fill="#002359"/>
<path d="M227.494 154.421L105.694 110.09C83.271 101.928 65.0938 114.228 65.0938 137.561L65.0938 264.306C65.0938 287.639 83.271 313.17 105.694 321.332L227.494 365.663C249.917 373.824 268.094 361.525 268.094 338.192L268.094 211.447C268.094 188.114 249.917 162.582 227.494 154.421Z" fill="#002359"/>
<g filter="url(#filter0_f_1031_13616)">
<path d="M132.996 203.149L123.773 189.978L124.774 174.593C124.846 173.782 124.56 172.841 123.988 172.024L108.831 150.455C108.331 149.664 107.616 149.099 106.829 148.813C106.472 148.683 106.186 148.655 105.828 148.677C104.828 148.693 104.113 149.498 104.041 150.613L103.183 164.833L89.528 160.776C88.4556 160.461 87.4547 160.858 87.0972 161.793C86.7398 162.728 86.9543 164.099 87.7407 165.222L102.826 186.766C103.398 187.583 104.184 188.174 104.971 188.384L119.841 192.807L128.992 205.876C120.914 212.598 115.98 223.432 115.98 237.355C115.98 267.255 138.858 299.928 166.955 310.154C195.052 320.381 217.93 304.362 217.93 274.462C217.93 244.562 195.052 211.889 166.955 201.662C153.943 196.926 142.004 197.83 132.996 203.149ZM167.67 207.933C168.456 208.219 169.243 208.582 170.029 208.868C172.603 209.957 175.105 211.324 177.536 212.817C178.751 213.564 179.895 214.361 181.039 215.157C194.837 224.973 205.776 240.594 210.208 256.968C210.566 258.315 210.923 259.662 211.209 261.06C211.781 263.779 212.139 266.572 212.282 269.287C212.353 270.226 212.353 271.139 212.353 272.128C212.353 272.28 212.353 272.432 212.353 272.508C212.353 275.095 212.139 277.603 211.781 279.984C211.567 281.199 211.352 282.339 211.066 283.452C209.994 287.626 208.35 291.441 206.133 294.59C205.561 295.447 204.918 296.278 204.203 297.083C203.488 297.964 202.702 298.743 201.915 299.522C201.129 300.225 200.342 300.927 199.484 301.528C198.627 302.205 197.697 302.78 196.696 303.328C195.767 303.827 194.766 304.3 193.765 304.772C192.693 305.219 191.549 305.639 190.405 305.908C189.618 306.078 188.832 306.324 188.046 306.418C184.113 307.194 179.824 307.23 175.391 306.53C174.39 306.394 173.318 306.156 172.317 305.943C170.53 305.521 168.742 304.947 166.955 304.296C166.383 304.088 165.811 303.88 165.239 303.672C164.024 303.153 162.88 302.661 161.736 302.092C157.304 299.946 153.014 297.168 149.082 293.911C148.009 292.988 146.866 292.039 145.865 291.066C137.857 283.511 131.209 274.091 126.919 263.933C126.347 262.583 125.847 261.26 125.346 259.936C123.63 255.051 122.415 250.12 121.914 245.145C121.771 243.876 121.7 242.556 121.628 241.237C121.628 240.628 121.557 239.993 121.557 239.309C121.557 237.407 121.628 235.607 121.843 233.859C121.986 232.77 122.129 231.68 122.343 230.617C123.201 226.213 124.631 222.244 126.704 218.89C127.133 218.134 127.634 217.403 128.206 216.698C128.921 215.741 129.636 214.86 130.422 214.005C131.137 213.2 131.923 212.497 132.71 211.794C132.781 211.744 132.924 211.644 132.996 211.594L139.144 220.375C139.001 220.475 138.93 220.601 138.787 220.701C138.143 221.304 137.5 221.983 136.856 222.661C134.354 225.631 132.424 229.265 131.352 233.592C131.066 234.705 130.851 235.768 130.708 236.933C130.422 238.731 130.279 240.581 130.279 242.559C130.279 243.396 130.279 244.233 130.351 245.096C130.422 246.111 130.494 247.126 130.637 248.167C130.994 250.96 131.637 253.857 132.424 256.578C132.71 257.595 133.067 258.562 133.425 259.605C133.997 261.183 134.64 262.711 135.355 264.264C135.927 265.461 136.499 266.583 137.071 267.704C138.143 269.616 139.287 271.478 140.503 273.289C140.86 273.8 141.218 274.31 141.575 274.821C142.862 276.583 144.292 278.32 145.722 279.982C146.58 280.979 147.509 281.926 148.438 282.797C149.654 284 150.869 285.127 152.156 286.128C152.942 286.795 153.729 287.385 154.515 287.976C156.875 289.747 159.305 291.241 161.808 292.532C162.808 293.048 163.738 293.463 164.739 293.903C165.454 294.239 166.169 294.5 166.884 294.76C168.742 295.436 170.53 295.935 172.317 296.281C173.461 296.545 174.676 296.683 175.749 296.769C180.181 297.165 184.256 296.67 187.903 295.259C188.689 294.936 189.404 294.588 190.19 294.265C191.263 293.667 192.335 293.068 193.265 292.341C194.051 291.79 194.766 291.138 195.409 290.459C200.414 285.585 203.488 278.259 203.488 269.053C203.488 264.945 202.916 260.78 201.772 256.636C201.486 255.467 201.129 254.271 200.7 253.126C196.982 242.339 189.904 232.155 180.968 224.87C180.038 224.151 179.109 223.432 178.108 222.688C174.533 220.169 170.744 218.106 166.812 216.674C158.376 213.832 150.44 214.139 144.149 217.175C143.791 217.349 143.505 217.549 143.148 217.724L141.289 215.069L138.572 211.189L136.928 208.841C137.285 208.666 137.643 208.416 138 208.242C139.001 207.769 140.002 207.297 141.075 206.85C142.075 206.454 143.076 206.133 144.149 205.915C147.938 204.936 152.013 204.669 156.374 205.115C157.518 205.227 158.662 205.415 159.806 205.603C162.165 206.081 164.524 206.712 166.955 207.597C167.241 207.777 167.456 207.855 167.67 207.933ZM166.955 222.889C184.042 229.108 197.983 249.018 197.983 267.202C197.983 285.385 184.113 295.173 166.955 288.928C149.868 282.709 135.927 262.799 135.927 244.615C135.927 236.627 138.644 230.235 143.148 226.169L150.083 236.073C147.366 238.888 145.722 243.083 145.722 248.18C145.722 260.657 155.23 274.237 166.955 278.505C178.68 282.772 188.189 276.114 188.189 263.637C188.189 251.159 178.68 237.58 166.955 233.312C162.094 231.543 157.661 231.679 154.086 233.269L147.151 223.365C152.513 220.524 159.448 220.157 166.955 222.889ZM166.955 239.247C171.03 240.73 174.819 243.783 177.608 247.536C177.894 247.945 178.251 248.379 178.537 248.864C181.111 252.768 182.612 257.27 182.612 261.531C182.612 264.498 181.897 266.977 180.61 268.867C180.038 269.8 179.323 270.605 178.465 271.206C177.608 271.882 176.607 272.431 175.534 272.802C174.533 273.122 173.389 273.314 172.246 273.355C170.601 273.365 168.814 273.095 166.955 272.418C166.24 272.158 165.454 271.795 164.739 271.459C163.666 270.917 162.594 270.222 161.593 269.477C157.232 266.216 153.8 261.315 152.227 256.102C151.87 254.983 151.584 253.737 151.441 252.62C151.298 251.731 151.298 250.894 151.298 250.058C151.298 248.079 151.584 246.358 152.227 244.842C152.656 243.705 153.228 242.772 153.872 241.865C153.943 241.738 154.015 241.688 154.086 241.562L159.949 249.935C159.877 250.061 159.806 250.187 159.806 250.339C159.52 250.996 159.377 251.857 159.377 252.694C159.377 252.77 159.377 252.846 159.377 252.922C159.377 257.411 162.808 262.312 167.027 263.847C167.17 263.899 167.384 263.977 167.527 264.029C168.242 264.213 168.885 264.295 169.529 264.301C170.816 264.313 171.96 263.892 172.818 263.14C173.604 262.437 174.176 261.504 174.462 260.314C174.605 259.758 174.676 259.175 174.676 258.49C174.676 254.002 171.245 249.101 167.027 247.565C166.455 247.357 165.883 247.225 165.311 247.169C164.882 247.089 164.381 247.135 163.952 247.131L162.451 244.987L159.734 241.107L158.09 238.987C158.519 238.839 158.948 238.691 159.377 238.619C161.593 238.056 164.238 238.258 166.955 239.247ZM109.189 161.236L109.26 159.512L111.548 162.78L114.336 166.762L116.767 170.233L119.055 173.501L118.268 186.376L112.334 184.597L109.189 183.68L105.9 182.712L96.1054 168.723L99.7515 169.822L100.895 170.163L106.114 171.682C107.544 172.126 108.617 171.299 108.76 169.83L109.189 161.236Z" fill="white"/>
</g>
<path d="M133.168 190.891L123.945 177.72L124.946 162.335C125.018 161.524 124.732 160.583 124.16 159.767L109.003 138.197C108.503 137.406 107.788 136.842 107.001 136.555C106.644 136.425 106.358 136.397 106 136.419C104.999 136.435 104.284 137.24 104.213 138.356L103.355 152.575L89.6999 148.518C88.6275 148.204 87.6266 148.6 87.2691 149.535C86.9117 150.47 87.1261 151.842 87.9126 152.965L102.998 174.508C103.57 175.325 104.356 175.916 105.142 176.126L120.013 180.549L129.164 193.618C121.085 200.34 116.152 211.174 116.152 225.097C116.152 254.997 139.03 287.67 167.127 297.897C195.224 308.123 218.102 292.104 218.102 262.204C218.102 232.304 195.224 199.631 167.127 189.404C154.115 184.669 142.176 185.573 133.168 190.891ZM167.842 195.675C168.628 195.961 169.415 196.324 170.201 196.61C172.775 197.699 175.277 199.066 177.708 200.559C178.923 201.306 180.067 202.103 181.211 202.9C195.009 212.715 205.948 228.337 210.38 244.71C210.738 246.057 211.095 247.405 211.381 248.802C211.953 251.521 212.311 254.314 212.454 257.029C212.525 257.968 212.525 258.881 212.525 259.87C212.525 260.022 212.525 260.174 212.525 260.25C212.525 262.837 212.311 265.346 211.953 267.726C211.739 268.942 211.524 270.081 211.238 271.194C210.166 275.369 208.521 279.183 206.305 282.332C205.733 283.189 205.09 284.02 204.375 284.825C203.66 285.706 202.874 286.485 202.087 287.264C201.301 287.967 200.514 288.67 199.656 289.27C198.798 289.947 197.869 290.522 196.868 291.071C195.939 291.569 194.938 292.042 193.937 292.514C192.864 292.961 191.721 293.382 190.577 293.65C189.79 293.82 189.004 294.066 188.217 294.161C184.285 294.936 179.996 294.972 175.563 294.272C174.562 294.136 173.49 293.898 172.489 293.686C170.702 293.263 168.914 292.689 167.127 292.038C166.555 291.83 165.983 291.622 165.411 291.414C164.196 290.895 163.052 290.403 161.908 289.834C157.475 287.689 153.186 284.91 149.254 281.653C148.181 280.73 147.037 279.781 146.036 278.808C138.029 271.253 131.38 261.833 127.091 251.675C126.519 250.325 126.018 249.002 125.518 247.679C123.802 242.794 122.587 237.862 122.086 232.887C121.943 231.618 121.872 230.298 121.8 228.979C121.8 228.37 121.729 227.736 121.729 227.051C121.729 225.149 121.8 223.349 122.015 221.601C122.158 220.512 122.301 219.423 122.515 218.36C123.373 213.955 124.803 209.986 126.876 206.633C127.305 205.876 127.806 205.145 128.378 204.44C129.093 203.483 129.808 202.602 130.594 201.747C131.309 200.942 132.095 200.239 132.882 199.536C132.953 199.486 133.096 199.386 133.168 199.336L139.316 208.117C139.173 208.217 139.102 208.343 138.959 208.443C138.315 209.046 137.672 209.725 137.028 210.404C134.526 213.373 132.596 217.007 131.523 221.334C131.237 222.447 131.023 223.51 130.88 224.676C130.594 226.473 130.451 228.323 130.451 230.302C130.451 231.138 130.451 231.975 130.522 232.838C130.594 233.853 130.665 234.868 130.808 235.91C131.166 238.702 131.809 241.6 132.596 244.32C132.882 245.337 133.239 246.304 133.597 247.348C134.169 248.925 134.812 250.453 135.527 252.006C136.099 253.204 136.671 254.325 137.243 255.446C138.315 257.358 139.459 259.22 140.674 261.032C141.032 261.542 141.389 262.053 141.747 262.563C143.034 264.325 144.464 266.063 145.893 267.724C146.751 268.721 147.681 269.668 148.61 270.539C149.826 271.742 151.041 272.869 152.328 273.87C153.114 274.537 153.901 275.127 154.687 275.718C157.046 277.49 159.477 278.983 161.979 280.274C162.98 280.791 163.91 281.205 164.911 281.645C165.626 281.982 166.341 282.242 167.055 282.502C168.914 283.179 170.702 283.677 172.489 284.023C173.633 284.287 174.848 284.425 175.921 284.511C180.353 284.907 184.428 284.413 188.074 283.001C188.861 282.678 189.576 282.33 190.362 282.007C191.435 281.409 192.507 280.81 193.436 280.083C194.223 279.532 194.938 278.88 195.581 278.201C200.586 273.327 203.66 266.001 203.66 256.795C203.66 252.687 203.088 248.522 201.944 244.378C201.658 243.209 201.301 242.014 200.872 240.868C197.154 230.081 190.076 219.897 181.14 212.612C180.21 211.893 179.281 211.175 178.28 210.43C174.705 207.912 170.916 205.848 166.984 204.417C158.548 201.574 150.612 201.881 144.321 204.917C143.963 205.091 143.677 205.292 143.32 205.466L141.461 202.811L138.744 198.931L137.1 196.583C137.457 196.409 137.815 196.158 138.172 195.984C139.173 195.512 140.174 195.039 141.246 194.592C142.247 194.196 143.248 193.875 144.321 193.657C148.11 192.678 152.185 192.411 156.546 192.857C157.69 192.969 158.834 193.157 159.978 193.345C162.337 193.824 164.696 194.454 167.127 195.339C167.413 195.519 167.627 195.597 167.842 195.675ZM167.127 210.631C184.214 216.85 198.155 236.76 198.155 254.944C198.155 273.127 184.285 282.915 167.127 276.67C150.04 270.451 136.099 250.541 136.099 232.357C136.099 224.369 138.816 217.978 143.32 213.911L150.255 223.815C147.538 226.63 145.893 230.825 145.893 235.922C145.893 248.4 155.402 261.979 167.127 266.247C178.852 270.514 188.36 263.856 188.36 251.379C188.36 238.902 178.852 225.322 167.127 221.054C162.265 219.285 157.833 219.421 154.258 221.011L147.323 211.108C152.685 208.266 159.62 207.899 167.127 210.631ZM167.127 226.989C171.202 228.472 174.991 231.525 177.779 235.279C178.065 235.687 178.423 236.121 178.709 236.606C181.283 240.51 182.784 245.013 182.784 249.273C182.784 252.24 182.069 254.719 180.782 256.609C180.21 257.542 179.495 258.347 178.637 258.948C177.779 259.625 176.779 260.173 175.706 260.544C174.705 260.864 173.561 261.057 172.417 261.097C170.773 261.107 168.986 260.837 167.127 260.16C166.412 259.9 165.626 259.538 164.911 259.201C163.838 258.659 162.766 257.964 161.765 257.22C157.404 253.958 153.972 249.058 152.399 243.844C152.042 242.725 151.756 241.48 151.613 240.362C151.47 239.473 151.47 238.637 151.47 237.8C151.47 235.822 151.756 234.1 152.399 232.584C152.828 231.447 153.4 230.514 154.044 229.607C154.115 229.481 154.187 229.43 154.258 229.304L160.121 237.677C160.049 237.803 159.978 237.929 159.978 238.081C159.692 238.738 159.549 239.599 159.549 240.436C159.549 240.512 159.549 240.588 159.549 240.664C159.549 245.153 162.98 250.054 167.198 251.589C167.341 251.641 167.556 251.719 167.699 251.771C168.414 251.955 169.057 252.037 169.701 252.043C170.988 252.055 172.131 251.635 172.989 250.882C173.776 250.179 174.348 249.246 174.634 248.057C174.777 247.5 174.848 246.917 174.848 246.233C174.848 241.744 171.417 236.843 167.198 235.308C166.627 235.099 166.055 234.967 165.483 234.911C165.054 234.831 164.553 234.877 164.124 234.873L162.623 232.729L159.906 228.849L158.262 226.729C158.691 226.581 159.12 226.433 159.549 226.361C161.765 225.798 164.41 226 167.127 226.989ZM109.361 148.978L109.432 147.255L111.72 150.522L114.508 154.504L116.939 157.975L119.227 161.243L118.44 174.119L112.506 172.339L109.361 171.422L106.072 170.454L96.2773 156.466L99.9234 157.565L101.067 157.905L106.286 159.424C107.716 159.868 108.789 159.041 108.932 157.572L109.361 148.978Z" fill="white"/>
<defs>
<filter id="filter0_f_1031_13616" x="57.9297" y="119.672" width="189" height="222.57" filterUnits="userSpaceOnUse" color-interpolation-filters="sRGB">
<feFlood flood-opacity="0" result="BackgroundImageFix"/>
<feBlend mode="normal" in="SourceGraphic" in2="BackgroundImageFix" result="shape"/>
<feGaussianBlur stdDeviation="14.5" result="effect1_foregroundBlur_1031_13616"/>
</filter>
</defs>
</svg>
