<svg width="363" height="618" viewBox="0 0 363 618" fill="none" xmlns="http://www.w3.org/2000/svg">
<rect y="34" width="363" height="584" rx="24" fill="white"/>
<path d="M271.815 53.7388V297.994L184.195 247.642V3.62891L271.815 53.7388Z" fill="#D0EAF4" fill-opacity="0.38"/>
<path d="M197.746 250.828V266.563L138.203 232.43V216.695L197.746 250.828Z" fill="url(#paint0_linear_1031_14373)"/>
<path d="M197.75 250.828V266.563L257.051 231.462V215.727L197.75 250.828Z" fill="url(#paint1_linear_1031_14373)"/>
<path d="M257.047 215.727L197.746 250.828L138.203 216.695L197.746 181.594L257.047 215.727Z" fill="url(#paint2_linear_1031_14373)"/>
<path d="M197.505 264.868L198.473 250.586L256.079 216.453L197.747 248.891L139.656 217.664L197.021 251.07L197.505 264.868Z" fill="white"/>
<path d="M197.746 170.828V186.563L138.203 152.43V136.695L197.746 170.828Z" fill="url(#paint3_linear_1031_14373)"/>
<path d="M197.75 170.828V186.563L257.051 151.462V135.727L197.75 170.828Z" fill="url(#paint4_linear_1031_14373)"/>
<path d="M257.047 135.727L197.746 170.828L138.203 136.695L197.746 101.594L257.047 135.727Z" fill="url(#paint5_linear_1031_14373)"/>
<path d="M197.505 184.868L198.473 170.586L256.079 136.453L197.747 168.891L139.656 137.664L197.021 171.07L197.505 184.868Z" fill="white"/>
<path d="M197.746 144.008V159.743L138.203 125.852V110.117L197.746 144.008Z" fill="url(#paint6_linear_1031_14373)"/>
<path d="M197.75 144.007V159.742L257.051 124.641V108.906L197.75 144.007Z" fill="url(#paint7_linear_1031_14373)"/>
<path d="M257.047 108.906L197.746 144.007L138.203 110.117L197.746 74.7734L257.047 108.906Z" fill="url(#paint8_linear_1031_14373)"/>
<path d="M197.505 158.29L198.473 143.766L256.079 109.875L197.747 142.071L139.656 111.085L197.021 144.492L197.505 158.29Z" fill="white"/>
<path d="M197.746 120.156V135.891L138.203 101.758V86.0234L197.746 120.156Z" fill="url(#paint9_linear_1031_14373)"/>
<path d="M197.75 120.156V135.891L257.051 100.79V85.0547L197.75 120.156Z" fill="url(#paint10_linear_1031_14373)"/>
<path d="M257.047 85.0547L197.746 120.156L138.203 86.023L197.746 50.9219L257.047 85.0547Z" fill="url(#paint11_linear_1031_14373)"/>
<path d="M197.505 134.197L198.473 119.914L256.079 85.7812L197.747 118.22L139.656 86.9916L197.021 120.398L197.505 134.197Z" fill="white"/>
<path d="M223.639 95.9474L220.25 94.0108L223.639 92.0742L226.785 94.0108L223.639 95.9474Z" fill="white"/>
<path d="M203.312 103.938L217.835 95.4648L221.224 97.4015L206.459 105.632L203.312 103.938Z" fill="white"/>
<path d="M216.376 87.4766L219.523 89.4132L208.631 95.7072L205.242 93.7706L216.376 87.4766Z" fill="white"/>
<path d="M201.616 78.2773L205.005 80.214L190.482 88.6866L187.094 86.75L201.616 78.2773Z" fill="white"/>
<path d="M194.103 73.9219L197.25 75.8585L187.326 81.4262L183.938 79.7317L194.103 73.9219Z" fill="white"/>
<path d="M200.89 87.7188L204.036 89.4133L189.514 97.886L186.125 95.9493L200.89 87.7188Z" fill="white"/>
<path d="M193.861 65.207L197.25 67.1437L187.326 72.7114L183.938 70.7748L193.861 65.207Z" fill="white"/>
<path d="M181.523 72.2266L184.911 74.1632L170.147 82.6359L167 80.6992L181.523 72.2266Z" fill="white"/>
<path d="M221.951 87.9593L218.562 86.0227L221.951 84.3281L225.34 86.2647L221.951 87.9593Z" fill="white"/>
<path d="M206.451 88.2035L203.062 86.2669L213.228 80.457L216.375 82.3937L206.451 88.2035Z" fill="white"/>
<path d="M207.428 78.7601L204.039 76.8234L207.428 75.1289L210.574 77.0655L207.428 78.7601Z" fill="white"/>
<path d="M215.648 79.002L222.668 74.8867L226.056 76.8233L218.795 80.9386L215.648 79.002Z" fill="white"/>
<path d="M188.061 89.8975L175.475 97.1598L172.328 95.2232L184.672 87.9609L188.061 89.8975Z" fill="white"/>
<path d="M187.097 99.339L183.225 101.518L179.836 99.581L183.709 97.4023L187.097 99.339Z" fill="white"/>
<path d="M184.918 82.878L167.975 92.8032L164.586 90.8666L181.771 80.9414L184.918 82.878Z" fill="white"/>
<path d="M196.289 63.753L199.92 61.8164L203.066 63.753L199.678 65.6896L196.289 63.753Z" fill="white"/>
<path d="M164.581 82.1484L167.97 84.0851L160.225 88.4424L156.836 86.5058L164.581 82.1484Z" fill="white"/>
<path d="M206.208 97.1592L190.717 106.116L187.57 104.179L202.819 95.2227L206.208 97.1592Z" fill="white"/>
<path d="M196.539 72.4698L207.431 66.1758L210.82 68.1124L199.686 74.4064L196.539 72.4698Z" fill="white"/>
<path d="M209.852 73.6782L215.177 70.5312L218.323 72.4679L212.998 75.6149L209.852 73.6782Z" fill="white"/>
<path d="M204.276 107.085L198.467 110.474L195.078 108.538L200.887 105.148L204.276 107.085Z" fill="white"/>
<path d="M224.367 82.8774L230.418 79.4883L233.807 81.4249L227.756 84.814L224.367 82.8774Z" fill="white"/>
<path d="M225.82 90.864L237.923 83.8438L241.311 85.7804L229.209 92.8006L225.82 90.864Z" fill="white"/>
<path d="M182.501 105.304V359.001L91.4922 306.954V53.2578L182.501 105.304Z" fill="#E6F6FD"/>
<path d="M273.509 52.2885L182.501 105.303L91.4922 53.2568L182.501 0L273.509 52.2885Z" fill="#D0EAF4"/>
<path d="M182.5 105.304V359L273.509 305.985V52.2891L182.5 105.304ZM194.118 117.166L261.648 77.9492V295.576L194.118 334.792V117.166Z" fill="#D0EAF4"/>
<path d="M104.797 95.6822C104.797 94.7946 105.758 94.2403 106.526 94.6851L127.216 106.665C127.572 106.871 127.791 107.251 127.791 107.662V107.662C127.791 108.55 126.83 109.104 126.061 108.659L105.372 96.6793C105.016 96.4733 104.797 96.0933 104.797 95.6822V95.6822Z" fill="white"/>
<path d="M104.797 103.242C104.797 102.434 105.67 101.926 106.373 102.326L127.21 114.171C127.569 114.376 127.791 114.757 127.791 115.171V115.171C127.791 116.056 126.832 116.609 126.065 116.165L105.323 104.155C104.997 103.967 104.797 103.619 104.797 103.242V103.242Z" fill="white"/>
<path d="M104.797 110.746C104.797 109.938 105.67 109.43 106.373 109.829L127.21 121.675C127.569 121.879 127.791 122.261 127.791 122.675V122.675C127.791 123.56 126.832 124.113 126.065 123.669L105.323 111.659C104.997 111.47 104.797 111.123 104.797 110.746V110.746Z" fill="white"/>
<path d="M104.797 118.25C104.797 117.441 105.67 116.934 106.373 117.333L127.21 129.179C127.569 129.383 127.791 129.765 127.791 130.178V130.178C127.791 131.064 126.832 131.617 126.065 131.173L105.323 119.163C104.997 118.974 104.797 118.627 104.797 118.25V118.25Z" fill="white"/>
<path d="M104.797 133.266C104.797 132.459 105.671 131.955 106.369 132.36L127.268 144.461C127.592 144.648 127.791 144.994 127.791 145.367V145.367C127.791 146.174 126.917 146.678 126.219 146.274L105.319 134.173C104.996 133.985 104.797 133.64 104.797 133.266V133.266Z" fill="white"/>
<path d="M104.797 140.77C104.797 139.963 105.671 139.459 106.369 139.864L127.268 151.965C127.592 152.152 127.791 152.497 127.791 152.871V152.871C127.791 153.678 126.917 154.182 126.219 153.778L105.319 141.676C104.996 141.489 104.797 141.144 104.797 140.77V140.77Z" fill="white"/>
<defs>
<linearGradient id="paint0_linear_1031_14373" x1="275.731" y1="265.793" x2="55.4394" y2="216.417" gradientUnits="userSpaceOnUse">
<stop offset="0.0353535" stop-color="#138BBD"/>
<stop offset="0.2257" stop-color="#169AC7"/>
<stop offset="0.5946" stop-color="#1FC3DF"/>
<stop offset="1" stop-color="#2AF6FF"/>
</linearGradient>
<linearGradient id="paint1_linear_1031_14373" x1="202.437" y1="263.113" x2="350.53" y2="195.26" gradientUnits="userSpaceOnUse">
<stop stop-color="#02295F"/>
<stop offset="1" stop-color="#2394BC"/>
</linearGradient>
<linearGradient id="paint2_linear_1031_14373" x1="123.051" y1="207.73" x2="271.011" y2="207.73" gradientUnits="userSpaceOnUse">
<stop stop-color="#02295F"/>
<stop offset="1" stop-color="#2394BC"/>
</linearGradient>
<linearGradient id="paint3_linear_1031_14373" x1="275.731" y1="185.793" x2="55.4394" y2="136.417" gradientUnits="userSpaceOnUse">
<stop offset="0.0353535" stop-color="#138BBD"/>
<stop offset="0.2257" stop-color="#169AC7"/>
<stop offset="0.5946" stop-color="#1FC3DF"/>
<stop offset="1" stop-color="#2AF6FF"/>
</linearGradient>
<linearGradient id="paint4_linear_1031_14373" x1="202.437" y1="183.113" x2="350.53" y2="115.26" gradientUnits="userSpaceOnUse">
<stop stop-color="#02295F"/>
<stop offset="1" stop-color="#2394BC"/>
</linearGradient>
<linearGradient id="paint5_linear_1031_14373" x1="123.051" y1="127.73" x2="271.011" y2="127.73" gradientUnits="userSpaceOnUse">
<stop stop-color="#02295F"/>
<stop offset="1" stop-color="#2394BC"/>
</linearGradient>
<linearGradient id="paint6_linear_1031_14373" x1="275.731" y1="159.094" x2="55.4394" y2="109.719" gradientUnits="userSpaceOnUse">
<stop offset="0.0353535" stop-color="#138BBD"/>
<stop offset="0.2257" stop-color="#169AC7"/>
<stop offset="0.5946" stop-color="#1FC3DF"/>
<stop offset="1" stop-color="#2AF6FF"/>
</linearGradient>
<linearGradient id="paint7_linear_1031_14373" x1="206.206" y1="149.108" x2="311.218" y2="106.565" gradientUnits="userSpaceOnUse">
<stop stop-color="#02295F"/>
<stop offset="1" stop-color="#2394BC"/>
</linearGradient>
<linearGradient id="paint8_linear_1031_14373" x1="123.051" y1="100.909" x2="271.011" y2="100.909" gradientUnits="userSpaceOnUse">
<stop stop-color="#02295F"/>
<stop offset="1" stop-color="#2394BC"/>
</linearGradient>
<linearGradient id="paint9_linear_1031_14373" x1="275.731" y1="135.11" x2="55.4394" y2="85.7344" gradientUnits="userSpaceOnUse">
<stop offset="0.0353535" stop-color="#138BBD"/>
<stop offset="0.2257" stop-color="#169AC7"/>
<stop offset="0.5946" stop-color="#1FC3DF"/>
<stop offset="1" stop-color="#2AF6FF"/>
</linearGradient>
<linearGradient id="paint10_linear_1031_14373" x1="222.362" y1="122.489" x2="326.296" y2="65.4062" gradientUnits="userSpaceOnUse">
<stop stop-color="#02295F"/>
<stop offset="1" stop-color="#2394BC"/>
</linearGradient>
<linearGradient id="paint11_linear_1031_14373" x1="123.051" y1="77.0577" x2="271.011" y2="77.0577" gradientUnits="userSpaceOnUse">
<stop stop-color="#02295F"/>
<stop offset="1" stop-color="#2394BC"/>
</linearGradient>
</defs>
</svg>
