<svg width="363" height="584" viewBox="0 0 363 584" fill="none" xmlns="http://www.w3.org/2000/svg">
<rect x="0.5" y="0.5" width="362" height="583" rx="23.5" stroke="#6B9CC6" stroke-opacity="0.26"/>
<rect x="68" y="60" width="227" height="252" rx="22" fill="white" fill-opacity="0.22"/>
<rect x="68.5" y="60.5" width="226" height="251" rx="21.5" stroke="white" stroke-opacity="0.49"/>
<path d="M271 185.5C271 234.929 230.929 275 181.5 275C132.071 275 92 234.929 92 185.5C92 136.071 132.071 96 181.5 96C230.929 96 271 136.071 271 185.5ZM129.163 185.5C129.163 214.405 152.595 237.837 181.5 237.837C210.405 237.837 233.837 214.405 233.837 185.5C233.837 156.595 210.405 133.163 181.5 133.163C152.595 133.163 129.163 156.595 129.163 185.5Z" fill="#D0EAF4"/>
<path d="M110.581 185.5C100.319 185.5 91.8067 193.906 93.922 203.948C95.0582 209.342 96.6931 214.633 98.8128 219.75C103.311 230.609 109.903 240.475 118.214 248.786C126.525 257.097 136.391 263.689 147.25 268.187C152.367 270.307 157.658 271.942 163.052 273.078C173.094 275.193 181.5 266.681 181.5 256.419V256.419C181.5 246.156 172.929 238.141 163.306 234.573C162.691 234.345 162.079 234.105 161.471 233.853C155.122 231.223 149.352 227.368 144.492 222.508C139.632 217.648 135.777 211.878 133.147 205.529C132.895 204.921 132.655 204.309 132.427 203.694C128.859 194.071 120.844 185.5 110.581 185.5V185.5Z" fill="url(#paint0_linear_1031_14444)"/>
<defs>
<linearGradient id="paint0_linear_1031_14444" x1="192" y1="275" x2="84" y2="230.5" gradientUnits="userSpaceOnUse">
<stop stop-color="#02295F"/>
<stop offset="1" stop-color="#2394BC"/>
</linearGradient>
</defs>
</svg>
