<svg width="370" height="611" viewBox="0 0 370 611" fill="none" xmlns="http://www.w3.org/2000/svg">
<g filter="url(#filter0_bi_1031_14570)">
<rect x="7" y="27" width="363" height="584" rx="24" fill="white"/>
<rect x="7.5" y="27.5" width="362" height="583" rx="23.5" stroke="#6B9CC6" stroke-opacity="0.26"/>
</g>
<path d="M172.825 84.9776L201.251 84.8867L218.688 98.8839C215.964 104.065 213.602 111.609 212.513 121.607C212.058 125.878 211.877 129.969 211.786 133.695C199.162 133.786 161.019 132.604 160.656 132.604C160.565 128.787 160.746 124.515 161.2 120.152C162.835 105.701 166.649 94.0667 172.825 84.9776Z" stroke="#6B9CC6" stroke-width="1.0086" stroke-miterlimit="10"/>
<path d="M172.825 84.9776L201.251 84.8867L218.688 98.8839C215.964 104.065 213.602 111.609 212.513 121.607C212.058 125.878 211.877 129.969 211.786 133.695C199.162 133.786 161.019 132.604 160.656 132.604C160.565 128.787 160.746 124.515 161.2 120.152C162.835 105.701 166.649 94.0667 172.825 84.9776Z" stroke="url(#paint0_linear_1031_14570)" stroke-width="1.0086" stroke-miterlimit="10"/>
<path d="M203.497 44.2656L203.588 71.1693L174.708 71.2602L174.617 44.3565L203.497 44.2656Z" fill="url(#paint1_linear_1031_14570)"/>
<path d="M324.563 29.9922L324.654 56.8959L313.938 72.2564V45.3527L324.563 29.9922Z" fill="url(#paint2_linear_1031_14570)"/>
<path d="M303.835 70.9819L303.925 97.8856C303.925 91.1596 299.475 84.3428 290.666 79.2529C290.212 78.9803 289.667 78.7076 289.213 78.4349L289.031 51.5312C289.485 51.8039 290.03 52.0766 290.484 52.3493C299.385 57.4392 303.835 64.1651 303.835 70.9819Z" fill="url(#paint3_linear_1031_14570)"/>
<mask id="mask0_1031_14570" style="mask-type:luminance" maskUnits="userSpaceOnUse" x="289" y="51" width="15" height="47">
<path d="M303.842 70.978L303.933 97.8817C303.933 91.1557 299.483 84.3389 290.674 79.249C290.22 78.9764 289.675 78.7037 289.221 78.431L289.039 51.5273C289.493 51.8 290.038 52.0727 290.492 52.3454C299.392 57.4352 303.842 64.1612 303.842 70.978Z" fill="white"/>
</mask>
<g mask="url(#mask0_1031_14570)">
<path d="M303.842 70.978L303.933 97.8817C303.933 91.1557 299.483 84.3389 290.674 79.249C290.22 78.9764 289.675 78.7037 289.221 78.431L289.039 51.5273C289.493 51.8 290.038 52.0727 290.492 52.3454C299.392 57.4352 303.842 64.1612 303.842 70.978Z" fill="url(#paint4_linear_1031_14570)"/>
</g>
<path d="M160.731 119.521L160.641 92.6172C160.641 93.3443 160.641 93.9806 160.641 94.6168L160.731 121.52C160.731 120.884 160.731 120.157 160.731 119.521Z" fill="url(#paint5_linear_1031_14570)"/>
<mask id="mask1_1031_14570" style="mask-type:luminance" maskUnits="userSpaceOnUse" x="160" y="92" width="1" height="30">
<path d="M160.724 119.517L160.633 92.6133C160.633 93.3404 160.633 93.9766 160.633 94.6129L160.724 121.517C160.724 120.88 160.724 120.153 160.724 119.517Z" fill="white"/>
</mask>
<g mask="url(#mask1_1031_14570)">
<path d="M160.717 94.6129L160.807 121.517C160.807 120.88 160.807 120.153 160.807 119.517L160.717 92.6133C160.626 93.2495 160.626 93.9766 160.717 94.6129Z" fill="url(#paint6_linear_1031_14570)"/>
</g>
<path d="M212.036 117.701C212.036 117.337 212.036 116.883 212.127 116.519C212.127 115.883 212.218 115.246 212.218 114.519C212.218 114.156 212.218 113.883 212.309 113.52C212.399 112.52 212.49 111.52 212.581 110.429C212.672 109.793 212.763 109.248 212.763 108.611C212.763 108.43 212.853 108.248 212.853 107.975C212.944 107.612 212.944 107.248 213.035 106.794C213.035 106.521 213.126 106.339 213.126 106.067C213.217 105.703 213.217 105.43 213.308 105.067C213.308 104.794 213.398 104.612 213.398 104.34C213.489 104.067 213.489 103.794 213.58 103.522C213.762 102.613 213.943 101.795 214.125 100.977C214.125 100.795 214.216 100.704 214.216 100.522C214.397 99.7041 214.579 98.977 214.761 98.159C214.761 98.0681 214.851 97.8863 214.851 97.7954C215.033 97.0683 215.306 96.2503 215.487 95.5232C215.487 95.4323 215.487 95.3414 215.578 95.3414C215.85 94.6143 216.032 93.8871 216.305 93.2509V93.16C216.486 92.7056 216.668 92.2511 216.849 91.7966C216.94 91.7058 216.94 91.524 217.031 91.4331C217.122 91.0695 217.304 90.7968 217.394 90.4333C217.485 90.2515 217.485 90.1606 217.576 89.9788C217.667 89.7062 217.848 89.3426 217.939 89.0699C218.03 88.979 218.03 88.7972 218.121 88.7064C218.303 88.3428 218.484 87.8883 218.666 87.5248L218.575 60.6211C218.393 60.9847 218.212 61.3482 218.03 61.8027C217.939 61.8936 217.939 62.0753 217.848 62.1662C217.758 62.4389 217.576 62.7116 217.485 63.0751C217.394 63.2569 217.394 63.3478 217.304 63.5296C217.213 63.8023 217.031 64.1658 216.94 64.5294C216.849 64.6203 216.849 64.8021 216.759 64.893C216.577 65.3474 216.395 65.8019 216.214 66.2563V66.3472C215.941 66.9835 215.76 67.7106 215.487 68.4377C215.487 68.5286 215.487 68.6195 215.396 68.6195C215.215 69.3466 214.942 70.0737 214.761 70.8918C214.761 70.9826 214.67 71.1644 214.67 71.2553C214.488 71.9824 214.307 72.8005 214.125 73.6185C214.125 73.8003 214.034 73.8912 214.034 74.0729C213.852 74.891 213.671 75.709 213.489 76.6179C213.489 76.7088 213.489 76.7088 213.489 76.7088C213.489 76.9814 213.398 77.1632 213.398 77.4359C213.398 77.7086 213.308 77.8904 213.308 78.163C213.217 78.5266 213.217 78.7993 213.126 79.1628C213.126 79.4355 213.035 79.6173 213.035 79.8899C212.944 80.2535 212.944 80.708 212.853 81.0715C212.853 81.2533 212.763 81.4351 212.763 81.6169C212.672 82.2531 212.581 82.7985 212.581 83.4347C212.49 84.4345 212.399 85.4343 212.309 86.4341C212.309 86.7977 212.218 87.0703 212.218 87.4339C212.127 88.0701 212.127 88.7064 212.127 89.4335C212.127 89.797 212.127 90.2515 212.036 90.6151C212.036 91.1604 211.945 91.7966 211.945 92.342C211.945 92.7056 211.945 93.16 211.945 93.5236C211.945 93.8871 211.945 94.2507 211.945 94.5234C211.945 94.8869 211.945 95.1596 211.945 95.5232L212.036 122.427C212.036 121.791 212.036 121.063 212.036 120.427C212.036 120.064 212.036 119.609 212.036 119.246C211.945 118.882 212.036 118.246 212.036 117.701Z" fill="url(#paint7_linear_1031_14570)"/>
<path d="M211.838 122.608L211.747 95.7045C211.474 95.7045 211.293 95.7045 211.02 95.7045C210.929 95.7045 210.839 95.7045 210.748 95.7045C210.566 95.7045 210.384 95.7045 210.203 95.7045C210.112 95.7045 210.021 95.7045 209.93 95.7045C209.658 95.7045 209.385 95.7045 209.113 95.7045C208.841 95.7045 208.477 95.7045 208.205 95.7045C208.114 95.7045 208.023 95.7045 207.932 95.7045C207.66 95.7045 207.478 95.7045 207.206 95.7045C207.115 95.7045 207.024 95.7045 206.933 95.7045C206.661 95.7045 206.479 95.7045 206.207 95.7045C206.116 95.7045 206.025 95.7045 205.844 95.7045C205.571 95.7045 205.208 95.7045 204.935 95.7045C204.754 95.7045 204.663 95.7045 204.481 95.7045C204.3 95.7045 204.118 95.7045 203.936 95.7045C203.755 95.7045 203.573 95.7045 203.482 95.7045C203.21 95.7045 203.028 95.7045 202.756 95.7045C202.665 95.7045 202.483 95.7045 202.392 95.7045C202.029 95.7045 201.666 95.7045 201.303 95.7045C201.121 95.7045 201.03 95.7045 200.849 95.7045C200.576 95.7045 200.394 95.7045 200.122 95.7045C199.94 95.7045 199.759 95.7045 199.577 95.7045C199.305 95.7045 199.123 95.7045 198.851 95.7045C198.76 95.7045 198.578 95.7045 198.487 95.7045C198.124 95.7045 197.761 95.7045 197.307 95.7045C197.216 95.7045 197.034 95.7045 196.943 95.7045C196.671 95.7045 196.398 95.7045 196.035 95.7045C195.854 95.7045 195.672 95.7045 195.581 95.7045C195.399 95.7045 195.127 95.7045 194.945 95.7045C194.764 95.7045 194.491 95.7045 194.31 95.7045C193.946 95.7045 193.492 95.7045 193.129 95.7045C193.038 95.7045 192.947 95.7045 192.857 95.7045C192.493 95.7045 192.221 95.7045 191.858 95.7045C191.676 95.7045 191.494 95.7045 191.313 95.7045C191.131 95.7045 190.949 95.7045 190.768 95.7045C190.495 95.7045 190.223 95.7045 189.95 95.7045C189.587 95.7045 189.224 95.7045 188.861 95.7045C188.679 95.7045 188.588 95.7045 188.406 95.7045C188.134 95.7045 187.862 95.7045 187.589 95.7045C187.407 95.7045 187.226 95.7045 187.044 95.7045C186.681 95.7045 186.408 95.7045 186.045 95.7045C185.954 95.7045 185.864 95.7045 185.773 95.7045C185.409 95.7045 184.955 95.7045 184.592 95.7045C184.41 95.7045 184.138 95.7045 183.956 95.7045C183.684 95.7045 183.412 95.7045 183.23 95.7045C183.048 95.7045 182.957 95.7045 182.776 95.7045C182.413 95.7045 182.049 95.7045 181.686 95.7045C181.595 95.7045 181.595 95.7045 181.504 95.7045C181.05 95.7045 180.596 95.7045 180.233 95.7045C180.051 95.7045 179.96 95.7045 179.779 95.7045C179.597 95.7045 179.325 95.7045 179.143 95.7045C178.961 95.7045 178.689 95.7045 178.507 95.7045C178.235 95.7045 177.962 95.7045 177.69 95.7045C177.599 95.7045 177.508 95.7045 177.327 95.7045C175.601 95.7045 173.876 95.6136 172.332 95.6136C172.241 95.6136 172.241 95.6136 172.15 95.6136C170.243 95.5227 168.427 95.5227 166.883 95.4318H166.792C166.519 95.4318 166.247 95.4318 165.974 95.4318C165.884 95.4318 165.884 95.4318 165.793 95.4318C162.523 95.3409 160.435 95.25 160.344 95.25L160.435 122.154C160.435 122.154 160.525 122.154 160.616 122.154C160.707 122.154 160.798 122.154 160.979 122.154C161.07 122.154 161.07 122.154 161.161 122.154H161.252C161.524 122.154 161.888 122.154 162.342 122.154C162.523 122.154 162.796 122.154 162.977 122.154C163.25 122.154 163.613 122.154 163.976 122.154C164.34 122.154 164.703 122.154 165.157 122.154C165.339 122.154 165.611 122.154 165.793 122.154C165.884 122.154 165.974 122.154 166.065 122.154C166.338 122.154 166.61 122.154 166.883 122.154C167.155 122.154 167.518 122.154 167.882 122.154C167.972 122.154 167.972 122.154 168.063 122.154C168.245 122.154 168.427 122.154 168.608 122.154C168.79 122.154 168.971 122.154 169.153 122.154C169.789 122.154 170.425 122.154 171.06 122.245C171.151 122.245 171.333 122.245 171.424 122.245C171.696 122.245 172.059 122.245 172.332 122.245C172.423 122.245 172.423 122.245 172.513 122.245C173.24 122.245 173.966 122.245 174.693 122.335C174.875 122.335 175.056 122.335 175.147 122.335C175.42 122.335 175.692 122.335 175.964 122.335C176.055 122.335 176.146 122.335 176.146 122.335C176.509 122.335 176.963 122.335 177.418 122.335H177.508C178.326 122.335 179.234 122.335 180.051 122.426H180.142C180.596 122.426 181.05 122.426 181.504 122.426C181.595 122.426 181.595 122.426 181.686 122.426C182.049 122.426 182.413 122.426 182.776 122.426C182.957 122.426 183.048 122.426 183.23 122.426C183.593 122.426 183.956 122.426 184.32 122.426C184.41 122.426 184.41 122.426 184.501 122.426C184.955 122.426 185.409 122.426 185.864 122.426C185.954 122.426 185.954 122.426 186.045 122.426C186.408 122.426 186.772 122.426 187.135 122.426C187.317 122.426 187.407 122.426 187.589 122.426C187.952 122.426 188.225 122.426 188.588 122.426C188.679 122.426 188.77 122.426 188.861 122.426C189.315 122.426 189.769 122.426 190.132 122.426C190.223 122.426 190.223 122.426 190.314 122.426C190.677 122.426 191.04 122.426 191.403 122.426C191.494 122.426 191.676 122.426 191.767 122.426C192.13 122.426 192.493 122.426 192.857 122.426C192.947 122.426 192.947 122.426 193.038 122.426C193.038 122.426 193.038 122.426 193.129 122.426C193.583 122.426 193.946 122.426 194.4 122.426C194.491 122.426 194.582 122.426 194.582 122.426C194.945 122.426 195.309 122.426 195.672 122.426C195.763 122.426 195.763 122.426 195.854 122.426C196.762 122.426 197.579 122.426 198.487 122.517C198.851 122.517 199.305 122.517 199.668 122.517C199.759 122.517 199.85 122.517 199.94 122.517C200.304 122.517 200.667 122.517 200.939 122.517C201.03 122.517 201.03 122.517 201.121 122.517C201.484 122.517 201.938 122.517 202.302 122.517H202.392C202.756 122.517 203.119 122.517 203.391 122.517C203.482 122.517 203.573 122.517 203.664 122.517C203.936 122.517 204.209 122.517 204.481 122.517C204.572 122.517 204.663 122.517 204.754 122.517C205.117 122.517 205.48 122.517 205.844 122.517H205.934C206.298 122.517 206.57 122.517 206.843 122.517C206.933 122.517 206.933 122.517 207.024 122.517C207.297 122.517 207.569 122.517 207.932 122.517H208.023C208.659 122.517 209.295 122.517 209.84 122.517C209.93 122.517 209.93 122.517 210.021 122.517C210.294 122.517 210.475 122.517 210.657 122.517C210.748 122.517 210.748 122.517 210.839 122.517C211.383 122.608 211.656 122.608 211.838 122.608Z" fill="url(#paint8_linear_1031_14570)"/>
<path d="M283.328 92.3398L283.419 119.244L280.513 135.695L280.422 108.791L283.328 92.3398Z" fill="url(#paint9_linear_1031_14570)"/>
<path d="M355.167 97.7084L355.076 70.8047C355.076 71.1683 355.076 71.4409 355.076 71.8045C355.076 72.0772 355.076 72.2589 355.076 72.5316C355.076 72.7134 355.076 72.9861 355.076 73.1679C355.076 73.4405 355.076 73.6223 354.985 73.895C354.985 74.0768 354.985 74.3494 354.894 74.5312C354.894 74.8039 354.803 74.9857 354.803 75.2583C354.803 75.4401 354.713 75.7128 354.713 75.8946C354.713 76.1673 354.622 76.349 354.622 76.6217C354.622 76.8035 354.531 77.0762 354.531 77.2579C354.531 77.5306 354.44 77.7124 354.349 77.9851C354.259 78.1668 354.259 78.4395 354.168 78.6213C354.077 78.894 354.077 79.0758 353.986 79.3484C353.895 79.5302 353.895 79.8029 353.804 79.9847C353.714 80.2573 353.714 80.4391 353.623 80.7118C353.532 80.8936 353.532 81.1662 353.441 81.348C353.35 81.6207 353.26 81.8025 353.169 82.0751C353.078 82.2569 352.987 82.5296 352.896 82.7114C352.805 82.9841 352.715 83.1658 352.624 83.4385C352.533 83.6203 352.442 83.893 352.351 84.0748C352.261 84.3474 352.17 84.5292 352.079 84.8019C351.988 84.9837 351.897 85.2563 351.806 85.4381C351.716 85.7108 351.625 85.8926 351.443 86.1652C351.352 86.347 351.262 86.6197 351.171 86.8015C351.08 87.0741 350.898 87.2559 350.807 87.5286C350.717 87.7104 350.626 87.8922 350.444 88.1648C350.263 88.5284 350.081 88.8011 349.899 89.1646C349.808 89.3464 349.718 89.4373 349.627 89.6191C349.354 90.0735 349.082 90.528 348.809 90.9825C348.809 91.0733 348.719 91.0733 348.719 91.1642C348.446 91.5278 348.174 91.9822 347.901 92.3458C347.81 92.5276 347.72 92.6185 347.538 92.8003C347.356 93.0729 347.084 93.4365 346.902 93.7092C346.811 93.891 346.63 93.9818 346.539 94.1636C346.267 94.5272 345.994 94.8908 345.722 95.2543C345.631 95.4361 345.449 95.6179 345.358 95.7088C345.086 96.0723 344.723 96.4359 344.45 96.7995C344.359 96.8904 344.269 97.0721 344.087 97.163C343.633 97.6175 343.179 98.1628 342.725 98.6173C342.634 98.7082 342.543 98.7991 342.452 98.89C342.089 99.2535 341.726 99.6171 341.362 99.9806C341.181 100.162 340.999 100.344 340.727 100.526C340.545 100.708 340.363 100.89 340.091 101.071C339.909 101.253 339.637 101.526 339.364 101.708C339.183 101.889 339.001 102.071 338.729 102.253C338.456 102.435 338.275 102.616 338.002 102.889C337.82 103.071 337.548 103.253 337.366 103.434C337.094 103.616 336.912 103.798 336.64 104.071C336.458 104.253 336.186 104.434 336.004 104.616C335.732 104.798 335.459 104.98 335.187 105.252C335.005 105.434 334.733 105.616 334.551 105.798C334.279 105.979 334.006 106.161 333.734 106.434C333.461 106.616 333.28 106.797 333.007 106.979C332.735 107.161 332.462 107.343 332.19 107.615C331.917 107.797 331.736 107.979 331.463 108.07C331.191 108.252 330.828 108.433 330.555 108.706C330.283 108.888 330.101 108.979 329.828 109.161C329.738 109.251 329.647 109.252 329.556 109.342C328.557 109.979 327.558 110.615 326.468 111.251C325.833 111.615 325.197 111.978 324.561 112.251C324.379 112.342 324.107 112.433 323.925 112.614C323.471 112.887 323.017 113.069 322.563 113.342C322.291 113.432 322.018 113.614 321.746 113.705C321.292 113.887 320.838 114.16 320.383 114.341C320.111 114.432 319.839 114.614 319.566 114.705C319.112 114.887 318.658 115.069 318.113 115.341C317.841 115.432 317.568 115.523 317.296 115.705C316.751 115.887 316.115 116.159 315.57 116.341C315.388 116.432 315.207 116.523 314.934 116.614C314.117 116.886 313.3 117.159 312.482 117.432C312.301 117.523 312.119 117.523 311.937 117.613C311.302 117.795 310.666 118.068 310.03 118.25C308.94 118.613 307.941 118.886 306.852 119.159L306.942 146.062C308.032 145.79 309.122 145.426 310.121 145.153C310.212 145.153 310.303 145.062 310.393 145.062C310.938 144.881 311.483 144.699 312.028 144.517C312.21 144.426 312.391 144.426 312.573 144.335C313.39 144.063 314.208 143.79 315.025 143.517C315.207 143.426 315.388 143.336 315.661 143.245C316.206 143.063 316.842 142.79 317.386 142.608C317.659 142.518 317.931 142.427 318.204 142.245C318.658 142.063 319.203 141.881 319.657 141.609C319.929 141.518 320.202 141.336 320.474 141.245C320.928 141.063 321.382 140.882 321.837 140.609C322.109 140.518 322.381 140.336 322.654 140.245C323.108 140.063 323.562 139.791 324.016 139.518C324.198 139.427 324.47 139.336 324.652 139.155C325.288 138.791 325.923 138.427 326.559 138.155C327.649 137.519 328.648 136.882 329.647 136.246C329.738 136.246 329.738 136.155 329.828 136.155L329.919 136.064C330.192 135.883 330.373 135.792 330.646 135.61C330.918 135.428 331.282 135.246 331.554 134.974C331.826 134.792 332.008 134.61 332.281 134.519C332.553 134.337 332.825 134.156 333.189 133.883C333.461 133.701 333.643 133.519 333.915 133.428C334.188 133.247 334.46 133.065 334.733 132.792C335.005 132.61 335.187 132.429 335.368 132.247C335.641 132.065 335.913 131.883 336.186 131.611C336.367 131.429 336.64 131.247 336.821 131.065C337.094 130.884 337.366 130.702 337.548 130.429C337.73 130.247 338.002 130.065 338.184 129.884C338.456 129.702 338.638 129.52 338.91 129.247C339.092 129.066 339.364 128.884 339.546 128.702C339.818 128.52 340 128.248 340.273 128.066C340.454 127.884 340.636 127.702 340.908 127.521C340.999 127.43 341.181 127.248 341.272 127.157C341.362 127.066 341.362 127.066 341.453 126.975C341.816 126.612 342.18 126.248 342.543 125.885C342.634 125.794 342.725 125.703 342.815 125.612C343.27 125.157 343.724 124.703 344.178 124.158C344.269 124.067 344.359 123.885 344.541 123.794C344.904 123.43 345.177 123.067 345.449 122.703C345.54 122.522 345.722 122.34 345.812 122.249C346.085 121.885 346.357 121.522 346.63 121.158C346.721 121.067 346.811 120.976 346.902 120.886C346.902 120.795 346.993 120.795 346.993 120.704C347.175 120.431 347.447 120.068 347.629 119.795C347.72 119.613 347.901 119.522 347.992 119.34C348.265 118.977 348.537 118.522 348.809 118.159C348.809 118.068 348.9 118.068 348.9 117.977C349.173 117.523 349.445 117.068 349.718 116.614C349.808 116.432 349.899 116.341 349.99 116.159C350.172 115.796 350.353 115.523 350.535 115.159L350.626 115.069C350.717 114.887 350.807 114.796 350.898 114.614C350.989 114.341 351.171 114.16 351.262 113.887C351.352 113.705 351.443 113.432 351.534 113.251C351.625 112.978 351.806 112.796 351.897 112.524C351.988 112.342 352.079 112.069 352.17 111.887C352.261 111.615 352.351 111.433 352.442 111.16C352.533 110.978 352.624 110.706 352.715 110.524C352.805 110.251 352.896 110.07 352.987 109.797C352.987 109.706 353.078 109.615 353.078 109.524C353.169 109.342 353.169 109.252 353.26 109.07C353.35 108.797 353.441 108.615 353.532 108.343C353.623 108.161 353.714 107.888 353.714 107.706C353.804 107.434 353.895 107.252 353.895 106.979C353.986 106.797 353.986 106.525 354.077 106.343C354.168 106.07 354.168 105.889 354.259 105.616C354.349 105.434 354.349 105.161 354.44 104.98C354.531 104.707 354.531 104.525 354.622 104.253C354.622 104.162 354.622 104.071 354.713 103.98C354.713 103.889 354.713 103.707 354.803 103.616C354.803 103.344 354.894 103.162 354.894 102.889C354.894 102.707 354.985 102.435 354.985 102.253C354.985 101.98 355.076 101.798 355.076 101.526C355.076 101.344 355.167 101.071 355.167 100.89C355.167 100.617 355.167 100.435 355.258 100.162C355.258 99.9806 355.258 99.708 355.258 99.5262C355.258 99.2535 355.258 99.0717 355.258 98.7991C355.258 98.7082 355.258 98.5264 355.258 98.4355C355.167 98.1628 355.167 97.981 355.167 97.7084Z" fill="url(#paint10_linear_1031_14570)"/>
<path d="M306.859 118.697L306.95 145.601L285.153 134.603L285.062 107.699L306.859 118.697Z" fill="url(#paint11_linear_1031_14570)"/>
<path d="M71.1874 121.342L71.2782 148.245L68.3721 132.158L68.2812 105.254L71.1874 121.342Z" fill="url(#paint12_linear_1031_14570)"/>
<path d="M98.5989 130.334L98.6897 157.238L71.2627 148.24L71.1719 121.336L98.5989 130.334Z" fill="url(#paint13_linear_1031_14570)"/>
<path d="M302.4 119.883C301.492 120.155 300.493 120.337 299.494 120.519C299.221 120.61 298.858 120.701 298.586 120.701C297.95 120.883 297.223 120.974 296.588 121.155C296.224 121.246 295.861 121.337 295.498 121.428C294.862 121.519 294.136 121.701 293.5 121.792C293.137 121.882 292.682 121.973 292.319 121.973C291.502 122.155 290.594 122.246 289.776 122.428C289.595 122.428 289.504 122.519 289.322 122.519C288.323 122.7 287.233 122.882 286.144 123.064C285.871 123.064 285.599 123.155 285.326 123.155C284.418 123.246 283.601 123.428 282.692 123.518C282.42 123.518 282.148 123.609 281.966 123.609C280.876 123.791 279.786 123.882 278.606 124.064C278.333 124.064 278.152 124.155 277.879 124.155C276.971 124.246 275.972 124.427 274.973 124.518C274.61 124.518 274.337 124.609 273.974 124.609C272.793 124.7 271.613 124.882 270.341 124.973C270.25 124.973 270.16 124.973 270.069 124.973C268.888 125.064 267.707 125.245 266.436 125.336C265.982 125.336 265.619 125.427 265.165 125.427C264.256 125.518 263.348 125.609 262.44 125.7C261.986 125.7 261.441 125.791 260.987 125.791C260.079 125.882 259.171 125.882 258.262 125.972C257.808 125.972 257.263 126.063 256.809 126.063C255.81 126.154 254.811 126.154 253.722 126.245C253.358 126.245 252.995 126.336 252.541 126.336C251.088 126.427 249.726 126.518 248.272 126.609C248 126.609 247.728 126.609 247.546 126.609C246.365 126.7 245.094 126.7 243.913 126.791C243.368 126.791 242.914 126.791 242.369 126.881C241.098 126.972 239.826 126.972 238.555 127.063C229.564 127.336 221.027 127.427 213.398 127.427C213.308 127.427 213.217 127.427 213.126 127.427C212.763 127.427 212.218 127.427 211.491 127.336C211.31 127.336 211.219 127.336 211.037 127.336C210.311 127.336 209.312 127.245 208.222 127.245C208.131 127.245 207.949 127.245 207.858 127.245C207.495 127.245 207.223 127.245 206.859 127.245C206.769 127.245 206.587 127.245 206.496 127.245C205.225 127.245 203.862 127.154 202.319 127.154C202.137 127.154 202.046 127.154 201.864 127.154C201.41 127.154 200.956 127.154 200.411 127.154C200.321 127.154 200.139 127.154 200.048 127.154C199.594 127.154 199.14 127.154 198.686 127.154C198.595 127.154 198.413 127.154 198.323 127.154C197.778 127.154 197.142 127.154 196.597 127.063H196.506C195.961 127.063 195.416 127.063 194.872 127.063C194.781 127.063 194.69 127.063 194.508 127.063C193.963 127.063 193.328 127.063 192.783 126.972C192.692 126.972 192.601 126.972 192.419 126.972C191.875 126.972 191.42 126.972 190.876 126.972C190.785 126.972 190.603 126.972 190.512 126.972C189.877 126.972 189.332 126.972 188.696 126.972C188.605 126.972 188.514 126.972 188.333 126.972C187.788 126.972 187.243 126.972 186.698 126.972C186.607 126.972 186.516 126.972 186.425 126.972C185.79 126.972 185.154 126.972 184.518 126.972C184.427 126.972 184.337 126.972 184.246 126.972C183.61 126.972 183.065 126.972 182.429 126.972C182.339 126.972 182.339 126.972 182.248 126.972C182.157 126.972 182.066 126.972 181.975 126.972C181.43 126.972 180.795 126.972 180.25 126.972C180.159 126.972 180.159 126.972 180.068 126.972C179.523 126.972 178.978 126.972 178.433 126.972C178.252 126.972 178.161 126.972 177.979 126.972C177.344 126.972 176.799 126.972 176.163 126.972C176.072 126.972 175.981 126.972 175.891 126.972C175.346 126.972 174.801 126.972 174.256 126.972C174.165 126.972 174.074 126.972 173.983 126.972C173.348 126.972 172.803 126.972 172.258 126.972C172.167 126.972 172.076 126.972 171.985 126.972C171.44 126.972 170.986 126.972 170.532 126.972C170.441 126.972 170.26 126.972 170.169 126.972C169.624 126.972 169.079 126.972 168.534 126.972C168.443 126.972 168.353 126.972 168.353 126.972C167.899 126.972 167.444 126.972 166.99 126.972C166.9 126.972 166.718 126.972 166.627 126.972C166.173 126.972 165.628 126.972 165.174 126.972H165.083C164.629 126.972 164.175 126.972 163.812 126.972C163.721 126.972 163.63 126.972 163.448 126.972C162.994 126.972 162.54 126.972 162.177 126.972C154.912 126.972 146.466 126.972 137.656 127.336C137.293 127.336 136.93 127.336 136.657 127.336C136.294 127.336 136.021 127.336 135.749 127.336C135.113 127.336 134.478 127.427 133.842 127.427C133.388 127.427 132.934 127.427 132.48 127.518C131.844 127.518 131.208 127.609 130.663 127.609C130.209 127.609 129.755 127.699 129.301 127.699C128.665 127.699 128.12 127.79 127.575 127.79C127.121 127.79 126.758 127.881 126.304 127.881C125.759 127.881 125.123 127.972 124.578 127.972C124.124 127.972 123.761 128.063 123.307 128.063C122.762 128.063 122.126 128.154 121.581 128.154C121.218 128.154 120.855 128.245 120.492 128.245C119.856 128.336 119.22 128.336 118.584 128.427C118.312 128.427 118.04 128.427 117.767 128.517C116.859 128.608 116.042 128.699 115.133 128.79C115.043 128.79 115.043 128.79 114.952 128.79C114.134 128.881 113.408 128.972 112.59 129.063H112.5C111.773 129.154 111.137 129.245 110.502 129.245C110.411 129.245 110.229 129.245 110.138 129.245C109.593 129.335 108.958 129.335 108.413 129.426C108.14 129.426 107.959 129.517 107.686 129.517C107.232 129.608 106.778 129.608 106.415 129.699C106.142 129.699 105.961 129.79 105.688 129.79C105.325 129.881 104.871 129.881 104.508 129.972C104.235 129.972 104.054 130.063 103.781 130.063C103.418 130.153 103.055 130.153 102.691 130.244C102.51 130.244 102.237 130.335 102.056 130.335C101.692 130.426 101.238 130.426 100.875 130.517C100.693 130.517 100.512 130.608 100.33 130.608C99.7851 130.699 99.2402 130.79 98.6953 130.881L98.7861 157.784C99.331 157.693 99.8759 157.603 100.421 157.512C100.602 157.512 100.784 157.421 100.966 157.421C101.329 157.33 101.783 157.33 102.146 157.239C102.328 157.239 102.6 157.148 102.782 157.148C103.145 157.057 103.509 157.057 103.963 156.966C104.235 156.966 104.417 156.875 104.689 156.875C105.053 156.784 105.507 156.784 105.87 156.694C106.142 156.694 106.324 156.603 106.596 156.603C107.051 156.512 107.505 156.512 107.959 156.421C108.14 156.421 108.413 156.33 108.594 156.33C109.139 156.239 109.775 156.239 110.32 156.148C110.411 156.148 110.502 156.148 110.592 156.148C111.319 156.057 112.046 155.966 112.772 155.966C113.499 155.876 114.225 155.785 114.952 155.785C115.043 155.785 115.224 155.785 115.315 155.785C116.132 155.694 116.95 155.603 117.858 155.603C118.13 155.603 118.494 155.512 118.766 155.512C119.402 155.421 119.947 155.421 120.582 155.33C120.946 155.33 121.309 155.239 121.672 155.239C122.217 155.239 122.853 155.148 123.398 155.148C123.761 155.148 124.215 155.058 124.578 155.058C125.123 155.058 125.759 154.967 126.304 154.967C126.758 154.967 127.212 154.876 127.575 154.876C128.12 154.876 128.756 154.785 129.301 154.785C129.755 154.785 130.209 154.694 130.663 154.694C131.299 154.694 131.844 154.603 132.48 154.603C132.934 154.603 133.388 154.603 133.933 154.512C134.568 154.512 135.204 154.421 135.84 154.421C136.476 154.421 137.111 154.33 137.838 154.33C146.647 154.058 155.093 153.967 162.359 153.967C162.813 153.967 163.176 153.967 163.63 153.967C163.721 153.967 163.812 153.967 163.993 153.967C164.447 153.967 164.811 153.967 165.265 153.967H165.356C165.81 153.967 166.355 153.967 166.809 153.967C166.9 153.967 167.081 153.967 167.172 153.967C167.626 153.967 168.08 153.967 168.534 153.967C168.625 153.967 168.716 153.967 168.716 153.967C169.261 153.967 169.806 153.967 170.351 153.967C170.441 153.967 170.623 153.967 170.714 153.967C171.168 153.967 171.713 153.967 172.167 153.967C172.258 153.967 172.349 153.967 172.439 153.967C172.984 153.967 173.62 153.967 174.165 153.967C174.256 153.967 174.347 153.967 174.437 153.967C174.982 153.967 175.527 153.967 176.072 153.967C176.163 153.967 176.254 153.967 176.345 153.967C176.98 153.967 177.525 153.967 178.161 153.967C178.343 153.967 178.433 153.967 178.615 153.967C179.16 153.967 179.705 153.967 180.25 153.967C180.341 153.967 180.341 153.967 180.431 153.967C181.067 153.967 181.703 153.967 182.429 153.967C182.52 153.967 182.52 153.967 182.611 153.967C183.247 153.967 183.792 153.967 184.427 153.967C184.518 153.967 184.609 153.967 184.7 153.967C185.336 153.967 185.971 153.967 186.607 153.967C186.698 153.967 186.789 153.967 186.88 153.967C187.424 153.967 187.969 153.967 188.514 153.967C188.605 153.967 188.696 153.967 188.878 153.967C189.513 153.967 190.058 153.967 190.694 153.967C190.785 153.967 190.966 153.967 191.057 153.967C191.602 153.967 192.056 153.967 192.601 153.967C192.692 153.967 192.783 153.967 192.964 153.967C193.6 153.967 194.145 153.967 194.69 154.058C194.781 154.058 194.872 154.058 195.053 154.058C195.598 154.058 196.143 154.058 196.688 154.058H196.779C197.324 154.058 197.959 154.058 198.504 154.149C198.595 154.149 198.777 154.149 198.867 154.149C199.322 154.149 199.776 154.149 200.23 154.149C200.321 154.149 200.502 154.149 200.593 154.149C201.047 154.149 201.592 154.149 202.046 154.149C202.228 154.149 202.409 154.149 202.5 154.149C204.044 154.149 205.406 154.24 206.678 154.24C206.769 154.24 206.95 154.24 207.041 154.24C207.404 154.24 207.677 154.24 208.04 154.24C208.131 154.24 208.313 154.24 208.403 154.24C209.493 154.24 210.401 154.33 211.219 154.33C211.4 154.33 211.491 154.33 211.673 154.33C212.399 154.33 212.944 154.33 213.308 154.421C213.398 154.421 213.489 154.421 213.58 154.421C221.118 154.421 229.746 154.33 238.737 154.058C239.372 154.058 240.008 153.967 240.644 153.967C241.279 153.967 241.915 153.876 242.551 153.876C243.096 153.876 243.55 153.876 244.095 153.785C245.366 153.694 246.547 153.694 247.818 153.603C248.091 153.603 248.272 153.603 248.545 153.603C249.998 153.512 251.451 153.422 252.813 153.331C253.177 153.331 253.631 153.24 253.994 153.24C254.993 153.149 255.992 153.149 256.991 153.058C257.445 153.058 257.99 152.967 258.444 152.967C259.352 152.876 260.26 152.876 261.078 152.785C261.532 152.785 262.077 152.694 262.531 152.694C263.439 152.604 264.347 152.513 265.255 152.422C265.709 152.422 266.073 152.331 266.527 152.331C267.798 152.24 268.979 152.058 270.16 151.967C270.25 151.967 270.25 151.967 270.341 151.967C271.522 151.876 272.702 151.695 273.883 151.604C274.246 151.604 274.519 151.513 274.882 151.513C275.881 151.422 276.789 151.331 277.788 151.149C278.061 151.149 278.242 151.058 278.515 151.058C279.605 150.877 280.785 150.786 281.875 150.604C282.148 150.604 282.42 150.513 282.692 150.513C283.601 150.422 284.418 150.24 285.326 150.149C285.599 150.149 285.871 150.059 286.144 150.059C287.233 149.877 288.232 149.695 289.322 149.513C289.504 149.513 289.595 149.422 289.776 149.422C290.412 149.331 291.048 149.241 291.683 149.059C291.956 149.059 292.138 148.968 292.41 148.968C292.773 148.877 293.227 148.786 293.591 148.786C294.226 148.695 294.953 148.513 295.589 148.423C295.952 148.332 296.315 148.241 296.769 148.15C297.496 147.968 298.132 147.877 298.767 147.695C299.131 147.605 299.403 147.514 299.766 147.514C300.765 147.332 301.673 147.059 302.672 146.877L302.4 119.883Z" fill="url(#paint14_linear_1031_14570)"/>
<path d="M70.3584 178.141C70.3584 177.959 70.4492 177.686 70.4492 177.505C70.4492 177.323 70.54 177.05 70.54 176.868C70.6308 176.687 70.6308 176.414 70.7217 176.232C70.8125 176.05 70.8125 175.778 70.9033 175.596C70.9941 175.414 70.9941 175.141 71.0849 174.96C71.1758 174.778 71.2666 174.596 71.2666 174.323C71.3574 174.051 71.4482 173.869 71.539 173.596C71.6298 173.414 71.7207 173.233 71.8115 172.96C71.9023 172.778 71.9931 172.506 72.1747 172.324C72.2656 172.142 72.3564 171.96 72.4472 171.778C72.6288 171.506 72.7197 171.233 72.9013 171.051C72.9921 170.87 73.1737 170.688 73.2646 170.506C73.4462 170.233 73.6278 169.961 73.8095 169.779C73.9003 169.597 74.0819 169.415 74.1727 169.233C74.4452 168.87 74.8085 168.415 75.1717 168.052C75.2626 167.961 75.2626 167.87 75.3534 167.87C75.8075 167.416 76.1707 166.961 76.6248 166.507C76.8065 166.325 77.0789 166.143 77.2606 165.961C77.4422 165.78 77.6238 165.598 77.8055 165.507C78.0779 165.325 78.2595 165.053 78.532 164.871C78.7136 164.689 78.8953 164.598 79.0769 164.416C79.3494 164.234 79.6218 163.962 79.8943 163.78C80.0759 163.598 80.2575 163.507 80.4392 163.326C80.8025 163.053 81.0749 162.871 81.4382 162.689C81.6198 162.598 81.8015 162.508 81.8923 162.326C82.4372 161.962 82.9821 161.69 83.527 161.326C83.7086 161.235 83.9811 161.053 84.2535 160.962C84.3444 160.962 84.4352 160.872 84.526 160.872C84.7076 160.781 84.8893 160.69 85.1617 160.599C85.2525 160.508 85.4342 160.508 85.525 160.417C85.7066 160.326 85.9791 160.235 86.1607 160.144C86.3423 160.054 86.4332 160.054 86.6148 159.963C86.8873 159.872 87.0689 159.781 87.3413 159.69C87.523 159.599 87.7046 159.599 87.9771 159.508C88.1587 159.417 88.3403 159.417 88.4312 159.326C88.7036 159.236 88.9761 159.145 89.2485 159.145C89.4302 159.054 89.6118 159.054 89.7934 158.963C90.0659 158.872 90.4292 158.781 90.7016 158.69C90.8832 158.69 90.9741 158.599 91.1557 158.599C91.6098 158.508 92.1547 158.327 92.6996 158.236L92.6088 131.332C92.0639 131.423 91.6098 131.605 91.0649 131.696C90.8832 131.696 90.7924 131.786 90.6108 131.786C90.2475 131.877 89.9751 131.968 89.7026 132.059C89.521 132.15 89.3393 132.15 89.1577 132.241C88.8852 132.332 88.6128 132.423 88.3403 132.423C88.1587 132.514 87.9771 132.514 87.8863 132.604C87.7954 132.604 87.6138 132.695 87.523 132.695C87.4322 132.695 87.3413 132.786 87.2505 132.786C86.9781 132.877 86.7964 132.968 86.524 133.059C86.3423 133.15 86.1607 133.15 86.0699 133.241C85.7974 133.332 85.6158 133.423 85.4342 133.513C85.3434 133.604 85.1617 133.604 85.0709 133.695C84.8893 133.786 84.6168 133.877 84.4352 133.968C84.3443 133.968 84.2535 134.059 84.1627 134.059C83.8903 134.15 83.6178 134.331 83.4362 134.422C82.8913 134.695 82.3464 135.059 81.8923 135.331C81.7106 135.422 81.529 135.513 81.4382 135.695C81.0749 135.877 80.7116 136.149 80.4392 136.331C80.2575 136.422 80.0759 136.604 79.8943 136.785C79.6218 136.967 79.3494 137.24 79.0769 137.422C78.8953 137.603 78.7136 137.694 78.532 137.876C78.2595 138.058 77.9871 138.24 77.8055 138.512C77.6238 138.694 77.4422 138.876 77.2606 138.967C77.0789 139.149 76.8973 139.24 76.7156 139.421L76.6248 139.512C76.1707 139.967 75.7166 140.421 75.3534 140.876C75.2626 140.966 75.2626 141.057 75.1717 141.057C74.8085 141.421 74.536 141.875 74.1727 142.239C74.0819 142.33 74.0819 142.33 73.9911 142.421C73.9003 142.512 73.8095 142.602 73.7187 142.784C73.537 143.057 73.3554 143.239 73.1737 143.511C73.0829 143.693 72.9013 143.875 72.8105 144.057C72.6288 144.329 72.538 144.602 72.3564 144.784C72.2656 144.875 72.2656 144.966 72.1747 145.147C72.1747 145.238 72.0839 145.329 72.0839 145.42C71.9931 145.602 71.8115 145.875 71.7207 146.056C71.6298 146.238 71.539 146.42 71.4482 146.693C71.3574 146.965 71.2666 147.147 71.1757 147.42C71.0849 147.511 71.0849 147.692 70.9941 147.783C70.9941 147.874 70.9941 147.874 70.9033 147.965C70.8125 148.147 70.7217 148.42 70.7217 148.601C70.6308 148.783 70.6308 149.056 70.54 149.238C70.4492 149.419 70.4492 149.692 70.3584 149.874C70.3584 150.056 70.2676 150.146 70.2676 150.328C70.2676 150.419 70.2676 150.419 70.2676 150.51C70.2676 150.692 70.1768 150.964 70.1768 151.146C70.1768 151.328 70.0859 151.601 70.0859 151.782C70.0859 151.964 70.0859 152.237 70.0859 152.419C70.0859 152.6 70.0859 152.691 70.0859 152.873C70.0859 152.964 70.0859 153.055 70.0859 153.146L70.1768 180.049C70.1768 179.777 70.1768 179.504 70.1768 179.231C70.1768 179.05 70.1768 178.777 70.1768 178.595C70.3584 178.595 70.3584 178.323 70.3584 178.141Z" fill="url(#paint15_linear_1031_14570)"/>
<path d="M180.426 167.418L180.517 194.322L152.817 194.503L152.727 167.6L180.426 167.418Z" fill="url(#paint16_linear_1031_14570)"/>
<path d="M198.041 181.597L198.131 208.501L180.513 194.322L180.422 167.418L198.041 181.597Z" fill="url(#paint17_linear_1031_14570)"/>
<path d="M213.213 164.146C213.213 163.874 213.213 163.51 213.304 163.237C213.304 162.692 213.395 162.237 213.395 161.692C213.395 161.419 213.395 161.056 213.395 160.783C213.395 160.601 213.395 160.42 213.395 160.238C213.395 159.693 213.395 159.238 213.395 158.693L213.304 131.789C213.304 132.425 213.304 133.152 213.304 133.88C213.304 134.152 213.304 134.516 213.304 134.788C213.304 135.243 213.304 135.788 213.213 136.334C213.213 136.606 213.213 136.97 213.123 137.243C213.123 137.788 213.032 138.333 213.032 138.879C213.032 139.151 213.032 139.424 212.941 139.697C212.85 140.515 212.759 141.333 212.669 142.151C212.487 143.514 212.396 144.786 212.214 146.059C212.124 146.422 212.124 146.786 212.033 147.15C211.851 148.149 211.67 149.149 211.488 150.149C211.397 150.422 211.397 150.694 211.306 150.967C211.125 152.058 210.852 153.148 210.671 154.148C210.671 154.239 210.58 154.421 210.58 154.512C210.398 155.421 210.126 156.33 209.944 157.148C209.853 157.511 209.762 157.784 209.672 158.147C209.49 158.784 209.308 159.511 209.127 160.147C209.036 160.511 208.945 160.874 208.763 161.238C208.582 161.874 208.309 162.51 208.128 163.146C208.037 163.51 207.855 163.874 207.764 164.237C207.583 164.601 207.492 164.964 207.31 165.419C207.129 165.873 206.947 166.237 206.856 166.691C206.675 167.055 206.584 167.418 206.402 167.782C206.22 168.145 206.039 168.6 205.857 168.963C205.676 169.327 205.494 169.691 205.312 170.054C205.131 170.418 204.949 170.872 204.767 171.236C204.586 171.599 204.404 171.963 204.222 172.235C204.041 172.599 203.768 173.053 203.587 173.417C203.405 173.69 203.314 173.962 203.133 174.235C202.86 174.69 202.679 175.053 202.406 175.508C202.225 175.78 202.134 175.962 201.952 176.235C201.68 176.689 201.407 177.053 201.135 177.507C200.953 177.689 200.862 177.871 200.771 178.143C200.317 178.78 199.954 179.325 199.5 179.961C199.046 180.597 198.501 181.234 198.047 181.779L198.138 208.683C198.683 208.046 199.137 207.501 199.591 206.865C200.045 206.32 200.499 205.683 200.862 205.047C201.044 204.865 201.135 204.683 201.226 204.411C201.498 203.956 201.77 203.593 202.043 203.138C202.224 202.866 202.315 202.684 202.497 202.411C202.769 202.048 202.951 201.593 203.223 201.23C203.405 200.957 203.496 200.684 203.678 200.412C203.768 200.23 203.859 200.048 203.95 199.866C204.041 199.684 204.132 199.412 204.313 199.23C204.495 198.866 204.677 198.503 204.858 198.23C205.04 197.867 205.221 197.503 205.403 197.049C205.585 196.685 205.766 196.322 205.948 195.958C206.13 195.594 206.311 195.14 206.493 194.776C206.675 194.413 206.856 194.049 206.947 193.686C207.129 193.231 207.31 192.868 207.401 192.413C207.583 192.05 207.674 191.686 207.855 191.232C207.946 191.141 207.946 190.959 208.037 190.868C208.128 190.686 208.218 190.414 208.218 190.232C208.4 189.596 208.673 188.959 208.854 188.323C208.945 187.96 209.036 187.596 209.217 187.232C209.399 186.596 209.581 185.869 209.762 185.233C209.853 184.869 209.944 184.597 210.035 184.233C210.307 183.324 210.489 182.415 210.671 181.597C210.671 181.506 210.761 181.325 210.761 181.234C211.034 180.234 211.215 179.143 211.397 178.052C211.397 177.962 211.397 177.871 211.397 177.871C211.397 177.689 211.488 177.507 211.488 177.325C211.67 176.326 211.851 175.326 212.033 174.326C212.124 173.962 212.124 173.599 212.214 173.235C212.396 171.963 212.578 170.69 212.669 169.327C212.759 168.509 212.85 167.691 212.941 166.873C212.941 166.6 212.941 166.328 213.032 166.055C213.213 165.237 213.213 164.692 213.213 164.146Z" fill="url(#paint18_linear_1031_14570)"/>
<path d="M78.8025 168.785V195.689L71.083 212.231L70.9922 185.327L78.8025 168.785Z" fill="url(#paint19_linear_1031_14570)"/>
<path d="M70.9993 185.324L71.0901 212.228L44.208 218.136L44.1172 191.232L70.9993 185.324Z" fill="url(#paint20_linear_1031_14570)"/>
<path d="M18.9424 180.411L18.8516 153.508C18.8516 167.051 27.2976 180.593 44.0081 191.227L44.099 218.131C27.3885 207.406 19.0332 193.954 18.9424 180.411Z" fill="url(#paint21_linear_1031_14570)"/>
<mask id="mask2_1031_14570" style="mask-type:luminance" maskUnits="userSpaceOnUse" x="18" y="153" width="27" height="66">
<path d="M18.9424 180.411L18.8516 153.508C18.8516 167.051 27.2976 180.593 44.0081 191.227L44.099 218.131C27.3885 207.406 19.0332 193.954 18.9424 180.411Z" fill="white"/>
</mask>
<g mask="url(#mask2_1031_14570)">
<path d="M44.1019 191.227L44.1927 218.131C27.3914 207.497 19.0361 193.954 19.0361 180.411L18.9453 153.508C18.9453 167.051 27.3006 180.502 44.1019 191.227Z" fill="url(#paint22_linear_1031_14570)"/>
</g>
<path d="M195.87 211.048L195.779 184.145C195.053 184.872 194.326 185.599 193.509 186.326C193.327 186.508 193.146 186.689 192.873 186.871C192.056 187.598 191.238 188.235 190.421 188.871C190.33 188.962 190.239 189.053 190.149 189.053C189.422 189.598 188.605 190.234 187.787 190.78C187.515 190.961 187.333 191.143 187.061 191.234C186.153 191.87 185.244 192.416 184.336 192.961C183.246 193.597 182.157 194.143 181.067 194.779C180.794 194.961 180.431 195.142 180.159 195.233C179.25 195.688 178.342 196.142 177.434 196.597C177.162 196.687 176.98 196.869 176.708 196.96C175.618 197.505 174.437 197.96 173.256 198.505C172.984 198.596 172.712 198.687 172.439 198.869C171.531 199.232 170.532 199.687 169.624 200.05C169.26 200.141 168.988 200.323 168.625 200.414C167.444 200.868 166.173 201.323 164.992 201.686H164.901C163.721 202.05 162.631 202.414 161.45 202.777C160.724 202.959 159.997 203.232 159.361 203.413C158.635 203.595 157.908 203.868 157.273 204.05C156.546 204.231 155.819 204.413 155.093 204.595C154.366 204.777 153.64 204.959 152.913 205.14C152.187 205.322 151.46 205.504 150.734 205.686C150.007 205.867 149.281 206.049 148.554 206.14C147.827 206.322 147.101 206.413 146.374 206.595C145.557 206.776 144.74 206.867 143.922 207.049C143.559 207.14 143.287 207.14 142.923 207.231C141.652 207.413 140.471 207.594 139.2 207.776C139.109 207.776 138.927 207.776 138.836 207.867C137.474 208.049 136.112 208.231 134.84 208.412C134.477 208.412 134.205 208.503 133.841 208.503C133.024 208.594 132.298 208.685 131.48 208.776C130.481 208.867 129.391 208.958 128.392 209.049C127.757 209.14 127.03 209.14 126.394 209.23C125.395 209.321 124.306 209.321 123.307 209.412C122.671 209.412 122.035 209.503 121.309 209.503C120.4 209.503 119.492 209.594 118.584 209.594C117.858 209.594 117.222 209.594 116.495 209.594C115.587 209.594 114.679 209.594 113.68 209.594C113.044 209.594 112.318 209.594 111.682 209.594C110.865 209.594 109.956 209.503 109.139 209.503C108.412 209.503 107.686 209.412 106.959 209.412C106.051 209.412 105.234 209.321 104.416 209.23C103.69 209.14 103.054 209.14 102.328 209.049C101.419 208.958 100.602 208.867 99.6939 208.776C99.0582 208.685 98.3317 208.685 97.696 208.594C96.7878 208.503 95.8796 208.412 94.9714 208.231C94.3357 208.14 93.7 208.049 93.0642 207.958C91.5203 207.776 90.0672 207.503 88.5233 207.231C88.4325 207.231 88.4325 207.231 88.3417 207.231C86.7978 206.958 85.2539 206.685 83.71 206.413C83.3467 206.322 82.9834 206.231 82.6202 206.14C81.3487 205.867 80.1681 205.595 78.8966 205.322C78.3517 205.231 77.8068 205.049 77.2619 204.868C76.2629 204.595 75.2639 204.322 74.1741 204.05C73.2659 203.777 72.2669 203.504 71.3588 203.232C71.0863 203.141 70.9047 203.141 70.6322 203.05C69.3608 202.686 68.1801 202.323 66.9087 201.868C66.6362 201.777 66.2729 201.686 66.0005 201.596C65.0015 201.232 64.0933 200.959 63.0943 200.596C62.731 200.505 62.4586 200.323 62.1861 200.232C61.3688 199.96 60.6422 199.596 59.9157 199.323C59.3708 199.142 58.8259 198.869 58.281 198.687C57.5544 198.323 56.7371 198.051 56.0105 197.687C55.5564 197.505 55.0115 197.233 54.5574 197.051C53.7401 196.687 52.9227 196.233 52.1053 195.869C51.7421 195.688 51.288 195.506 50.9247 195.233C49.7441 194.597 48.5634 193.961 47.3828 193.325L47.4736 220.228C48.6543 220.864 49.8349 221.501 51.0155 222.137C51.3788 222.319 51.8329 222.5 52.1962 222.773C53.0135 223.137 53.8309 223.591 54.6482 223.955C55.1023 224.227 55.6472 224.409 56.1013 224.591C56.8279 224.955 57.5544 225.227 58.3718 225.591C58.9167 225.863 59.4616 226.045 60.0065 226.227C60.5514 226.5 61.1871 226.681 61.732 226.954C61.9137 227.045 62.0953 227.136 62.277 227.136C62.5494 227.227 62.9127 227.409 63.1851 227.499C64.0933 227.863 65.0923 228.227 66.0913 228.499C66.3638 228.59 66.727 228.681 66.9995 228.772C68.1801 229.226 69.4516 229.59 70.723 229.953C70.9955 230.044 71.1771 230.044 71.4496 230.135C72.1761 230.317 72.8118 230.499 73.5384 230.772C73.8108 230.862 74.0833 230.862 74.2649 230.953C75.2639 231.226 76.2629 231.499 77.2619 231.771C77.8068 231.953 78.3517 232.044 78.8966 232.226C80.1681 232.498 81.3487 232.771 82.6202 233.044C82.8926 233.135 83.2559 233.226 83.5283 233.226C83.6192 233.226 83.6192 233.226 83.71 233.226C85.2539 233.498 86.7978 233.862 88.3417 234.044C88.4325 234.044 88.5233 234.044 88.5233 234.044C89.9764 234.316 91.5203 234.498 92.9734 234.771C93.0642 234.771 93.0642 234.771 93.1551 234.771C93.7908 234.862 94.3357 234.952 94.9714 234.952C95.8796 235.043 96.7878 235.225 97.6051 235.316C98.3317 235.407 98.9674 235.407 99.6939 235.498C100.602 235.589 101.419 235.68 102.328 235.771C102.418 235.771 102.509 235.771 102.6 235.771C103.236 235.861 103.781 235.861 104.416 235.861C105.234 235.952 106.142 235.952 106.959 236.043C107.686 236.043 108.412 236.134 109.139 236.134C109.956 236.134 110.865 236.225 111.682 236.225C111.864 236.225 111.954 236.225 112.136 236.225C112.681 236.225 113.226 236.225 113.771 236.225C114.679 236.225 115.587 236.225 116.586 236.225C117.313 236.225 117.948 236.225 118.675 236.225C119.583 236.225 120.491 236.225 121.399 236.134C121.672 236.134 121.854 236.134 122.126 236.134C122.58 236.134 122.943 236.043 123.397 236.043C124.396 235.952 125.486 235.952 126.485 235.861C127.121 235.861 127.848 235.771 128.483 235.68C129.482 235.589 130.572 235.498 131.571 235.407C131.934 235.407 132.388 235.316 132.752 235.316C133.115 235.316 133.569 235.225 133.932 235.225C134.296 235.225 134.568 235.134 134.931 235.134C136.294 234.952 137.656 234.771 138.927 234.589C139.018 234.589 139.2 234.589 139.291 234.498C140.562 234.316 141.743 234.134 143.014 233.953C143.377 233.862 143.65 233.862 144.013 233.771C144.286 233.68 144.558 233.68 144.921 233.589C145.466 233.498 145.92 233.407 146.465 233.316C147.192 233.135 147.918 233.044 148.645 232.862C149.371 232.68 150.098 232.498 150.824 232.408C151.551 232.226 152.278 232.044 153.004 231.862C153.731 231.68 154.457 231.499 155.184 231.317C155.91 231.135 156.637 230.953 157.363 230.772C158.09 230.59 158.816 230.408 159.452 230.135C160.179 229.954 160.905 229.681 161.541 229.499C161.723 229.408 161.995 229.408 162.177 229.317C163.176 229.045 164.084 228.681 164.992 228.408H165.083C166.264 227.954 167.535 227.59 168.716 227.136C169.079 227.045 169.351 226.863 169.715 226.772C170.714 226.409 171.622 226.045 172.53 225.591C172.802 225.5 173.075 225.409 173.347 225.227C174.528 224.773 175.618 224.227 176.798 223.682C177.071 223.591 177.252 223.409 177.525 223.318C178.433 222.864 179.341 222.41 180.249 221.955C180.522 221.773 180.885 221.682 181.158 221.501C182.247 220.955 183.337 220.319 184.427 219.683C185.154 219.228 185.88 218.865 186.607 218.41C186.788 218.229 187.061 218.138 187.242 217.956C187.515 217.774 187.697 217.683 187.969 217.501C188.786 216.956 189.513 216.411 190.33 215.775C190.421 215.684 190.512 215.593 190.603 215.593C191.42 214.957 192.237 214.229 193.055 213.593C193.236 213.411 193.418 213.23 193.691 213.048C193.963 212.775 194.235 212.593 194.417 212.321C194.871 212.048 195.325 211.503 195.87 211.048Z" fill="url(#paint23_linear_1031_14570)"/>
<path d="M189.579 31.258C226.814 9.71685 286.663 9.35328 324.534 29.9855L313.818 45.346L284.574 49.4361C266.774 42.074 241.708 42.9829 225.633 52.3446C223.999 53.3444 222.092 55.1623 220.275 57.889L203.383 44.2554L174.594 44.3462C178.681 39.0746 183.676 34.7118 189.579 31.258Z" fill="#6B9CC6"/>
<path d="M172.786 46.9854L201.212 46.8945L218.649 60.8917C215.925 66.0725 213.563 73.6164 212.473 83.6144C212.019 87.8863 211.838 91.9764 211.747 95.7029C199.123 95.7938 160.98 94.6122 160.616 94.6122C160.526 90.7948 160.707 86.5229 161.161 82.1602C162.796 67.7085 166.61 56.0745 172.786 46.9854Z" fill="#6B9CC6"/>
<path d="M289.043 51.5298L317.196 47.5306L328.004 31.9883C364.603 53.9839 364.058 89.2495 326.46 110.972C321.192 113.972 314.654 116.608 306.843 118.789L285.047 107.7L288.044 90.8855C288.952 90.522 289.769 90.1584 290.314 89.8857C308.205 79.5242 308.296 62.7094 290.496 52.3478C290.042 52.0752 289.588 51.8025 289.043 51.5298Z" fill="#6B9CC6"/>
<path d="M68.2422 105.241C84.7711 100.788 106.931 98.061 135.357 97.1521C144.348 96.8794 152.885 96.7885 160.513 96.7885C162.42 96.8794 198.929 97.9701 211.825 97.8792C219.091 97.8792 227.537 97.8792 236.346 97.5157C259.414 96.6976 274.762 94.6072 283.299 92.4258L280.393 108.877L302.371 120.057C286.205 124.056 265.135 126.419 238.617 127.328C229.626 127.601 221.089 127.691 213.46 127.691C211.644 127.601 177.133 126.51 162.148 126.601C154.882 126.601 146.436 126.601 137.627 126.964C120.372 127.601 107.566 128.873 98.5754 130.418L71.1484 121.511L68.2422 105.241Z" fill="#6B9CC6"/>
<path d="M162.156 128.603C176.869 128.512 212.923 129.693 213.287 129.693C213.377 133.511 213.196 137.783 212.742 142.145C210.925 158.869 206.112 171.958 198.029 181.592L180.41 167.413L152.711 167.595C156.434 162.596 160.067 153.779 161.52 140.691C161.974 136.419 162.156 132.329 162.156 128.603Z" fill="#6B9CC6"/>
<path d="M47.5306 113.423C52.0715 110.787 57.5206 108.515 63.9687 106.516L66.8748 122.967L92.8488 131.42C88.3079 132.42 85.3109 133.51 83.6762 134.419C67.5106 143.781 65.8758 158.414 78.772 168.776L71.0525 185.409L44.0795 191.226C9.38708 169.139 10.5677 134.783 47.5306 113.423Z" fill="#6B9CC6"/>
<path d="M82.2364 171.232C82.5997 171.505 83.0538 171.778 83.417 171.959C101.217 182.321 130.279 182.321 148.17 171.959C148.897 171.505 149.623 170.96 150.441 170.233L178.14 170.051L195.759 184.139C192.489 187.593 188.675 190.501 184.407 193.046C146.535 214.951 85.2334 214.951 47.4531 193.228L74.7893 187.32L82.2364 171.232Z" fill="#6B9CC6"/>
<path d="M189.594 31.2619C226.83 9.72075 286.679 9.35719 324.55 29.9894L313.833 45.3499L284.59 49.44C266.79 42.0779 241.724 42.9868 225.649 52.3485C224.014 53.3483 222.107 55.1662 220.291 57.8929L203.399 44.2593L174.609 44.3502C178.696 39.0785 183.691 34.7157 189.594 31.2619Z" fill="#6B9CC6"/>
<path d="M172.778 46.9893L201.204 46.8984L218.641 60.8956C215.917 66.0764 213.555 73.6203 212.466 83.6183C212.012 87.8902 211.83 91.9803 211.739 95.7068C199.115 95.7977 160.972 94.6161 160.609 94.6161C160.518 90.7987 160.699 86.5268 161.154 82.1641C162.788 67.7124 166.603 56.0784 172.778 46.9893Z" fill="#6B9CC6"/>
<path d="M289.035 51.5337L317.189 47.5345L327.996 31.9922C364.596 53.9878 364.051 89.2534 326.452 110.976C321.185 113.976 314.646 116.612 306.835 118.793L285.039 107.704L288.036 90.8894C288.944 90.5259 289.762 90.1623 290.306 89.8896C308.198 79.5281 308.288 62.7133 290.488 52.3517C290.034 52.0791 289.58 51.8064 289.035 51.5337Z" fill="#6B9CC6"/>
<path d="M68.2422 105.245C84.7711 100.792 106.931 98.0649 135.357 97.156C144.348 96.8833 152.885 96.7924 160.513 96.7924C162.42 96.8833 198.929 97.974 211.825 97.8831C219.091 97.8831 227.537 97.8831 236.346 97.5196C259.414 96.7016 274.762 94.6111 283.299 92.4297L280.393 108.881L302.371 120.06C286.205 124.06 265.135 126.423 238.617 127.332C229.626 127.604 221.089 127.695 213.46 127.695C211.644 127.604 177.133 126.514 162.148 126.605C154.882 126.605 146.436 126.605 137.627 126.968C120.372 127.604 107.566 128.877 98.5754 130.422L71.1484 121.515L68.2422 105.245Z" fill="#6B9CC6"/>
<path d="M162.164 128.61C176.876 128.52 212.931 129.701 213.294 129.701C213.385 133.519 213.204 137.79 212.749 142.153C210.933 158.877 206.12 171.965 198.037 181.6L180.418 167.421L152.719 167.603C156.442 162.604 160.075 153.787 161.528 140.699C161.982 136.427 162.164 132.337 162.164 128.61Z" fill="#6B9CC6"/>
<path d="M47.5384 113.435C52.0793 110.799 57.5284 108.527 63.9765 106.527L66.8827 122.979L92.8566 131.431C88.3157 132.431 85.3187 133.522 83.684 134.431C67.5184 143.793 65.8837 158.426 78.7798 168.788L71.0603 185.421L44.0874 191.238C9.3949 169.151 10.5755 134.794 47.5384 113.435Z" fill="#6B9CC6"/>
<path d="M82.2286 171.24C82.5919 171.513 83.0459 171.786 83.4092 171.967C101.21 182.329 130.271 182.329 148.162 171.967C148.889 171.513 149.615 170.968 150.433 170.24L178.132 170.059L195.751 184.147C192.482 187.601 188.667 190.509 184.399 193.054C146.528 214.959 85.2256 214.959 47.4453 193.236L74.7815 187.328L82.2286 171.24Z" fill="#6B9CC6"/>
<g filter="url(#filter1_d_1031_14570)">
<path d="M189.579 30.633C226.814 9.09185 286.663 8.72828 324.534 29.3605L313.818 44.721L284.574 48.8111C266.774 41.449 241.708 42.3579 225.633 51.7196C223.999 52.7194 222.092 54.5373 220.275 57.264L203.383 43.6304H174.594C178.681 38.3587 183.676 33.9959 189.579 30.633Z" fill="url(#paint24_linear_1031_14570)"/>
</g>
<g filter="url(#filter2_d_1031_14570)">
<path d="M172.786 46.2628L201.212 46.1719L218.649 60.1691C215.925 65.3498 213.563 72.8938 212.473 82.8918C212.019 87.1636 211.838 91.2537 211.747 94.9802C199.123 95.0711 160.98 93.8896 160.616 93.8896C160.526 90.0721 160.707 85.8003 161.161 81.4375C162.796 67.0768 166.61 55.3518 172.786 46.2628Z" fill="url(#paint25_linear_1031_14570)"/>
</g>
<g filter="url(#filter3_i_1031_14570)">
<path d="M289.043 50.8121L317.196 46.8129L328.004 31.1797C364.603 53.1753 364.058 88.4409 326.46 110.164C321.192 113.163 314.654 115.799 306.843 117.98L285.047 106.892L288.044 90.0769C288.952 89.7134 289.769 89.3498 290.314 89.0771C308.205 78.7156 308.296 61.9008 290.496 51.5392C290.042 51.3574 289.588 51.0848 289.043 50.8121Z" fill="url(#paint26_linear_1031_14570)"/>
<path d="M289.043 50.8121L317.196 46.8129L328.004 31.1797C364.603 53.1753 364.058 88.4409 326.46 110.164C321.192 113.163 314.654 115.799 306.843 117.98L285.047 106.892L288.044 90.0769C288.952 89.7134 289.769 89.3498 290.314 89.0771C308.205 78.7156 308.296 61.9008 290.496 51.5392C290.042 51.3574 289.588 51.0848 289.043 50.8121Z" fill="black" fill-opacity="0.2"/>
</g>
<g filter="url(#filter4_i_1031_14570)">
<path d="M68.2422 104.527C84.7711 100.073 106.931 97.3462 135.357 96.4373C144.348 96.1646 152.885 96.0737 160.513 96.0737C162.42 96.1646 198.929 97.2553 211.825 97.1644C219.091 97.1644 227.537 97.1644 236.346 96.8008C259.414 95.9828 274.762 93.8923 283.299 91.7109L280.393 108.162L302.371 119.342C286.205 123.25 265.135 125.704 238.617 126.613C229.626 126.886 221.089 126.977 213.46 126.977C211.644 126.886 177.133 125.795 162.148 125.886C154.882 125.886 146.436 125.886 137.627 126.249C120.372 126.886 107.566 128.158 98.5754 129.703L71.1484 120.796L68.2422 104.527Z" fill="url(#paint27_linear_1031_14570)"/>
</g>
<path d="M162.164 127.888C176.876 127.797 212.931 128.978 213.294 128.978C213.385 132.796 213.204 137.068 212.749 141.431C210.933 158.154 206.12 171.243 198.037 180.877L180.418 166.789L152.719 166.971C156.442 161.972 160.075 153.155 161.528 140.067C161.982 135.704 162.164 131.614 162.164 127.888Z" fill="url(#paint28_linear_1031_14570)"/>
<g filter="url(#filter5_di_1031_14570)">
<path d="M47.5431 112.708C52.084 110.073 57.5331 107.8 63.9812 105.801L66.8873 122.252L92.8613 130.705C88.3204 131.705 85.3234 132.795 83.6887 133.704C67.5231 143.066 65.8883 157.699 78.7845 168.061L70.9741 184.694L44.0012 190.511C9.39958 168.425 10.5802 134.068 47.5431 112.708Z" fill="url(#paint29_linear_1031_14570)"/>
</g>
<g filter="url(#filter6_di_1031_14570)">
<path d="M82.2364 170.514C82.5997 170.786 83.0538 171.059 83.417 171.241C101.217 181.602 130.279 181.602 148.17 171.241C148.897 170.786 149.623 170.241 150.441 169.514L178.14 169.332L195.759 183.42C192.489 186.874 188.675 189.782 184.407 192.327C146.535 214.232 85.2334 214.232 47.4531 192.509L74.7893 186.601L82.2364 170.514Z" fill="url(#paint30_linear_1031_14570)"/>
</g>
<defs>
<filter id="filter0_bi_1031_14570" x="-151.2" y="-131.2" width="679.4" height="900.4" filterUnits="userSpaceOnUse" color-interpolation-filters="sRGB">
<feFlood flood-opacity="0" result="BackgroundImageFix"/>
<feGaussianBlur in="BackgroundImageFix" stdDeviation="79.1"/>
<feComposite in2="SourceAlpha" operator="in" result="effect1_backgroundBlur_1031_14570"/>
<feBlend mode="normal" in="SourceGraphic" in2="effect1_backgroundBlur_1031_14570" result="shape"/>
<feColorMatrix in="SourceAlpha" type="matrix" values="0 0 0 0 0 0 0 0 0 0 0 0 0 0 0 0 0 0 127 0" result="hardAlpha"/>
<feOffset dy="4"/>
<feGaussianBlur stdDeviation="88.15"/>
<feComposite in2="hardAlpha" operator="arithmetic" k2="-1" k3="1"/>
<feColorMatrix type="matrix" values="0 0 0 0 1 0 0 0 0 1 0 0 0 0 1 0 0 0 0.12 0"/>
<feBlend mode="normal" in2="shape" result="effect2_innerShadow_1031_14570"/>
</filter>
<filter id="filter1_d_1031_14570" x="157.094" y="0.675781" width="184.938" height="78.0898" filterUnits="userSpaceOnUse" color-interpolation-filters="sRGB">
<feFlood flood-opacity="0" result="BackgroundImageFix"/>
<feColorMatrix in="SourceAlpha" type="matrix" values="0 0 0 0 0 0 0 0 0 0 0 0 0 0 0 0 0 0 127 0" result="hardAlpha"/>
<feOffset dy="4"/>
<feGaussianBlur stdDeviation="8.75"/>
<feComposite in2="hardAlpha" operator="out"/>
<feColorMatrix type="matrix" values="0 0 0 0 0.419608 0 0 0 0 0.611765 0 0 0 0 0.776471 0 0 0 1 0"/>
<feBlend mode="normal" in2="BackgroundImageFix" result="effect1_dropShadow_1031_14570"/>
<feBlend mode="normal" in="SourceGraphic" in2="effect1_dropShadow_1031_14570" result="shape"/>
</filter>
<filter id="filter2_d_1031_14570" x="156.594" y="46.1719" width="66.0547" height="56.8125" filterUnits="userSpaceOnUse" color-interpolation-filters="sRGB">
<feFlood flood-opacity="0" result="BackgroundImageFix"/>
<feColorMatrix in="SourceAlpha" type="matrix" values="0 0 0 0 0 0 0 0 0 0 0 0 0 0 0 0 0 0 127 0" result="hardAlpha"/>
<feOffset dy="4"/>
<feGaussianBlur stdDeviation="2"/>
<feComposite in2="hardAlpha" operator="out"/>
<feColorMatrix type="matrix" values="0 0 0 0 0.419608 0 0 0 0 0.611765 0 0 0 0 0.776471 0 0 0 1 0"/>
<feBlend mode="normal" in2="BackgroundImageFix" result="effect1_dropShadow_1031_14570"/>
<feBlend mode="normal" in="SourceGraphic" in2="effect1_dropShadow_1031_14570" result="shape"/>
</filter>
<filter id="filter3_i_1031_14570" x="285.047" y="31.1797" width="70.0156" height="90.8008" filterUnits="userSpaceOnUse" color-interpolation-filters="sRGB">
<feFlood flood-opacity="0" result="BackgroundImageFix"/>
<feBlend mode="normal" in="SourceGraphic" in2="BackgroundImageFix" result="shape"/>
<feColorMatrix in="SourceAlpha" type="matrix" values="0 0 0 0 0 0 0 0 0 0 0 0 0 0 0 0 0 0 127 0" result="hardAlpha"/>
<feOffset dy="4"/>
<feGaussianBlur stdDeviation="5.75"/>
<feComposite in2="hardAlpha" operator="arithmetic" k2="-1" k3="1"/>
<feColorMatrix type="matrix" values="0 0 0 0 1 0 0 0 0 1 0 0 0 0 1 0 0 0 0.25 0"/>
<feBlend mode="normal" in2="shape" result="effect1_innerShadow_1031_14570"/>
</filter>
<filter id="filter4_i_1031_14570" x="68.2422" y="91.7109" width="234.125" height="41.9922" filterUnits="userSpaceOnUse" color-interpolation-filters="sRGB">
<feFlood flood-opacity="0" result="BackgroundImageFix"/>
<feBlend mode="normal" in="SourceGraphic" in2="BackgroundImageFix" result="shape"/>
<feColorMatrix in="SourceAlpha" type="matrix" values="0 0 0 0 0 0 0 0 0 0 0 0 0 0 0 0 0 0 127 0" result="hardAlpha"/>
<feOffset dy="4"/>
<feGaussianBlur stdDeviation="6.75"/>
<feComposite in2="hardAlpha" operator="arithmetic" k2="-1" k3="1"/>
<feColorMatrix type="matrix" values="0 0 0 0 1 0 0 0 0 1 0 0 0 0 1 0 0 0 0.25 0"/>
<feBlend mode="normal" in2="shape" result="effect1_innerShadow_1031_14570"/>
</filter>
<filter id="filter5_di_1031_14570" x="0.606251" y="91.5008" width="110.553" height="121.311" filterUnits="userSpaceOnUse" color-interpolation-filters="sRGB">
<feFlood flood-opacity="0" result="BackgroundImageFix"/>
<feColorMatrix in="SourceAlpha" type="matrix" values="0 0 0 0 0 0 0 0 0 0 0 0 0 0 0 0 0 0 127 0" result="hardAlpha"/>
<feOffset dy="4"/>
<feGaussianBlur stdDeviation="9.15"/>
<feComposite in2="hardAlpha" operator="out"/>
<feColorMatrix type="matrix" values="0 0 0 0 0.419608 0 0 0 0 0.611765 0 0 0 0 0.776471 0 0 0 1 0"/>
<feBlend mode="normal" in2="BackgroundImageFix" result="effect1_dropShadow_1031_14570"/>
<feBlend mode="normal" in="SourceGraphic" in2="effect1_dropShadow_1031_14570" result="shape"/>
<feColorMatrix in="SourceAlpha" type="matrix" values="0 0 0 0 0 0 0 0 0 0 0 0 0 0 0 0 0 0 127 0" result="hardAlpha"/>
<feOffset dy="4"/>
<feGaussianBlur stdDeviation="10.4"/>
<feComposite in2="hardAlpha" operator="arithmetic" k2="-1" k3="1"/>
<feColorMatrix type="matrix" values="0 0 0 0 1 0 0 0 0 1 0 0 0 0 1 0 0 0 0.25 0"/>
<feBlend mode="normal" in2="shape" result="effect2_innerShadow_1031_14570"/>
</filter>
<filter id="filter6_di_1031_14570" x="32.9531" y="158.832" width="177.305" height="68.4453" filterUnits="userSpaceOnUse" color-interpolation-filters="sRGB">
<feFlood flood-opacity="0" result="BackgroundImageFix"/>
<feColorMatrix in="SourceAlpha" type="matrix" values="0 0 0 0 0 0 0 0 0 0 0 0 0 0 0 0 0 0 127 0" result="hardAlpha"/>
<feOffset dy="4"/>
<feGaussianBlur stdDeviation="7.25"/>
<feComposite in2="hardAlpha" operator="out"/>
<feColorMatrix type="matrix" values="0 0 0 0 0.419608 0 0 0 0 0.611765 0 0 0 0 0.776471 0 0 0 1 0"/>
<feBlend mode="normal" in2="BackgroundImageFix" result="effect1_dropShadow_1031_14570"/>
<feBlend mode="normal" in="SourceGraphic" in2="effect1_dropShadow_1031_14570" result="shape"/>
<feColorMatrix in="SourceAlpha" type="matrix" values="0 0 0 0 0 0 0 0 0 0 0 0 0 0 0 0 0 0 127 0" result="hardAlpha"/>
<feOffset dy="4"/>
<feGaussianBlur stdDeviation="10.65"/>
<feComposite in2="hardAlpha" operator="arithmetic" k2="-1" k3="1"/>
<feColorMatrix type="matrix" values="0 0 0 0 1 0 0 0 0 1 0 0 0 0 1 0 0 0 0.25 0"/>
<feBlend mode="normal" in2="shape" result="effect2_innerShadow_1031_14570"/>
</filter>
<linearGradient id="paint0_linear_1031_14570" x1="98.8951" y1="78.9128" x2="275.27" y2="221.205" gradientUnits="userSpaceOnUse">
<stop stop-color="#80D8FF"/>
<stop offset="0.3484" stop-color="#6DD2FF"/>
<stop offset="1" stop-color="#40C4FF"/>
</linearGradient>
<linearGradient id="paint1_linear_1031_14570" x1="189.115" y1="44.2366" x2="189.115" y2="71.2753" gradientUnits="userSpaceOnUse">
<stop offset="0.0846154" stop-color="#017BAA"/>
<stop offset="0.222" stop-color="#016692"/>
<stop offset="0.5882" stop-color="#023256"/>
<stop offset="0.858" stop-color="#021230"/>
<stop offset="1" stop-color="#020622"/>
</linearGradient>
<linearGradient id="paint2_linear_1031_14570" x1="319.283" y1="29.9793" x2="319.283" y2="72.249" gradientUnits="userSpaceOnUse">
<stop offset="0.0846154" stop-color="#017BAA"/>
<stop offset="0.222" stop-color="#016692"/>
<stop offset="0.5882" stop-color="#023256"/>
<stop offset="0.858" stop-color="#021230"/>
<stop offset="1" stop-color="#020622"/>
</linearGradient>
<linearGradient id="paint3_linear_1031_14570" x1="296.477" y1="51.5142" x2="296.477" y2="97.87" gradientUnits="userSpaceOnUse">
<stop offset="0.0846154" stop-color="#017BAA"/>
<stop offset="0.222" stop-color="#016692"/>
<stop offset="0.5882" stop-color="#023256"/>
<stop offset="0.858" stop-color="#021230"/>
<stop offset="1" stop-color="#020622"/>
</linearGradient>
<linearGradient id="paint4_linear_1031_14570" x1="296.485" y1="6.65356" x2="296.485" y2="97.0962" gradientUnits="userSpaceOnUse">
<stop offset="0.0846154" stop-color="#017BAA"/>
<stop offset="0.222" stop-color="#016692"/>
<stop offset="0.5882" stop-color="#023256"/>
<stop offset="0.858" stop-color="#021230"/>
<stop offset="1" stop-color="#020622"/>
</linearGradient>
<linearGradient id="paint5_linear_1031_14570" x1="160.725" y1="92.5727" x2="160.725" y2="121.518" gradientUnits="userSpaceOnUse">
<stop offset="0.0846154" stop-color="#017BAA"/>
<stop offset="0.222" stop-color="#016692"/>
<stop offset="0.5882" stop-color="#023256"/>
<stop offset="0.858" stop-color="#021230"/>
<stop offset="1" stop-color="#020622"/>
</linearGradient>
<linearGradient id="paint6_linear_1031_14570" x1="160.71" y1="92.5687" x2="160.71" y2="121.514" gradientUnits="userSpaceOnUse">
<stop offset="0.0846154" stop-color="#017BAA"/>
<stop offset="0.222" stop-color="#016692"/>
<stop offset="0.5882" stop-color="#023256"/>
<stop offset="0.858" stop-color="#021230"/>
<stop offset="1" stop-color="#020622"/>
</linearGradient>
<linearGradient id="paint7_linear_1031_14570" x1="215.272" y1="6.65831" x2="215.272" y2="97.1008" gradientUnits="userSpaceOnUse">
<stop offset="0.0846154" stop-color="#017BAA"/>
<stop offset="0.222" stop-color="#016692"/>
<stop offset="0.5882" stop-color="#023256"/>
<stop offset="0.858" stop-color="#021230"/>
<stop offset="1" stop-color="#020622"/>
</linearGradient>
<linearGradient id="paint8_linear_1031_14570" x1="186.269" y1="94.6116" x2="186.269" y2="122.602" gradientUnits="userSpaceOnUse">
<stop offset="0.0846154" stop-color="#017BAA"/>
<stop offset="0.222" stop-color="#016692"/>
<stop offset="0.5882" stop-color="#023256"/>
<stop offset="0.858" stop-color="#021230"/>
<stop offset="1" stop-color="#020622"/>
</linearGradient>
<linearGradient id="paint9_linear_1031_14570" x1="281.89" y1="92.3597" x2="281.89" y2="135.67" gradientUnits="userSpaceOnUse">
<stop offset="0.0846154" stop-color="#017BAA"/>
<stop offset="0.222" stop-color="#016692"/>
<stop offset="0.5882" stop-color="#023256"/>
<stop offset="0.858" stop-color="#021230"/>
<stop offset="1" stop-color="#020622"/>
</linearGradient>
<linearGradient id="paint10_linear_1031_14570" x1="331.029" y1="55.2511" x2="331.029" y2="154.369" gradientUnits="userSpaceOnUse">
<stop offset="0.0846154" stop-color="#017BAA"/>
<stop offset="0.222" stop-color="#016692"/>
<stop offset="0.5882" stop-color="#023256"/>
<stop offset="0.858" stop-color="#021230"/>
<stop offset="1" stop-color="#020622"/>
</linearGradient>
<linearGradient id="paint11_linear_1031_14570" x1="296.031" y1="107.688" x2="296.031" y2="145.642" gradientUnits="userSpaceOnUse">
<stop offset="0.0846154" stop-color="#017BAA"/>
<stop offset="0.222" stop-color="#016692"/>
<stop offset="0.5882" stop-color="#023256"/>
<stop offset="0.858" stop-color="#021230"/>
<stop offset="1" stop-color="#020622"/>
</linearGradient>
<linearGradient id="paint12_linear_1031_14570" x1="69.7595" y1="105.256" x2="69.7595" y2="148.269" gradientUnits="userSpaceOnUse">
<stop offset="0.0846154" stop-color="#017BAA"/>
<stop offset="0.222" stop-color="#016692"/>
<stop offset="0.5882" stop-color="#023256"/>
<stop offset="0.858" stop-color="#021230"/>
<stop offset="1" stop-color="#020622"/>
</linearGradient>
<linearGradient id="paint13_linear_1031_14570" x1="84.9004" y1="121.36" x2="84.9004" y2="157.215" gradientUnits="userSpaceOnUse">
<stop offset="0.0846154" stop-color="#017BAA"/>
<stop offset="0.222" stop-color="#016692"/>
<stop offset="0.5882" stop-color="#023256"/>
<stop offset="0.858" stop-color="#021230"/>
<stop offset="1" stop-color="#020622"/>
</linearGradient>
<linearGradient id="paint14_linear_1031_14570" x1="109.159" y1="138.686" x2="348.603" y2="158.405" gradientUnits="userSpaceOnUse">
<stop stop-color="#017BAA"/>
<stop offset="0.222" stop-color="#016692"/>
<stop offset="0.5882" stop-color="#023256"/>
<stop offset="0.858" stop-color="#021230"/>
<stop offset="1" stop-color="#020622"/>
</linearGradient>
<linearGradient id="paint15_linear_1031_14570" x1="81.5562" y1="85.0402" x2="81.5562" y2="168.968" gradientUnits="userSpaceOnUse">
<stop offset="0.0846154" stop-color="#017BAA"/>
<stop offset="0.222" stop-color="#016692"/>
<stop offset="0.5882" stop-color="#023256"/>
<stop offset="0.858" stop-color="#021230"/>
<stop offset="1" stop-color="#020622"/>
</linearGradient>
<linearGradient id="paint16_linear_1031_14570" x1="166.615" y1="167.456" x2="166.615" y2="194.548" gradientUnits="userSpaceOnUse">
<stop offset="0.0846154" stop-color="#017BAA"/>
<stop offset="0.222" stop-color="#016692"/>
<stop offset="0.5882" stop-color="#023256"/>
<stop offset="0.858" stop-color="#021230"/>
<stop offset="1" stop-color="#020622"/>
</linearGradient>
<linearGradient id="paint17_linear_1031_14570" x1="189.272" y1="167.456" x2="189.272" y2="208.458" gradientUnits="userSpaceOnUse">
<stop offset="0.0846154" stop-color="#017BAA"/>
<stop offset="0.222" stop-color="#016692"/>
<stop offset="0.5882" stop-color="#023256"/>
<stop offset="0.858" stop-color="#021230"/>
<stop offset="1" stop-color="#020622"/>
</linearGradient>
<linearGradient id="paint18_linear_1031_14570" x1="205.848" y1="159.748" x2="197.942" y2="218.338" gradientUnits="userSpaceOnUse">
<stop stop-color="#C4E3ED"/>
<stop offset="1" stop-color="#99C0DB"/>
</linearGradient>
<linearGradient id="paint19_linear_1031_14570" x1="74.9371" y1="168.77" x2="74.9371" y2="212.263" gradientUnits="userSpaceOnUse">
<stop offset="0.0846154" stop-color="#017BAA"/>
<stop offset="0.222" stop-color="#016692"/>
<stop offset="0.5882" stop-color="#023256"/>
<stop offset="0.858" stop-color="#021230"/>
<stop offset="1" stop-color="#020622"/>
</linearGradient>
<linearGradient id="paint20_linear_1031_14570" x1="57.611" y1="185.357" x2="57.611" y2="218.1" gradientUnits="userSpaceOnUse">
<stop offset="0.0846154" stop-color="#017BAA"/>
<stop offset="0.222" stop-color="#016692"/>
<stop offset="0.5882" stop-color="#023256"/>
<stop offset="0.858" stop-color="#021230"/>
<stop offset="1" stop-color="#020622"/>
</linearGradient>
<linearGradient id="paint21_linear_1031_14570" x1="31.5241" y1="153.476" x2="31.5241" y2="218.095" gradientUnits="userSpaceOnUse">
<stop offset="0.0846154" stop-color="#017BAA"/>
<stop offset="0.222" stop-color="#016692"/>
<stop offset="0.5882" stop-color="#023256"/>
<stop offset="0.858" stop-color="#021230"/>
<stop offset="1" stop-color="#020622"/>
</linearGradient>
<linearGradient id="paint22_linear_1031_14570" x1="31.527" y1="123.543" x2="24.2784" y2="307.871" gradientUnits="userSpaceOnUse">
<stop offset="0.0846154" stop-color="#017BAA"/>
<stop offset="0.222" stop-color="#016692"/>
<stop offset="0.5882" stop-color="#C7E7EE"/>
<stop offset="0.858" stop-color="#021230"/>
<stop offset="1" stop-color="#020622"/>
</linearGradient>
<linearGradient id="paint23_linear_1031_14570" x1="121.232" y1="205.178" x2="121.627" y2="236.225" gradientUnits="userSpaceOnUse">
<stop stop-color="#D0EAF4"/>
<stop offset="1" stop-color="#D0F0F1"/>
</linearGradient>
<linearGradient id="paint24_linear_1031_14570" x1="155.476" y1="30.4416" x2="342.152" y2="30.4416" gradientUnits="userSpaceOnUse">
<stop stop-color="#02295F"/>
<stop offset="1" stop-color="#2394BC"/>
</linearGradient>
<linearGradient id="paint25_linear_1031_14570" x1="153.192" y1="64.5989" x2="225.471" y2="64.5989" gradientUnits="userSpaceOnUse">
<stop stop-color="#02295F"/>
<stop offset="1" stop-color="#2394BC"/>
</linearGradient>
<linearGradient id="paint26_linear_1031_14570" x1="288.963" y1="89.3163" x2="337.675" y2="46.5633" gradientUnits="userSpaceOnUse">
<stop stop-color="#02295F"/>
<stop offset="1" stop-color="#2394BC"/>
</linearGradient>
<linearGradient id="paint27_linear_1031_14570" x1="38.3908" y1="106.053" x2="329.881" y2="106.053" gradientUnits="userSpaceOnUse">
<stop stop-color="#02295F"/>
<stop offset="1" stop-color="#2394BC"/>
</linearGradient>
<linearGradient id="paint28_linear_1031_14570" x1="170.455" y1="180.715" x2="182.188" y2="116.269" gradientUnits="userSpaceOnUse">
<stop stop-color="#30B2E0"/>
<stop offset="1" stop-color="#1A617A"/>
</linearGradient>
<linearGradient id="paint29_linear_1031_14570" x1="9.47698" y1="137.779" x2="101.551" y2="137.779" gradientUnits="userSpaceOnUse">
<stop stop-color="#02295F"/>
<stop offset="1" stop-color="#2394BC"/>
</linearGradient>
<linearGradient id="paint30_linear_1031_14570" x1="28.5441" y1="184.223" x2="213.185" y2="184.223" gradientUnits="userSpaceOnUse">
<stop stop-color="#02295F"/>
<stop offset="1" stop-color="#2394BC"/>
</linearGradient>
</defs>
</svg>
