<svg width="363" height="617" viewBox="0 0 363 617" fill="none" xmlns="http://www.w3.org/2000/svg">
<rect x="0.5" y="0.5" width="362" height="583" rx="23.5" stroke="#6B9CC6" stroke-opacity="0.26"/>
<path d="M248.428 99.6689V279.969L183.75 242.801V62.6797L248.428 99.6689Z" fill="#D0EAF4" fill-opacity="0.38"/>
<path d="M193.749 289.442V301.057L149.797 275.861V264.246L193.749 289.442Z" fill="url(#paint0_linear_1031_14315)"/>
<path d="M193.75 289.442V301.056L237.524 275.146V263.531L193.75 289.442Z" fill="url(#paint1_linear_1031_14315)"/>
<path d="M237.523 263.531L193.749 289.442L149.797 264.246L193.749 238.336L237.523 263.531Z" fill="url(#paint2_linear_1031_14315)"/>
<path d="M193.569 299.805L194.283 289.262L236.806 264.066L193.747 288.011L150.867 264.96L193.211 289.619L193.569 299.805Z" fill="white"/>
<path d="M193.749 274.075V285.69L149.797 260.674V249.059L193.749 274.075Z" fill="url(#paint3_linear_1031_14315)"/>
<path d="M193.75 274.074V285.689L237.524 259.779V248.164L193.75 274.074Z" fill="url(#paint4_linear_1031_14315)"/>
<path d="M237.523 248.164L193.749 274.075L149.797 249.058L193.749 222.969L237.523 248.164Z" fill="url(#paint5_linear_1031_14315)"/>
<path d="M193.569 284.617L194.283 273.896L236.806 248.879L193.747 272.645L150.867 249.772L193.211 274.432L193.569 284.617Z" fill="white"/>
<path d="M193.749 259.418V271.033L149.797 245.838V234.223L193.749 259.418Z" fill="url(#paint6_linear_1031_14315)"/>
<path d="M193.75 259.418V271.033L237.524 245.123V233.508L193.75 259.418Z" fill="url(#paint7_linear_1031_14315)"/>
<path d="M237.523 233.508L193.749 259.418L149.797 234.223L193.749 208.312L237.523 233.508Z" fill="url(#paint8_linear_1031_14315)"/>
<path d="M193.569 269.781L194.283 259.238L236.806 234.043L193.747 257.988L150.867 234.936L193.211 259.596L193.569 269.781Z" fill="white"/>
<path d="M212.869 241.55L210.367 240.121L212.869 238.691L215.191 240.121L212.869 241.55Z" fill="white"/>
<path d="M197.859 247.45L208.579 241.195L211.081 242.625L200.182 248.7L197.859 247.45Z" fill="white"/>
<path d="M207.508 235.297L209.83 236.726L201.79 241.372L199.289 239.943L207.508 235.297Z" fill="white"/>
<path d="M196.611 228.508L199.112 229.937L188.392 236.192L185.891 234.762L196.611 228.508Z" fill="white"/>
<path d="M191.067 225.289L193.389 226.719L186.064 230.828L183.562 229.578L191.067 225.289Z" fill="white"/>
<path d="M196.071 235.477L198.393 236.727L187.673 242.982L185.172 241.552L196.071 235.477Z" fill="white"/>
<path d="M190.888 218.855L193.389 220.285L186.064 224.395L183.562 222.965L190.888 218.855Z" fill="white"/>
<path d="M181.775 224.039L184.276 225.469L173.377 231.723L171.055 230.293L181.775 224.039Z" fill="white"/>
<path d="M211.619 235.653L209.117 234.224L211.619 232.973L214.12 234.402L211.619 235.653Z" fill="white"/>
<path d="M200.181 235.831L197.68 234.402L205.184 230.113L207.506 231.543L200.181 235.831Z" fill="white"/>
<path d="M200.9 228.864L198.398 227.434L200.9 226.184L203.222 227.613L200.9 228.864Z" fill="white"/>
<path d="M206.969 229.042L212.15 226.004L214.651 227.433L209.291 230.471L206.969 229.042Z" fill="white"/>
<path d="M186.606 237.086L177.315 242.447L174.992 241.017L184.104 235.656L186.606 237.086Z" fill="white"/>
<path d="M185.891 244.055L183.033 245.663L180.531 244.233L183.39 242.625L185.891 244.055Z" fill="white"/>
<path d="M184.282 231.902L171.775 239.229L169.273 237.799L181.959 230.473L184.282 231.902Z" fill="white"/>
<path d="M192.68 217.785L195.36 216.355L197.682 217.785L195.181 219.215L192.68 217.785Z" fill="white"/>
<path d="M169.272 231.367L171.773 232.797L166.056 236.013L163.555 234.584L169.272 231.367Z" fill="white"/>
<path d="M200 242.445L188.565 249.057L186.242 247.627L197.498 241.016L200 242.445Z" fill="white"/>
<path d="M192.859 224.216L200.899 219.57L203.401 221L195.182 225.646L192.859 224.216Z" fill="white"/>
<path d="M202.688 225.112L206.618 222.789L208.941 224.219L205.01 226.542L202.688 225.112Z" fill="white"/>
<path d="M198.571 249.769L194.283 252.271L191.781 250.842L196.069 248.34L198.571 249.769Z" fill="white"/>
<path d="M213.406 231.9L217.873 229.398L220.374 230.828L215.908 233.33L213.406 231.9Z" fill="white"/>
<path d="M214.477 237.799L223.41 232.617L225.911 234.047L216.978 239.229L214.477 237.799Z" fill="white"/>
<path d="M182.499 137.731V325L115.32 286.581V99.3125L182.499 137.731Z" fill="#E6F6FD"/>
<path d="M249.678 98.5974L182.499 137.731L115.32 99.3122L182.499 60L249.678 98.5974Z" fill="#D0EAF4"/>
<path d="M182.5 137.731V325L249.679 285.866V98.5977L182.5 137.731ZM191.076 146.487L240.924 117.539V278.183L191.076 307.131V146.487Z" fill="#D0EAF4"/>
<path d="M125.141 130.628C125.141 129.972 125.85 129.563 126.417 129.892L141.69 138.735C141.952 138.887 142.114 139.167 142.114 139.471V139.471C142.114 140.126 141.404 140.535 140.837 140.207L125.565 131.364C125.302 131.212 125.141 130.931 125.141 130.628V130.628Z" fill="white"/>
<path d="M125.141 136.209C125.141 135.612 125.785 135.237 126.304 135.532L141.685 144.276C141.95 144.427 142.114 144.709 142.114 145.014V145.014C142.114 145.668 141.406 146.076 140.84 145.748L125.529 136.883C125.289 136.744 125.141 136.487 125.141 136.209V136.209Z" fill="white"/>
<path d="M125.141 141.748C125.141 141.151 125.785 140.776 126.304 141.071L141.685 149.815C141.95 149.966 142.114 150.248 142.114 150.553V150.553C142.114 151.207 141.406 151.615 140.84 151.288L125.529 142.422C125.289 142.283 125.141 142.026 125.141 141.748V141.748Z" fill="white"/>
<path d="M125.141 147.287C125.141 146.69 125.785 146.315 126.304 146.611L141.685 155.355C141.95 155.505 142.114 155.787 142.114 156.092V156.092C142.114 156.746 141.406 157.154 140.84 156.827L125.529 147.961C125.289 147.822 125.141 147.565 125.141 147.287V147.287Z" fill="white"/>
<path d="M125.141 158.369C125.141 157.773 125.786 157.401 126.301 157.699L141.728 166.632C141.967 166.77 142.114 167.025 142.114 167.301V167.301C142.114 167.897 141.469 168.269 140.953 167.97L125.526 159.038C125.288 158.899 125.141 158.644 125.141 158.369V158.369Z" fill="white"/>
<path d="M125.141 163.908C125.141 163.312 125.786 162.94 126.301 163.238L141.728 172.171C141.967 172.309 142.114 172.564 142.114 172.84V172.84C142.114 173.436 141.469 173.808 140.953 173.509L125.526 164.577C125.288 164.438 125.141 164.183 125.141 163.908V163.908Z" fill="white"/>
<defs>
<linearGradient id="paint0_linear_1031_14315" x1="251.314" y1="300.488" x2="88.7039" y2="264.041" gradientUnits="userSpaceOnUse">
<stop offset="0.0353535" stop-color="#138BBD"/>
<stop offset="0.2257" stop-color="#169AC7"/>
<stop offset="0.5946" stop-color="#1FC3DF"/>
<stop offset="1" stop-color="#2AF6FF"/>
</linearGradient>
<linearGradient id="paint1_linear_1031_14315" x1="197.21" y1="298.51" x2="306.526" y2="248.423" gradientUnits="userSpaceOnUse">
<stop stop-color="#02295F"/>
<stop offset="1" stop-color="#2394BC"/>
</linearGradient>
<linearGradient id="paint2_linear_1031_14315" x1="138.612" y1="257.628" x2="247.83" y2="257.628" gradientUnits="userSpaceOnUse">
<stop stop-color="#02295F"/>
<stop offset="1" stop-color="#2394BC"/>
</linearGradient>
<linearGradient id="paint3_linear_1031_14315" x1="251.314" y1="285.212" x2="88.7039" y2="248.765" gradientUnits="userSpaceOnUse">
<stop offset="0.0353535" stop-color="#138BBD"/>
<stop offset="0.2257" stop-color="#169AC7"/>
<stop offset="0.5946" stop-color="#1FC3DF"/>
<stop offset="1" stop-color="#2AF6FF"/>
</linearGradient>
<linearGradient id="paint4_linear_1031_14315" x1="199.992" y1="277.839" x2="277.508" y2="246.436" gradientUnits="userSpaceOnUse">
<stop stop-color="#02295F"/>
<stop offset="1" stop-color="#2394BC"/>
</linearGradient>
<linearGradient id="paint5_linear_1031_14315" x1="138.612" y1="242.261" x2="247.83" y2="242.261" gradientUnits="userSpaceOnUse">
<stop stop-color="#02295F"/>
<stop offset="1" stop-color="#2394BC"/>
</linearGradient>
<linearGradient id="paint6_linear_1031_14315" x1="251.314" y1="270.456" x2="88.7039" y2="234.009" gradientUnits="userSpaceOnUse">
<stop offset="0.0353535" stop-color="#138BBD"/>
<stop offset="0.2257" stop-color="#169AC7"/>
<stop offset="0.5946" stop-color="#1FC3DF"/>
<stop offset="1" stop-color="#2AF6FF"/>
</linearGradient>
<linearGradient id="paint7_linear_1031_14315" x1="211.918" y1="261.141" x2="288.638" y2="219.004" gradientUnits="userSpaceOnUse">
<stop stop-color="#02295F"/>
<stop offset="1" stop-color="#2394BC"/>
</linearGradient>
<linearGradient id="paint8_linear_1031_14315" x1="138.612" y1="227.605" x2="247.83" y2="227.605" gradientUnits="userSpaceOnUse">
<stop stop-color="#02295F"/>
<stop offset="1" stop-color="#2394BC"/>
</linearGradient>
</defs>
</svg>
