<svg width="363" height="584" viewBox="0 0 363 584" fill="none" xmlns="http://www.w3.org/2000/svg">
<g filter="url(#filter0_bi_1031_14454)">
<rect x="0.5" y="0.5" width="362" height="583" rx="23.5" stroke="#6B9CC6" stroke-opacity="0.26"/>
</g>
<path d="M171.03 127.112L189.003 127.055L200.029 135.905C198.306 139.181 196.813 143.951 196.124 150.273C195.837 152.974 195.722 155.56 195.665 157.916C187.683 157.974 163.564 157.227 163.335 157.227C163.277 154.813 163.392 152.112 163.679 149.353C164.713 140.215 167.125 132.859 171.03 127.112Z" stroke="#6B9CC6" stroke-width="1.0086" stroke-miterlimit="10"/>
<path d="M171.03 127.112L189.003 127.055L200.029 135.905C198.306 139.181 196.813 143.951 196.124 150.273C195.837 152.974 195.722 155.56 195.665 157.916C187.683 157.974 163.564 157.227 163.335 157.227C163.277 154.813 163.392 152.112 163.679 149.353C164.713 140.215 167.125 132.859 171.03 127.112Z" stroke="url(#paint0_linear_1031_14454)" stroke-width="1.0086" stroke-miterlimit="10"/>
<path d="M190.433 101.371L190.49 118.382L172.229 118.44L172.172 101.429L190.433 101.371Z" fill="url(#paint1_linear_1031_14454)"/>
<path d="M266.984 92.3477L267.042 109.359L260.266 119.071V102.06L266.984 92.3477Z" fill="url(#paint2_linear_1031_14454)"/>
<path d="M253.876 118.267L253.933 135.279C253.933 131.026 251.119 126.716 245.549 123.497C245.262 123.325 244.918 123.152 244.63 122.98L244.516 105.969C244.803 106.141 245.147 106.314 245.434 106.486C251.062 109.704 253.876 113.957 253.876 118.267Z" fill="url(#paint3_linear_1031_14454)"/>
<mask id="mask0_1031_14454" style="mask-type:luminance" maskUnits="userSpaceOnUse" x="244" y="105" width="10" height="31">
<path d="M253.884 118.264L253.941 135.275C253.941 131.022 251.127 126.712 245.557 123.493C245.27 123.321 244.925 123.149 244.638 122.976L244.523 105.965C244.811 106.137 245.155 106.31 245.442 106.482C251.07 109.7 253.884 113.953 253.884 118.264Z" fill="white"/>
</mask>
<g mask="url(#mask0_1031_14454)">
<path d="M253.884 118.264L253.941 135.275C253.941 131.022 251.127 126.712 245.557 123.493C245.27 123.321 244.925 123.149 244.638 122.976L244.523 105.965C244.811 106.137 245.155 106.31 245.442 106.482C251.07 109.7 253.884 113.953 253.884 118.264Z" fill="url(#paint4_linear_1031_14454)"/>
</g>
<path d="M163.386 148.957L163.328 131.945C163.328 132.405 163.328 132.807 163.328 133.21L163.386 150.221C163.386 149.819 163.386 149.359 163.386 148.957Z" fill="url(#paint5_linear_1031_14454)"/>
<mask id="mask1_1031_14454" style="mask-type:luminance" maskUnits="userSpaceOnUse" x="163" y="131" width="1" height="20">
<path d="M163.378 148.953L163.32 131.941C163.32 132.401 163.32 132.803 163.32 133.206L163.378 150.217C163.378 149.815 163.378 149.355 163.378 148.953Z" fill="white"/>
</mask>
<g mask="url(#mask1_1031_14454)">
<path d="M163.379 133.206L163.436 150.217C163.436 149.815 163.436 149.355 163.436 148.953L163.379 131.941C163.322 132.344 163.322 132.803 163.379 133.206Z" fill="url(#paint6_linear_1031_14454)"/>
</g>
<path d="M195.831 147.806C195.831 147.576 195.831 147.289 195.888 147.059C195.888 146.657 195.946 146.255 195.946 145.795C195.946 145.565 195.946 145.393 196.003 145.163C196.061 144.531 196.118 143.898 196.175 143.209C196.233 142.806 196.29 142.462 196.29 142.059C196.29 141.944 196.348 141.829 196.348 141.657C196.405 141.427 196.405 141.197 196.463 140.91C196.463 140.737 196.52 140.623 196.52 140.45C196.577 140.22 196.577 140.048 196.635 139.818C196.635 139.646 196.692 139.531 196.692 139.358C196.75 139.186 196.75 139.013 196.807 138.841C196.922 138.266 197.037 137.749 197.152 137.232C197.152 137.117 197.209 137.059 197.209 136.944C197.324 136.427 197.439 135.967 197.554 135.45C197.554 135.393 197.611 135.278 197.611 135.22C197.726 134.761 197.898 134.243 198.013 133.784C198.013 133.726 198.013 133.669 198.07 133.669C198.243 133.209 198.358 132.749 198.53 132.347V132.289C198.645 132.002 198.76 131.715 198.874 131.427C198.932 131.37 198.932 131.255 198.989 131.197C199.047 130.967 199.161 130.795 199.219 130.565C199.276 130.45 199.276 130.393 199.334 130.278C199.391 130.105 199.506 129.876 199.563 129.703C199.621 129.646 199.621 129.531 199.678 129.473C199.793 129.243 199.908 128.956 200.023 128.726L199.965 111.715C199.851 111.945 199.736 112.175 199.621 112.462C199.563 112.519 199.563 112.634 199.506 112.692C199.449 112.864 199.334 113.037 199.276 113.267C199.219 113.381 199.219 113.439 199.161 113.554C199.104 113.726 198.989 113.956 198.932 114.186C198.874 114.244 198.874 114.358 198.817 114.416C198.702 114.703 198.587 114.991 198.472 115.278V115.335C198.3 115.738 198.185 116.198 198.013 116.657C198.013 116.715 198.013 116.772 197.956 116.772C197.841 117.232 197.668 117.692 197.554 118.209C197.554 118.266 197.496 118.381 197.496 118.439C197.381 118.899 197.266 119.416 197.152 119.933C197.152 120.048 197.094 120.106 197.094 120.22C196.979 120.738 196.865 121.255 196.75 121.83C196.75 121.887 196.75 121.887 196.75 121.887C196.75 122.06 196.692 122.174 196.692 122.347C196.692 122.519 196.635 122.634 196.635 122.807C196.577 123.037 196.577 123.209 196.52 123.439C196.52 123.611 196.463 123.726 196.463 123.899C196.405 124.128 196.405 124.416 196.348 124.646C196.348 124.761 196.29 124.876 196.29 124.991C196.233 125.393 196.175 125.738 196.175 126.14C196.118 126.772 196.061 127.404 196.003 128.036C196.003 128.266 195.946 128.439 195.946 128.669C195.888 129.071 195.888 129.473 195.888 129.933C195.888 130.163 195.888 130.45 195.831 130.68C195.831 131.025 195.773 131.427 195.773 131.772C195.773 132.002 195.773 132.289 195.773 132.519C195.773 132.749 195.773 132.979 195.773 133.151C195.773 133.381 195.773 133.554 195.773 133.784L195.831 150.795C195.831 150.393 195.831 149.933 195.831 149.53C195.831 149.301 195.831 149.013 195.831 148.783C195.773 148.553 195.831 148.151 195.831 147.806Z" fill="url(#paint7_linear_1031_14454)"/>
<path d="M195.708 150.908L195.651 133.897C195.478 133.897 195.364 133.897 195.191 133.897C195.134 133.897 195.076 133.897 195.019 133.897C194.904 133.897 194.789 133.897 194.674 133.897C194.617 133.897 194.56 133.897 194.502 133.897C194.33 133.897 194.158 133.897 193.985 133.897C193.813 133.897 193.583 133.897 193.411 133.897C193.354 133.897 193.296 133.897 193.239 133.897C193.067 133.897 192.952 133.897 192.779 133.897C192.722 133.897 192.665 133.897 192.607 133.897C192.435 133.897 192.32 133.897 192.148 133.897C192.09 133.897 192.033 133.897 191.918 133.897C191.746 133.897 191.516 133.897 191.344 133.897C191.229 133.897 191.172 133.897 191.057 133.897C190.942 133.897 190.827 133.897 190.712 133.897C190.597 133.897 190.482 133.897 190.425 133.897C190.253 133.897 190.138 133.897 189.966 133.897C189.908 133.897 189.793 133.897 189.736 133.897C189.506 133.897 189.277 133.897 189.047 133.897C188.932 133.897 188.875 133.897 188.76 133.897C188.587 133.897 188.473 133.897 188.3 133.897C188.186 133.897 188.071 133.897 187.956 133.897C187.784 133.897 187.669 133.897 187.496 133.897C187.439 133.897 187.324 133.897 187.267 133.897C187.037 133.897 186.807 133.897 186.52 133.897C186.463 133.897 186.348 133.897 186.291 133.897C186.118 133.897 185.946 133.897 185.716 133.897C185.601 133.897 185.487 133.897 185.429 133.897C185.314 133.897 185.142 133.897 185.027 133.897C184.912 133.897 184.74 133.897 184.625 133.897C184.395 133.897 184.108 133.897 183.879 133.897C183.821 133.897 183.764 133.897 183.706 133.897C183.477 133.897 183.304 133.897 183.075 133.897C182.96 133.897 182.845 133.897 182.73 133.897C182.615 133.897 182.5 133.897 182.386 133.897C182.213 133.897 182.041 133.897 181.869 133.897C181.639 133.897 181.409 133.897 181.18 133.897C181.065 133.897 181.007 133.897 180.893 133.897C180.72 133.897 180.548 133.897 180.376 133.897C180.261 133.897 180.146 133.897 180.031 133.897C179.802 133.897 179.629 133.897 179.4 133.897C179.342 133.897 179.285 133.897 179.227 133.897C178.998 133.897 178.71 133.897 178.481 133.897C178.366 133.897 178.194 133.897 178.079 133.897C177.907 133.897 177.734 133.897 177.619 133.897C177.505 133.897 177.447 133.897 177.332 133.897C177.103 133.897 176.873 133.897 176.643 133.897C176.586 133.897 176.586 133.897 176.528 133.897C176.241 133.897 175.954 133.897 175.724 133.897C175.61 133.897 175.552 133.897 175.437 133.897C175.322 133.897 175.15 133.897 175.035 133.897C174.92 133.897 174.748 133.897 174.633 133.897C174.461 133.897 174.289 133.897 174.117 133.897C174.059 133.897 174.002 133.897 173.887 133.897C172.796 133.897 171.705 133.839 170.728 133.839C170.671 133.839 170.671 133.839 170.614 133.839C169.408 133.782 168.259 133.782 167.283 133.724H167.226C167.053 133.724 166.881 133.724 166.709 133.724C166.651 133.724 166.651 133.724 166.594 133.724C164.527 133.667 163.206 133.609 163.148 133.609L163.206 150.621C163.206 150.621 163.263 150.621 163.321 150.621C163.378 150.621 163.436 150.621 163.55 150.621C163.608 150.621 163.608 150.621 163.665 150.621H163.723C163.895 150.621 164.125 150.621 164.412 150.621C164.527 150.621 164.699 150.621 164.814 150.621C164.986 150.621 165.216 150.621 165.445 150.621C165.675 150.621 165.905 150.621 166.192 150.621C166.307 150.621 166.479 150.621 166.594 150.621C166.651 150.621 166.709 150.621 166.766 150.621C166.938 150.621 167.111 150.621 167.283 150.621C167.455 150.621 167.685 150.621 167.915 150.621C167.972 150.621 167.972 150.621 168.03 150.621C168.144 150.621 168.259 150.621 168.374 150.621C168.489 150.621 168.604 150.621 168.719 150.621C169.121 150.621 169.523 150.621 169.925 150.678C169.982 150.678 170.097 150.678 170.154 150.678C170.326 150.678 170.556 150.678 170.728 150.678C170.786 150.678 170.786 150.678 170.843 150.678C171.303 150.678 171.762 150.678 172.222 150.736C172.336 150.736 172.451 150.736 172.509 150.736C172.681 150.736 172.853 150.736 173.025 150.736C173.083 150.736 173.14 150.736 173.14 150.736C173.37 150.736 173.657 150.736 173.944 150.736H174.002C174.518 150.736 175.093 150.736 175.61 150.793H175.667C175.954 150.793 176.241 150.793 176.528 150.793C176.586 150.793 176.586 150.793 176.643 150.793C176.873 150.793 177.103 150.793 177.332 150.793C177.447 150.793 177.505 150.793 177.619 150.793C177.849 150.793 178.079 150.793 178.308 150.793C178.366 150.793 178.366 150.793 178.423 150.793C178.71 150.793 178.998 150.793 179.285 150.793C179.342 150.793 179.342 150.793 179.4 150.793C179.629 150.793 179.859 150.793 180.089 150.793C180.204 150.793 180.261 150.793 180.376 150.793C180.605 150.793 180.778 150.793 181.007 150.793C181.065 150.793 181.122 150.793 181.18 150.793C181.467 150.793 181.754 150.793 181.984 150.793C182.041 150.793 182.041 150.793 182.099 150.793C182.328 150.793 182.558 150.793 182.788 150.793C182.845 150.793 182.96 150.793 183.017 150.793C183.247 150.793 183.477 150.793 183.706 150.793C183.764 150.793 183.764 150.793 183.821 150.793C183.821 150.793 183.821 150.793 183.879 150.793C184.166 150.793 184.395 150.793 184.683 150.793C184.74 150.793 184.797 150.793 184.797 150.793C185.027 150.793 185.257 150.793 185.487 150.793C185.544 150.793 185.544 150.793 185.601 150.793C186.176 150.793 186.692 150.793 187.267 150.851C187.496 150.851 187.784 150.851 188.013 150.851C188.071 150.851 188.128 150.851 188.186 150.851C188.415 150.851 188.645 150.851 188.817 150.851C188.875 150.851 188.875 150.851 188.932 150.851C189.162 150.851 189.449 150.851 189.679 150.851H189.736C189.966 150.851 190.195 150.851 190.368 150.851C190.425 150.851 190.482 150.851 190.54 150.851C190.712 150.851 190.884 150.851 191.057 150.851C191.114 150.851 191.172 150.851 191.229 150.851C191.459 150.851 191.688 150.851 191.918 150.851H191.976C192.205 150.851 192.377 150.851 192.55 150.851C192.607 150.851 192.607 150.851 192.665 150.851C192.837 150.851 193.009 150.851 193.239 150.851H193.296C193.698 150.851 194.1 150.851 194.445 150.851C194.502 150.851 194.502 150.851 194.56 150.851C194.732 150.851 194.847 150.851 194.962 150.851C195.019 150.851 195.019 150.851 195.076 150.851C195.421 150.908 195.593 150.908 195.708 150.908Z" fill="url(#paint8_linear_1031_14454)"/>
<path d="M240.908 131.773L240.965 148.785L239.128 159.187L239.07 142.176L240.908 131.773Z" fill="url(#paint9_linear_1031_14454)"/>
<path d="M286.331 135.164L286.274 118.152C286.274 118.382 286.274 118.555 286.274 118.785C286.274 118.957 286.274 119.072 286.274 119.244C286.274 119.359 286.274 119.532 286.274 119.647C286.274 119.819 286.274 119.934 286.216 120.106C286.216 120.221 286.216 120.394 286.159 120.509C286.159 120.681 286.101 120.796 286.101 120.968C286.101 121.083 286.044 121.256 286.044 121.371C286.044 121.543 285.987 121.658 285.987 121.83C285.987 121.945 285.929 122.118 285.929 122.233C285.929 122.405 285.872 122.52 285.814 122.693C285.757 122.807 285.757 122.98 285.699 123.095C285.642 123.267 285.642 123.382 285.585 123.555C285.527 123.67 285.527 123.842 285.47 123.957C285.412 124.129 285.412 124.244 285.355 124.417C285.297 124.532 285.297 124.704 285.24 124.819C285.183 124.991 285.125 125.106 285.068 125.279C285.01 125.394 284.953 125.566 284.895 125.681C284.838 125.853 284.781 125.968 284.723 126.141C284.666 126.256 284.608 126.428 284.551 126.543C284.493 126.715 284.436 126.83 284.379 127.003C284.321 127.118 284.264 127.29 284.206 127.405C284.149 127.578 284.092 127.692 283.977 127.865C283.919 127.98 283.862 128.152 283.804 128.267C283.747 128.44 283.632 128.555 283.575 128.727C283.517 128.842 283.46 128.957 283.345 129.129C283.23 129.359 283.115 129.532 283 129.761C282.943 129.876 282.886 129.934 282.828 130.049C282.656 130.336 282.484 130.623 282.311 130.911C282.311 130.968 282.254 130.968 282.254 131.026C282.082 131.256 281.909 131.543 281.737 131.773C281.68 131.888 281.622 131.945 281.507 132.06C281.393 132.233 281.22 132.463 281.105 132.635C281.048 132.75 280.933 132.807 280.876 132.922C280.703 133.152 280.531 133.382 280.359 133.612C280.302 133.727 280.187 133.842 280.129 133.899C279.957 134.129 279.727 134.359 279.555 134.589C279.498 134.646 279.44 134.761 279.325 134.819C279.038 135.106 278.751 135.451 278.464 135.738C278.406 135.796 278.349 135.853 278.292 135.911C278.062 136.141 277.832 136.371 277.603 136.6C277.488 136.715 277.373 136.83 277.201 136.945C277.086 137.06 276.971 137.175 276.799 137.29C276.684 137.405 276.511 137.577 276.339 137.692C276.224 137.807 276.11 137.922 275.937 138.037C275.765 138.152 275.65 138.267 275.478 138.439C275.363 138.554 275.191 138.669 275.076 138.784C274.904 138.899 274.789 139.014 274.616 139.187C274.502 139.302 274.329 139.416 274.215 139.531C274.042 139.646 273.87 139.761 273.698 139.934C273.583 140.049 273.411 140.164 273.296 140.279C273.123 140.393 272.951 140.508 272.779 140.681C272.607 140.796 272.492 140.911 272.319 141.026C272.147 141.141 271.975 141.256 271.803 141.428C271.63 141.543 271.516 141.658 271.343 141.715C271.171 141.83 270.941 141.945 270.769 142.118C270.597 142.233 270.482 142.29 270.31 142.405C270.252 142.462 270.195 142.462 270.137 142.52C269.506 142.922 268.874 143.324 268.185 143.727C267.783 143.957 267.381 144.187 266.979 144.359C266.864 144.416 266.692 144.474 266.577 144.589C266.29 144.761 266.003 144.876 265.716 145.049C265.543 145.106 265.371 145.221 265.199 145.278C264.912 145.393 264.625 145.566 264.337 145.681C264.165 145.738 263.993 145.853 263.821 145.911C263.534 146.026 263.246 146.141 262.902 146.313C262.73 146.37 262.557 146.428 262.385 146.543C262.041 146.658 261.639 146.83 261.294 146.945C261.179 147.003 261.064 147.06 260.892 147.118C260.375 147.29 259.858 147.462 259.342 147.635C259.227 147.692 259.112 147.692 258.997 147.75C258.595 147.865 258.193 148.037 257.791 148.152C257.102 148.382 256.47 148.554 255.781 148.727L255.839 165.738C256.528 165.566 257.217 165.336 257.849 165.163C257.906 165.163 257.963 165.106 258.021 165.106C258.365 164.991 258.71 164.876 259.054 164.761C259.169 164.704 259.284 164.704 259.399 164.646C259.916 164.474 260.433 164.301 260.949 164.129C261.064 164.071 261.179 164.014 261.351 163.956C261.696 163.841 262.098 163.669 262.442 163.554C262.615 163.497 262.787 163.439 262.959 163.324C263.246 163.209 263.591 163.094 263.878 162.922C264.05 162.864 264.223 162.75 264.395 162.692C264.682 162.577 264.969 162.462 265.256 162.29C265.429 162.232 265.601 162.117 265.773 162.06C266.06 161.945 266.347 161.773 266.634 161.6C266.749 161.543 266.922 161.485 267.036 161.37C267.438 161.14 267.84 160.91 268.242 160.738C268.931 160.336 269.563 159.933 270.195 159.531C270.252 159.531 270.252 159.474 270.31 159.474L270.367 159.416C270.539 159.301 270.654 159.244 270.826 159.129C270.999 159.014 271.228 158.899 271.401 158.727C271.573 158.612 271.688 158.497 271.86 158.439C272.032 158.324 272.205 158.209 272.434 158.037C272.607 157.922 272.721 157.807 272.894 157.75C273.066 157.635 273.238 157.52 273.411 157.347C273.583 157.232 273.698 157.117 273.813 157.002C273.985 156.888 274.157 156.773 274.329 156.6C274.444 156.485 274.616 156.37 274.731 156.255C274.904 156.14 275.076 156.025 275.191 155.853C275.306 155.738 275.478 155.623 275.593 155.508C275.765 155.393 275.88 155.278 276.052 155.106C276.167 154.991 276.339 154.876 276.454 154.761C276.626 154.646 276.741 154.474 276.913 154.359C277.028 154.244 277.143 154.129 277.315 154.014C277.373 153.957 277.488 153.842 277.545 153.784C277.603 153.727 277.603 153.727 277.66 153.669C277.89 153.439 278.119 153.209 278.349 152.98C278.406 152.922 278.464 152.865 278.521 152.807C278.808 152.52 279.096 152.232 279.383 151.888C279.44 151.83 279.498 151.715 279.612 151.658C279.842 151.428 280.014 151.198 280.187 150.968C280.244 150.853 280.359 150.738 280.416 150.681C280.589 150.451 280.761 150.221 280.933 149.991C280.991 149.934 281.048 149.876 281.105 149.819C281.105 149.761 281.163 149.761 281.163 149.704C281.278 149.531 281.45 149.301 281.565 149.129C281.622 149.014 281.737 148.957 281.795 148.842C281.967 148.612 282.139 148.324 282.311 148.095C282.311 148.037 282.369 148.037 282.369 147.98C282.541 147.692 282.713 147.405 282.886 147.118C282.943 147.003 283 146.945 283.058 146.83C283.173 146.6 283.288 146.428 283.402 146.198L283.46 146.141C283.517 146.026 283.575 145.968 283.632 145.853C283.69 145.681 283.804 145.566 283.862 145.393C283.919 145.278 283.977 145.106 284.034 144.991C284.092 144.819 284.206 144.704 284.264 144.531C284.321 144.416 284.379 144.244 284.436 144.129C284.493 143.957 284.551 143.842 284.608 143.669C284.666 143.554 284.723 143.382 284.781 143.267C284.838 143.095 284.895 142.98 284.953 142.807C284.953 142.75 285.01 142.692 285.01 142.635C285.068 142.52 285.068 142.462 285.125 142.347C285.183 142.175 285.24 142.06 285.297 141.888C285.355 141.773 285.412 141.6 285.412 141.485C285.47 141.313 285.527 141.198 285.527 141.026C285.585 140.911 285.585 140.738 285.642 140.623C285.699 140.451 285.699 140.336 285.757 140.164C285.814 140.049 285.814 139.876 285.872 139.761C285.929 139.589 285.929 139.474 285.987 139.302C285.987 139.244 285.987 139.187 286.044 139.129C286.044 139.072 286.044 138.957 286.101 138.899C286.101 138.727 286.159 138.612 286.159 138.439C286.159 138.325 286.216 138.152 286.216 138.037C286.216 137.865 286.274 137.75 286.274 137.577C286.274 137.462 286.331 137.29 286.331 137.175C286.331 137.003 286.331 136.888 286.388 136.715C286.388 136.6 286.388 136.428 286.388 136.313C286.388 136.141 286.388 136.026 286.388 135.853C286.388 135.796 286.388 135.681 286.388 135.623C286.331 135.451 286.331 135.336 286.331 135.164Z" fill="url(#paint10_linear_1031_14454)"/>
<path d="M255.79 148.438L255.847 165.45L242.065 158.496L242.008 141.484L255.79 148.438Z" fill="url(#paint11_linear_1031_14454)"/>
<path d="M106.775 150.11L106.833 167.121L104.995 156.949L104.938 139.938L106.775 150.11Z" fill="url(#paint12_linear_1031_14454)"/>
<path d="M124.108 155.795L124.165 172.806L106.823 167.117L106.766 150.105L124.108 155.795Z" fill="url(#paint13_linear_1031_14454)"/>
<path d="M252.967 149.184C252.393 149.356 251.761 149.471 251.13 149.586C250.957 149.643 250.728 149.701 250.555 149.701C250.153 149.816 249.694 149.873 249.292 149.988C249.062 150.046 248.833 150.103 248.603 150.161C248.201 150.218 247.742 150.333 247.34 150.39C247.11 150.448 246.823 150.505 246.593 150.505C246.076 150.62 245.502 150.678 244.985 150.793C244.87 150.793 244.813 150.85 244.698 150.85C244.066 150.965 243.377 151.08 242.688 151.195C242.516 151.195 242.344 151.253 242.171 151.253C241.597 151.31 241.08 151.425 240.506 151.482C240.334 151.482 240.162 151.54 240.047 151.54C239.358 151.655 238.668 151.712 237.922 151.827C237.75 151.827 237.635 151.885 237.463 151.885C236.888 151.942 236.257 152.057 235.625 152.115C235.395 152.115 235.223 152.172 234.993 152.172C234.247 152.23 233.5 152.344 232.696 152.402C232.639 152.402 232.581 152.402 232.524 152.402C231.778 152.459 231.031 152.574 230.227 152.632C229.94 152.632 229.71 152.689 229.423 152.689C228.849 152.747 228.275 152.804 227.7 152.862C227.413 152.862 227.069 152.919 226.782 152.919C226.207 152.977 225.633 152.977 225.059 153.034C224.772 153.034 224.427 153.092 224.14 153.092C223.508 153.149 222.877 153.149 222.188 153.207C221.958 153.207 221.728 153.264 221.441 153.264C220.522 153.321 219.661 153.379 218.742 153.436C218.57 153.436 218.398 153.436 218.283 153.436C217.536 153.494 216.732 153.494 215.986 153.551C215.641 153.551 215.354 153.551 215.01 153.609C214.206 153.666 213.402 153.666 212.598 153.724C206.913 153.896 201.515 153.954 196.691 153.954C196.634 153.954 196.576 153.954 196.519 153.954C196.289 153.954 195.945 153.954 195.485 153.896C195.37 153.896 195.313 153.896 195.198 153.896C194.739 153.896 194.107 153.839 193.418 153.839C193.361 153.839 193.246 153.839 193.188 153.839C192.959 153.839 192.786 153.839 192.557 153.839C192.499 153.839 192.384 153.839 192.327 153.839C191.523 153.839 190.662 153.781 189.685 153.781C189.571 153.781 189.513 153.781 189.398 153.781C189.111 153.781 188.824 153.781 188.479 153.781C188.422 153.781 188.307 153.781 188.25 153.781C187.963 153.781 187.676 153.781 187.388 153.781C187.331 153.781 187.216 153.781 187.159 153.781C186.814 153.781 186.412 153.781 186.068 153.724H186.01C185.666 153.724 185.321 153.724 184.977 153.724C184.919 153.724 184.862 153.724 184.747 153.724C184.402 153.724 184 153.724 183.656 153.666C183.598 153.666 183.541 153.666 183.426 153.666C183.082 153.666 182.794 153.666 182.45 153.666C182.392 153.666 182.278 153.666 182.22 153.666C181.818 153.666 181.474 153.666 181.072 153.666C181.014 153.666 180.957 153.666 180.842 153.666C180.497 153.666 180.153 153.666 179.808 153.666C179.751 153.666 179.694 153.666 179.636 153.666C179.234 153.666 178.832 153.666 178.43 153.666C178.373 153.666 178.315 153.666 178.258 153.666C177.856 153.666 177.511 153.666 177.109 153.666C177.052 153.666 177.052 153.666 176.995 153.666C176.937 153.666 176.88 153.666 176.822 153.666C176.478 153.666 176.076 153.666 175.731 153.666C175.674 153.666 175.674 153.666 175.616 153.666C175.272 153.666 174.927 153.666 174.583 153.666C174.468 153.666 174.41 153.666 174.296 153.666C173.894 153.666 173.549 153.666 173.147 153.666C173.09 153.666 173.032 153.666 172.975 153.666C172.63 153.666 172.286 153.666 171.941 153.666C171.884 153.666 171.826 153.666 171.769 153.666C171.367 153.666 171.022 153.666 170.678 153.666C170.62 153.666 170.563 153.666 170.506 153.666C170.161 153.666 169.874 153.666 169.587 153.666C169.529 153.666 169.415 153.666 169.357 153.666C169.013 153.666 168.668 153.666 168.323 153.666C168.266 153.666 168.209 153.666 168.209 153.666C167.922 153.666 167.634 153.666 167.347 153.666C167.29 153.666 167.175 153.666 167.118 153.666C166.83 153.666 166.486 153.666 166.199 153.666H166.141C165.854 153.666 165.567 153.666 165.337 153.666C165.28 153.666 165.223 153.666 165.108 153.666C164.821 153.666 164.533 153.666 164.304 153.666C159.71 153.666 154.369 153.666 148.799 153.896C148.569 153.896 148.34 153.896 148.167 153.896C147.938 153.896 147.766 153.896 147.593 153.896C147.191 153.896 146.789 153.954 146.387 153.954C146.1 153.954 145.813 153.954 145.526 154.011C145.124 154.011 144.722 154.069 144.377 154.069C144.09 154.069 143.803 154.126 143.516 154.126C143.114 154.126 142.77 154.184 142.425 154.184C142.138 154.184 141.908 154.241 141.621 154.241C141.277 154.241 140.875 154.298 140.53 154.298C140.243 154.298 140.013 154.356 139.726 154.356C139.382 154.356 138.98 154.413 138.635 154.413C138.405 154.413 138.176 154.471 137.946 154.471C137.544 154.528 137.142 154.528 136.74 154.586C136.568 154.586 136.395 154.586 136.223 154.643C135.649 154.701 135.132 154.758 134.558 154.816C134.5 154.816 134.5 154.816 134.443 154.816C133.926 154.873 133.467 154.931 132.95 154.988H132.893C132.433 155.046 132.031 155.103 131.629 155.103C131.572 155.103 131.457 155.103 131.4 155.103C131.055 155.161 130.653 155.161 130.308 155.218C130.136 155.218 130.021 155.275 129.849 155.275C129.562 155.333 129.275 155.333 129.045 155.39C128.873 155.39 128.758 155.448 128.586 155.448C128.356 155.505 128.069 155.505 127.839 155.563C127.667 155.563 127.552 155.62 127.38 155.62C127.15 155.678 126.92 155.678 126.691 155.735C126.576 155.735 126.404 155.793 126.289 155.793C126.059 155.85 125.772 155.85 125.542 155.908C125.427 155.908 125.313 155.965 125.198 155.965C124.853 156.023 124.509 156.08 124.164 156.138L124.221 173.149C124.566 173.091 124.911 173.034 125.255 172.976C125.37 172.976 125.485 172.919 125.6 172.919C125.829 172.861 126.116 172.861 126.346 172.804C126.461 172.804 126.633 172.747 126.748 172.747C126.978 172.689 127.208 172.689 127.495 172.632C127.667 172.632 127.782 172.574 127.954 172.574C128.184 172.517 128.471 172.517 128.701 172.459C128.873 172.459 128.988 172.402 129.16 172.402C129.447 172.344 129.734 172.344 130.021 172.287C130.136 172.287 130.308 172.229 130.423 172.229C130.768 172.172 131.17 172.172 131.514 172.114C131.572 172.114 131.629 172.114 131.687 172.114C132.146 172.057 132.605 171.999 133.065 171.999C133.524 171.942 133.984 171.884 134.443 171.884C134.5 171.884 134.615 171.884 134.673 171.884C135.19 171.827 135.706 171.77 136.281 171.77C136.453 171.77 136.683 171.712 136.855 171.712C137.257 171.655 137.601 171.655 138.003 171.597C138.233 171.597 138.463 171.54 138.692 171.54C139.037 171.54 139.439 171.482 139.784 171.482C140.013 171.482 140.3 171.425 140.53 171.425C140.875 171.425 141.277 171.367 141.621 171.367C141.908 171.367 142.195 171.31 142.425 171.31C142.77 171.31 143.172 171.252 143.516 171.252C143.803 171.252 144.09 171.195 144.377 171.195C144.779 171.195 145.124 171.137 145.526 171.137C145.813 171.137 146.1 171.137 146.445 171.08C146.847 171.08 147.249 171.022 147.651 171.022C148.053 171.022 148.455 170.965 148.914 170.965C154.484 170.793 159.825 170.735 164.419 170.735C164.706 170.735 164.935 170.735 165.223 170.735C165.28 170.735 165.337 170.735 165.452 170.735C165.739 170.735 165.969 170.735 166.256 170.735H166.314C166.601 170.735 166.945 170.735 167.232 170.735C167.29 170.735 167.405 170.735 167.462 170.735C167.749 170.735 168.036 170.735 168.323 170.735C168.381 170.735 168.438 170.735 168.438 170.735C168.783 170.735 169.127 170.735 169.472 170.735C169.529 170.735 169.644 170.735 169.702 170.735C169.989 170.735 170.333 170.735 170.62 170.735C170.678 170.735 170.735 170.735 170.793 170.735C171.137 170.735 171.539 170.735 171.884 170.735C171.941 170.735 171.999 170.735 172.056 170.735C172.401 170.735 172.745 170.735 173.09 170.735C173.147 170.735 173.205 170.735 173.262 170.735C173.664 170.735 174.009 170.735 174.41 170.735C174.525 170.735 174.583 170.735 174.698 170.735C175.042 170.735 175.387 170.735 175.731 170.735C175.789 170.735 175.789 170.735 175.846 170.735C176.248 170.735 176.65 170.735 177.109 170.735C177.167 170.735 177.167 170.735 177.224 170.735C177.626 170.735 177.971 170.735 178.373 170.735C178.43 170.735 178.488 170.735 178.545 170.735C178.947 170.735 179.349 170.735 179.751 170.735C179.808 170.735 179.866 170.735 179.923 170.735C180.268 170.735 180.612 170.735 180.957 170.735C181.014 170.735 181.072 170.735 181.187 170.735C181.589 170.735 181.933 170.735 182.335 170.735C182.392 170.735 182.507 170.735 182.565 170.735C182.909 170.735 183.196 170.735 183.541 170.735C183.598 170.735 183.656 170.735 183.771 170.735C184.173 170.735 184.517 170.735 184.862 170.793C184.919 170.793 184.977 170.793 185.091 170.793C185.436 170.793 185.781 170.793 186.125 170.793H186.182C186.527 170.793 186.929 170.793 187.274 170.85C187.331 170.85 187.446 170.85 187.503 170.85C187.79 170.85 188.078 170.85 188.365 170.85C188.422 170.85 188.537 170.85 188.594 170.85C188.881 170.85 189.226 170.85 189.513 170.85C189.628 170.85 189.743 170.85 189.8 170.85C190.776 170.85 191.638 170.907 192.442 170.907C192.499 170.907 192.614 170.907 192.671 170.907C192.901 170.907 193.073 170.907 193.303 170.907C193.361 170.907 193.475 170.907 193.533 170.907C194.222 170.907 194.796 170.965 195.313 170.965C195.428 170.965 195.485 170.965 195.6 170.965C196.06 170.965 196.404 170.965 196.634 171.022C196.691 171.022 196.749 171.022 196.806 171.022C201.572 171.022 207.028 170.965 212.713 170.793C213.115 170.793 213.517 170.735 213.919 170.735C214.321 170.735 214.722 170.678 215.124 170.678C215.469 170.678 215.756 170.678 216.101 170.62C216.905 170.563 217.651 170.563 218.455 170.505C218.627 170.505 218.742 170.505 218.914 170.505C219.833 170.448 220.752 170.39 221.613 170.333C221.843 170.333 222.13 170.275 222.36 170.275C222.992 170.218 223.623 170.218 224.255 170.16C224.542 170.16 224.887 170.103 225.174 170.103C225.748 170.045 226.322 170.045 226.839 169.988C227.126 169.988 227.471 169.93 227.758 169.93C228.332 169.873 228.906 169.816 229.481 169.758C229.768 169.758 229.997 169.701 230.285 169.701C231.088 169.643 231.835 169.528 232.581 169.471C232.639 169.471 232.639 169.471 232.696 169.471C233.443 169.413 234.189 169.298 234.936 169.241C235.166 169.241 235.338 169.183 235.568 169.183C236.199 169.126 236.773 169.068 237.405 168.953C237.577 168.953 237.692 168.896 237.865 168.896C238.554 168.781 239.3 168.724 239.989 168.609C240.162 168.609 240.334 168.551 240.506 168.551C241.08 168.494 241.597 168.379 242.171 168.321C242.344 168.321 242.516 168.264 242.688 168.264C243.377 168.149 244.009 168.034 244.698 167.919C244.813 167.919 244.87 167.862 244.985 167.862C245.387 167.804 245.789 167.747 246.191 167.632C246.363 167.632 246.478 167.574 246.65 167.574C246.88 167.517 247.167 167.459 247.397 167.459C247.799 167.402 248.258 167.287 248.66 167.229C248.89 167.172 249.12 167.114 249.407 167.057C249.866 166.942 250.268 166.885 250.67 166.77C250.9 166.712 251.072 166.655 251.302 166.655C251.934 166.54 252.508 166.367 253.139 166.252L252.967 149.184Z" fill="url(#paint14_linear_1031_14454)"/>
<path d="M106.25 186.023C106.25 185.908 106.308 185.736 106.308 185.621C106.308 185.506 106.365 185.333 106.365 185.219C106.423 185.104 106.423 184.931 106.48 184.816C106.538 184.701 106.538 184.529 106.595 184.414C106.652 184.299 106.652 184.127 106.71 184.012C106.767 183.897 106.825 183.782 106.825 183.609C106.882 183.437 106.939 183.322 106.997 183.15C107.054 183.035 107.112 182.92 107.169 182.747C107.227 182.632 107.284 182.46 107.399 182.345C107.456 182.23 107.514 182.115 107.571 182C107.686 181.828 107.743 181.655 107.858 181.54C107.916 181.425 108.031 181.311 108.088 181.196C108.203 181.023 108.318 180.851 108.433 180.736C108.49 180.621 108.605 180.506 108.662 180.391C108.835 180.161 109.064 179.874 109.294 179.644C109.351 179.586 109.351 179.529 109.409 179.529C109.696 179.242 109.926 178.954 110.213 178.667C110.328 178.552 110.5 178.437 110.615 178.322C110.73 178.207 110.844 178.092 110.959 178.035C111.131 177.92 111.246 177.747 111.419 177.632C111.533 177.517 111.648 177.46 111.763 177.345C111.935 177.23 112.108 177.058 112.28 176.943C112.395 176.828 112.51 176.77 112.625 176.655C112.854 176.483 113.026 176.368 113.256 176.253C113.371 176.196 113.486 176.138 113.543 176.023C113.888 175.793 114.232 175.621 114.577 175.391C114.692 175.334 114.864 175.219 115.036 175.161C115.094 175.161 115.151 175.104 115.209 175.104C115.323 175.046 115.438 174.989 115.611 174.931C115.668 174.874 115.783 174.874 115.84 174.816C115.955 174.759 116.127 174.701 116.242 174.644C116.357 174.586 116.415 174.586 116.529 174.529C116.702 174.472 116.817 174.414 116.989 174.357C117.104 174.299 117.218 174.299 117.391 174.242C117.506 174.184 117.62 174.184 117.678 174.127C117.85 174.069 118.022 174.012 118.195 174.012C118.31 173.954 118.424 173.954 118.539 173.897C118.712 173.839 118.941 173.782 119.113 173.724C119.228 173.724 119.286 173.667 119.401 173.667C119.688 173.609 120.032 173.495 120.377 173.437L120.319 156.426C119.975 156.483 119.688 156.598 119.343 156.656C119.228 156.656 119.171 156.713 119.056 156.713C118.826 156.771 118.654 156.828 118.482 156.886C118.367 156.943 118.252 156.943 118.137 157C117.965 157.058 117.793 157.115 117.62 157.115C117.506 157.173 117.391 157.173 117.333 157.23C117.276 157.23 117.161 157.288 117.104 157.288C117.046 157.288 116.989 157.345 116.931 157.345C116.759 157.403 116.644 157.46 116.472 157.518C116.357 157.575 116.242 157.575 116.185 157.633C116.013 157.69 115.898 157.748 115.783 157.805C115.725 157.863 115.611 157.863 115.553 157.92C115.438 157.977 115.266 158.035 115.151 158.092C115.094 158.092 115.036 158.15 114.979 158.15C114.807 158.207 114.634 158.322 114.52 158.38C114.175 158.552 113.83 158.782 113.543 158.954C113.428 159.012 113.314 159.069 113.256 159.184C113.026 159.299 112.797 159.472 112.625 159.587C112.51 159.644 112.395 159.759 112.28 159.874C112.108 159.989 111.935 160.161 111.763 160.276C111.648 160.391 111.533 160.449 111.419 160.564C111.246 160.679 111.074 160.794 110.959 160.966C110.844 161.081 110.73 161.196 110.615 161.253C110.5 161.368 110.385 161.426 110.27 161.541L110.213 161.598C109.926 161.885 109.638 162.173 109.409 162.46C109.351 162.518 109.351 162.575 109.294 162.575C109.064 162.805 108.892 163.092 108.662 163.322C108.605 163.38 108.605 163.38 108.547 163.437C108.49 163.495 108.433 163.552 108.375 163.667C108.26 163.839 108.145 163.954 108.031 164.127C107.973 164.242 107.858 164.357 107.801 164.472C107.686 164.644 107.629 164.816 107.514 164.931C107.456 164.989 107.456 165.046 107.399 165.161C107.399 165.219 107.341 165.276 107.341 165.334C107.284 165.449 107.169 165.621 107.112 165.736C107.054 165.851 106.997 165.966 106.939 166.138C106.882 166.311 106.825 166.426 106.767 166.598C106.71 166.656 106.71 166.77 106.652 166.828C106.652 166.885 106.652 166.885 106.595 166.943C106.538 167.058 106.48 167.23 106.48 167.345C106.423 167.46 106.423 167.633 106.365 167.747C106.308 167.862 106.308 168.035 106.25 168.15C106.25 168.265 106.193 168.322 106.193 168.437C106.193 168.495 106.193 168.495 106.193 168.552C106.193 168.667 106.136 168.839 106.136 168.954C106.136 169.069 106.078 169.242 106.078 169.357C106.078 169.472 106.078 169.644 106.078 169.759C106.078 169.874 106.078 169.931 106.078 170.046C106.078 170.104 106.078 170.161 106.078 170.219L106.136 187.23C106.136 187.058 106.136 186.885 106.136 186.713C106.136 186.598 106.136 186.425 106.136 186.31C106.25 186.31 106.25 186.138 106.25 186.023Z" fill="url(#paint15_linear_1031_14454)"/>
<path d="M175.843 179.242L175.9 196.253L158.386 196.368L158.328 179.357L175.843 179.242Z" fill="url(#paint16_linear_1031_14454)"/>
<path d="M186.984 188.208L187.042 205.219L175.901 196.253L175.844 179.242L186.984 188.208Z" fill="url(#paint17_linear_1031_14454)"/>
<path d="M196.574 177.17C196.574 176.998 196.574 176.768 196.632 176.596C196.632 176.251 196.689 175.964 196.689 175.619C196.689 175.446 196.689 175.216 196.689 175.044C196.689 174.929 196.689 174.814 196.689 174.699C196.689 174.354 196.689 174.067 196.689 173.722L196.632 156.711C196.632 157.113 196.632 157.573 196.632 158.033C196.632 158.205 196.632 158.435 196.632 158.607C196.632 158.895 196.632 159.24 196.574 159.584C196.574 159.757 196.574 159.987 196.517 160.159C196.517 160.504 196.459 160.849 196.459 161.194C196.459 161.366 196.459 161.538 196.402 161.711C196.345 162.228 196.287 162.745 196.23 163.263C196.115 164.125 196.057 164.929 195.943 165.734C195.885 165.964 195.885 166.194 195.828 166.423C195.713 167.056 195.598 167.688 195.483 168.32C195.426 168.492 195.426 168.665 195.368 168.837C195.253 169.527 195.081 170.217 194.966 170.849C194.966 170.906 194.909 171.021 194.909 171.079C194.794 171.653 194.622 172.228 194.507 172.745C194.45 172.975 194.392 173.148 194.335 173.377C194.22 173.78 194.105 174.239 193.99 174.642C193.933 174.872 193.875 175.102 193.76 175.331C193.646 175.734 193.473 176.136 193.358 176.538C193.301 176.768 193.186 176.998 193.129 177.228C193.014 177.458 192.957 177.688 192.842 177.975C192.727 178.262 192.612 178.492 192.555 178.78C192.44 179.01 192.382 179.239 192.267 179.469C192.153 179.699 192.038 179.987 191.923 180.216C191.808 180.446 191.693 180.676 191.578 180.906C191.463 181.136 191.349 181.423 191.234 181.653C191.119 181.883 191.004 182.113 190.889 182.285C190.774 182.515 190.602 182.803 190.487 183.032C190.372 183.205 190.315 183.377 190.2 183.55C190.028 183.837 189.913 184.067 189.741 184.354C189.626 184.527 189.568 184.642 189.454 184.814C189.281 185.101 189.109 185.331 188.937 185.619C188.822 185.734 188.765 185.849 188.707 186.021C188.42 186.423 188.19 186.768 187.903 187.17C187.616 187.573 187.271 187.975 186.984 188.32L187.042 205.331C187.386 204.929 187.673 204.584 187.961 204.182C188.248 203.837 188.535 203.435 188.765 203.032C188.879 202.917 188.937 202.802 188.994 202.63C189.167 202.343 189.339 202.113 189.511 201.825C189.626 201.653 189.683 201.538 189.798 201.366C189.97 201.136 190.085 200.848 190.258 200.618C190.372 200.446 190.43 200.274 190.545 200.101C190.602 199.986 190.66 199.871 190.717 199.756C190.774 199.641 190.832 199.469 190.947 199.354C191.062 199.124 191.176 198.894 191.291 198.722C191.406 198.492 191.521 198.262 191.636 197.975C191.751 197.745 191.865 197.515 191.98 197.285C192.095 197.055 192.21 196.768 192.325 196.538C192.44 196.308 192.555 196.078 192.612 195.848C192.727 195.561 192.842 195.331 192.899 195.044C193.014 194.814 193.071 194.584 193.186 194.297C193.244 194.239 193.244 194.124 193.301 194.067C193.358 193.952 193.416 193.779 193.416 193.665C193.531 193.262 193.703 192.86 193.818 192.458C193.875 192.228 193.933 191.998 194.048 191.768C194.162 191.366 194.277 190.906 194.392 190.504C194.45 190.274 194.507 190.101 194.564 189.871C194.737 189.297 194.852 188.722 194.966 188.205C194.966 188.147 195.024 188.032 195.024 187.975C195.196 187.343 195.311 186.653 195.426 185.963C195.426 185.906 195.426 185.849 195.426 185.849C195.426 185.734 195.483 185.619 195.483 185.504C195.598 184.872 195.713 184.239 195.828 183.607C195.885 183.377 195.885 183.147 195.943 182.918C196.057 182.113 196.172 181.308 196.23 180.446C196.287 179.929 196.345 179.412 196.402 178.895C196.402 178.722 196.402 178.55 196.459 178.377C196.574 177.86 196.574 177.515 196.574 177.17Z" fill="url(#paint18_linear_1031_14454)"/>
<path d="M111.587 180.105V197.117L106.706 207.576L106.648 190.565L111.587 180.105Z" fill="url(#paint19_linear_1031_14454)"/>
<path d="M106.654 190.562L106.711 207.574L89.7137 211.309L89.6562 194.298L106.654 190.562Z" fill="url(#paint20_linear_1031_14454)"/>
<path d="M73.7371 187.461L73.6797 170.449C73.6797 179.012 79.0202 187.575 89.5863 194.3L89.6437 211.311C79.0776 204.529 73.7945 196.024 73.7371 187.461Z" fill="url(#paint21_linear_1031_14454)"/>
<mask id="mask2_1031_14454" style="mask-type:luminance" maskUnits="userSpaceOnUse" x="73" y="170" width="17" height="42">
<path d="M73.7371 187.461L73.6797 170.449C73.6797 179.012 79.0202 187.575 89.5863 194.3L89.6437 211.311C79.0776 204.529 73.7945 196.024 73.7371 187.461Z" fill="white"/>
</mask>
<g mask="url(#mask2_1031_14454)">
<path d="M89.6488 194.3L89.7062 211.311C79.0827 204.587 73.7996 196.024 73.7996 187.461L73.7422 170.449C73.7422 179.012 79.0252 187.518 89.6488 194.3Z" fill="url(#paint22_linear_1031_14454)"/>
</g>
<path d="M185.608 206.828L185.55 189.816C185.091 190.276 184.632 190.736 184.115 191.196C184 191.311 183.885 191.426 183.713 191.541C183.196 192 182.679 192.403 182.162 192.805C182.105 192.862 182.047 192.92 181.99 192.92C181.531 193.265 181.014 193.667 180.497 194.012C180.325 194.127 180.21 194.242 180.038 194.299C179.463 194.701 178.889 195.046 178.315 195.391C177.626 195.793 176.937 196.138 176.248 196.54C176.075 196.655 175.846 196.77 175.673 196.828C175.099 197.115 174.525 197.403 173.951 197.69C173.778 197.747 173.663 197.862 173.491 197.92C172.802 198.265 172.056 198.552 171.309 198.897C171.137 198.954 170.965 199.012 170.792 199.127C170.218 199.357 169.586 199.644 169.012 199.874C168.782 199.931 168.61 200.046 168.38 200.104C167.634 200.391 166.83 200.678 166.083 200.908H166.026C165.28 201.138 164.59 201.368 163.844 201.598C163.385 201.713 162.925 201.885 162.523 202C162.064 202.115 161.604 202.288 161.202 202.402C160.743 202.517 160.284 202.632 159.824 202.747C159.365 202.862 158.905 202.977 158.446 203.092C157.987 203.207 157.527 203.322 157.068 203.437C156.608 203.552 156.149 203.667 155.69 203.724C155.23 203.839 154.771 203.897 154.311 204.012C153.795 204.127 153.278 204.184 152.761 204.299C152.531 204.356 152.359 204.356 152.129 204.414C151.325 204.529 150.579 204.644 149.775 204.759C149.717 204.759 149.603 204.759 149.545 204.816C148.684 204.931 147.822 205.046 147.019 205.161C146.789 205.161 146.617 205.219 146.387 205.219C145.87 205.276 145.411 205.333 144.894 205.391C144.262 205.448 143.573 205.506 142.941 205.563C142.539 205.621 142.08 205.621 141.678 205.678C141.046 205.736 140.357 205.736 139.726 205.793C139.324 205.793 138.922 205.851 138.462 205.851C137.888 205.851 137.314 205.908 136.74 205.908C136.28 205.908 135.878 205.908 135.419 205.908C134.845 205.908 134.27 205.908 133.639 205.908C133.237 205.908 132.777 205.908 132.375 205.908C131.858 205.908 131.284 205.851 130.767 205.851C130.308 205.851 129.849 205.793 129.389 205.793C128.815 205.793 128.298 205.736 127.781 205.678C127.322 205.621 126.92 205.621 126.461 205.563C125.886 205.506 125.369 205.448 124.795 205.391C124.393 205.333 123.934 205.333 123.532 205.276C122.958 205.219 122.383 205.161 121.809 205.046C121.407 204.989 121.005 204.931 120.603 204.874C119.627 204.759 118.708 204.586 117.732 204.414C117.675 204.414 117.675 204.414 117.617 204.414C116.641 204.242 115.665 204.069 114.689 203.897C114.459 203.839 114.229 203.782 113.999 203.724C113.196 203.552 112.449 203.379 111.645 203.207C111.3 203.15 110.956 203.035 110.611 202.92C109.98 202.747 109.348 202.575 108.659 202.402C108.085 202.23 107.453 202.058 106.879 201.885C106.707 201.828 106.592 201.828 106.419 201.77C105.615 201.54 104.869 201.311 104.065 201.023C103.893 200.966 103.663 200.908 103.491 200.851C102.859 200.621 102.285 200.448 101.653 200.219C101.423 200.161 101.251 200.046 101.079 199.989C100.562 199.816 100.103 199.586 99.6433 199.414C99.2988 199.299 98.9542 199.127 98.6097 199.012C98.1503 198.782 97.6335 198.609 97.1741 198.38C96.887 198.265 96.5424 198.092 96.2553 197.977C95.7385 197.747 95.2216 197.46 94.7048 197.23C94.4751 197.115 94.188 197 93.9583 196.828C93.2118 196.426 92.4653 196.023 91.7188 195.621L91.7762 212.632C92.5227 213.035 93.2692 213.437 94.0157 213.839C94.2454 213.954 94.5325 214.069 94.7622 214.241C95.2791 214.471 95.7959 214.759 96.3127 214.989C96.5998 215.161 96.9444 215.276 97.2315 215.391C97.6909 215.621 98.1503 215.793 98.6671 216.023C99.0117 216.195 99.3562 216.31 99.7008 216.425C100.045 216.598 100.447 216.713 100.792 216.885C100.907 216.943 101.022 217 101.136 217C101.309 217.057 101.538 217.172 101.711 217.23C102.285 217.46 102.917 217.69 103.548 217.862C103.72 217.92 103.95 217.977 104.122 218.034C104.869 218.322 105.673 218.552 106.477 218.782C106.649 218.839 106.764 218.839 106.936 218.897C107.396 219.011 107.798 219.126 108.257 219.299C108.429 219.356 108.602 219.356 108.716 219.414C109.348 219.586 109.98 219.759 110.611 219.931C110.956 220.046 111.3 220.103 111.645 220.218C112.449 220.391 113.196 220.563 113.999 220.736C114.172 220.793 114.401 220.851 114.574 220.851C114.631 220.851 114.631 220.851 114.689 220.851C115.665 221.023 116.641 221.253 117.617 221.368C117.675 221.368 117.732 221.368 117.732 221.368C118.651 221.54 119.627 221.655 120.546 221.828C120.603 221.828 120.603 221.828 120.661 221.828C121.063 221.885 121.407 221.942 121.809 221.942C122.383 222 122.958 222.115 123.474 222.172C123.934 222.23 124.336 222.23 124.795 222.287C125.369 222.345 125.886 222.402 126.461 222.46C126.518 222.46 126.575 222.46 126.633 222.46C127.035 222.517 127.379 222.517 127.781 222.517C128.298 222.575 128.872 222.575 129.389 222.632C129.849 222.632 130.308 222.69 130.767 222.69C131.284 222.69 131.858 222.747 132.375 222.747C132.49 222.747 132.548 222.747 132.662 222.747C133.007 222.747 133.352 222.747 133.696 222.747C134.27 222.747 134.845 222.747 135.476 222.747C135.936 222.747 136.338 222.747 136.797 222.747C137.371 222.747 137.945 222.747 138.52 222.69C138.692 222.69 138.807 222.69 138.979 222.69C139.266 222.69 139.496 222.632 139.783 222.632C140.415 222.575 141.104 222.575 141.735 222.517C142.137 222.517 142.597 222.46 142.999 222.402C143.63 222.345 144.32 222.287 144.951 222.23C145.181 222.23 145.468 222.172 145.698 222.172C145.927 222.172 146.215 222.115 146.444 222.115C146.674 222.115 146.846 222.057 147.076 222.057C147.937 221.942 148.799 221.828 149.603 221.713C149.66 221.713 149.775 221.713 149.832 221.655C150.636 221.54 151.383 221.425 152.187 221.31C152.416 221.253 152.589 221.253 152.818 221.195C152.991 221.138 153.163 221.138 153.393 221.08C153.737 221.023 154.024 220.965 154.369 220.908C154.828 220.793 155.288 220.736 155.747 220.621C156.206 220.506 156.666 220.391 157.125 220.333C157.585 220.218 158.044 220.103 158.503 219.988C158.963 219.874 159.422 219.759 159.882 219.644C160.341 219.529 160.8 219.414 161.26 219.299C161.719 219.184 162.179 219.069 162.581 218.897C163.04 218.782 163.499 218.609 163.901 218.494C164.016 218.437 164.188 218.437 164.303 218.379C164.935 218.207 165.509 217.977 166.083 217.805H166.141C166.887 217.517 167.691 217.287 168.438 217C168.668 216.943 168.84 216.828 169.07 216.77C169.701 216.54 170.275 216.31 170.85 216.023C171.022 215.966 171.194 215.908 171.367 215.793C172.113 215.506 172.802 215.161 173.549 214.816C173.721 214.759 173.836 214.644 174.008 214.586C174.582 214.299 175.157 214.012 175.731 213.724C175.903 213.609 176.133 213.552 176.305 213.437C176.994 213.092 177.683 212.69 178.372 212.287C178.832 212 179.291 211.77 179.75 211.483C179.865 211.368 180.038 211.31 180.152 211.195C180.325 211.081 180.44 211.023 180.612 210.908C181.129 210.563 181.588 210.218 182.105 209.816C182.162 209.759 182.22 209.701 182.277 209.701C182.794 209.299 183.311 208.839 183.828 208.437C183.942 208.322 184.057 208.207 184.23 208.092C184.402 207.92 184.574 207.805 184.689 207.632C184.976 207.46 185.263 207.115 185.608 206.828Z" fill="url(#paint23_linear_1031_14454)"/>
<path d="M181.639 93.1481C205.183 79.5276 243.026 79.2977 266.972 92.3435L260.196 102.056L241.705 104.642C230.45 99.9871 214.601 100.562 204.437 106.481C203.403 107.113 202.197 108.263 201.049 109.987L190.368 101.366L172.164 101.424C174.748 98.0906 177.907 95.332 181.639 93.1481Z" fill="#6B9CC6"/>
<path d="M171.014 103.093L188.988 103.035L200.013 111.886C198.291 115.161 196.798 119.932 196.108 126.253C195.821 128.954 195.706 131.541 195.649 133.897C187.667 133.954 163.549 133.207 163.319 133.207C163.262 130.793 163.376 128.092 163.664 125.334C164.697 116.196 167.109 108.84 171.014 103.093Z" fill="#6B9CC6"/>
<path d="M244.527 105.966L262.328 103.437L269.162 93.6094C292.304 107.517 291.959 129.816 268.186 143.551C264.855 145.448 260.72 147.114 255.782 148.494L242 141.482L243.895 130.85C244.469 130.62 244.986 130.391 245.331 130.218C256.643 123.666 256.701 113.034 245.445 106.483C245.158 106.31 244.871 106.138 244.527 105.966Z" fill="#6B9CC6"/>
<path d="M104.914 139.928C115.365 137.112 129.377 135.387 147.351 134.813C153.036 134.64 158.434 134.583 163.257 134.583C164.463 134.64 187.548 135.33 195.702 135.272C200.296 135.272 205.637 135.272 211.207 135.043C225.793 134.525 235.497 133.204 240.895 131.824L239.058 142.226L252.954 149.295C242.733 151.824 229.41 153.318 212.642 153.893C206.957 154.065 201.559 154.123 196.736 154.123C195.587 154.065 173.766 153.376 164.291 153.433C159.697 153.433 154.357 153.433 148.786 153.663C137.876 154.065 129.779 154.87 124.094 155.847L106.752 150.215L104.914 139.928Z" fill="#6B9CC6"/>
<path d="M164.292 154.702C173.595 154.645 196.393 155.392 196.622 155.392C196.68 157.806 196.565 160.507 196.278 163.265C195.129 173.84 192.086 182.116 186.975 188.208L175.835 179.242L158.32 179.357C160.675 176.196 162.972 170.622 163.89 162.346C164.178 159.645 164.292 157.059 164.292 154.702Z" fill="#6B9CC6"/>
<path d="M91.818 145.102C94.6893 143.435 98.1347 141.999 102.212 140.734L104.049 151.137L120.473 156.481C117.602 157.113 115.707 157.803 114.673 158.378C104.451 164.297 103.418 173.55 111.572 180.102L106.691 190.619L89.6359 194.297C67.6997 180.332 68.4463 158.608 91.818 145.102Z" fill="#6B9CC6"/>
<path d="M113.759 181.653C113.989 181.826 114.276 181.998 114.506 182.113C125.761 188.665 144.137 188.665 155.449 182.113C155.909 181.826 156.368 181.481 156.885 181.021L174.399 180.906L185.54 189.814C183.473 191.998 181.061 193.837 178.362 195.446C154.416 209.297 115.654 209.297 91.7656 195.561L109.05 191.826L113.759 181.653Z" fill="#6B9CC6"/>
<path d="M181.647 93.1481C205.191 79.5276 243.034 79.2977 266.98 92.3435L260.204 102.056L241.713 104.642C230.458 99.9871 214.609 100.562 204.444 106.481C203.411 107.113 202.205 108.263 201.056 109.987L190.375 101.366L172.172 101.424C174.756 98.0906 177.914 95.332 181.647 93.1481Z" fill="#6B9CC6"/>
<path d="M171.014 103.093L188.988 103.035L200.013 111.886C198.291 115.161 196.798 119.932 196.108 126.253C195.821 128.954 195.706 131.541 195.649 133.897C187.667 133.954 163.549 133.207 163.319 133.207C163.262 130.793 163.376 128.092 163.664 125.334C164.697 116.196 167.109 108.84 171.014 103.093Z" fill="#6B9CC6"/>
<path d="M244.519 105.966L262.32 103.437L269.154 93.6094C292.296 107.517 291.951 129.816 268.178 143.551C264.847 145.448 260.713 147.114 255.774 148.494L241.992 141.482L243.887 130.85C244.461 130.62 244.978 130.391 245.323 130.218C256.635 123.666 256.693 113.034 245.438 106.483C245.151 106.31 244.863 106.138 244.519 105.966Z" fill="#6B9CC6"/>
<path d="M104.914 139.928C115.365 137.112 129.377 135.387 147.351 134.813C153.036 134.64 158.434 134.583 163.257 134.583C164.463 134.64 187.548 135.33 195.702 135.272C200.296 135.272 205.637 135.272 211.207 135.043C225.793 134.525 235.497 133.204 240.895 131.824L239.058 142.226L252.954 149.295C242.733 151.824 229.41 153.318 212.642 153.893C206.957 154.065 201.559 154.123 196.736 154.123C195.587 154.065 173.766 153.376 164.291 153.433C159.697 153.433 154.357 153.433 148.786 153.663C137.876 154.065 129.779 154.87 124.094 155.847L106.752 150.215L104.914 139.928Z" fill="#6B9CC6"/>
<path d="M164.3 154.702C173.603 154.645 196.401 155.392 196.63 155.392C196.688 157.806 196.573 160.507 196.286 163.265C195.137 173.84 192.094 182.116 186.983 188.208L175.843 179.242L158.328 179.357C160.683 176.196 162.98 170.622 163.898 162.346C164.185 159.645 164.3 157.059 164.3 154.702Z" fill="#6B9CC6"/>
<path d="M91.8258 145.106C94.6971 143.439 98.1425 142.003 102.22 140.738L104.057 151.14L120.481 156.485C117.609 157.117 115.714 157.807 114.681 158.382C104.459 164.301 103.426 173.554 111.58 180.106L106.699 190.623L89.6437 194.301C67.7076 180.335 68.4541 158.612 91.8258 145.106Z" fill="#6B9CC6"/>
<path d="M113.759 181.653C113.989 181.826 114.276 181.998 114.506 182.113C125.761 188.665 144.137 188.665 155.449 182.113C155.909 181.826 156.368 181.481 156.885 181.021L174.399 180.906L185.54 189.814C183.473 191.998 181.061 193.837 178.362 195.446C154.416 209.297 115.654 209.297 91.7656 195.561L109.05 191.826L113.759 181.653Z" fill="#6B9CC6"/>
<g filter="url(#filter1_d_1031_14454)">
<path d="M181.639 92.7536C205.183 79.1331 243.026 78.9032 266.972 91.949L260.196 101.662L241.705 104.248C230.45 99.5926 214.601 100.167 204.437 106.087C203.403 106.719 202.197 107.868 201.049 109.592L190.368 100.972H172.164C174.748 97.6386 177.907 94.88 181.639 92.7536Z" fill="url(#paint24_linear_1031_14454)"/>
</g>
<g filter="url(#filter2_d_1031_14454)">
<path d="M171.014 102.636L188.988 102.578L200.013 111.429C198.291 114.704 196.798 119.474 196.108 125.796C195.821 128.497 195.706 131.084 195.649 133.44C187.667 133.497 163.549 132.75 163.319 132.75C163.262 130.336 163.376 127.635 163.664 124.877C164.697 115.796 167.109 108.383 171.014 102.636Z" fill="url(#paint25_linear_1031_14454)"/>
</g>
<g filter="url(#filter3_i_1031_14454)">
<path d="M244.527 105.511L262.328 102.983L269.162 93.0977C292.304 107.006 291.959 129.304 268.186 143.04C264.855 144.936 260.72 146.603 255.782 147.982L242 140.971L243.895 130.339C244.469 130.109 244.986 129.879 245.331 129.706C256.643 123.155 256.701 112.523 245.445 105.971C245.158 105.856 244.871 105.684 244.527 105.511Z" fill="url(#paint26_linear_1031_14454)"/>
<path d="M244.527 105.511L262.328 102.983L269.162 93.0977C292.304 107.006 291.959 129.304 268.186 143.04C264.855 144.936 260.72 146.603 255.782 147.982L242 140.971L243.895 130.339C244.469 130.109 244.986 129.879 245.331 129.706C256.643 123.155 256.701 112.523 245.445 105.971C245.158 105.856 244.871 105.684 244.527 105.511Z" fill="black" fill-opacity="0.2"/>
</g>
<g filter="url(#filter4_i_1031_14454)">
<path d="M104.914 139.478C115.365 136.662 129.377 134.938 147.351 134.363C153.036 134.191 158.434 134.134 163.257 134.134C164.463 134.191 187.548 134.881 195.702 134.823C200.296 134.823 205.637 134.823 211.207 134.593C225.793 134.076 235.497 132.754 240.895 131.375L239.058 141.777L252.954 148.846C242.733 151.317 229.41 152.869 212.642 153.444C206.957 153.616 201.559 153.674 196.736 153.674C195.587 153.616 173.766 152.926 164.291 152.984C159.697 152.984 154.357 152.984 148.786 153.214C137.876 153.616 129.779 154.421 124.094 155.398L106.752 149.766L104.914 139.478Z" fill="url(#paint27_linear_1031_14454)"/>
</g>
<path d="M164.3 154.249C173.603 154.192 196.401 154.939 196.63 154.939C196.688 157.353 196.573 160.054 196.286 162.812C195.137 173.387 192.094 181.663 186.983 187.755L175.843 178.847L158.328 178.962C160.683 175.801 162.98 170.226 163.898 161.95C164.185 159.192 164.3 156.606 164.3 154.249Z" fill="url(#paint28_linear_1031_14454)"/>
<g filter="url(#filter5_di_1031_14454)">
<path d="M91.8259 144.649C94.6972 142.982 98.1426 141.546 102.22 140.281L104.057 150.683L120.481 156.028C117.61 156.66 115.715 157.35 114.681 157.925C104.459 163.844 103.426 173.097 111.58 179.649L106.641 190.166L89.5864 193.844C67.7077 179.878 68.4542 158.155 91.8259 144.649Z" fill="url(#paint29_linear_1031_14454)"/>
</g>
<g filter="url(#filter6_di_1031_14454)">
<path d="M113.759 181.2C113.989 181.373 114.276 181.545 114.506 181.66C125.761 188.212 144.137 188.212 155.449 181.66C155.909 181.373 156.368 181.028 156.885 180.568L174.399 180.453L185.54 189.361C183.473 191.545 181.061 193.384 178.362 194.993C154.416 208.844 115.654 208.844 91.7656 195.108L109.05 191.373L113.759 181.2Z" fill="url(#paint30_linear_1031_14454)"/>
</g>
<defs>
<filter id="filter0_bi_1031_14454" x="-158.2" y="-158.2" width="679.4" height="900.4" filterUnits="userSpaceOnUse" color-interpolation-filters="sRGB">
<feFlood flood-opacity="0" result="BackgroundImageFix"/>
<feGaussianBlur in="BackgroundImageFix" stdDeviation="79.1"/>
<feComposite in2="SourceAlpha" operator="in" result="effect1_backgroundBlur_1031_14454"/>
<feBlend mode="normal" in="SourceGraphic" in2="effect1_backgroundBlur_1031_14454" result="shape"/>
<feColorMatrix in="SourceAlpha" type="matrix" values="0 0 0 0 0 0 0 0 0 0 0 0 0 0 0 0 0 0 127 0" result="hardAlpha"/>
<feOffset dy="4"/>
<feGaussianBlur stdDeviation="88.15"/>
<feComposite in2="hardAlpha" operator="arithmetic" k2="-1" k3="1"/>
<feColorMatrix type="matrix" values="0 0 0 0 1 0 0 0 0 1 0 0 0 0 1 0 0 0 0.12 0"/>
<feBlend mode="normal" in2="shape" result="effect2_innerShadow_1031_14454"/>
</filter>
<filter id="filter1_d_1031_14454" x="154.664" y="68.8477" width="129.805" height="62.2461" filterUnits="userSpaceOnUse" color-interpolation-filters="sRGB">
<feFlood flood-opacity="0" result="BackgroundImageFix"/>
<feColorMatrix in="SourceAlpha" type="matrix" values="0 0 0 0 0 0 0 0 0 0 0 0 0 0 0 0 0 0 127 0" result="hardAlpha"/>
<feOffset dy="4"/>
<feGaussianBlur stdDeviation="8.75"/>
<feComposite in2="hardAlpha" operator="out"/>
<feColorMatrix type="matrix" values="0 0 0 0 0.419608 0 0 0 0 0.611765 0 0 0 0 0.776471 0 0 0 1 0"/>
<feBlend mode="normal" in2="BackgroundImageFix" result="effect1_dropShadow_1031_14454"/>
<feBlend mode="normal" in="SourceGraphic" in2="effect1_dropShadow_1031_14454" result="shape"/>
</filter>
<filter id="filter2_d_1031_14454" x="159.305" y="102.578" width="44.7109" height="38.8633" filterUnits="userSpaceOnUse" color-interpolation-filters="sRGB">
<feFlood flood-opacity="0" result="BackgroundImageFix"/>
<feColorMatrix in="SourceAlpha" type="matrix" values="0 0 0 0 0 0 0 0 0 0 0 0 0 0 0 0 0 0 127 0" result="hardAlpha"/>
<feOffset dy="4"/>
<feGaussianBlur stdDeviation="2"/>
<feComposite in2="hardAlpha" operator="out"/>
<feColorMatrix type="matrix" values="0 0 0 0 0.419608 0 0 0 0 0.611765 0 0 0 0 0.776471 0 0 0 1 0"/>
<feBlend mode="normal" in2="BackgroundImageFix" result="effect1_dropShadow_1031_14454"/>
<feBlend mode="normal" in="SourceGraphic" in2="effect1_dropShadow_1031_14454" result="shape"/>
</filter>
<filter id="filter3_i_1031_14454" x="242" y="93.0977" width="44.2734" height="58.8828" filterUnits="userSpaceOnUse" color-interpolation-filters="sRGB">
<feFlood flood-opacity="0" result="BackgroundImageFix"/>
<feBlend mode="normal" in="SourceGraphic" in2="BackgroundImageFix" result="shape"/>
<feColorMatrix in="SourceAlpha" type="matrix" values="0 0 0 0 0 0 0 0 0 0 0 0 0 0 0 0 0 0 127 0" result="hardAlpha"/>
<feOffset dy="4"/>
<feGaussianBlur stdDeviation="5.75"/>
<feComposite in2="hardAlpha" operator="arithmetic" k2="-1" k3="1"/>
<feColorMatrix type="matrix" values="0 0 0 0 1 0 0 0 0 1 0 0 0 0 1 0 0 0 0.25 0"/>
<feBlend mode="normal" in2="shape" result="effect1_innerShadow_1031_14454"/>
</filter>
<filter id="filter4_i_1031_14454" x="104.914" y="131.375" width="148.039" height="28.0234" filterUnits="userSpaceOnUse" color-interpolation-filters="sRGB">
<feFlood flood-opacity="0" result="BackgroundImageFix"/>
<feBlend mode="normal" in="SourceGraphic" in2="BackgroundImageFix" result="shape"/>
<feColorMatrix in="SourceAlpha" type="matrix" values="0 0 0 0 0 0 0 0 0 0 0 0 0 0 0 0 0 0 127 0" result="hardAlpha"/>
<feOffset dy="4"/>
<feGaussianBlur stdDeviation="6.75"/>
<feComposite in2="hardAlpha" operator="arithmetic" k2="-1" k3="1"/>
<feColorMatrix type="matrix" values="0 0 0 0 1 0 0 0 0 1 0 0 0 0 1 0 0 0 0.25 0"/>
<feBlend mode="normal" in2="shape" result="effect1_innerShadow_1031_14454"/>
</filter>
<filter id="filter5_di_1031_14454" x="55.4188" y="125.981" width="83.3656" height="90.1625" filterUnits="userSpaceOnUse" color-interpolation-filters="sRGB">
<feFlood flood-opacity="0" result="BackgroundImageFix"/>
<feColorMatrix in="SourceAlpha" type="matrix" values="0 0 0 0 0 0 0 0 0 0 0 0 0 0 0 0 0 0 127 0" result="hardAlpha"/>
<feOffset dy="4"/>
<feGaussianBlur stdDeviation="9.15"/>
<feComposite in2="hardAlpha" operator="out"/>
<feColorMatrix type="matrix" values="0 0 0 0 0.419608 0 0 0 0 0.611765 0 0 0 0 0.776471 0 0 0 1 0"/>
<feBlend mode="normal" in2="BackgroundImageFix" result="effect1_dropShadow_1031_14454"/>
<feBlend mode="normal" in="SourceGraphic" in2="effect1_dropShadow_1031_14454" result="shape"/>
<feColorMatrix in="SourceAlpha" type="matrix" values="0 0 0 0 0 0 0 0 0 0 0 0 0 0 0 0 0 0 127 0" result="hardAlpha"/>
<feOffset dy="4"/>
<feGaussianBlur stdDeviation="10.4"/>
<feComposite in2="hardAlpha" operator="arithmetic" k2="-1" k3="1"/>
<feColorMatrix type="matrix" values="0 0 0 0 1 0 0 0 0 1 0 0 0 0 1 0 0 0 0.25 0"/>
<feBlend mode="normal" in2="shape" result="effect2_innerShadow_1031_14454"/>
</filter>
<filter id="filter6_di_1031_14454" x="77.2656" y="169.953" width="122.773" height="53.9414" filterUnits="userSpaceOnUse" color-interpolation-filters="sRGB">
<feFlood flood-opacity="0" result="BackgroundImageFix"/>
<feColorMatrix in="SourceAlpha" type="matrix" values="0 0 0 0 0 0 0 0 0 0 0 0 0 0 0 0 0 0 127 0" result="hardAlpha"/>
<feOffset dy="4"/>
<feGaussianBlur stdDeviation="7.25"/>
<feComposite in2="hardAlpha" operator="out"/>
<feColorMatrix type="matrix" values="0 0 0 0 0.419608 0 0 0 0 0.611765 0 0 0 0 0.776471 0 0 0 1 0"/>
<feBlend mode="normal" in2="BackgroundImageFix" result="effect1_dropShadow_1031_14454"/>
<feBlend mode="normal" in="SourceGraphic" in2="effect1_dropShadow_1031_14454" result="shape"/>
<feColorMatrix in="SourceAlpha" type="matrix" values="0 0 0 0 0 0 0 0 0 0 0 0 0 0 0 0 0 0 127 0" result="hardAlpha"/>
<feOffset dy="4"/>
<feGaussianBlur stdDeviation="10.65"/>
<feComposite in2="hardAlpha" operator="arithmetic" k2="-1" k3="1"/>
<feColorMatrix type="matrix" values="0 0 0 0 1 0 0 0 0 1 0 0 0 0 1 0 0 0 0.25 0"/>
<feBlend mode="normal" in2="shape" result="effect2_innerShadow_1031_14454"/>
</filter>
<linearGradient id="paint0_linear_1031_14454" x1="124.283" y1="123.277" x2="235.806" y2="213.249" gradientUnits="userSpaceOnUse">
<stop stop-color="#80D8FF"/>
<stop offset="0.3484" stop-color="#6DD2FF"/>
<stop offset="1" stop-color="#40C4FF"/>
</linearGradient>
<linearGradient id="paint1_linear_1031_14454" x1="181.339" y1="101.353" x2="181.339" y2="118.449" gradientUnits="userSpaceOnUse">
<stop offset="0.0846154" stop-color="#017BAA"/>
<stop offset="0.222" stop-color="#016692"/>
<stop offset="0.5882" stop-color="#023256"/>
<stop offset="0.858" stop-color="#021230"/>
<stop offset="1" stop-color="#020622"/>
</linearGradient>
<linearGradient id="paint2_linear_1031_14454" x1="263.645" y1="92.3395" x2="263.645" y2="119.067" gradientUnits="userSpaceOnUse">
<stop offset="0.0846154" stop-color="#017BAA"/>
<stop offset="0.222" stop-color="#016692"/>
<stop offset="0.5882" stop-color="#023256"/>
<stop offset="0.858" stop-color="#021230"/>
<stop offset="1" stop-color="#020622"/>
</linearGradient>
<linearGradient id="paint3_linear_1031_14454" x1="249.224" y1="105.958" x2="249.224" y2="135.269" gradientUnits="userSpaceOnUse">
<stop offset="0.0846154" stop-color="#017BAA"/>
<stop offset="0.222" stop-color="#016692"/>
<stop offset="0.5882" stop-color="#023256"/>
<stop offset="0.858" stop-color="#021230"/>
<stop offset="1" stop-color="#020622"/>
</linearGradient>
<linearGradient id="paint4_linear_1031_14454" x1="249.232" y1="77.591" x2="249.232" y2="134.778" gradientUnits="userSpaceOnUse">
<stop offset="0.0846154" stop-color="#017BAA"/>
<stop offset="0.222" stop-color="#016692"/>
<stop offset="0.5882" stop-color="#023256"/>
<stop offset="0.858" stop-color="#021230"/>
<stop offset="1" stop-color="#020622"/>
</linearGradient>
<linearGradient id="paint5_linear_1031_14454" x1="163.381" y1="131.917" x2="163.381" y2="150.219" gradientUnits="userSpaceOnUse">
<stop offset="0.0846154" stop-color="#017BAA"/>
<stop offset="0.222" stop-color="#016692"/>
<stop offset="0.5882" stop-color="#023256"/>
<stop offset="0.858" stop-color="#021230"/>
<stop offset="1" stop-color="#020622"/>
</linearGradient>
<linearGradient id="paint6_linear_1031_14454" x1="163.375" y1="131.913" x2="163.375" y2="150.215" gradientUnits="userSpaceOnUse">
<stop offset="0.0846154" stop-color="#017BAA"/>
<stop offset="0.222" stop-color="#016692"/>
<stop offset="0.5882" stop-color="#023256"/>
<stop offset="0.858" stop-color="#021230"/>
<stop offset="1" stop-color="#020622"/>
</linearGradient>
<linearGradient id="paint7_linear_1031_14454" x1="197.877" y1="77.594" x2="197.877" y2="134.781" gradientUnits="userSpaceOnUse">
<stop offset="0.0846154" stop-color="#017BAA"/>
<stop offset="0.222" stop-color="#016692"/>
<stop offset="0.5882" stop-color="#023256"/>
<stop offset="0.858" stop-color="#021230"/>
<stop offset="1" stop-color="#020622"/>
</linearGradient>
<linearGradient id="paint8_linear_1031_14454" x1="179.541" y1="133.206" x2="179.541" y2="150.904" gradientUnits="userSpaceOnUse">
<stop offset="0.0846154" stop-color="#017BAA"/>
<stop offset="0.222" stop-color="#016692"/>
<stop offset="0.5882" stop-color="#023256"/>
<stop offset="0.858" stop-color="#021230"/>
<stop offset="1" stop-color="#020622"/>
</linearGradient>
<linearGradient id="paint9_linear_1031_14454" x1="239.998" y1="131.786" x2="239.998" y2="159.171" gradientUnits="userSpaceOnUse">
<stop offset="0.0846154" stop-color="#017BAA"/>
<stop offset="0.222" stop-color="#016692"/>
<stop offset="0.5882" stop-color="#023256"/>
<stop offset="0.858" stop-color="#021230"/>
<stop offset="1" stop-color="#020622"/>
</linearGradient>
<linearGradient id="paint10_linear_1031_14454" x1="271.069" y1="108.318" x2="271.069" y2="170.991" gradientUnits="userSpaceOnUse">
<stop offset="0.0846154" stop-color="#017BAA"/>
<stop offset="0.222" stop-color="#016692"/>
<stop offset="0.5882" stop-color="#023256"/>
<stop offset="0.858" stop-color="#021230"/>
<stop offset="1" stop-color="#020622"/>
</linearGradient>
<linearGradient id="paint11_linear_1031_14454" x1="248.943" y1="141.477" x2="248.943" y2="165.476" gradientUnits="userSpaceOnUse">
<stop offset="0.0846154" stop-color="#017BAA"/>
<stop offset="0.222" stop-color="#016692"/>
<stop offset="0.5882" stop-color="#023256"/>
<stop offset="0.858" stop-color="#021230"/>
<stop offset="1" stop-color="#020622"/>
</linearGradient>
<linearGradient id="paint12_linear_1031_14454" x1="105.872" y1="139.939" x2="105.872" y2="167.136" gradientUnits="userSpaceOnUse">
<stop offset="0.0846154" stop-color="#017BAA"/>
<stop offset="0.222" stop-color="#016692"/>
<stop offset="0.5882" stop-color="#023256"/>
<stop offset="0.858" stop-color="#021230"/>
<stop offset="1" stop-color="#020622"/>
</linearGradient>
<linearGradient id="paint13_linear_1031_14454" x1="115.446" y1="150.12" x2="115.446" y2="172.792" gradientUnits="userSpaceOnUse">
<stop offset="0.0846154" stop-color="#017BAA"/>
<stop offset="0.222" stop-color="#016692"/>
<stop offset="0.5882" stop-color="#023256"/>
<stop offset="0.858" stop-color="#021230"/>
<stop offset="1" stop-color="#020622"/>
</linearGradient>
<linearGradient id="paint14_linear_1031_14454" x1="130.78" y1="161.073" x2="282.181" y2="173.541" gradientUnits="userSpaceOnUse">
<stop stop-color="#017BAA"/>
<stop offset="0.222" stop-color="#016692"/>
<stop offset="0.5882" stop-color="#023256"/>
<stop offset="0.858" stop-color="#021230"/>
<stop offset="1" stop-color="#020622"/>
</linearGradient>
<linearGradient id="paint15_linear_1031_14454" x1="113.331" y1="127.155" x2="113.331" y2="180.223" gradientUnits="userSpaceOnUse">
<stop offset="0.0846154" stop-color="#017BAA"/>
<stop offset="0.222" stop-color="#016692"/>
<stop offset="0.5882" stop-color="#023256"/>
<stop offset="0.858" stop-color="#021230"/>
<stop offset="1" stop-color="#020622"/>
</linearGradient>
<linearGradient id="paint16_linear_1031_14454" x1="167.11" y1="179.266" x2="167.11" y2="196.397" gradientUnits="userSpaceOnUse">
<stop offset="0.0846154" stop-color="#017BAA"/>
<stop offset="0.222" stop-color="#016692"/>
<stop offset="0.5882" stop-color="#023256"/>
<stop offset="0.858" stop-color="#021230"/>
<stop offset="1" stop-color="#020622"/>
</linearGradient>
<linearGradient id="paint17_linear_1031_14454" x1="181.44" y1="179.266" x2="181.44" y2="205.192" gradientUnits="userSpaceOnUse">
<stop offset="0.0846154" stop-color="#017BAA"/>
<stop offset="0.222" stop-color="#016692"/>
<stop offset="0.5882" stop-color="#023256"/>
<stop offset="0.858" stop-color="#021230"/>
<stop offset="1" stop-color="#020622"/>
</linearGradient>
<linearGradient id="paint18_linear_1031_14454" x1="191.917" y1="174.389" x2="186.918" y2="211.436" gradientUnits="userSpaceOnUse">
<stop stop-color="#C4E3ED"/>
<stop offset="1" stop-color="#99C0DB"/>
</linearGradient>
<linearGradient id="paint19_linear_1031_14454" x1="109.143" y1="180.096" x2="109.143" y2="207.597" gradientUnits="userSpaceOnUse">
<stop offset="0.0846154" stop-color="#017BAA"/>
<stop offset="0.222" stop-color="#016692"/>
<stop offset="0.5882" stop-color="#023256"/>
<stop offset="0.858" stop-color="#021230"/>
<stop offset="1" stop-color="#020622"/>
</linearGradient>
<linearGradient id="paint20_linear_1031_14454" x1="98.1884" y1="190.583" x2="98.1884" y2="211.287" gradientUnits="userSpaceOnUse">
<stop offset="0.0846154" stop-color="#017BAA"/>
<stop offset="0.222" stop-color="#016692"/>
<stop offset="0.5882" stop-color="#023256"/>
<stop offset="0.858" stop-color="#021230"/>
<stop offset="1" stop-color="#020622"/>
</linearGradient>
<linearGradient id="paint21_linear_1031_14454" x1="81.6926" y1="170.429" x2="81.6926" y2="211.288" gradientUnits="userSpaceOnUse">
<stop offset="0.0846154" stop-color="#017BAA"/>
<stop offset="0.222" stop-color="#016692"/>
<stop offset="0.5882" stop-color="#023256"/>
<stop offset="0.858" stop-color="#021230"/>
<stop offset="1" stop-color="#020622"/>
</linearGradient>
<linearGradient id="paint22_linear_1031_14454" x1="81.6977" y1="151.502" x2="77.1143" y2="268.054" gradientUnits="userSpaceOnUse">
<stop offset="0.0846154" stop-color="#017BAA"/>
<stop offset="0.222" stop-color="#016692"/>
<stop offset="0.5882" stop-color="#C7E7EE"/>
<stop offset="0.858" stop-color="#021230"/>
<stop offset="1" stop-color="#020622"/>
</linearGradient>
<linearGradient id="paint23_linear_1031_14454" x1="138.414" y1="203.116" x2="138.664" y2="222.747" gradientUnits="userSpaceOnUse">
<stop stop-color="#D0EAF4"/>
<stop offset="1" stop-color="#D0F0F1"/>
</linearGradient>
<linearGradient id="paint24_linear_1031_14454" x1="160.076" y1="92.6326" x2="278.112" y2="92.6326" gradientUnits="userSpaceOnUse">
<stop stop-color="#02295F"/>
<stop offset="1" stop-color="#2394BC"/>
</linearGradient>
<linearGradient id="paint25_linear_1031_14454" x1="158.624" y1="114.23" x2="204.327" y2="114.23" gradientUnits="userSpaceOnUse">
<stop stop-color="#02295F"/>
<stop offset="1" stop-color="#2394BC"/>
</linearGradient>
<linearGradient id="paint26_linear_1031_14454" x1="244.476" y1="129.858" x2="275.277" y2="102.825" gradientUnits="userSpaceOnUse">
<stop stop-color="#02295F"/>
<stop offset="1" stop-color="#2394BC"/>
</linearGradient>
<linearGradient id="paint27_linear_1031_14454" x1="86.0389" y1="140.444" x2="270.349" y2="140.444" gradientUnits="userSpaceOnUse">
<stop stop-color="#02295F"/>
<stop offset="1" stop-color="#2394BC"/>
</linearGradient>
<linearGradient id="paint28_linear_1031_14454" x1="169.543" y1="187.652" x2="176.962" y2="146.903" gradientUnits="userSpaceOnUse">
<stop stop-color="#30B2E0"/>
<stop offset="1" stop-color="#1A617A"/>
</linearGradient>
<linearGradient id="paint29_linear_1031_14454" x1="67.7566" y1="160.501" x2="125.975" y2="160.501" gradientUnits="userSpaceOnUse">
<stop stop-color="#02295F"/>
<stop offset="1" stop-color="#2394BC"/>
</linearGradient>
<linearGradient id="paint30_linear_1031_14454" x1="79.8094" y1="189.869" x2="196.558" y2="189.869" gradientUnits="userSpaceOnUse">
<stop stop-color="#02295F"/>
<stop offset="1" stop-color="#2394BC"/>
</linearGradient>
</defs>
</svg>
