<svg width="363" height="596" viewBox="0 0 363 596" fill="none" xmlns="http://www.w3.org/2000/svg">
<rect y="12" width="363" height="584" rx="24" fill="white"/>
<rect x="45" width="273" height="304" rx="22" fill="#D0EAF4"/>
<rect x="45.5" y="0.5" width="272" height="303" rx="21.5" stroke="white" stroke-opacity="0.49"/>
<path d="M289.132 151.398C289.132 211.027 240.942 259.366 181.496 259.366C122.05 259.366 73.8594 211.027 73.8594 151.398C73.8594 91.7687 122.05 43.4297 181.496 43.4297C240.942 43.4297 289.132 91.7687 289.132 151.398ZM118.553 151.398C118.553 186.268 146.733 214.535 181.496 214.535C216.258 214.535 244.439 186.268 244.439 151.398C244.439 116.528 216.258 88.2608 181.496 88.2608C146.733 88.2608 118.553 116.528 118.553 151.398Z" fill="white"/>
<path d="M198.344 235.009C200.781 247.108 212.712 255.147 224.055 250.282C230.186 247.653 236.076 244.456 241.643 240.726C253.416 232.836 263.519 222.714 271.374 210.936C279.229 199.158 284.682 185.956 287.423 172.083C288.71 165.567 289.387 158.963 289.454 152.356C289.579 139.976 277.508 132.062 265.372 134.506V134.506C253.236 136.95 245.8 148.999 243.848 161.224C243.727 161.983 243.592 162.739 243.442 163.494C241.84 171.607 238.651 179.327 234.057 186.214C229.464 193.102 223.556 199.021 216.672 203.635C215.994 204.088 215.309 204.529 214.616 204.955C204.106 211.424 195.907 222.91 198.344 235.009V235.009Z" fill="url(#paint0_linear_1031_14434)"/>
<defs>
<linearGradient id="paint0_linear_1031_14434" x1="284.853" y1="117.701" x2="258.172" y2="255.687" gradientUnits="userSpaceOnUse">
<stop stop-color="#02295F"/>
<stop offset="1" stop-color="#2394BC"/>
</linearGradient>
</defs>
</svg>
