<svg width="755" height="532" viewBox="0 0 755 532" fill="none" xmlns="http://www.w3.org/2000/svg">
<path d="M376.813 53.1435L10.1328 264.867L10.8891 266.179L377.569 54.4556L376.813 53.1435Z" fill="#6B9CC6" fill-opacity="0.29"/>
<path d="M413.383 74.4091L46.7031 286.133L47.4594 287.445L414.139 75.7212L413.383 74.4091Z" fill="#6B9CC6" fill-opacity="0.29"/>
<path d="M450.133 95.5654L83.4531 307.289L84.2094 308.601L450.889 96.8774L450.133 95.5654Z" fill="#6B9CC6" fill-opacity="0.29"/>
<path d="M486.669 116.804L120.031 328.57L120.788 329.882L487.425 118.116L486.669 116.804Z" fill="#6B9CC6" fill-opacity="0.29"/>
<path d="M523.446 137.979L156.766 349.703L157.522 351.015L524.202 139.292L523.446 137.979Z" fill="#6B9CC6" fill-opacity="0.29"/>
<path d="M559.907 159.058L193.227 370.781L193.983 372.093L560.663 160.37L559.907 159.058Z" fill="#6B9CC6" fill-opacity="0.29"/>
<path d="M596.657 180.214L229.977 391.938L230.733 393.25L597.413 181.526L596.657 180.214Z" fill="#6B9CC6" fill-opacity="0.29"/>
<path d="M633.227 201.479L266.547 413.203L267.303 414.515L633.983 202.792L633.227 201.479Z" fill="#6B9CC6" fill-opacity="0.29"/>
<path d="M669.977 222.636L303.297 434.359L304.053 435.671L670.733 223.948L669.977 222.636Z" fill="#6B9CC6" fill-opacity="0.29"/>
<path d="M706.727 243.792L340.047 455.516L340.803 456.828L707.483 245.104L706.727 243.792Z" fill="#6B9CC6" fill-opacity="0.29"/>
<path d="M743.255 265.031L376.617 476.797L377.374 478.109L744.011 266.343L743.255 265.031Z" fill="#6B9CC6" fill-opacity="0.29"/>
<path d="M377.374 53.0007L376.617 54.3125L743.212 266.163L743.969 264.852L377.374 53.0007Z" fill="#6B9CC6" fill-opacity="0.29"/>
<path d="M340.686 74.2742L339.93 75.5859L706.525 287.437L707.282 286.125L340.686 74.2742Z" fill="#6B9CC6" fill-opacity="0.29"/>
<path d="M304.116 95.3679L303.359 96.6797L669.955 308.531L670.711 307.219L304.116 95.3679Z" fill="#6B9CC6" fill-opacity="0.29"/>
<path d="M267.421 116.641L266.664 117.953L633.259 329.804L634.016 328.492L267.421 116.641Z" fill="#6B9CC6" fill-opacity="0.29"/>
<path d="M230.741 137.923L229.984 139.234L596.58 351.085L597.336 349.773L230.741 137.923Z" fill="#6B9CC6" fill-opacity="0.29"/>
<path d="M194.163 159.009L193.406 160.32L560.002 372.171L560.758 370.859L194.163 159.009Z" fill="#6B9CC6" fill-opacity="0.29"/>
<path d="M157.475 180.29L156.719 181.602L523.314 393.452L524.071 392.141L157.475 180.29Z" fill="#6B9CC6" fill-opacity="0.29"/>
<path d="M120.897 201.376L120.141 202.688L486.736 414.538L487.493 413.227L120.897 201.376Z" fill="#6B9CC6" fill-opacity="0.29"/>
<path d="M84.2098 222.657L83.4531 223.969L450.048 435.82L450.805 434.508L84.2098 222.657Z" fill="#6B9CC6" fill-opacity="0.29"/>
<path d="M47.4442 243.634L46.6875 244.945L413.283 456.796L414.039 455.484L47.4442 243.634Z" fill="#6B9CC6" fill-opacity="0.29"/>
<path d="M10.7567 264.915L10 266.227L376.595 478.077L377.352 476.766L10.7567 264.915Z" fill="#6B9CC6" fill-opacity="0.29"/>
<path d="M385.759 90.1596L367.594 100.648L368.35 101.961L386.515 91.4716L385.759 90.1596Z" fill="#45657E" fill-opacity="0.06"/>
<path d="M368.319 90.1648L367.562 91.4766L385.724 101.972L386.48 100.66L368.319 90.1648Z" fill="#45657E" fill-opacity="0.06"/>
<path d="M422.322 111.425L404.156 121.914L404.912 123.226L423.078 112.737L422.322 111.425Z" fill="#45657E" fill-opacity="0.06"/>
<path d="M404.936 111.469L404.18 112.781L422.341 123.276L423.098 121.965L404.936 111.469Z" fill="#45657E" fill-opacity="0.06"/>
<path d="M459.08 132.581L440.914 143.07L441.67 144.382L459.836 133.894L459.08 132.581Z" fill="#45657E" fill-opacity="0.06"/>
<path d="M441.663 132.587L440.906 133.898L459.068 144.394L459.824 143.082L441.663 132.587Z" fill="#45657E" fill-opacity="0.06"/>
<path d="M495.624 153.853L477.461 164.344L478.217 165.656L496.381 155.165L495.624 153.853Z" fill="#45657E" fill-opacity="0.06"/>
<path d="M478.397 153.712L477.641 155.023L495.802 165.519L496.559 164.207L478.397 153.712Z" fill="#45657E" fill-opacity="0.06"/>
<path d="M532.4 175.019L514.234 185.508L514.991 186.82L533.156 176.331L532.4 175.019Z" fill="#45657E" fill-opacity="0.06"/>
<path d="M515.015 175.016L514.258 176.328L532.419 186.823L533.176 185.512L515.015 175.016Z" fill="#45657E" fill-opacity="0.06"/>
<path d="M569.132 196.165L550.969 206.656L551.725 207.968L569.888 197.477L569.132 196.165Z" fill="#45657E" fill-opacity="0.06"/>
<path d="M551.725 196.118L550.969 197.43L569.13 207.925L569.887 206.613L551.725 196.118Z" fill="#45657E" fill-opacity="0.06"/>
<path d="M605.712 217.433L587.547 227.922L588.303 229.234L606.469 218.745L605.712 217.433Z" fill="#45657E" fill-opacity="0.06"/>
<path d="M588.35 217.43L587.594 218.742L605.755 229.237L606.512 227.926L588.35 217.43Z" fill="#45657E" fill-opacity="0.06"/>
<path d="M642.462 238.589L624.297 249.078L625.053 250.39L643.219 239.901L642.462 238.589Z" fill="#45657E" fill-opacity="0.06"/>
<path d="M624.889 238.438L624.133 239.75L642.294 250.245L643.051 248.933L624.889 238.438Z" fill="#45657E" fill-opacity="0.06"/>
<path d="M678.923 259.652L660.758 270.141L661.514 271.453L679.68 260.964L678.923 259.652Z" fill="#45657E" fill-opacity="0.06"/>
<path d="M661.507 259.727L660.75 261.039L678.911 271.534L679.668 270.222L661.507 259.727Z" fill="#45657E" fill-opacity="0.06"/>
<path d="M349.033 111.41L330.867 121.898L331.623 123.211L349.789 112.722L349.033 111.41Z" fill="#45657E" fill-opacity="0.06"/>
<path d="M331.632 111.438L330.875 112.75L349.036 123.245L349.793 121.933L331.632 111.438Z" fill="#45657E" fill-opacity="0.06"/>
<path d="M385.773 132.579L367.609 143.07L368.366 144.382L386.529 133.891L385.773 132.579Z" fill="#45657E" fill-opacity="0.06"/>
<path d="M368.374 132.555L367.617 133.867L385.778 144.364L386.535 143.053L368.374 132.555Z" fill="#45657E" fill-opacity="0.06"/>
<path d="M422.353 153.831L404.188 164.32L404.944 165.632L423.109 155.144L422.353 153.831Z" fill="#45657E" fill-opacity="0.06"/>
<path d="M404.983 153.86L404.227 155.172L422.388 165.667L423.145 164.355L404.983 153.86Z" fill="#45657E" fill-opacity="0.06"/>
<path d="M459.103 174.996L440.938 185.484L441.694 186.796L459.859 176.308L459.103 174.996Z" fill="#45657E" fill-opacity="0.06"/>
<path d="M441.71 174.985L440.953 176.297L459.114 186.792L459.871 185.48L441.71 174.985Z" fill="#45657E" fill-opacity="0.06"/>
<path d="M495.665 196.261L477.5 206.75L478.256 208.062L496.422 197.573L495.665 196.261Z" fill="#45657E" fill-opacity="0.06"/>
<path d="M478.429 196.102L477.672 197.414L495.833 207.909L496.59 206.597L478.429 196.102Z" fill="#45657E" fill-opacity="0.06"/>
<path d="M532.423 217.417L514.258 227.906L515.014 229.218L533.18 218.729L532.423 217.417Z" fill="#45657E" fill-opacity="0.06"/>
<path d="M515.054 217.407L514.297 218.719L532.458 229.214L533.215 227.902L515.054 217.407Z" fill="#45657E" fill-opacity="0.06"/>
<path d="M569.173 238.574L551.008 249.062L551.764 250.375L569.93 239.886L569.173 238.574Z" fill="#45657E" fill-opacity="0.06"/>
<path d="M551.577 238.399L550.82 239.711L568.982 250.206L569.738 248.894L551.577 238.399Z" fill="#45657E" fill-opacity="0.06"/>
<path d="M605.634 259.644L587.469 270.133L588.225 271.445L606.39 260.956L605.634 259.644Z" fill="#45657E" fill-opacity="0.06"/>
<path d="M588.194 259.688L587.438 261L605.599 271.495L606.355 270.183L588.194 259.688Z" fill="#45657E" fill-opacity="0.06"/>
<path d="M642.359 280.79L624.195 291.281L624.952 292.593L643.115 282.102L642.359 280.79Z" fill="#45657E" fill-opacity="0.06"/>
<path d="M624.929 280.805L624.172 282.117L642.333 292.612L643.09 291.301L624.929 280.805Z" fill="#45657E" fill-opacity="0.06"/>
<path d="M312.486 132.566L294.32 143.055L295.077 144.367L313.242 133.878L312.486 132.566Z" fill="#45657E" fill-opacity="0.06"/>
<path d="M295.054 132.548L294.297 133.859L312.458 144.355L313.215 143.043L295.054 132.548Z" fill="#45657E" fill-opacity="0.06"/>
<path d="M349.056 153.816L330.891 164.305L331.647 165.617L349.812 155.128L349.056 153.816Z" fill="#45657E" fill-opacity="0.06"/>
<path d="M331.671 153.829L330.914 155.141L349.075 165.636L349.832 164.324L331.671 153.829Z" fill="#45657E" fill-opacity="0.06"/>
<path d="M385.788 174.978L367.625 185.469L368.381 186.781L386.545 176.29L385.788 174.978Z" fill="#45657E" fill-opacity="0.06"/>
<path d="M368.397 174.962L367.641 176.273L385.802 186.769L386.559 185.457L368.397 174.962Z" fill="#45657E" fill-opacity="0.06"/>
<path d="M422.369 196.238L404.203 206.727L404.959 208.039L423.125 197.55L422.369 196.238Z" fill="#45657E" fill-opacity="0.06"/>
<path d="M405.015 196.251L404.258 197.562L422.419 208.058L423.176 206.746L405.015 196.251Z" fill="#45657E" fill-opacity="0.06"/>
<path d="M459.119 217.402L440.953 227.891L441.709 229.203L459.875 218.714L459.119 217.402Z" fill="#45657E" fill-opacity="0.06"/>
<path d="M441.733 217.376L440.977 218.688L459.138 229.183L459.895 227.871L441.733 217.376Z" fill="#45657E" fill-opacity="0.06"/>
<path d="M495.689 238.675L477.523 249.164L478.28 250.476L496.445 239.987L495.689 238.675Z" fill="#45657E" fill-opacity="0.06"/>
<path d="M478.304 238.376L477.547 239.688L495.708 250.185L496.465 248.873L478.304 238.376Z" fill="#45657E" fill-opacity="0.06"/>
<path d="M532.337 259.628L514.172 270.117L514.928 271.429L533.094 260.94L532.337 259.628Z" fill="#45657E" fill-opacity="0.06"/>
<path d="M514.897 259.673L514.141 260.984L532.302 271.48L533.059 270.168L514.897 259.673Z" fill="#45657E" fill-opacity="0.06"/>
<path d="M569.087 280.8L550.922 291.289L551.678 292.601L569.844 282.112L569.087 280.8Z" fill="#45657E" fill-opacity="0.06"/>
<path d="M551.64 280.782L550.883 282.094L569.044 292.591L569.801 291.279L551.64 280.782Z" fill="#45657E" fill-opacity="0.06"/>
<path d="M605.65 302.042L587.484 312.531L588.241 313.843L606.406 303.354L605.65 302.042Z" fill="#45657E" fill-opacity="0.06"/>
<path d="M588.225 302.071L587.469 303.383L605.63 313.878L606.387 312.566L588.225 302.071Z" fill="#45657E" fill-opacity="0.06"/>
<path d="M275.767 153.806L257.602 164.297L258.358 165.609L276.523 155.118L275.767 153.806Z" fill="#45657E" fill-opacity="0.06"/>
<path d="M258.366 153.813L257.609 155.125L275.771 165.62L276.527 164.308L258.366 153.813Z" fill="#45657E" fill-opacity="0.06"/>
<path d="M312.501 174.98L294.336 185.469L295.092 186.781L313.258 176.292L312.501 174.98Z" fill="#45657E" fill-opacity="0.06"/>
<path d="M295.085 174.946L294.328 176.258L312.489 186.753L313.246 185.441L295.085 174.946Z" fill="#45657E" fill-opacity="0.06"/>
<path d="M349.087 196.22L330.922 206.711L331.678 208.023L349.844 197.532L349.087 196.22Z" fill="#45657E" fill-opacity="0.06"/>
<path d="M331.694 196.219L330.938 197.531L349.099 208.026L349.855 206.715L331.694 196.219Z" fill="#45657E" fill-opacity="0.06"/>
<path d="M385.822 217.394L367.656 227.883L368.412 229.195L386.578 218.706L385.822 217.394Z" fill="#45657E" fill-opacity="0.06"/>
<path d="M368.429 217.352L367.672 218.664L385.833 229.159L386.59 227.847L368.429 217.352Z" fill="#45657E" fill-opacity="0.06"/>
<path d="M422.4 238.667L404.234 249.156L404.991 250.468L423.156 239.979L422.4 238.667Z" fill="#45657E" fill-opacity="0.06"/>
<path d="M404.866 238.555L404.109 239.867L422.271 250.362L423.027 249.051L404.866 238.555Z" fill="#45657E" fill-opacity="0.06"/>
<path d="M495.603 280.894L477.438 291.383L478.194 292.695L496.359 282.206L495.603 280.894Z" fill="#45657E" fill-opacity="0.06"/>
<path d="M478.319 280.782L477.562 282.094L495.724 292.589L496.48 291.277L478.319 280.782Z" fill="#45657E" fill-opacity="0.06"/>
<path d="M532.353 302.042L514.188 312.531L514.944 313.843L533.109 303.354L532.353 302.042Z" fill="#45657E" fill-opacity="0.06"/>
<path d="M514.929 302.071L514.172 303.383L532.333 313.878L533.09 312.566L514.929 302.071Z" fill="#45657E" fill-opacity="0.06"/>
<path d="M569.103 323.206L550.938 333.695L551.694 335.007L569.859 324.519L569.103 323.206Z" fill="#45657E" fill-opacity="0.06"/>
<path d="M551.647 323.188L550.891 324.5L569.052 334.995L569.809 333.683L551.647 323.188Z" fill="#45657E" fill-opacity="0.06"/>
<path d="M239.212 174.956L221.047 185.445L221.803 186.757L239.969 176.269L239.212 174.956Z" fill="#45657E" fill-opacity="0.06"/>
<path d="M221.796 174.907L221.039 176.219L239.2 186.716L239.957 185.404L221.796 174.907Z" fill="#45657E" fill-opacity="0.06"/>
<path d="M275.79 196.22L257.625 206.711L258.381 208.023L276.547 197.532L275.79 196.22Z" fill="#45657E" fill-opacity="0.06"/>
<path d="M258.397 196.219L257.641 197.531L275.802 208.026L276.559 206.715L258.397 196.219Z" fill="#45657E" fill-opacity="0.06"/>
<path d="M312.533 217.378L294.367 227.867L295.123 229.179L313.289 218.69L312.533 217.378Z" fill="#45657E" fill-opacity="0.06"/>
<path d="M295.147 217.321L294.391 218.633L312.552 229.13L313.309 227.818L295.147 217.321Z" fill="#45657E" fill-opacity="0.06"/>
<path d="M349.095 238.636L330.93 249.125L331.686 250.437L349.851 239.948L349.095 238.636Z" fill="#45657E" fill-opacity="0.06"/>
<path d="M331.554 238.509L330.797 239.82L348.958 250.315L349.715 249.004L331.554 238.509Z" fill="#45657E" fill-opacity="0.06"/>
<path d="M385.751 259.597L367.586 270.086L368.342 271.398L386.508 260.909L385.751 259.597Z" fill="#45657E" fill-opacity="0.06"/>
<path d="M368.304 259.602L367.547 260.914L385.708 271.411L386.465 270.1L368.304 259.602Z" fill="#45657E" fill-opacity="0.06"/>
<path d="M422.306 280.863L404.141 291.352L404.897 292.664L423.062 282.175L422.306 280.863Z" fill="#45657E" fill-opacity="0.06"/>
<path d="M404.897 280.923L404.141 282.234L422.302 292.73L423.059 291.418L404.897 280.923Z" fill="#45657E" fill-opacity="0.06"/>
<path d="M459.056 302.019L440.891 312.508L441.647 313.82L459.812 303.331L459.056 302.019Z" fill="#45657E" fill-opacity="0.06"/>
<path d="M441.647 302.024L440.891 303.336L459.052 313.833L459.809 312.521L441.647 302.024Z" fill="#45657E" fill-opacity="0.06"/>
<path d="M495.626 323.3L477.461 333.789L478.217 335.101L496.383 324.612L495.626 323.3Z" fill="#45657E" fill-opacity="0.06"/>
<path d="M478.35 323.173L477.594 324.484L495.755 334.98L496.512 333.668L478.35 323.173Z" fill="#45657E" fill-opacity="0.06"/>
<path d="M532.359 344.439L514.195 354.93L514.952 356.242L533.115 345.751L532.359 344.439Z" fill="#45657E" fill-opacity="0.06"/>
<path d="M514.975 344.462L514.219 345.773L532.38 356.269L533.137 354.957L514.975 344.462Z" fill="#45657E" fill-opacity="0.06"/>
<path d="M165.759 217.464L147.594 227.953L148.35 229.265L166.515 218.776L165.759 217.464Z" fill="#45657E" fill-opacity="0.06"/>
<path d="M148.522 217.274L147.766 218.586L165.927 229.081L166.684 227.769L148.522 217.274Z" fill="#45657E" fill-opacity="0.06"/>
<path d="M202.517 238.613L184.352 249.102L185.108 250.414L203.273 239.925L202.517 238.613Z" fill="#45657E" fill-opacity="0.06"/>
<path d="M184.96 238.469L184.203 239.781L202.364 250.276L203.121 248.965L184.96 238.469Z" fill="#45657E" fill-opacity="0.06"/>
<path d="M239.15 259.589L220.984 270.078L221.741 271.39L239.906 260.901L239.15 259.589Z" fill="#45657E" fill-opacity="0.06"/>
<path d="M221.679 259.587L220.922 260.898L239.083 271.394L239.84 270.082L221.679 259.587Z" fill="#45657E" fill-opacity="0.06"/>
<path d="M275.728 280.839L257.562 291.328L258.319 292.64L276.484 282.151L275.728 280.839Z" fill="#45657E" fill-opacity="0.06"/>
<path d="M258.304 280.876L257.547 282.188L275.708 292.683L276.465 291.371L258.304 280.876Z" fill="#45657E" fill-opacity="0.06"/>
<path d="M312.478 302.011L294.312 312.5L295.069 313.812L313.234 303.323L312.478 302.011Z" fill="#45657E" fill-opacity="0.06"/>
<path d="M295.022 302.009L294.266 303.32L312.427 313.815L313.184 312.504L295.022 302.009Z" fill="#45657E" fill-opacity="0.06"/>
<path d="M349.023 323.251L330.859 333.742L331.616 335.054L349.779 324.563L349.023 323.251Z" fill="#45657E" fill-opacity="0.06"/>
<path d="M331.64 323.29L330.883 324.602L349.044 335.097L349.801 333.785L331.64 323.29Z" fill="#45657E" fill-opacity="0.06"/>
<path d="M385.79 344.425L367.625 354.914L368.381 356.226L386.547 345.737L385.79 344.425Z" fill="#45657E" fill-opacity="0.06"/>
<path d="M368.366 344.407L367.609 345.719L385.771 356.214L386.527 354.902L368.366 344.407Z" fill="#45657E" fill-opacity="0.06"/>
<path d="M422.343 365.673L404.18 376.164L404.936 377.476L423.099 366.985L422.343 365.673Z" fill="#45657E" fill-opacity="0.06"/>
<path d="M404.991 365.704L404.234 367.016L422.396 377.511L423.152 376.199L404.991 365.704Z" fill="#45657E" fill-opacity="0.06"/>
<path d="M459.111 386.855L440.945 397.344L441.702 398.656L459.867 388.167L459.111 386.855Z" fill="#45657E" fill-opacity="0.06"/>
<path d="M441.71 386.844L440.953 388.156L459.114 398.651L459.871 397.34L441.71 386.844Z" fill="#45657E" fill-opacity="0.06"/>
<path d="M129.212 238.613L111.047 249.102L111.803 250.414L129.969 239.925L129.212 238.613Z" fill="#45657E" fill-opacity="0.06"/>
<path d="M111.647 238.454L110.891 239.766L129.052 250.261L129.809 248.949L111.647 238.454Z" fill="#45657E" fill-opacity="0.06"/>
<path d="M165.663 259.681L147.5 270.172L148.256 271.484L166.42 260.993L165.663 259.681Z" fill="#45657E" fill-opacity="0.06"/>
<path d="M148.374 259.563L147.617 260.875L165.778 271.37L166.535 270.058L148.374 259.563Z" fill="#45657E" fill-opacity="0.06"/>
<path d="M202.423 280.831L184.258 291.32L185.014 292.632L203.18 282.144L202.423 280.831Z" fill="#45657E" fill-opacity="0.06"/>
<path d="M184.991 280.852L184.234 282.164L202.396 292.659L203.152 291.347L184.991 280.852Z" fill="#45657E" fill-opacity="0.06"/>
<path d="M239.181 301.996L221.016 312.484L221.772 313.796L239.937 303.308L239.181 301.996Z" fill="#45657E" fill-opacity="0.06"/>
<path d="M221.733 301.977L220.977 303.289L239.138 313.786L239.895 312.475L221.733 301.977Z" fill="#45657E" fill-opacity="0.06"/>
<path d="M275.744 323.253L257.578 333.742L258.334 335.054L276.5 324.565L275.744 323.253Z" fill="#45657E" fill-opacity="0.06"/>
<path d="M258.335 323.274L257.578 324.586L275.739 335.081L276.496 333.769L258.335 323.274Z" fill="#45657E" fill-opacity="0.06"/>
<path d="M312.494 344.417L294.328 354.906L295.084 356.218L313.25 345.729L312.494 344.417Z" fill="#45657E" fill-opacity="0.06"/>
<path d="M295.077 344.399L294.32 345.711L312.482 356.208L313.238 354.896L295.077 344.399Z" fill="#45657E" fill-opacity="0.06"/>
<path d="M349.056 365.667L330.891 376.156L331.647 377.468L349.812 366.979L349.056 365.667Z" fill="#45657E" fill-opacity="0.06"/>
<path d="M331.679 365.688L330.922 367L349.083 377.495L349.84 376.183L331.679 365.688Z" fill="#45657E" fill-opacity="0.06"/>
<path d="M385.814 386.839L367.648 397.328L368.405 398.64L386.57 388.151L385.814 386.839Z" fill="#45657E" fill-opacity="0.06"/>
<path d="M368.429 386.798L367.672 388.109L385.833 398.607L386.59 397.295L368.429 386.798Z" fill="#45657E" fill-opacity="0.06"/>
<path d="M422.384 408.089L404.219 418.578L404.975 419.89L423.14 409.401L422.384 408.089Z" fill="#45657E" fill-opacity="0.06"/>
<path d="M405.022 408.102L404.266 409.414L422.427 419.909L423.184 418.597L405.022 408.102Z" fill="#45657E" fill-opacity="0.06"/>
<path d="M92.3842 259.673L74.2188 270.164L74.9751 271.476L93.1406 260.985L92.3842 259.673Z" fill="#45657E" fill-opacity="0.06"/>
<path d="M74.9598 259.727L74.2031 261.039L92.3644 271.534L93.1211 270.222L74.9598 259.727Z" fill="#45657E" fill-opacity="0.06"/>
<path d="M129.126 280.824L110.961 291.312L111.717 292.625L129.883 282.136L129.126 280.824Z" fill="#45657E" fill-opacity="0.06"/>
<path d="M111.686 280.837L110.93 282.148L129.091 292.644L129.848 291.332L111.686 280.837Z" fill="#45657E" fill-opacity="0.06"/>
<path d="M165.712 302.103L147.547 312.594L148.303 313.906L166.469 303.415L165.712 302.103Z" fill="#45657E" fill-opacity="0.06"/>
<path d="M148.413 301.962L147.656 303.273L165.818 313.769L166.574 312.457L148.413 301.962Z" fill="#45657E" fill-opacity="0.06"/>
<path d="M202.447 323.246L184.281 333.734L185.038 335.046L203.203 324.558L202.447 323.246Z" fill="#45657E" fill-opacity="0.06"/>
<path d="M185.03 323.251L184.273 324.562L202.435 335.058L203.191 333.746L185.03 323.251Z" fill="#45657E" fill-opacity="0.06"/>
<path d="M239.21 344.405L221.047 354.898L221.803 356.21L239.967 345.717L239.21 344.405Z" fill="#45657E" fill-opacity="0.06"/>
<path d="M221.757 344.384L221 345.695L239.161 356.19L239.918 354.879L221.757 344.384Z" fill="#45657E" fill-opacity="0.06"/>
<path d="M275.767 365.667L257.602 376.156L258.358 377.468L276.523 366.979L275.767 365.667Z" fill="#45657E" fill-opacity="0.06"/>
<path d="M258.374 365.673L257.617 366.984L275.778 377.48L276.535 376.168L258.374 365.673Z" fill="#45657E" fill-opacity="0.06"/>
<path d="M312.54 386.837L294.375 397.328L295.131 398.64L313.297 388.149L312.54 386.837Z" fill="#45657E" fill-opacity="0.06"/>
<path d="M295.1 386.805L294.344 388.117L312.505 398.612L313.262 397.301L295.1 386.805Z" fill="#45657E" fill-opacity="0.06"/>
<path d="M349.087 408.089L330.922 418.578L331.678 419.89L349.844 409.401L349.087 408.089Z" fill="#45657E" fill-opacity="0.06"/>
<path d="M331.725 408.094L330.969 409.406L349.13 419.901L349.887 418.59L331.725 408.094Z" fill="#45657E" fill-opacity="0.06"/>
<path d="M385.869 429.251L367.703 439.742L368.46 441.054L386.625 430.563L385.869 429.251Z" fill="#45657E" fill-opacity="0.06"/>
<path d="M368.257 429.094L367.5 430.406L385.661 440.901L386.418 439.59L368.257 429.094Z" fill="#45657E" fill-opacity="0.06"/>
</svg>
