<svg width="549" height="492" viewBox="0 0 549 492" fill="none" xmlns="http://www.w3.org/2000/svg">
<path d="M411.53 333.062V412.645L342.969 452.363V372.78L411.53 333.062Z" fill="url(#paint0_linear_1031_13676)"/>
<path d="M343.469 373.068L411.03 333.93V412.357L343.469 451.495V373.068Z" stroke="url(#paint1_linear_1031_13676)" stroke-opacity="0.35"/>
<path d="M342.967 372.78V452.363L274.094 425.638V333.062L342.967 372.78Z" fill="url(#paint2_linear_1031_13676)"/>
<path d="M274.594 333.928L342.467 373.069V451.632L274.594 425.296V333.928Z" stroke="url(#paint3_linear_1031_13676)" stroke-opacity="0.35"/>
<path d="M411.526 333.06L342.965 372.777L274.092 333.06L205.827 372.777L137.266 333.06L274.092 253.625L411.526 333.06Z" fill="url(#paint4_linear_1031_13676)"/>
<path d="M274.342 332.627L274.091 332.482L273.841 332.628L205.826 372.199L138.262 333.059L274.093 254.203L410.528 333.06L342.965 372.2L274.342 332.627Z" stroke="url(#paint5_linear_1031_13676)" stroke-opacity="0.29"/>
<path d="M274.093 333.062V425.638L205.828 452.363V372.78L274.093 333.062Z" fill="url(#paint6_linear_1031_13676)"/>
<path d="M206.328 373.067L273.593 333.932V425.297L206.328 451.63V373.067Z" stroke="url(#paint7_linear_1031_13676)" stroke-opacity="0.35"/>
<path d="M205.827 372.78V452.363L137.266 412.645V333.062L205.827 372.78Z" fill="url(#paint8_linear_1031_13676)"/>
<path d="M137.766 333.93L205.327 373.068V451.495L137.766 412.357V333.93Z" stroke="url(#paint9_linear_1031_13676)" stroke-opacity="0.35"/>
<path d="M195.372 345.424C192.622 346.948 189.62 347.309 186.639 347.216L187.185 344.633C189.305 344.947 191.215 344.702 192.622 343.923C194.133 343.085 193.965 342.084 192.895 341.491C191.614 340.781 189.62 341.421 187.5 342.038C184.75 342.817 181.706 343.644 178.789 342.026C176.333 340.665 176.543 338.408 179.481 336.779C181.937 335.417 184.33 335.138 186.849 335.161L186.282 337.454C184.645 337.267 183.239 337.512 182.042 338.175C180.636 338.954 180.657 339.781 181.644 340.327C182.882 341.014 184.687 340.409 186.933 339.792C189.683 339.013 192.958 338.221 195.896 339.85C198.31 341.188 198.73 343.562 195.372 345.424ZM203.842 340.496L193.956 335.015L190.765 336.784L188.141 335.329L197.209 330.303L199.833 331.757L196.685 333.503L206.571 338.983L203.842 340.496ZM211.15 336.445L198.64 329.51L202.985 327.102C205.966 325.449 209.618 325.566 211.948 326.857C213.543 327.741 214.152 328.963 213.228 330.22L220.533 331.244L217.343 333.012L207.876 331.535L213.942 334.897L211.15 336.445ZM205.357 328.649L204.013 329.394L207.54 331.348L208.883 330.604C210.29 329.824 209.996 328.986 209.093 328.486C207.939 327.846 206.7 327.904 205.357 328.649ZM226.269 328.25C223.456 329.81 219.909 329.914 216.907 328.25L208.91 323.817L211.722 322.258L219.804 326.738C221.042 327.424 222.575 327.459 223.687 326.843C224.8 326.226 224.779 325.353 223.54 324.667L215.459 320.187L218.272 318.628L226.269 323.061C229.292 324.737 229.103 326.68 226.269 328.25ZM238.749 321.333C234.929 323.45 229.429 323.334 225.861 321.356C222.23 319.343 222.167 316.283 225.924 314.2C228.338 312.862 231.591 312.431 234.551 312.862L233.649 315.038C231.948 314.747 230.059 314.956 228.653 315.736C226.512 316.923 226.701 318.656 228.716 319.773C230.731 320.89 233.837 320.983 235.916 319.832C237.448 318.982 237.679 317.923 236.986 316.911L240.911 316.201C241.94 317.958 241.457 319.832 238.749 321.333ZM248.038 315.998L238.151 310.517L234.961 312.286L232.337 310.831L241.405 305.805L244.029 307.259L240.88 309.005L250.767 314.485L248.038 315.998ZM260.195 309.445C257.382 311.004 253.835 311.109 250.833 309.445L242.835 305.012L245.648 303.453L253.73 307.933C254.968 308.619 256.5 308.654 257.613 308.037C258.725 307.421 258.704 306.548 257.466 305.861L249.384 301.382L252.197 299.823L260.195 304.256C263.217 305.931 263.029 307.874 260.195 309.445ZM266.231 305.913L253.72 298.978L258.065 296.57C261.046 294.918 264.698 295.034 267.028 296.326C268.624 297.21 269.233 298.432 268.309 299.688L275.614 300.712L272.423 302.481L262.956 301.003L269.023 304.366L266.231 305.913ZM260.437 298.117L259.094 298.862L262.62 300.817L263.964 300.072C265.37 299.293 265.076 298.455 264.174 297.954C263.019 297.315 261.781 297.373 260.437 298.117ZM276.144 300.418L267.936 291.098L270.686 289.574L287.521 294.112L284.666 295.694L282.063 294.973L277.676 297.405L278.978 298.847L276.144 300.418ZM273.331 292.553L275.955 295.496L278.621 294.019L273.331 292.553ZM288.698 293.46L276.187 286.525L279 284.966L288.824 290.411L293.043 288.072L295.73 289.562L288.698 293.46Z" fill="white"/>
<defs>
<linearGradient id="paint0_linear_1031_13676" x1="363.035" y1="451.998" x2="411.035" y2="319.498" gradientUnits="userSpaceOnUse">
<stop stop-color="#30B2E0"/>
<stop offset="1" stop-color="#1A617A"/>
</linearGradient>
<linearGradient id="paint1_linear_1031_13676" x1="377.183" y1="343.515" x2="389.888" y2="347.493" gradientUnits="userSpaceOnUse">
<stop stop-color="white"/>
<stop offset="1" stop-color="#C4C4C4"/>
</linearGradient>
<linearGradient id="paint2_linear_1031_13676" x1="318.531" y1="366.498" x2="343.031" y2="418.498" gradientUnits="userSpaceOnUse">
<stop stop-color="#2488AB"/>
<stop offset="1" stop-color="#0F3745"/>
</linearGradient>
<linearGradient id="paint3_linear_1031_13676" x1="308.464" y1="343.515" x2="321.216" y2="347.526" gradientUnits="userSpaceOnUse">
<stop stop-color="white"/>
<stop offset="1" stop-color="#C4C4C4"/>
</linearGradient>
<linearGradient id="paint4_linear_1031_13676" x1="137.031" y1="347.995" x2="387.531" y2="351.995" gradientUnits="userSpaceOnUse">
<stop stop-color="#2496BE"/>
<stop offset="1" stop-color="#33B8E7"/>
</linearGradient>
<linearGradient id="paint5_linear_1031_13676" x1="109.387" y1="242.942" x2="130.631" y2="393.114" gradientUnits="userSpaceOnUse">
<stop stop-color="white"/>
<stop offset="1" stop-color="#999999" stop-opacity="0.08"/>
</linearGradient>
<linearGradient id="paint6_linear_1031_13676" x1="239.961" y1="333.062" x2="266.035" y2="411.498" gradientUnits="userSpaceOnUse">
<stop stop-color="#2EADDA"/>
<stop offset="1" stop-color="#196079"/>
</linearGradient>
<linearGradient id="paint7_linear_1031_13676" x1="239.895" y1="343.515" x2="252.555" y2="347.461" gradientUnits="userSpaceOnUse">
<stop stop-color="white"/>
<stop offset="1" stop-color="#C4C4C4"/>
</linearGradient>
<linearGradient id="paint8_linear_1031_13676" x1="157.332" y1="451.998" x2="205.332" y2="319.498" gradientUnits="userSpaceOnUse">
<stop stop-color="#30B2E0"/>
<stop offset="1" stop-color="#1A617A"/>
</linearGradient>
<linearGradient id="paint9_linear_1031_13676" x1="171.48" y1="343.515" x2="184.185" y2="347.493" gradientUnits="userSpaceOnUse">
<stop stop-color="white"/>
<stop offset="1" stop-color="#C4C4C4"/>
</linearGradient>
</defs>
</svg>
