<svg width="549" height="492" viewBox="0 0 549 492" fill="none" xmlns="http://www.w3.org/2000/svg">
<g filter="url(#filter0_i_1031_13721)">
<path d="M548.569 158.883V333.456L480.172 373.173V198.6L548.569 158.883Z" fill="url(#paint0_linear_1031_13721)"/>
</g>
<path d="M480.672 198.888L548.069 159.751V333.168L480.672 372.304V198.888Z" stroke="url(#paint1_linear_1031_13721)" stroke-opacity="0.5"/>
<path d="M480.171 198.606V373.179L274.094 293.038V79.4375L480.171 198.606Z" fill="url(#paint2_linear_1031_13721)"/>
<path d="M274.594 80.3042L479.671 198.895V372.448L274.594 292.696V80.3042Z" stroke="url(#paint3_linear_1031_13721)" stroke-opacity="0.5"/>
<g filter="url(#filter1_i_1031_13721)">
<path d="M548.57 158.886L480.174 198.604L274.096 79.4349L68.6924 198.604L0 158.886L274.096 0L548.57 158.886Z" fill="#002359"/>
</g>
<path d="M274.347 79.002L274.096 78.857L273.845 79.0024L68.692 198.026L0.997952 158.886L274.096 0.577833L547.573 158.887L480.173 198.026L274.347 79.002Z" stroke="url(#paint4_linear_1031_13721)" stroke-opacity="0.5"/>
<path d="M274.091 79.4375V293.038L68.6875 373.195V198.606L274.091 79.4375Z" fill="url(#paint5_linear_1031_13721)"/>
<path d="M69.1875 198.894L273.591 80.3056V292.696L69.1875 372.464V198.894Z" stroke="url(#paint6_linear_1031_13721)" stroke-opacity="0.29"/>
<path d="M68.6924 198.6V373.189L0 333.456V158.883L68.6924 198.6Z" fill="url(#paint7_linear_1031_13721)"/>
<path d="M0.5 159.749L68.1924 198.889V372.323L0.5 333.167V159.749Z" stroke="url(#paint8_linear_1031_13721)" stroke-opacity="0.29"/>
<g filter="url(#filter2_bi_1031_13721)">
<path d="M480.167 246.75V373.047L411.523 412.765V286.467L480.167 246.75Z" fill="url(#paint9_linear_1031_13721)" fill-opacity="0.29"/>
<path d="M412.023 286.756L479.667 247.617V372.759L412.023 411.898V286.756Z" stroke="url(#paint10_linear_1031_13721)" stroke-opacity="0.35"/>
</g>
<g filter="url(#filter3_bi_1031_13721)">
<path d="M411.528 286.466V412.764L274.094 346.338V207.031L411.528 286.466Z" fill="url(#paint11_linear_1031_13721)" fill-opacity="0.29"/>
</g>
<g filter="url(#filter4_bi_1031_13721)">
<path d="M480.169 246.747L411.525 286.464L274.091 207.029L137.265 286.464L68.6875 246.747L274.091 127.578L480.169 246.747Z" fill="#D9D9D9" fill-opacity="0.27"/>
<path d="M274.342 206.597L274.091 206.452L273.84 206.597L137.265 285.886L69.6845 246.746L274.092 128.156L479.17 246.747L411.525 285.887L274.342 206.597Z" stroke="url(#paint12_linear_1031_13721)" stroke-opacity="0.35"/>
</g>
<g filter="url(#filter5_bi_1031_13721)">
<path d="M274.092 207.031V346.338L137.266 412.764V286.466L274.092 207.031Z" fill="url(#paint13_linear_1031_13721)" fill-opacity="0.29"/>
<path d="M137.766 286.754L273.592 207.9V346.025L137.766 411.965V286.754Z" stroke="url(#paint14_linear_1031_13721)" stroke-opacity="0.35"/>
</g>
<g filter="url(#filter6_bi_1031_13721)">
<path d="M137.265 286.467V412.765L68.6875 373.047V246.75L137.265 286.467Z" fill="url(#paint15_linear_1031_13721)" fill-opacity="0.29"/>
<path d="M69.1875 247.617L136.765 286.756V411.898L69.1875 372.759V247.617Z" stroke="url(#paint16_linear_1031_13721)" stroke-opacity="0.35"/>
</g>
<path d="M411.53 333.07V412.653L342.969 452.37V372.788L411.53 333.07Z" fill="url(#paint17_linear_1031_13721)"/>
<path d="M343.469 373.076L411.03 333.938V412.365L343.469 451.503V373.076Z" stroke="url(#paint18_linear_1031_13721)" stroke-opacity="0.35"/>
<path d="M342.967 372.788V452.37L274.094 425.646V333.07L342.967 372.788Z" fill="url(#paint19_linear_1031_13721)"/>
<path d="M274.594 333.936L342.467 373.077V451.64L274.594 425.303V333.936Z" stroke="url(#paint20_linear_1031_13721)" stroke-opacity="0.35"/>
<path d="M411.526 333.068L342.965 372.785L274.092 333.068L205.827 372.785L137.266 333.068L274.092 253.633L411.526 333.068Z" fill="url(#paint21_linear_1031_13721)"/>
<path d="M274.342 332.635L274.091 332.49L273.841 332.636L205.826 372.207L138.262 333.067L274.093 254.211L410.528 333.068L342.965 372.208L274.342 332.635Z" stroke="url(#paint22_linear_1031_13721)" stroke-opacity="0.29"/>
<path d="M274.093 333.07V425.646L205.828 452.37V372.788L274.093 333.07Z" fill="url(#paint23_linear_1031_13721)"/>
<path d="M206.328 373.075L273.593 333.94V425.305L206.328 451.638V373.075Z" stroke="url(#paint24_linear_1031_13721)" stroke-opacity="0.35"/>
<path d="M205.827 372.788V452.37L137.266 412.653V333.07L205.827 372.788Z" fill="url(#paint25_linear_1031_13721)"/>
<path d="M137.766 333.938L205.327 373.076V451.503L137.766 412.365V333.938Z" stroke="url(#paint26_linear_1031_13721)" stroke-opacity="0.35"/>
<g filter="url(#filter7_i_1031_13721)">
<path d="M342.974 415.241L274.101 454.958L205.836 415.241L274.101 375.523L342.974 415.241Z" fill="url(#paint27_linear_1031_13721)"/>
</g>
<path d="M274.102 376.101L341.974 415.241L274.102 454.38L206.83 415.241L274.102 376.101Z" stroke="url(#paint28_linear_1031_13721)" stroke-opacity="0.35"/>
<g filter="url(#filter8_i_1031_13721)">
<path d="M342.967 415.242V452.233L274.094 491.95V454.96L342.967 415.242Z" fill="url(#paint29_linear_1031_13721)"/>
</g>
<path d="M274.594 455.248L342.467 416.108V451.944L274.594 491.085V455.248Z" stroke="url(#paint30_linear_1031_13721)" stroke-opacity="0.35"/>
<g filter="url(#filter9_i_1031_13721)">
<path d="M274.101 454.96V491.95L205.836 452.233V415.242L274.101 454.96Z" fill="url(#paint31_linear_1031_13721)"/>
</g>
<path d="M206.336 416.112L273.601 455.247V491.081L206.336 451.945V416.112Z" stroke="url(#paint32_linear_1031_13721)" stroke-opacity="0.35"/>
<path d="M84.0398 172.402C71.4452 179.383 53.701 178.856 42.058 172.402C29.8553 165.638 30.2472 155.678 42.058 149.131C49.7267 144.88 60.418 143.422 70.1018 144.818L67.6949 150.869C61.0338 149.845 54.8764 150.341 49.5588 153.289C41.7781 157.602 42.002 163.993 49.6147 168.213C57.0595 172.34 68.6465 172.495 76.2592 168.275C81.9127 165.141 82.6404 161.201 80.3454 157.509L90.9248 155.678C94.2833 161.511 92.1003 167.934 84.0398 172.402ZM121.006 151.787C111.49 157.062 96.3207 157.031 86.8049 151.756C77.345 146.512 77.233 138.073 86.7489 132.798C96.2088 127.554 111.546 127.554 121.006 132.798C130.522 138.073 130.522 146.512 121.006 151.787ZM113.617 147.691C119.103 144.651 118.767 139.997 113.393 137.018C108.02 134.039 99.5673 133.884 94.1377 136.894C88.764 139.872 89.0439 144.558 94.4176 147.536C99.7912 150.515 108.244 150.67 113.617 147.691ZM141.231 140.08L100.369 117.429L114.363 109.672C122.815 104.987 135.578 105.111 143.638 109.579C151.755 114.078 151.978 121.153 143.47 125.869L137.145 129.375L148.844 135.86L141.231 140.08ZM120.856 113.892L115.035 117.119L130.092 125.466L135.913 122.239C140.392 119.757 140.168 116.157 135.969 113.83C131.771 111.503 125.334 111.41 120.856 113.892ZM174.303 121.748L140.941 103.255L148.498 99.0665L181.859 117.559L174.303 121.748ZM186.268 115.116L152.906 96.6231L160.407 92.4654L186.603 106.986L197.854 100.75L205.019 104.721L186.268 115.116ZM222.517 95.5189C213.001 100.794 197.831 100.763 188.315 95.4879C178.856 90.2442 178.744 81.8047 188.259 76.5299C197.719 71.2862 213.057 71.2862 222.517 76.5299C232.032 81.8047 232.032 90.2442 222.517 95.5189ZM215.128 91.4233C220.613 88.3825 220.278 83.7284 214.904 80.7497C209.53 77.771 201.078 77.6159 195.648 80.6256C190.275 83.6043 190.554 88.2895 195.928 91.2681C201.302 94.2468 209.754 94.4019 215.128 91.4233ZM248.12 80.8304L221.755 66.2163L213.247 70.9326L206.25 67.0541L230.431 53.6501L237.428 57.5285L229.032 62.1827L255.397 76.7968L248.12 80.8304Z" fill="white"/>
<path d="M156.04 259.402C143.445 266.383 125.701 265.856 114.058 259.402C101.855 252.638 102.247 242.678 114.058 236.131C121.727 231.88 132.418 230.422 142.102 231.818L139.695 237.869C133.034 236.845 126.876 237.341 121.559 240.289C113.778 244.602 114.002 250.993 121.615 255.213C129.059 259.34 140.646 259.495 148.259 255.275C153.913 252.141 154.64 248.201 152.345 244.509L162.925 242.678C166.283 248.511 164.1 254.934 156.04 259.402ZM176.934 247.199L143.573 228.707L151.13 224.518L184.491 243.011L176.934 247.199ZM198.695 235.137L154.53 222.633L162.311 218.32L190.914 226.481L176.025 210.718L183.805 206.406L206.476 230.824L198.695 235.137ZM220.556 223.019L187.195 204.527L194.751 200.338L228.113 218.831L220.556 223.019ZM232.521 216.387L199.159 197.895L206.66 193.737L232.857 208.258L244.108 202.021L251.273 205.993L232.521 216.387Z" fill="white"/>
<path d="M195.372 345.424C192.622 346.948 189.62 347.309 186.639 347.216L187.185 344.633C189.305 344.947 191.215 344.702 192.622 343.923C194.133 343.085 193.965 342.084 192.895 341.491C191.614 340.781 189.62 341.421 187.5 342.038C184.75 342.817 181.706 343.644 178.789 342.026C176.333 340.665 176.543 338.408 179.481 336.779C181.937 335.417 184.33 335.138 186.849 335.161L186.282 337.454C184.645 337.267 183.239 337.512 182.042 338.175C180.636 338.954 180.657 339.781 181.644 340.327C182.882 341.014 184.687 340.409 186.933 339.792C189.683 339.013 192.958 338.221 195.896 339.85C198.31 341.188 198.73 343.562 195.372 345.424ZM203.842 340.496L193.956 335.015L190.765 336.784L188.141 335.329L197.209 330.303L199.833 331.757L196.685 333.503L206.571 338.983L203.842 340.496ZM211.15 336.445L198.64 329.51L202.985 327.102C205.966 325.449 209.618 325.566 211.948 326.857C213.543 327.741 214.152 328.963 213.228 330.22L220.533 331.244L217.343 333.012L207.876 331.535L213.942 334.897L211.15 336.445ZM205.357 328.649L204.013 329.394L207.54 331.348L208.883 330.604C210.29 329.824 209.996 328.986 209.093 328.486C207.939 327.846 206.7 327.904 205.357 328.649ZM226.269 328.25C223.456 329.81 219.909 329.914 216.907 328.25L208.91 323.817L211.722 322.258L219.804 326.738C221.042 327.424 222.575 327.459 223.687 326.843C224.8 326.226 224.779 325.353 223.54 324.667L215.459 320.187L218.272 318.628L226.269 323.061C229.292 324.737 229.103 326.68 226.269 328.25ZM238.749 321.333C234.929 323.45 229.429 323.334 225.861 321.356C222.23 319.343 222.167 316.283 225.924 314.2C228.338 312.862 231.591 312.431 234.551 312.862L233.649 315.038C231.948 314.747 230.059 314.956 228.653 315.736C226.512 316.923 226.701 318.656 228.716 319.773C230.731 320.89 233.837 320.983 235.916 319.832C237.448 318.982 237.679 317.923 236.986 316.911L240.911 316.201C241.94 317.958 241.457 319.832 238.749 321.333ZM248.038 315.998L238.151 310.517L234.961 312.286L232.337 310.831L241.405 305.805L244.029 307.259L240.88 309.005L250.767 314.485L248.038 315.998ZM260.195 309.445C257.382 311.004 253.835 311.109 250.833 309.445L242.835 305.012L245.648 303.453L253.73 307.933C254.968 308.619 256.5 308.654 257.613 308.037C258.725 307.421 258.704 306.548 257.466 305.861L249.384 301.382L252.197 299.823L260.195 304.256C263.217 305.931 263.029 307.874 260.195 309.445ZM266.231 305.913L253.72 298.978L258.065 296.57C261.046 294.918 264.698 295.034 267.028 296.326C268.624 297.21 269.233 298.432 268.309 299.688L275.614 300.712L272.423 302.481L262.956 301.003L269.023 304.366L266.231 305.913ZM260.437 298.117L259.094 298.862L262.62 300.817L263.964 300.072C265.37 299.293 265.076 298.455 264.174 297.954C263.019 297.315 261.781 297.373 260.437 298.117ZM276.144 300.418L267.936 291.098L270.686 289.574L287.521 294.112L284.666 295.694L282.063 294.973L277.676 297.405L278.978 298.847L276.144 300.418ZM273.331 292.553L275.955 295.496L278.621 294.019L273.331 292.553ZM288.698 293.46L276.187 286.525L279 284.966L288.824 290.411L293.043 288.072L295.73 289.562L288.698 293.46Z" fill="white"/>
<path d="M247.707 435.556L237.491 429.893L239.381 428.846L246.769 429.513L245.692 425.348L247.497 424.347L257.713 430.01L255.81 431.064L248.645 427.093L249.736 431.173L242.515 430.568L249.61 434.501L247.707 435.556ZM258.564 429.537L253.093 423.324L254.926 422.308L266.149 425.333L264.246 426.388L262.511 425.907L259.586 427.528L260.453 428.49L258.564 429.537ZM256.689 424.294L258.438 426.256L260.216 425.271L256.689 424.294ZM266.933 424.898L258.593 420.275L261.49 418.67C263.477 417.568 265.912 417.646 267.465 418.507C268.529 419.096 268.934 419.911 268.319 420.748L273.189 421.431L271.062 422.61L264.75 421.625L268.795 423.867L266.933 424.898ZM263.071 419.701L262.175 420.198L264.526 421.501L265.422 421.004C266.36 420.485 266.164 419.926 265.562 419.593C264.792 419.166 263.967 419.205 263.071 419.701ZM273.85 421.064L265.51 416.441L267.399 415.394L275.739 420.017L273.85 421.064ZM278.884 418.274L272.293 414.62L270.166 415.799L268.417 414.83L274.462 411.479L276.211 412.448L274.112 413.612L280.703 417.265L278.884 418.274ZM283.826 415.535L275.486 410.911L277.375 409.864L285.715 414.487L283.826 415.535ZM286.817 413.877L278.477 409.253L280.352 408.214L285.67 408.695L284.886 405.701L286.663 404.716L295.004 409.339L293.129 410.378L287.811 407.431L288.581 410.324L283.347 409.889L288.678 412.845L286.817 413.877ZM296.028 408.771L287.688 404.148L292.628 401.41L294.377 402.379L291.298 404.086L292.824 404.931L295.902 403.225L297.665 404.202L294.587 405.909L296.14 406.77L299.219 405.063L300.968 406.033L296.028 408.771Z" fill="white"/>
<defs>
<filter id="filter0_i_1031_13721" x="480.172" y="158.883" width="68.3984" height="218.289" filterUnits="userSpaceOnUse" color-interpolation-filters="sRGB">
<feFlood flood-opacity="0" result="BackgroundImageFix"/>
<feBlend mode="normal" in="SourceGraphic" in2="BackgroundImageFix" result="shape"/>
<feColorMatrix in="SourceAlpha" type="matrix" values="0 0 0 0 0 0 0 0 0 0 0 0 0 0 0 0 0 0 127 0" result="hardAlpha"/>
<feOffset dy="4"/>
<feGaussianBlur stdDeviation="6.35"/>
<feComposite in2="hardAlpha" operator="arithmetic" k2="-1" k3="1"/>
<feColorMatrix type="matrix" values="0 0 0 0 0 0 0 0 0 0.24849 0 0 0 0 0.634302 0 0 0 1 0"/>
<feBlend mode="normal" in2="shape" result="effect1_innerShadow_1031_13721"/>
</filter>
<filter id="filter1_i_1031_13721" x="0" y="0" width="548.57" height="202.602" filterUnits="userSpaceOnUse" color-interpolation-filters="sRGB">
<feFlood flood-opacity="0" result="BackgroundImageFix"/>
<feBlend mode="normal" in="SourceGraphic" in2="BackgroundImageFix" result="shape"/>
<feColorMatrix in="SourceAlpha" type="matrix" values="0 0 0 0 0 0 0 0 0 0 0 0 0 0 0 0 0 0 127 0" result="hardAlpha"/>
<feOffset dy="4"/>
<feGaussianBlur stdDeviation="14.65"/>
<feComposite in2="hardAlpha" operator="arithmetic" k2="-1" k3="1"/>
<feColorMatrix type="matrix" values="0 0 0 0 0.156948 0 0 0 0 0.400025 0 0 0 0 0.768562 0 0 0 1 0"/>
<feBlend mode="normal" in2="shape" result="effect1_innerShadow_1031_13721"/>
</filter>
<filter id="filter2_bi_1031_13721" x="345.823" y="181.05" width="200.041" height="297.416" filterUnits="userSpaceOnUse" color-interpolation-filters="sRGB">
<feFlood flood-opacity="0" result="BackgroundImageFix"/>
<feGaussianBlur in="BackgroundImageFix" stdDeviation="32.85"/>
<feComposite in2="SourceAlpha" operator="in" result="effect1_backgroundBlur_1031_13721"/>
<feBlend mode="normal" in="SourceGraphic" in2="effect1_backgroundBlur_1031_13721" result="shape"/>
<feColorMatrix in="SourceAlpha" type="matrix" values="0 0 0 0 0 0 0 0 0 0 0 0 0 0 0 0 0 0 127 0" result="hardAlpha"/>
<feOffset dy="4"/>
<feGaussianBlur stdDeviation="19.4"/>
<feComposite in2="hardAlpha" operator="arithmetic" k2="-1" k3="1"/>
<feColorMatrix type="matrix" values="0 0 0 0 1 0 0 0 0 1 0 0 0 0 1 0 0 0 0.47 0"/>
<feBlend mode="normal" in2="shape" result="effect2_innerShadow_1031_13721"/>
</filter>
<filter id="filter3_bi_1031_13721" x="208.394" y="141.331" width="268.837" height="337.134" filterUnits="userSpaceOnUse" color-interpolation-filters="sRGB">
<feFlood flood-opacity="0" result="BackgroundImageFix"/>
<feGaussianBlur in="BackgroundImageFix" stdDeviation="32.85"/>
<feComposite in2="SourceAlpha" operator="in" result="effect1_backgroundBlur_1031_13721"/>
<feBlend mode="normal" in="SourceGraphic" in2="effect1_backgroundBlur_1031_13721" result="shape"/>
<feColorMatrix in="SourceAlpha" type="matrix" values="0 0 0 0 0 0 0 0 0 0 0 0 0 0 0 0 0 0 127 0" result="hardAlpha"/>
<feOffset dy="4"/>
<feGaussianBlur stdDeviation="19.4"/>
<feComposite in2="hardAlpha" operator="arithmetic" k2="-1" k3="1"/>
<feColorMatrix type="matrix" values="0 0 0 0 1 0 0 0 0 1 0 0 0 0 1 0 0 0 0.47 0"/>
<feBlend mode="normal" in2="shape" result="effect2_innerShadow_1031_13721"/>
</filter>
<filter id="filter4_bi_1031_13721" x="2.9875" y="61.8781" width="542.884" height="290.283" filterUnits="userSpaceOnUse" color-interpolation-filters="sRGB">
<feFlood flood-opacity="0" result="BackgroundImageFix"/>
<feGaussianBlur in="BackgroundImageFix" stdDeviation="32.85"/>
<feComposite in2="SourceAlpha" operator="in" result="effect1_backgroundBlur_1031_13721"/>
<feBlend mode="normal" in="SourceGraphic" in2="effect1_backgroundBlur_1031_13721" result="shape"/>
<feColorMatrix in="SourceAlpha" type="matrix" values="0 0 0 0 0 0 0 0 0 0 0 0 0 0 0 0 0 0 127 0" result="hardAlpha"/>
<feOffset dy="4"/>
<feGaussianBlur stdDeviation="19.4"/>
<feComposite in2="hardAlpha" operator="arithmetic" k2="-1" k3="1"/>
<feColorMatrix type="matrix" values="0 0 0 0 1 0 0 0 0 1 0 0 0 0 1 0 0 0 0.47 0"/>
<feBlend mode="normal" in2="shape" result="effect2_innerShadow_1031_13721"/>
</filter>
<filter id="filter5_bi_1031_13721" x="71.5656" y="141.331" width="268.228" height="337.134" filterUnits="userSpaceOnUse" color-interpolation-filters="sRGB">
<feFlood flood-opacity="0" result="BackgroundImageFix"/>
<feGaussianBlur in="BackgroundImageFix" stdDeviation="32.85"/>
<feComposite in2="SourceAlpha" operator="in" result="effect1_backgroundBlur_1031_13721"/>
<feBlend mode="normal" in="SourceGraphic" in2="effect1_backgroundBlur_1031_13721" result="shape"/>
<feColorMatrix in="SourceAlpha" type="matrix" values="0 0 0 0 0 0 0 0 0 0 0 0 0 0 0 0 0 0 127 0" result="hardAlpha"/>
<feOffset dy="4"/>
<feGaussianBlur stdDeviation="19.4"/>
<feComposite in2="hardAlpha" operator="arithmetic" k2="-1" k3="1"/>
<feColorMatrix type="matrix" values="0 0 0 0 1 0 0 0 0 1 0 0 0 0 1 0 0 0 0.47 0"/>
<feBlend mode="normal" in2="shape" result="effect2_innerShadow_1031_13721"/>
</filter>
<filter id="filter6_bi_1031_13721" x="2.9875" y="181.05" width="199.978" height="297.416" filterUnits="userSpaceOnUse" color-interpolation-filters="sRGB">
<feFlood flood-opacity="0" result="BackgroundImageFix"/>
<feGaussianBlur in="BackgroundImageFix" stdDeviation="32.85"/>
<feComposite in2="SourceAlpha" operator="in" result="effect1_backgroundBlur_1031_13721"/>
<feBlend mode="normal" in="SourceGraphic" in2="effect1_backgroundBlur_1031_13721" result="shape"/>
<feColorMatrix in="SourceAlpha" type="matrix" values="0 0 0 0 0 0 0 0 0 0 0 0 0 0 0 0 0 0 127 0" result="hardAlpha"/>
<feOffset dy="4"/>
<feGaussianBlur stdDeviation="19.4"/>
<feComposite in2="hardAlpha" operator="arithmetic" k2="-1" k3="1"/>
<feColorMatrix type="matrix" values="0 0 0 0 1 0 0 0 0 1 0 0 0 0 1 0 0 0 0.47 0"/>
<feBlend mode="normal" in2="shape" result="effect2_innerShadow_1031_13721"/>
</filter>
<filter id="filter7_i_1031_13721" x="205.836" y="375.523" width="137.141" height="83.4375" filterUnits="userSpaceOnUse" color-interpolation-filters="sRGB">
<feFlood flood-opacity="0" result="BackgroundImageFix"/>
<feBlend mode="normal" in="SourceGraphic" in2="BackgroundImageFix" result="shape"/>
<feColorMatrix in="SourceAlpha" type="matrix" values="0 0 0 0 0 0 0 0 0 0 0 0 0 0 0 0 0 0 127 0" result="hardAlpha"/>
<feOffset dy="4"/>
<feGaussianBlur stdDeviation="8.8"/>
<feComposite in2="hardAlpha" operator="arithmetic" k2="-1" k3="1"/>
<feColorMatrix type="matrix" values="0 0 0 0 1 0 0 0 0 1 0 0 0 0 1 0 0 0 0.25 0"/>
<feBlend mode="normal" in2="shape" result="effect1_innerShadow_1031_13721"/>
</filter>
<filter id="filter8_i_1031_13721" x="274.094" y="415.242" width="68.875" height="80.7109" filterUnits="userSpaceOnUse" color-interpolation-filters="sRGB">
<feFlood flood-opacity="0" result="BackgroundImageFix"/>
<feBlend mode="normal" in="SourceGraphic" in2="BackgroundImageFix" result="shape"/>
<feColorMatrix in="SourceAlpha" type="matrix" values="0 0 0 0 0 0 0 0 0 0 0 0 0 0 0 0 0 0 127 0" result="hardAlpha"/>
<feOffset dy="4"/>
<feGaussianBlur stdDeviation="8.05"/>
<feComposite in2="hardAlpha" operator="arithmetic" k2="-1" k3="1"/>
<feColorMatrix type="matrix" values="0 0 0 0 1 0 0 0 0 1 0 0 0 0 1 0 0 0 0.25 0"/>
<feBlend mode="normal" in2="shape" result="effect1_innerShadow_1031_13721"/>
</filter>
<filter id="filter9_i_1031_13721" x="205.836" y="415.242" width="68.2656" height="80.7109" filterUnits="userSpaceOnUse" color-interpolation-filters="sRGB">
<feFlood flood-opacity="0" result="BackgroundImageFix"/>
<feBlend mode="normal" in="SourceGraphic" in2="BackgroundImageFix" result="shape"/>
<feColorMatrix in="SourceAlpha" type="matrix" values="0 0 0 0 0 0 0 0 0 0 0 0 0 0 0 0 0 0 127 0" result="hardAlpha"/>
<feOffset dy="4"/>
<feGaussianBlur stdDeviation="8.75"/>
<feComposite in2="hardAlpha" operator="arithmetic" k2="-1" k3="1"/>
<feColorMatrix type="matrix" values="0 0 0 0 1 0 0 0 0 1 0 0 0 0 1 0 0 0 0.25 0"/>
<feBlend mode="normal" in2="shape" result="effect1_innerShadow_1031_13721"/>
</filter>
<linearGradient id="paint0_linear_1031_13721" x1="549.035" y1="140.497" x2="538.035" y2="303.497" gradientUnits="userSpaceOnUse">
<stop stop-color="#002359"/>
<stop offset="1"/>
</linearGradient>
<linearGradient id="paint1_linear_1031_13721" x1="482.744" y1="386.935" x2="551.859" y2="385.054" gradientUnits="userSpaceOnUse">
<stop stop-color="#161517"/>
<stop offset="1" stop-color="#D9D9D9" stop-opacity="0.06"/>
</linearGradient>
<linearGradient id="paint2_linear_1031_13721" x1="426.031" y1="256.002" x2="442.031" y2="58.5024" gradientUnits="userSpaceOnUse">
<stop stop-color="#002359"/>
<stop offset="1"/>
</linearGradient>
<linearGradient id="paint3_linear_1031_13721" x1="281.843" y1="392.043" x2="489.496" y2="379.621" gradientUnits="userSpaceOnUse">
<stop stop-color="#161517"/>
<stop offset="1" stop-color="#D9D9D9" stop-opacity="0.06"/>
</linearGradient>
<linearGradient id="paint4_linear_1031_13721" x1="20.6287" y1="211.358" x2="546.217" y2="87.5726" gradientUnits="userSpaceOnUse">
<stop stop-color="#161517"/>
<stop offset="1" stop-color="#D9D9D9" stop-opacity="0.06"/>
</linearGradient>
<linearGradient id="paint5_linear_1031_13721" x1="238.031" y1="79.0024" x2="249.531" y2="210.502" gradientUnits="userSpaceOnUse">
<stop stop-color="#002359"/>
<stop offset="1"/>
</linearGradient>
<linearGradient id="paint6_linear_1031_13721" x1="47.8085" y1="53.0985" x2="192.328" y2="363.445" gradientUnits="userSpaceOnUse">
<stop stop-color="white"/>
<stop offset="1" stop-color="#999999" stop-opacity="0.08"/>
</linearGradient>
<linearGradient id="paint7_linear_1031_13721" x1="69.0352" y1="193.997" x2="-46.899" y2="247.363" gradientUnits="userSpaceOnUse">
<stop stop-color="#002359"/>
<stop offset="1"/>
</linearGradient>
<linearGradient id="paint8_linear_1031_13721" x1="-6.98247" y1="139.668" x2="130.753" y2="275.256" gradientUnits="userSpaceOnUse">
<stop stop-color="white"/>
<stop offset="1" stop-color="#999999" stop-opacity="0.08"/>
</linearGradient>
<linearGradient id="paint9_linear_1031_13721" x1="404.546" y1="231.865" x2="508.283" y2="363.595" gradientUnits="userSpaceOnUse">
<stop stop-color="white"/>
<stop offset="1" stop-color="#999999" stop-opacity="0.08"/>
</linearGradient>
<linearGradient id="paint10_linear_1031_13721" x1="445.779" y1="261.296" x2="459.071" y2="264.29" gradientUnits="userSpaceOnUse">
<stop stop-color="white"/>
<stop offset="1" stop-color="#C4C4C4"/>
</linearGradient>
<linearGradient id="paint11_linear_1031_13721" x1="260.124" y1="188.585" x2="364.29" y2="402.294" gradientUnits="userSpaceOnUse">
<stop stop-color="white"/>
<stop offset="1" stop-color="#999999" stop-opacity="0.08"/>
</linearGradient>
<linearGradient id="paint12_linear_1031_13721" x1="274.031" y1="141.5" x2="302.031" y2="181" gradientUnits="userSpaceOnUse">
<stop stop-color="white"/>
<stop offset="1" stop-color="#C4C4C4"/>
</linearGradient>
<linearGradient id="paint13_linear_1031_13721" x1="123.357" y1="188.585" x2="227.808" y2="401.929" gradientUnits="userSpaceOnUse">
<stop stop-color="white"/>
<stop offset="1" stop-color="#999999" stop-opacity="0.08"/>
</linearGradient>
<linearGradient id="paint14_linear_1031_13721" x1="205.547" y1="225.057" x2="230.157" y2="233.973" gradientUnits="userSpaceOnUse">
<stop stop-color="white"/>
<stop offset="1" stop-color="#C4C4C4"/>
</linearGradient>
<linearGradient id="paint15_linear_1031_13721" x1="61.7167" y1="231.865" x2="165.477" y2="363.499" gradientUnits="userSpaceOnUse">
<stop stop-color="white"/>
<stop offset="1" stop-color="#999999" stop-opacity="0.08"/>
</linearGradient>
<linearGradient id="paint16_linear_1031_13721" x1="102.91" y1="261.296" x2="116.191" y2="264.284" gradientUnits="userSpaceOnUse">
<stop stop-color="white"/>
<stop offset="1" stop-color="#C4C4C4"/>
</linearGradient>
<linearGradient id="paint17_linear_1031_13721" x1="363.035" y1="452.005" x2="411.035" y2="319.505" gradientUnits="userSpaceOnUse">
<stop stop-color="#30B2E0"/>
<stop offset="1" stop-color="#1A617A"/>
</linearGradient>
<linearGradient id="paint18_linear_1031_13721" x1="377.183" y1="343.523" x2="389.888" y2="347.5" gradientUnits="userSpaceOnUse">
<stop stop-color="white"/>
<stop offset="1" stop-color="#C4C4C4"/>
</linearGradient>
<linearGradient id="paint19_linear_1031_13721" x1="318.531" y1="366.505" x2="343.031" y2="418.505" gradientUnits="userSpaceOnUse">
<stop stop-color="#2488AB"/>
<stop offset="1" stop-color="#0F3745"/>
</linearGradient>
<linearGradient id="paint20_linear_1031_13721" x1="308.464" y1="343.523" x2="321.216" y2="347.534" gradientUnits="userSpaceOnUse">
<stop stop-color="white"/>
<stop offset="1" stop-color="#C4C4C4"/>
</linearGradient>
<linearGradient id="paint21_linear_1031_13721" x1="137.031" y1="348.003" x2="387.531" y2="352.003" gradientUnits="userSpaceOnUse">
<stop stop-color="#2496BE"/>
<stop offset="1" stop-color="#33B8E7"/>
</linearGradient>
<linearGradient id="paint22_linear_1031_13721" x1="109.387" y1="242.949" x2="130.631" y2="393.122" gradientUnits="userSpaceOnUse">
<stop stop-color="white"/>
<stop offset="1" stop-color="#999999" stop-opacity="0.08"/>
</linearGradient>
<linearGradient id="paint23_linear_1031_13721" x1="239.961" y1="333.07" x2="266.035" y2="411.505" gradientUnits="userSpaceOnUse">
<stop stop-color="#2EADDA"/>
<stop offset="1" stop-color="#196079"/>
</linearGradient>
<linearGradient id="paint24_linear_1031_13721" x1="239.895" y1="343.523" x2="252.555" y2="347.469" gradientUnits="userSpaceOnUse">
<stop stop-color="white"/>
<stop offset="1" stop-color="#C4C4C4"/>
</linearGradient>
<linearGradient id="paint25_linear_1031_13721" x1="157.332" y1="452.005" x2="205.332" y2="319.505" gradientUnits="userSpaceOnUse">
<stop stop-color="#30B2E0"/>
<stop offset="1" stop-color="#1A617A"/>
</linearGradient>
<linearGradient id="paint26_linear_1031_13721" x1="171.48" y1="343.523" x2="184.185" y2="347.5" gradientUnits="userSpaceOnUse">
<stop stop-color="white"/>
<stop offset="1" stop-color="#C4C4C4"/>
</linearGradient>
<linearGradient id="paint27_linear_1031_13721" x1="342.842" y1="409.445" x2="260.43" y2="498.786" gradientUnits="userSpaceOnUse">
<stop/>
<stop offset="1" stop-color="#373737"/>
</linearGradient>
<linearGradient id="paint28_linear_1031_13721" x1="274.273" y1="382.483" x2="289.08" y2="396.409" gradientUnits="userSpaceOnUse">
<stop stop-color="white"/>
<stop offset="1" stop-color="#C4C4C4"/>
</linearGradient>
<linearGradient id="paint29_linear_1031_13721" x1="302.031" y1="423" x2="317.957" y2="479.379" gradientUnits="userSpaceOnUse">
<stop/>
<stop offset="1" stop-color="#373737"/>
</linearGradient>
<linearGradient id="paint30_linear_1031_13721" x1="308.464" y1="421.963" x2="319.772" y2="427.494" gradientUnits="userSpaceOnUse">
<stop stop-color="white"/>
<stop offset="1" stop-color="#C4C4C4"/>
</linearGradient>
<linearGradient id="paint31_linear_1031_13721" x1="274.035" y1="448" x2="206.035" y2="486" gradientUnits="userSpaceOnUse">
<stop/>
<stop offset="1" stop-color="#373737"/>
</linearGradient>
<linearGradient id="paint32_linear_1031_13721" x1="239.903" y1="421.963" x2="251.15" y2="427.415" gradientUnits="userSpaceOnUse">
<stop stop-color="white"/>
<stop offset="1" stop-color="#C4C4C4"/>
</linearGradient>
</defs>
</svg>
