<svg width="400" height="455" viewBox="-80 -80 400 455" fill="none" xmlns="http://www.w3.org/2000/svg">
<g opacity="0.8">
<g filter="url(#filter0_b_713_3244)">
<path d="M210.298 4.40464V152.905C210.298 154.905 208.898 157.305 207.198 158.205L7.09844 273.905C6.69844 274.105 6.39844 274.205 6.09844 274.205C5.99844 274.205 5.79844 274.205 5.69844 274.105C5.59844 274.105 5.49844 274.005 5.39844 274.005C5.29844 274.005 5.29844 273.905 5.19844 273.905C5.09844 273.905 5.09844 273.805 4.99844 273.805C4.89844 273.705 4.89844 273.705 4.79844 273.605C4.59844 273.405 4.39844 273.105 4.19844 272.805C3.99844 272.305 3.89844 271.805 3.89844 271.205V123.605C3.89844 121.605 5.29844 119.205 6.99844 118.305L207.198 2.60464C207.998 2.10464 208.698 2.10464 209.298 2.30464C209.398 2.30464 209.498 2.40464 209.598 2.50464C209.698 2.60464 209.698 2.60464 209.798 2.70464L209.898 2.80464C209.898 2.90464 209.998 2.90464 209.998 3.00464C210.098 3.10464 210.098 3.30464 210.198 3.40464C210.198 3.50464 210.298 3.60464 210.298 3.70464C210.298 3.70464 210.298 3.70464 210.298 3.80464C210.298 3.90464 210.298 4.00464 210.398 4.10464C210.198 4.10464 210.298 4.20464 210.298 4.40464Z" fill="#6B9CC6" fill-opacity="0.85"/>
</g>
<path d="M208.5 3.20508C208.6 3.20508 208.7 3.20508 208.8 3.30508H208.9L209 3.40508L209.1 3.50508L209.2 3.80508V3.90508C209.2 4.00508 209.2 4.10508 209.2 4.20508V152.705C209.2 154.305 208 156.405 206.6 157.205L6.6 273.005C6.3 273.105 6.2 273.205 6.1 273.205C6.1 273.205 5.99999 273.205 5.89999 273.205H5.8L5.7 273.105H5.6C5.5 273.005 5.4 272.805 5.3 272.605C5.1 272.305 5.1 271.905 5.1 271.405V123.605C5.1 122.005 6.3 119.905 7.7 119.105L207.7 3.50508C208 3.30508 208.3 3.20508 208.5 3.20508ZM208.5 2.20508C208.1 2.20508 207.6 2.30508 207.1 2.60508L7.1 118.305C5.4 119.305 4 121.705 4 123.605V271.305C4 271.905 4.1 272.405 4.3 272.905C4.4 273.205 4.59999 273.505 4.89999 273.705C4.99999 273.805 5 273.805 5.1 273.905C5.2 273.905 5.2 274.005 5.3 274.005C5.4 274.005 5.4 274.105 5.5 274.105C5.6 274.105 5.7 274.205 5.8 274.205C5.9 274.205 6.1 274.305 6.2 274.305C6.5 274.305 6.8 274.205 7.2 274.005L207.2 158.205C208.9 157.205 210.3 154.805 210.3 152.905V4.40508C210.3 4.30508 210.3 4.10508 210.3 4.00508C210.3 3.90508 210.3 3.80508 210.2 3.70508C210.2 3.70508 210.2 3.70508 210.2 3.60508C210.2 3.50508 210.2 3.40508 210.1 3.30508C210.1 3.20508 210 3.00508 209.9 2.90508C209.9 2.80508 209.8 2.80508 209.8 2.70508L209.7 2.60508C209.6 2.50508 209.6 2.50508 209.5 2.40508C209.4 2.30508 209.3 2.30508 209.2 2.20508C209 2.20508 208.8 2.20508 208.5 2.20508Z" fill="white" fill-opacity="0.36"/>
</g>
<path d="M209.202 2.30474C208.602 2.00474 207.902 2.10474 207.102 2.60474L7.10156 118.305C5.40156 119.305 4.00156 121.705 4.00156 123.605V133.705L0.101562 131.405V121.405C0.101562 119.405 1.50156 117.005 3.20156 116.105L203.202 0.404738C204.102 -0.095262 204.902 -0.0952628 205.402 0.204737C206.002 0.504737 208.602 2.00474 209.202 2.30474Z" fill="#66D5FC"/>
<path d="M210.3 4.30411C210.3 2.40411 208.9 1.60411 207.2 2.50411L7.1 118.304C5.4 119.304 4 121.704 4 123.604V133.704L210.3 14.5041V4.30411Z" fill="url(#paint0_linear_713_3244)"/>
<path d="M191.7 15.8046C190.7 16.4046 190 18.0046 190 19.5046C190 21.0046 190.8 21.7046 191.7 21.2046C192.7 20.6046 193.4 19.0046 193.4 17.5046C193.4 16.0046 192.6 15.3046 191.7 15.8046Z" fill="white"/>
<path d="M198.001 12.2043C197.001 12.8043 196.301 14.4043 196.301 15.9043C196.301 17.4043 197.101 18.1043 198.001 17.6043C199.001 17.0043 199.701 15.4043 199.701 13.9043C199.701 12.4043 198.901 11.6043 198.001 12.2043Z" fill="white"/>
<path d="M204.2 8.60466C203.2 9.20466 202.5 10.8047 202.5 12.3047C202.5 13.8047 203.3 14.5047 204.2 14.0047C205.2 13.4047 205.9 11.8047 205.9 10.3047C206 8.80466 205.2 8.00466 204.2 8.60466Z" fill="white"/>
<path opacity="0.9" d="M5.1 273.904C5 273.804 4.9 273.804 4.7 273.704C4.4 273.504 4.1 273.304 3.7 273.204C3.5 273.104 3.4 273.004 3.2 272.904C2.9 272.704 2.59999 272.604 2.39999 272.404C2.09999 272.204 1.9 272.104 1.7 272.004C1.5 271.904 1.4 271.804 1.3 271.804C1.1 271.704 0.899995 271.604 0.799995 271.404C0.599995 271.204 0.499994 271.004 0.399994 270.804C0.199994 270.304 0 269.804 0 269.204V131.404L3.89999 133.704V271.304C3.89999 271.904 4 272.404 4.2 272.904C4.3 273.204 4.5 273.504 4.8 273.704C4.9 273.704 5 273.804 5.1 273.904Z" fill="#6B9CC6"/>
<path d="M92.7008 170.5C92.7008 170.5 85.4008 165.8 84.5008 165.8C83.6008 165.8 63.8008 165.1 63.8008 165.1L72.0008 169.5V169.9L92.7008 170.5Z" fill="#D0EAF4"/>
<path d="M57.1992 184.7V171.7L92.6992 127.6V144.8L71.9992 169.5V169.9L92.6992 170.6V187.8L57.1992 184.7Z" fill="#FAFAFA"/>
<path d="M92.7 127.6L84.5 122.9L49 167L57.2 171.7L92.7 127.6Z" fill="#D0EAF4"/>
<path d="M49 167V179.9L57.2 184.7V171.7L49 167Z" fill="#D1D1D1"/>
<path d="M114.199 179.2L103.199 185.6L130.699 85.0004L141.299 78.9004L114.199 179.2Z" fill="#FAFAFA"/>
<path d="M141.198 78.7L132.998 74L122.398 80.1L130.598 84.9L141.198 78.7Z" fill="#CEE7F2"/>
<path d="M122.398 80.0996L130.598 84.8996L103.098 185.5L94.8984 180.8L122.398 80.0996Z" fill="#D0EAF4"/>
<path d="M143.5 131.701L151.7 136.401L172.4 111.501L164.2 106.801L143.5 131.701Z" fill="#D0EAF4"/>
<path d="M172.399 111.5L151.699 110.7V93.5L187.199 96.6V109.6L151.699 153.6V136.4L172.399 111.9V111.5Z" fill="#FAFAFA"/>
<path d="M143.5 88.8008L151.7 93.5008L187.2 96.7008L179 91.9008L143.5 88.8008Z" fill="#CDE6F1"/>
<path d="M151.7 93.5008V110.701L143.5 106.001V88.8008" fill="#D0EAF4"/>
<path d="M143.5 131.701L151.7 136.401V153.601L143.5 148.901V131.701Z" fill="#D1D1D1"/>
<defs>
<filter id="filter0_b_713_3244" x="-66.6016" y="-68.3203" width="347.5" height="413.025" filterUnits="userSpaceOnUse" color-interpolation-filters="sRGB">
<feFlood flood-opacity="0" result="BackgroundImageFix"/>
<feGaussianBlur in="BackgroundImageFix" stdDeviation="35.25"/>
<feComposite in2="SourceAlpha" operator="in" result="effect1_backgroundBlur_713_3244"/>
<feBlend mode="normal" in="SourceGraphic" in2="effect1_backgroundBlur_713_3244" result="shape"/>
</filter>
<linearGradient id="paint0_linear_713_3244" x1="80.5" y1="40.498" x2="217.487" y2="-144.614" gradientUnits="userSpaceOnUse">
<stop stop-color="#30B2E0"/>
<stop offset="1" stop-color="#1A617A"/>
</linearGradient>
</defs>
</svg>
