<svg width="440" height="239" viewBox="0 0 440 239" fill="none" xmlns="http://www.w3.org/2000/svg">
<path d="M336.473 183.083C340.733 180.427 346.343 181.619 348.988 185.873C351.633 190.128 350.428 195.741 346.167 198.396C341.906 201.052 336.297 199.861 333.652 195.606C331.007 191.352 332.212 185.739 336.473 183.083Z" fill="url(#paint0_radial_1326_15336)"/>
<path d="M364.02 156.364C372.541 151.052 383.76 153.435 389.05 161.944C394.34 170.453 391.929 181.678 383.408 186.99C374.887 192.301 363.668 189.919 358.378 181.41C353.088 172.901 355.498 161.675 364.02 156.364Z" fill="url(#paint1_radial_1326_15336)"/>
<path d="M385.446 178.787C386.293 177.912 387.576 177.46 388.449 178.304L408.821 188.698C410.117 189.105 410.58 191.248 409.733 192.123C409.323 193.421 407.179 193.888 406.306 193.044L385.934 182.65C384.638 182.243 384.175 180.1 385.022 179.225L385.446 178.787Z" fill="#8EF6F1"/>
<path d="M378.219 127.737C378.643 127.299 379.926 126.847 380.786 126.831C382.083 127.239 383.392 128.506 382.982 129.804L378.676 157.837C378.265 159.134 376.995 160.447 375.699 160.04C374.402 159.632 373.093 158.365 373.503 157.068L377.809 129.034C377.809 129.034 377.796 128.175 378.219 127.737Z" fill="#8EF6F1"/>
<path d="M340.426 188.611L340.85 188.174L358.316 177.113C359.599 176.66 361.319 176.63 361.769 177.912C362.218 179.195 362.244 180.915 360.961 181.368L343.495 192.428C342.212 192.881 340.492 192.911 340.042 191.629C340.029 190.769 340.003 189.049 340.426 188.611Z" fill="#8EF6F1"/>
<path d="M375.121 122.193C379.382 119.537 384.991 120.728 387.636 124.983C390.281 129.237 389.076 134.85 384.815 137.506C380.555 140.161 374.945 138.97 372.3 134.716C369.655 130.461 370.86 124.848 375.121 122.193Z" fill="url(#paint2_radial_1326_15336)"/>
<path d="M402.251 181.494C407.359 177.963 414.265 179.561 417.359 185.098C420.877 190.198 419.262 197.108 413.718 200.216C408.61 203.747 401.704 202.149 398.61 196.612C395.092 191.512 396.707 184.602 402.251 181.494Z" fill="url(#paint3_radial_1326_15336)"/>
<path d="M97.5232 85.7682C91.5431 83.7699 87.5564 77.7752 89.5498 71.7804C91.5431 65.7856 97.5232 61.7891 103.503 63.7874C109.483 65.7856 113.47 71.7804 111.477 77.7752C110.148 83.7699 103.503 87.1004 97.5232 85.7682Z" fill="url(#paint4_radial_1326_15336)"/>
<path d="M49.6835 82.4386C37.7234 79.1082 30.4145 66.4525 33.7367 54.463C37.059 42.4735 49.6835 35.1465 61.6436 38.477C73.6036 41.8074 80.9126 54.463 77.5903 66.4525C74.2681 78.4421 61.6435 85.769 49.6835 82.4386Z" fill="url(#paint5_radial_1326_15336)"/>
<path d="M52.347 43.8038C51.0181 43.8038 49.6892 43.1378 49.0247 41.1395L41.7158 13.1639C41.0514 11.1657 42.3803 9.83349 44.3736 9.16741C46.3669 8.50132 47.6958 9.8335 48.3603 11.8318L55.6692 39.8073C56.3337 41.8056 55.0048 43.1378 53.0114 43.8038C53.0114 43.8038 53.0114 43.8038 52.347 43.8038Z" fill="#8EF6F1"/>
<path d="M11.8118 93.096C10.4829 93.096 9.8185 92.4299 9.15405 91.7638C7.82515 90.4316 8.4896 88.4334 9.8185 87.1012L39.0542 67.7847C40.3831 66.4526 42.3765 67.1187 43.7054 68.4508C45.0343 69.783 44.3698 71.7812 43.0409 73.1134L13.8052 92.4299C13.1407 93.096 12.4763 93.096 11.8118 93.096Z" fill="#8EF6F1"/>
<path d="M98.8626 77.1105H98.1982L73.6136 70.4496C71.6203 69.7835 70.9558 67.7853 71.6203 66.4531C72.2847 64.4549 73.6136 63.7888 75.6069 64.4549L100.192 71.1157C102.185 71.7818 102.849 73.7801 102.185 75.1122C101.52 76.4444 100.192 77.1105 98.8626 77.1105Z" fill="#8EF6F1"/>
<path d="M8.49191 101.092C2.51187 99.0942 -1.47482 93.0994 0.518528 87.1046C2.51187 81.1099 8.49192 77.1133 14.472 79.1116C20.452 81.1099 24.4387 87.1046 22.4453 93.0994C21.1164 99.0941 14.472 103.091 8.49191 101.092Z" fill="url(#paint6_radial_1326_15336)"/>
<path d="M41.0441 26.49C33.7352 24.4917 29.7485 17.1648 31.7418 9.83784C33.7352 2.5109 41.0441 -1.48562 48.3531 0.512639C55.662 2.5109 59.6487 9.83783 57.6553 17.1648C56.3264 23.8256 48.3531 28.4882 41.0441 26.49Z" fill="url(#paint7_radial_1326_15336)"/>
<path d="M255.952 32.2693C255.952 40.4494 249.424 47.5387 240.72 47.5387C232.56 47.5387 225.488 40.9947 225.488 32.2693C225.488 24.0893 232.016 17 240.72 17C249.424 17 255.952 23.544 255.952 32.2693Z" fill="url(#paint8_radial_1326_15336)"/>
<path d="M212.983 188.783C212.983 196.963 206.455 204.052 197.751 204.052C189.591 204.052 182.52 197.508 182.52 188.783C182.52 180.603 189.047 173.514 197.751 173.514C205.911 173.514 212.983 180.603 212.983 188.783Z" fill="url(#paint9_radial_1326_15336)"/>
<path d="M269.007 93.8957C269.007 110.256 255.407 123.889 239.088 123.889C222.768 123.889 209.168 110.256 209.168 93.8957C209.168 77.5357 222.768 63.9023 239.088 63.9023C255.407 63.9023 269.007 76.9904 269.007 93.8957Z" fill="#4DB1E0"/>
<path d="M165.094 140.246C163.462 140.246 162.374 139.701 161.286 138.065C160.198 135.884 160.742 133.157 162.918 132.066L214.054 101.528C216.23 100.437 218.95 100.982 220.038 103.164C221.126 105.345 220.582 108.072 218.406 109.162L167.27 139.701C166.182 139.701 165.638 140.246 165.094 140.246Z" fill="white"/>
<path d="M190.666 186.605C189.578 186.605 188.49 186.06 187.402 185.514L159.115 157.702C157.483 156.066 157.483 153.34 159.115 151.704C160.747 150.068 163.467 150.068 165.099 151.704L193.386 179.516C195.018 181.152 195.018 183.878 193.386 185.514C193.386 186.06 191.754 186.605 190.666 186.605Z" fill="white"/>
<path d="M292.39 143.524C291.302 143.524 290.214 142.979 289.67 142.433L254.311 112.44C252.679 110.804 252.135 108.077 253.767 106.441C255.399 104.805 258.119 104.26 259.751 105.896L295.11 135.889C296.742 137.525 297.286 140.252 295.654 141.888C295.11 142.979 294.022 143.524 292.39 143.524Z" fill="white"/>
<path d="M241.254 72.0868C239.078 72.0868 236.902 69.9055 236.902 67.7241V33.9135C236.902 31.7321 239.078 29.5508 241.254 29.5508C243.43 29.5508 245.606 31.7321 245.606 33.9135V67.7241C245.606 70.4508 243.43 72.0868 241.254 72.0868Z" fill="white"/>
<path d="M307.628 139.158C307.628 147.338 301.1 154.427 292.396 154.427C284.236 154.427 277.164 147.883 277.164 139.158C277.164 130.978 283.692 123.889 292.396 123.889C301.1 123.889 307.628 130.433 307.628 139.158Z" fill="url(#paint10_radial_1326_15336)"/>
<path d="M176.531 145.702C176.531 157.699 166.739 167.515 154.771 167.515C142.804 167.515 133.012 157.699 133.012 145.702C133.012 133.705 142.804 123.889 154.771 123.889C166.739 123.889 176.531 133.705 176.531 145.702Z" fill="url(#paint11_radial_1326_15336)"/>
<path d="M154.766 132.615C152.59 132.615 150.414 130.433 150.414 128.252V93.8959C150.414 91.7145 152.59 89.5332 154.766 89.5332C156.942 89.5332 159.118 91.7145 159.118 93.8959V128.252C159.118 130.433 156.942 132.615 154.766 132.615Z" fill="white"/>
<path d="M169.456 90.0779C169.456 98.2579 162.928 105.347 154.224 105.347C146.064 105.347 138.992 98.8033 138.992 90.0779C138.992 81.8979 145.52 74.8086 154.224 74.8086C162.928 74.8086 169.456 81.3526 169.456 90.0779Z" fill="url(#paint12_radial_1326_15336)"/>
<path d="M122.121 179.516C121.033 179.516 119.945 178.97 118.857 177.88C117.225 176.244 117.225 173.517 118.857 171.881L140.073 151.704C141.705 150.068 144.425 150.068 146.056 151.704C147.688 153.34 147.688 156.066 146.056 157.702L124.841 177.88C124.297 179.516 123.209 179.516 122.121 179.516Z" fill="white"/>
<path d="M132.464 180.605C132.464 188.785 125.936 195.875 117.232 195.875C109.072 195.875 102 189.331 102 180.605C102 172.425 108.528 165.336 117.232 165.336C125.936 165.336 132.464 171.88 132.464 180.605Z" fill="url(#paint13_radial_1326_15336)"/>
<defs>
<radialGradient id="paint0_radial_1326_15336" cx="0" cy="0" r="1" gradientUnits="userSpaceOnUse" gradientTransform="translate(343.075 195.449) rotate(-121.99) scale(12.0683 12.0946)">
<stop stop-color="#BEEDEF"/>
<stop offset="0.0190641" stop-color="#B8EDEF"/>
<stop offset="0.1472" stop-color="#95EEEC"/>
<stop offset="0.2832" stop-color="#78EFEA"/>
<stop offset="0.4273" stop-color="#61EFE9"/>
<stop offset="0.5833" stop-color="#51F0E8"/>
<stop offset="0.7596" stop-color="#48F0E7"/>
<stop offset="1" stop-color="#45F0E7"/>
</radialGradient>
<radialGradient id="paint1_radial_1326_15336" cx="0" cy="0" r="1" gradientUnits="userSpaceOnUse" gradientTransform="translate(376.809 180.851) rotate(-121.99) scale(23.8256 23.8775)">
<stop stop-color="#BEEDEF"/>
<stop offset="0.0190641" stop-color="#B8EDEF"/>
<stop offset="0.1472" stop-color="#95EEEC"/>
<stop offset="0.2832" stop-color="#78EFEA"/>
<stop offset="0.4273" stop-color="#61EFE9"/>
<stop offset="0.5833" stop-color="#51F0E8"/>
<stop offset="0.7596" stop-color="#48F0E7"/>
<stop offset="1" stop-color="#45F0E7"/>
</radialGradient>
<radialGradient id="paint2_radial_1326_15336" cx="0" cy="0" r="1" gradientUnits="userSpaceOnUse" gradientTransform="translate(381.582 134.308) rotate(-121.99) scale(12.0683 12.0946)">
<stop stop-color="#BEEDEF"/>
<stop offset="0.0190641" stop-color="#B8EDEF"/>
<stop offset="0.1472" stop-color="#95EEEC"/>
<stop offset="0.2832" stop-color="#78EFEA"/>
<stop offset="0.4273" stop-color="#61EFE9"/>
<stop offset="0.5833" stop-color="#51F0E8"/>
<stop offset="0.7596" stop-color="#48F0E7"/>
<stop offset="1" stop-color="#45F0E7"/>
</radialGradient>
<radialGradient id="paint3_radial_1326_15336" cx="0" cy="0" r="1" gradientUnits="userSpaceOnUse" gradientTransform="translate(409.479 196.121) rotate(-121.99) scale(14.2462 14.2772)">
<stop stop-color="#BEEDEF"/>
<stop offset="0.0190641" stop-color="#B8EDEF"/>
<stop offset="0.1472" stop-color="#95EEEC"/>
<stop offset="0.2832" stop-color="#78EFEA"/>
<stop offset="0.4273" stop-color="#61EFE9"/>
<stop offset="0.5833" stop-color="#51F0E8"/>
<stop offset="0.7596" stop-color="#48F0E7"/>
<stop offset="1" stop-color="#45F0E7"/>
</radialGradient>
<radialGradient id="paint4_radial_1326_15336" cx="0" cy="0" r="1" gradientUnits="userSpaceOnUse" gradientTransform="translate(103.433 69.1688) rotate(105.801) scale(15.1034 15.0718)">
<stop stop-color="#BEEDEF"/>
<stop offset="0.0190641" stop-color="#B8EDEF"/>
<stop offset="0.1472" stop-color="#95EEEC"/>
<stop offset="0.2832" stop-color="#78EFEA"/>
<stop offset="0.4273" stop-color="#61EFE9"/>
<stop offset="0.5833" stop-color="#51F0E8"/>
<stop offset="0.7596" stop-color="#48F0E7"/>
<stop offset="1" stop-color="#45F0E7"/>
</radialGradient>
<radialGradient id="paint5_radial_1326_15336" cx="0" cy="0" r="1" gradientUnits="userSpaceOnUse" gradientTransform="translate(61.7492 50.118) rotate(105.801) scale(29.8166 29.7543)">
<stop stop-color="#BEEDEF"/>
<stop offset="0.0190641" stop-color="#B8EDEF"/>
<stop offset="0.1472" stop-color="#95EEEC"/>
<stop offset="0.2832" stop-color="#78EFEA"/>
<stop offset="0.4273" stop-color="#61EFE9"/>
<stop offset="0.5833" stop-color="#51F0E8"/>
<stop offset="0.7596" stop-color="#48F0E7"/>
<stop offset="1" stop-color="#45F0E7"/>
</radialGradient>
<radialGradient id="paint6_radial_1326_15336" cx="0" cy="0" r="1" gradientUnits="userSpaceOnUse" gradientTransform="translate(14.771 84.7958) rotate(105.801) scale(15.1028 15.0712)">
<stop stop-color="#BEEDEF"/>
<stop offset="0.0190641" stop-color="#B8EDEF"/>
<stop offset="0.1472" stop-color="#95EEEC"/>
<stop offset="0.2832" stop-color="#78EFEA"/>
<stop offset="0.4273" stop-color="#61EFE9"/>
<stop offset="0.5833" stop-color="#51F0E8"/>
<stop offset="0.7596" stop-color="#48F0E7"/>
<stop offset="1" stop-color="#45F0E7"/>
</radialGradient>
<radialGradient id="paint7_radial_1326_15336" cx="0" cy="0" r="1" gradientUnits="userSpaceOnUse" gradientTransform="translate(48.5563 6.96948) rotate(105.801) scale(17.8278 17.7905)">
<stop stop-color="#BEEDEF"/>
<stop offset="0.0190641" stop-color="#B8EDEF"/>
<stop offset="0.1472" stop-color="#95EEEC"/>
<stop offset="0.2832" stop-color="#78EFEA"/>
<stop offset="0.4273" stop-color="#61EFE9"/>
<stop offset="0.5833" stop-color="#51F0E8"/>
<stop offset="0.7596" stop-color="#48F0E7"/>
<stop offset="1" stop-color="#45F0E7"/>
</radialGradient>
<radialGradient id="paint8_radial_1326_15336" cx="0" cy="0" r="1" gradientUnits="userSpaceOnUse" gradientTransform="translate(233.444 30.2871) scale(19.8204 19.8692)">
<stop stop-color="#BEEDEF"/>
<stop offset="0.0190641" stop-color="#B8EDEF"/>
<stop offset="0.1472" stop-color="#95EEEC"/>
<stop offset="0.2832" stop-color="#78EFEA"/>
<stop offset="0.4273" stop-color="#61EFE9"/>
<stop offset="0.5833" stop-color="#51F0E8"/>
<stop offset="0.7596" stop-color="#48F0E7"/>
<stop offset="1" stop-color="#45F0E7"/>
</radialGradient>
<radialGradient id="paint9_radial_1326_15336" cx="0" cy="0" r="1" gradientUnits="userSpaceOnUse" gradientTransform="translate(190.075 186.951) scale(19.8199 19.8687)">
<stop stop-color="#BEEDEF"/>
<stop offset="0.0190641" stop-color="#B8EDEF"/>
<stop offset="0.1472" stop-color="#95EEEC"/>
<stop offset="0.2832" stop-color="#78EFEA"/>
<stop offset="0.4273" stop-color="#61EFE9"/>
<stop offset="0.5833" stop-color="#51F0E8"/>
<stop offset="0.7596" stop-color="#48F0E7"/>
<stop offset="1" stop-color="#45F0E7"/>
</radialGradient>
<radialGradient id="paint10_radial_1326_15336" cx="0" cy="0" r="1" gradientUnits="userSpaceOnUse" gradientTransform="translate(284.987 137.157) scale(19.8204 19.8692)">
<stop stop-color="#BEEDEF"/>
<stop offset="0.0190641" stop-color="#B8EDEF"/>
<stop offset="0.1472" stop-color="#95EEEC"/>
<stop offset="0.2832" stop-color="#78EFEA"/>
<stop offset="0.4273" stop-color="#61EFE9"/>
<stop offset="0.5833" stop-color="#51F0E8"/>
<stop offset="0.7596" stop-color="#48F0E7"/>
<stop offset="1" stop-color="#45F0E7"/>
</radialGradient>
<radialGradient id="paint11_radial_1326_15336" cx="0" cy="0" r="1" gradientUnits="userSpaceOnUse" gradientTransform="translate(143.611 143.011) scale(28.551 28.6213)">
<stop stop-color="#BEEDEF"/>
<stop offset="0.0190641" stop-color="#B8EDEF"/>
<stop offset="0.1472" stop-color="#95EEEC"/>
<stop offset="0.2832" stop-color="#78EFEA"/>
<stop offset="0.4273" stop-color="#61EFE9"/>
<stop offset="0.5833" stop-color="#51F0E8"/>
<stop offset="0.7596" stop-color="#48F0E7"/>
<stop offset="1" stop-color="#45F0E7"/>
</radialGradient>
<radialGradient id="paint12_radial_1326_15336" cx="0" cy="0" r="1" gradientUnits="userSpaceOnUse" gradientTransform="translate(146.942 87.9899) scale(19.8199 19.8687)">
<stop stop-color="#BEEDEF"/>
<stop offset="0.0190641" stop-color="#B8EDEF"/>
<stop offset="0.1472" stop-color="#95EEEC"/>
<stop offset="0.2832" stop-color="#78EFEA"/>
<stop offset="0.4273" stop-color="#61EFE9"/>
<stop offset="0.5833" stop-color="#51F0E8"/>
<stop offset="0.7596" stop-color="#48F0E7"/>
<stop offset="1" stop-color="#45F0E7"/>
</radialGradient>
<radialGradient id="paint13_radial_1326_15336" cx="0" cy="0" r="1" gradientUnits="userSpaceOnUse" gradientTransform="translate(109.887 178.614) scale(19.8204 19.8692)">
<stop stop-color="#BEEDEF"/>
<stop offset="0.0190641" stop-color="#B8EDEF"/>
<stop offset="0.1472" stop-color="#95EEEC"/>
<stop offset="0.2832" stop-color="#78EFEA"/>
<stop offset="0.4273" stop-color="#61EFE9"/>
<stop offset="0.5833" stop-color="#51F0E8"/>
<stop offset="0.7596" stop-color="#48F0E7"/>
<stop offset="1" stop-color="#45F0E7"/>
</radialGradient>
</defs>
</svg>
